<?xml version="1.0" encoding="UTF-8"?>
<!DOCTYPE svg PUBLIC "-//W3C//DTD SVG 1.1//EN" "http://www.w3.org/Graphics/SVG/1.1/DTD/svg11.dtd">
<!-- Creator: CorelDRAW X8 -->
<svg xmlns="http://www.w3.org/2000/svg" xml:space="preserve" width="90.2268mm" height="24.0918mm" version="1.1" style="shape-rendering:geometricPrecision; text-rendering:geometricPrecision; image-rendering:optimizeQuality; fill-rule:evenodd; clip-rule:evenodd"
viewBox="0 0 1236097 330055"
 xmlns:xlink="http://www.w3.org/1999/xlink">
 <defs>
  <style type="text/css">
   <![CDATA[
    .fil1 {fill:white}
    .fil0 {fill:white;fill-rule:nonzero}
   ]]>
  </style>
 </defs>
 <g id="Слой_x0020_1">
  <metadata id="CorelCorpID_0Corel-Layer"/>
  <g id="_2024020724480">
   <g>
    <path class="fil0" d="M814689 106474l26246 0c14012,0 23934,-2240 29731,-6685 5797,-4446 8678,-11880 8678,-22335 0,-9851 -3024,-16928 -9105,-21160 -6081,-4232 -16252,-6366 -30549,-6366l-25001 0 0 56546 0 0zm-814689 83433l0 -149368 28166 0 0 63232 56688 -63232 34994 0 0 925 -66361 71483 71981 75288 0 1672 -34782 0 -62520 -66149 0 66149 -28166 0 0 0zm108866 -50430c-1884,-7398 -2844,-15115 -2844,-23116 0,-8002 996,-15754 2951,-23331 1992,-7539 5051,-14687 9212,-21373 4161,-6721 9210,-12624 15149,-17674 5905,-5015 13125,-9034 21624,-11985 8500,-2952 17746,-4445 27774,-4445 10030,0 19276,1493 27705,4445 8464,2951 15684,6934 21658,11985 5939,5050 11025,10917 15185,17603 4161,6687 7185,13799 9141,21303 1884,7290 2808,14795 2808,22441 0,285 0,568 0,853 -71,7896 -1066,15506 -3022,22868 -1921,7325 -4943,14332 -9034,20946 -4089,6616 -9069,12376 -14865,17319 -5832,4909 -12981,8820 -21480,11701 -8500,2880 -17853,4304 -28096,4304 -10242,0 -19595,-1424 -28094,-4268 -8500,-2845 -15684,-6687 -21623,-11523 -5939,-4836 -10954,-10563 -15079,-17106 -4126,-6544 -7149,-13515 -9070,-20947zm24682 -22583c142,5157 782,10064 1921,14759 1174,4695 2988,9282 5547,13728 2526,4445 5619,8322 9283,11594 3662,3271 8285,5867 13834,7824 5583,1955 11771,2916 18599,2916 6828,0 13016,-996 18600,-2988 5549,-1956 10171,-4623 13834,-7930 3628,-3308 6722,-7185 9211,-11630 2525,-4444 4340,-9033 5513,-13763 1138,-4729 1742,-9672 1814,-14830 0,-355 0,-640 0,-924 -72,-4873 -605,-9673 -1565,-14404 -1103,-5014 -2917,-9816 -5442,-14402 -2489,-4588 -5618,-8642 -9353,-12163 -3698,-3521 -8356,-6295 -13976,-8394 -5584,-2098 -11807,-3129 -18636,-3129 -6828,0 -13051,1067 -18706,3165 -5620,2134 -10313,4944 -14083,8465 -3769,3521 -6935,7610 -9496,12269 -2596,4658 -4445,9496 -5547,14510 -960,4445 -1423,8962 -1352,13549 0,570 0,1139 0,1778l0 0zm119430 73013l0 -149368c7753,0 19488,-35 35172,-107 15683,-71 27385,-106 35173,-106 8784,0 16715,1494 23827,4516 7077,3024 12804,7007 17177,11950 4338,4979 7718,10598 10065,16893 2418,6400 3628,12945 3628,19666 -72,6509 -1281,12838 -3628,19026 -2382,6296 -5727,11915 -10101,16892 -4373,4945 -10099,8927 -17177,11951 -7113,3022 -15078,4517 -23862,4517l-42108 0 0 44170 -28166 0 0 0zm28167 -69777l42178 0c4374,0 8286,-782 11806,-2311 3521,-1529 6331,-3521 8500,-6010 2134,-2454 3770,-5299 4943,-8464 1138,-3166 1708,-6437 1708,-9780 0,-3343 -605,-6615 -1778,-9781 -1174,-3164 -2846,-6010 -4980,-8463 -2169,-2490 -4979,-4482 -8499,-6011 -3486,-1528 -7397,-2312 -11701,-2312l-42178 0 0 53132 1 0zm85181 19347c-1886,-7398 -2845,-15115 -2845,-23116 0,-8002 995,-15754 2951,-23331 1992,-7539 5050,-14687 9212,-21373 4161,-6721 9211,-12624 15150,-17674 5903,-5015 13123,-9034 21622,-11985 8501,-2952 17747,-4445 27775,-4445 10029,0 19276,1493 27704,4445 8465,2951 15684,6934 21658,11985 5941,5050 11026,10917 15187,17603 4160,6687 7184,13799 9139,21303 1885,7290 2810,14795 2810,22441 0,285 0,568 0,853 -72,7896 -1068,15506 -3023,22868 -1920,7325 -4944,14332 -9033,20946 -4090,6616 -9070,12376 -14866,17319 -5832,4909 -12981,8820 -21480,11701 -8499,2880 -17852,4304 -28096,4304 -10242,0 -19595,-1424 -28094,-4268 -8501,-2845 -15684,-6687 -21623,-11523 -5940,-4836 -10954,-10563 -15079,-17106 -4125,-6544 -7149,-13515 -9069,-20947zm24681 -22583c143,5157 782,10064 1921,14759 1174,4695 2987,9282 5548,13728 2525,4445 5619,8322 9282,11594 3662,3271 8286,5867 13834,7824 5583,1955 11771,2916 18599,2916 6828,0 13016,-996 18601,-2988 5547,-1956 10170,-4623 13834,-7930 3627,-3308 6721,-7185 9210,-11630 2525,-4444 4339,-9033 5513,-13763 1138,-4729 1743,-9672 1814,-14830 0,-355 0,-640 0,-924 -71,-4873 -606,-9673 -1565,-14404 -1103,-5014 -2916,-9816 -5441,-14402 -2490,-4588 -5619,-8642 -9353,-12163 -3699,-3521 -8359,-6295 -13977,-8394 -5583,-2098 -11808,-3129 -18636,-3129 -6828,0 -13052,1067 -18706,3165 -5619,2134 -10313,4944 -14083,8465 -3769,3521 -6935,7610 -9496,12269 -2596,4658 -4445,9496 -5548,14510 -959,4445 -1422,8962 -1351,13549 0,570 0,1139 0,1778l0 0zm119643 73226l0 -149367 28167 0 0 62947 73402 0 0 -62947 28167 0 0 149367 -28167 0 0 -60174 -73402 0 0 60174 -28167 0zm113527 -213l67002 -149368 30726 0 67002 149368 -30726 0 -12626 -28166 -78026 0 -12803 28166 -30549 0zm54590 -54412l55550 0 -27811 -63624 -27739 63624 0 0zm119278 54412l0 -154275 44846 0c18421,0 32007,3414 40792,10278 8783,6828 13158,17426 13158,31829 0,13763 -4304,24396 -12875,31935 -8570,7541 -20626,11310 -36167,11310l-33110 0 0 68923 -16644 0 0 0zm138062 -139979l-26460 0 0 55693 25820 0c15932,0 27383,-2205 34461,-6579 7041,-4376 10562,-11416 10562,-21161 0,-10349 -3130,-17604 -9424,-21765 -6295,-4125 -17925,-6188 -34959,-6188zm-43317 139979l0 -154275 43317 0c21587,0 37270,3236 47015,9743 9779,6474 14652,16823 14652,30977 0,10100 -2667,18421 -7966,25001 -5300,6614 -13302,11452 -24005,14510l36239 74044 -18743 0 -33962 -69990 -39690 0 0 69990 -16857 0zm106872 0l0 -154275 17285 0 0 154275 -17285 0zm26072 0l0 -154275 24291 0 70877 120311 0 -120311 16004 0 0 154275 -13230 0 -81938 -136565 0 136565 -16004 0 0 0zm147843 0l0 -139552 -45024 0 0 -14723 107544 0 0 14723 -45024 0 0 139552 -17496 0z"/>
    <circle class="fil1" cx="1007402" cy="12734" r="12734"/>
   </g>
   <path class="fil0" d="M76767 329514l0 -48446 14356 0c3068,0 5728,350 7996,1061 2278,698 4149,1703 5637,3022 1489,1308 2606,2886 3328,4736 733,1849 1093,3902 1093,6169 0,2244 -394,4296 -1173,6168 -789,1872 -1950,3485 -3483,4826 -1535,1354 -3430,2402 -5663,3147 -2244,744 -4837,1117 -7780,1117l-7814 0 0 18200 -6497 0zm6497 -23343l7836 0c1884,0 3542,-248 4973,-744 1444,-496 2651,-1184 3643,-2087 981,-890 1725,-1951 2222,-3179 496,-1242 744,-2606 744,-4105 0,-3080 -959,-5492 -2876,-7229 -1905,-1749 -4815,-2616 -8706,-2616l-7836 0 0 19960z"/>
   <polygon id="1" class="fil0" points="117375,329514 117375,281068 147214,281068 147214,286414 123872,286414 123872,302450 142749,302450 142749,307591 123872,307591 123872,324168 147248,324168 147214,329514 "/>
   <path id="2" class="fil0" d="M156427 329514l0 -48446 6496 0 0 21382 5051 0c1016,0 1873,-158 2583,-485 700,-317 1410,-948 2108,-1873l12688 -17163c338,-552 744,-1003 1229,-1341 485,-350 1048,-520 1713,-520l5515 0 -14637 19994c-565,812 -1207,1489 -1929,2008 -710,518 -1488,913 -2322,1206 1183,305 2187,812 2998,1500 813,688 1602,1636 2346,2841l14841 20897 -5887 0c-666,0 -1218,-181 -1679,-530 -464,-350 -892,-857 -1298,-1522l-12845 -17761c-597,-879 -1229,-1500 -1905,-1849 -665,-351 -1590,-531 -2751,-531l-5819 0 0 22193 -6496 0z"/>
   <path id="3" class="fil0" d="M195918 328611l0 -4239 2380 0c913,0 1793,-170 2662,-508 867,-338 1713,-1037 2524,-2086 824,-1059 1591,-2549 2313,-4489 733,-1939 1308,-4533 1725,-7792 418,-3247 925,-7194 1522,-11818 599,-4634 1015,-10172 1252,-16611l28689 0 0 48424 -6496 0 0 -43281 -16103 0c-113,6247 -552,11660 -1309,16215 -744,4557 -1398,8470 -1940,11740 -541,3270 -1307,5921 -2311,7950 -992,2030 -2075,3621 -3248,4781 -1160,1162 -2402,1951 -3710,2380 -1308,429 -2695,642 -4150,642 -1207,0 -2142,-101 -2808,-315 -654,-215 -992,-552 -992,-993z"/>
   <path id="4" class="fil0" d="M245357 329514l19384 -48446 6643 0 19362 48446 -5053 0c-597,0 -1071,-147 -1442,-451 -362,-293 -632,-666 -802,-1105l-4533 -11706 -21764 0 -4533 11706c-125,394 -383,756 -778,1071 -384,327 -858,485 -1433,485l-5051 0zm13645 -17998l18099 0 -7635 -19712c-236,-598 -485,-1275 -721,-2029 -249,-768 -485,-1580 -722,-2470 -226,890 -463,1713 -700,2503 -235,778 -485,1454 -720,2030l-7601 19678z"/>
   <path id="5" class="fil0" d="M297038 329514l0 -48446 4861 0c597,0 1049,57 1354,170 304,102 608,417 890,925l16758 29849c270,552 530,1117 778,1703 259,576 507,1173 744,1759 226,-609 463,-1218 711,-1815 259,-586 529,-1151 811,-1681l16464 -29815c259,-530 565,-847 891,-948 327,-101 789,-147 1388,-147l4826 0 0 48446 -5751 0 0 -35601c0,-485 11,-993 33,-1534 23,-541 57,-1093 103,-1669l-16635 30313c-530,1015 -1307,1522 -2345,1522l-958 0c-1060,0 -1849,-507 -2380,-1522l-16994 -30414c68,597 124,1173 157,1737 35,563 46,1082 46,1567l0 35601 -5752 0z"/>
   <path id="6" class="fil0" d="M353818 329514l19383 -48446 6644 0 19362 48446 -5053 0c-597,0 -1071,-147 -1443,-451 -361,-293 -631,-666 -801,-1105l-4533 -11706 -21764 0 -4533 11706c-125,394 -384,756 -778,1071 -384,327 -858,485 -1433,485l-5051 0zm13645 -17998l18099 0 -7635 -19712c-236,-598 -485,-1275 -721,-2029 -249,-768 -485,-1580 -722,-2470 -226,890 -463,1713 -700,2503 -236,778 -485,1454 -721,2030l-7600 19678z"/>
   <polygon id="7" class="fil0" points="422809,329514 422809,281068 460090,281068 460090,329514 453595,329514 453595,286211 429305,286211 429305,329514 "/>
   <path id="8" class="fil0" d="M472563 329514l0 -48446 14356 0c3067,0 5728,350 7995,1061 2278,698 4150,1703 5638,3022 1489,1308 2605,2886 3327,4736 733,1849 1094,3902 1094,6169 0,2244 -395,4296 -1173,6168 -789,1872 -1951,3485 -3484,4826 -1534,1354 -3429,2402 -5662,3147 -2244,744 -4838,1117 -7780,1117l-7815 0 0 18200 -6496 0zm6496 -23343l7837 0c1883,0 3541,-248 4973,-744 1444,-496 2651,-1184 3642,-2087 981,-890 1725,-1951 2222,-3179 496,-1242 744,-2606 744,-4105 0,-3080 -959,-5492 -2875,-7229 -1906,-1749 -4816,-2616 -8706,-2616l-7837 0 0 19960z"/>
   <path id="9" class="fil0" d="M510194 305302c0,-3619 575,-6957 1737,-9991 1149,-3033 2774,-5650 4871,-7837 2087,-2187 4601,-3890 7533,-5119 2931,-1218 6180,-1828 9743,-1828 3563,0 6812,610 9743,1828 2943,1229 5458,2932 7556,5119 2108,2187 3721,4804 4871,7837 1139,3034 1714,6372 1714,9991 0,3632 -575,6958 -1714,9980 -1150,3034 -2763,5639 -4871,7827 -2098,2187 -4613,3879 -7556,5086 -2931,1194 -6180,1793 -9743,1793 -3563,0 -6812,-599 -9743,-1793 -2932,-1207 -5446,-2899 -7533,-5086 -2097,-2188 -3722,-4793 -4871,-7827 -1162,-3022 -1737,-6348 -1737,-9980zm6699 0c0,2977 405,5628 1218,7984 823,2357 1972,4342 3473,5965 1500,1636 3304,2876 5423,3744 2109,869 4467,1309 7071,1309 2628,0 4996,-440 7105,-1309 2119,-868 3923,-2108 5423,-3744 1501,-1623 2651,-3608 3451,-5965 801,-2356 1207,-5007 1207,-7984 0,-2966 -406,-5626 -1207,-7995 -800,-2357 -1950,-4364 -3451,-5999 -1500,-1635 -3304,-2898 -5423,-3777 -2109,-880 -4477,-1320 -7105,-1320 -2604,0 -4962,440 -7071,1320 -2119,879 -3923,2142 -5423,3777 -1501,1635 -2650,3642 -3473,5999 -813,2369 -1218,5029 -1218,7995z"/>
   <path id="10" class="fil0" d="M563804 304084c0,-2649 508,-5141 1522,-7487 1015,-2345 2425,-4410 4252,-6169 1838,-1770 4015,-3180 6563,-4229 2537,-1059 5356,-1613 8435,-1680l0 -5615 6089 0 0 5615c3091,67 5909,621 8470,1680 2559,1049 4747,2459 6563,4229 1815,1759 3236,3824 4240,6169 1003,2346 1499,4838 1499,7487 0,2673 -496,5165 -1499,7510 -1004,2347 -2425,4410 -4240,6180 -1816,1772 -4004,3180 -6563,4241 -2561,1049 -5379,1612 -8470,1681l0 5818 -6089 0 0 -5818c-3101,-69 -5931,-632 -8491,-1681 -2549,-1061 -4737,-2469 -6552,-4241 -1816,-1770 -3226,-3833 -4229,-6180 -1004,-2345 -1500,-4837 -1500,-7510zm6495 0c0,1996 338,3857 1015,5605 677,1737 1636,3270 2887,4578 1252,1309 2752,2346 4500,3113 1748,756 3710,1151 5875,1173l0 -28892c-2143,45 -4105,452 -5864,1207 -1759,767 -3259,1793 -4511,3102 -1251,1296 -2210,2819 -2887,4555 -677,1748 -1015,3597 -1015,5559zm20366 14469c2121,-22 4072,-417 5831,-1173 1759,-767 3270,-1804 4533,-3113 1251,-1308 2221,-2841 2898,-4578 677,-1748 1015,-3609 1015,-5605 0,-1962 -338,-3800 -1015,-5536 -677,-1737 -1647,-3259 -2898,-4568 -1263,-1308 -2774,-2345 -4533,-3112 -1759,-755 -3710,-1162 -5831,-1207l0 28892z"/>
   <polygon id="11" class="fil0" points="620245,329514 620245,281068 650083,281068 650083,286414 626741,286414 626741,302450 645618,302450 645618,307591 626741,307591 626741,324168 650117,324168 650083,329514 "/>
   <path id="12" class="fil0" d="M655259 305302c0,-3641 575,-6991 1737,-10047 1150,-3045 2763,-5650 4848,-7826 2076,-2188 4579,-3880 7478,-5087 2908,-1205 6122,-1815 9653,-1815 3451,0 6495,552 9134,1669 2627,1116 4962,2617 6992,4511l-2188 2954c-136,215 -305,396 -530,530 -215,147 -508,215 -858,215 -394,0 -890,-215 -1487,-655 -587,-427 -1365,-912 -2313,-1442 -947,-530 -2130,-1015 -3552,-1444 -1421,-440 -3169,-654 -5232,-654 -2516,0 -4805,440 -6879,1309 -2063,867 -3846,2119 -5346,3766 -1499,1657 -2660,3664 -3507,6021 -834,2369 -1251,5029 -1251,7995 0,3022 440,5706 1307,8075 869,2356 2054,4363 3553,5999 1500,1636 3259,2876 5300,3721 2041,847 4240,1275 6620,1275 1455,0 2763,-79 3913,-249 1161,-158 2233,-416 3214,-778 980,-350 1894,-800 2739,-1341 847,-542 1692,-1196 2527,-1951 394,-328 778,-485 1162,-485 349,0 653,135 924,418l2605 2740c-1984,2300 -4387,4093 -7218,5389 -2830,1298 -6247,1940 -10261,1940 -3473,0 -6641,-597 -9484,-1804 -2842,-1195 -5255,-2887 -7262,-5064 -2008,-2188 -3564,-4792 -4669,-7837 -1116,-3034 -1669,-6382 -1669,-10048z"/>
   <path id="13" class="fil0" d="M699499 305302c0,-3641 575,-6991 1737,-10047 1149,-3045 2763,-5650 4848,-7826 2076,-2188 4579,-3880 7478,-5087 2908,-1205 6122,-1815 9653,-1815 3451,0 6495,552 9133,1669 2628,1116 4962,2617 6993,4511l-2188 2954c-136,215 -306,396 -530,530 -215,147 -509,215 -858,215 -395,0 -890,-215 -1488,-655 -586,-427 -1364,-912 -2312,-1442 -947,-530 -2131,-1015 -3553,-1444 -1420,-440 -3169,-654 -5232,-654 -2515,0 -4804,440 -6878,1309 -2064,867 -3846,2119 -5346,3766 -1499,1657 -2661,3664 -3507,6021 -835,2369 -1251,5029 -1251,7995 0,3022 440,5706 1307,8075 868,2356 2053,4363 3552,5999 1500,1636 3259,2876 5301,3721 2041,847 4240,1275 6620,1275 1454,0 2763,-79 3912,-249 1162,-158 2233,-416 3214,-778 981,-350 1895,-800 2740,-1341 847,-542 1692,-1196 2526,-1951 395,-328 779,-485 1162,-485 350,0 654,135 925,418l2604 2740c-1983,2300 -4386,4093 -7217,5389 -2830,1298 -6247,1940 -10261,1940 -3473,0 -6642,-597 -9484,-1804 -2842,-1195 -5256,-2887 -7263,-5064 -2007,-2188 -3563,-4792 -4669,-7837 -1115,-3034 -1668,-6382 -1668,-10048z"/>
   <path id="14" class="fil0" d="M747673 329514l0 -48446 6496 0 0 34440c0,970 -23,1984 -68,3023 -45,1048 -136,2175 -293,3382 372,-1026 789,-1985 1229,-2852 439,-869 879,-1658 1319,-2358l22757 -33582c305,-531 711,-1003 1207,-1421 496,-417 1071,-632 1737,-632l4859 0 0 48446 -6495 0 0 -34406c0,-947 23,-1951 67,-3011 46,-1059 136,-2165 295,-3338 -373,1016 -778,1962 -1218,2831 -452,868 -892,1636 -1332,2289l-22733 33583c-304,530 -711,1002 -1207,1420 -485,418 -1072,632 -1725,632l-4895 0z"/>
   <path id="15" class="fil0" d="M796332 305302c0,-3619 576,-6957 1737,-9991 1150,-3033 2775,-5650 4872,-7837 2087,-2187 4600,-3890 7532,-5119 2932,-1218 6180,-1828 9744,-1828 3563,0 6811,610 9743,1828 2943,1229 5458,2932 7555,5119 2109,2187 3721,4804 4872,7837 1139,3034 1714,6372 1714,9991 0,3632 -575,6958 -1714,9980 -1151,3034 -2763,5639 -4872,7827 -2097,2187 -4612,3879 -7555,5086 -2932,1194 -6180,1793 -9743,1793 -3564,0 -6812,-599 -9744,-1793 -2932,-1207 -5445,-2899 -7532,-5086 -2097,-2188 -3722,-4793 -4872,-7827 -1161,-3022 -1737,-6348 -1737,-9980zm6699 0c0,2977 406,5628 1218,7984 824,2357 1973,4342 3473,5965 1500,1636 3305,2876 5424,3744 2109,869 4466,1309 7071,1309 2627,0 4996,-440 7104,-1309 2120,-868 3924,-2108 5424,-3744 1500,-1623 2651,-3608 3451,-5965 800,-2356 1207,-5007 1207,-7984 0,-2966 -407,-5626 -1207,-7995 -800,-2357 -1951,-4364 -3451,-5999 -1500,-1635 -3304,-2898 -5424,-3777 -2108,-880 -4477,-1320 -7104,-1320 -2605,0 -4962,440 -7071,1320 -2119,879 -3924,2142 -5424,3777 -1500,1635 -2649,3642 -3473,5999 -812,2369 -1218,5029 -1218,7995z"/>
   <polygon id="16" class="fil0" points="853461,329514 853461,281068 859957,281068 859957,302720 886209,302720 886209,281068 892704,281068 892704,329514 886209,329514 886209,307457 859957,307457 859957,329514 "/>
   <path id="17" class="fil0" d="M899076 329514l19384 -48446 6643 0 19362 48446 -5052 0c-598,0 -1072,-147 -1443,-451 -362,-293 -632,-666 -802,-1105l-4533 -11706 -21763 0 -4534 11706c-124,394 -383,756 -778,1071 -384,327 -858,485 -1433,485l-5051 0zm13645 -17998l18099 0 -7635 -19712c-236,-598 -485,-1275 -721,-2029 -249,-768 -485,-1580 -722,-2470 -226,890 -463,1713 -700,2503 -235,778 -485,1454 -720,2030l-7601 19678z"/>
   <path id="18" class="fil0" d="M945356 328611l0 -4239 2379 0c914,0 1794,-170 2662,-508 867,-338 1714,-1037 2525,-2086 823,-1059 1591,-2549 2313,-4489 732,-1939 1308,-4533 1724,-7792 418,-3247 925,-7194 1522,-11818 599,-4634 1016,-10172 1253,-16611l28689 0 0 48424 -6497 0 0 -43281 -16103 0c-112,6247 -552,11660 -1308,16215 -744,4557 -1399,8470 -1940,11740 -541,3270 -1307,5921 -2311,7950 -992,2030 -2076,3621 -3248,4781 -1161,1162 -2402,1951 -3710,2380 -1309,429 -2695,642 -4150,642 -1207,0 -2143,-101 -2809,-315 -653,-215 -991,-552 -991,-993z"/>
   <path id="19" class="fil0" d="M1000815 329514l0 -48446 6497 0 0 20908 9472 0c2954,0 5503,327 7646,970 2143,653 3913,1545 5299,2705 1388,1151 2425,2527 3091,4128 677,1602 1015,3350 1015,5234 0,2220 -384,4227 -1140,6021 -766,1782 -1871,3315 -3326,4578 -1455,1263 -3236,2222 -5346,2898 -2119,666 -4533,1004 -7239,1004l-15969 0zm6497 -5142l9449 0c1883,0 3496,-215 4839,-644 1352,-439 2446,-1026 3281,-1781 845,-743 1466,-1657 1860,-2740 395,-1071 597,-2256 597,-3564 0,-1352 -202,-2548 -597,-3620 -394,-1060 -1015,-1951 -1860,-2684 -835,-733 -1929,-1285 -3260,-1657 -1341,-372 -2942,-563 -4826,-563l-9483 0 0 17253z"/>
   <polygon id="20" class="fil0" points="1041943,329514 1041943,281068 1048439,281068 1048439,302720 1074691,302720 1074691,281068 1081186,281068 1081186,329514 1074691,329514 1074691,307457 1048439,307457 1048439,329514 "/>
   <path id="21" class="fil0" d="M1090602 305302c0,-3619 575,-6957 1737,-9991 1149,-3033 2774,-5650 4872,-7837 2086,-2187 4600,-3890 7532,-5119 2932,-1218 6180,-1828 9743,-1828 3564,0 6812,610 9744,1828 2942,1229 5458,2932 7555,5119 2108,2187 3721,4804 4872,7837 1138,3034 1714,6372 1714,9991 0,3632 -576,6958 -1714,9980 -1151,3034 -2764,5639 -4872,7827 -2097,2187 -4613,3879 -7555,5086 -2932,1194 -6180,1793 -9744,1793 -3563,0 -6811,-599 -9743,-1793 -2932,-1207 -5446,-2899 -7532,-5086 -2098,-2188 -3723,-4793 -4872,-7827 -1162,-3022 -1737,-6348 -1737,-9980zm6699 0c0,2977 406,5628 1218,7984 823,2357 1973,4342 3473,5965 1500,1636 3304,2876 5424,3744 2108,869 4466,1309 7070,1309 2628,0 4997,-440 7105,-1309 2119,-868 3924,-2108 5424,-3744 1500,-1623 2651,-3608 3451,-5965 800,-2356 1207,-5007 1207,-7984 0,-2966 -407,-5626 -1207,-7995 -800,-2357 -1951,-4364 -3451,-5999 -1500,-1635 -3305,-2898 -5424,-3777 -2108,-880 -4477,-1320 -7105,-1320 -2604,0 -4962,440 -7070,1320 -2120,879 -3924,2142 -5424,3777 -1500,1635 -2650,3642 -3473,5999 -812,2369 -1218,5029 -1218,7995z"/>
  </g>
 </g>
</svg>
