<?xml version="1.0" encoding="utf-8"?>
<!-- Generator: Adobe Illustrator 21.0.2, SVG Export Plug-In . SVG Version: 6.00 Build 0)  -->
<svg version="1.1" id="cena" xmlns="http://www.w3.org/2000/svg" xmlns:xlink="http://www.w3.org/1999/xlink" x="0px" y="0px"
	 viewBox="0 0 55.6 54.9" style="enable-background:new 0 0 55.6 54.9;" xml:space="preserve">
<style type="text/css">
	.st0{fill:#414953;}
	.st1{fill:#FFFFFF;}
</style>
<path class="st0" d="M36.3,4.5l2.7,5.9h3.7L37.9,0L15.3,10.4h8.1L36.3,4.5L36.3,4.5z"/>
<path class="st0" d="M37.1,33.9c0,1.2-1,2.2-2.2,2.2c-1.2,0-2.2-1-2.2-2.2c0-1.2,1-2.2,2.2-2.2C36.1,31.7,37.1,32.7,37.1,33.9z
	 M52.3,40.2H32.8c-1.7,0-3.1-1.4-3.1-3.1V31c0-1.7,1.4-3.1,3.1-3.1h19.5V40.2L52.3,40.2z M48.2,48.4c0,1.7-1.4,3.1-3.1,3.1H6.5
	c-1.7,0-3.1-1.4-3.1-3.1V19.7c0-1.7,1.4-3.1,3.1-3.1h38.6c1.7,0,3.1,1.4,3.1,3.1v4.8H32.8c-3.6,0-6.5,2.9-6.5,6.5v6.1
	c0,3.6,2.9,6.5,6.5,6.5h15.5V48.4L48.2,48.4z M54,24.5h-2.4v-4.8c0-3.6-2.9-6.5-6.5-6.5H6.5c-3.6,0-6.5,2.9-6.5,6.5v28.7
	c0,3.6,2.9,6.5,6.5,6.5h38.6c3.6,0,6.5-2.9,6.5-6.5v-4.8H54c0.9,0,1.7-0.8,1.7-1.7V26.2C55.6,25.3,54.9,24.5,54,24.5L54,24.5z"/>
<path class="st1" d="M48.2,48.4c0,1.7-1.4,3.1-3.1,3.1H6.5c-1.7,0-3.1-1.4-3.1-3.1V19.7c0-1.7,1.4-3.1,3.1-3.1h38.6
	c1.7,0,3.1,1.4,3.1,3.1v4.8H32.8c-3.6,0-6.5,2.9-6.5,6.5v6.1c0,3.6,2.9,6.5,6.5,6.5h15.5V48.4L48.2,48.4z"/>
</svg>
