<?xml version="1.0" encoding="utf-8"?>
<!-- Generator: Adobe Illustrator 21.0.2, SVG Export Plug-In . SVG Version: 6.00 Build 0)  -->
<svg version="1.1" id="prof" xmlns="http://www.w3.org/2000/svg" xmlns:xlink="http://www.w3.org/1999/xlink" x="0px" y="0px"
	 viewBox="0 0 48.7 63" style="enable-background:new 0 0 48.7 63;" xml:space="preserve">
<style type="text/css">
	.st0{fill:#414953;}
</style>
<circle class="st0" cx="16.2" cy="38.6" r="2.4"/>
<ellipse id="prof-eye" class="st0" cx="32.5" cy="38.6" rx="2.4" ry="2.4"/>
<path id="prof-mouth" class="st0" d="M27.1,50.2c-1.8,0.7-3.8,0.7-5.6,0c-0.9-0.4-1.9,0.1-2.3,0.9c-0.4,0.9,0.1,1.9,0.9,2.3c1.3,0.5,2.7,0.8,4.1,0.8
	s2.8-0.3,4.1-0.8c0.9-0.4,1.3-1.4,0.9-2.3C29,50.2,28,49.8,27.1,50.2z"/>
<path class="st0" d="M45.1,36.9c-0.2,1.5-1.2,2.9-3,4.1c-0.4,0.3-0.8,0.7-0.9,1.2c-0.1,0.7-2.9,17.3-16.8,17.3l-0.1,0l-0.1,0
	C10.3,59.5,7.6,43,7.5,42.3c-0.1-0.5-0.4-1-0.9-1.2c-1.8-1.3-2.9-2.7-3.1-4.2c-0.1-0.9,0-1.7,0.3-2.4c0.6,0.5,1.3,0.9,2,1.1
	c0.3,0.2,1,0.3,1.8,0.3c1.7,0,4.3-0.7,8.1-3.7c0,0,2.7-2.1,8-2.1l0.3,0l0.3,0c5.3,0,8,2.1,8.1,2.1c3.7,3,6.4,3.7,8.1,3.7
	c0.9,0,1.5-0.2,1.8-0.4c0.8-0.3,1.7-0.7,2.4-1.5C45,34.9,45.3,35.9,45.1,36.9L45.1,36.9z M6.7,14.2c1-4.5,5.4-7.4,9.2-8
	c2.5-0.4,4.8-0.9,6.5-1.4c0.7-0.2,2-0.3,3.3,0c1.3,0.4,3.2,0.9,6.7,1.5c3.7,0.6,8.2,3.3,9.2,7.9c0,0,0.7,3.9,0.6,9.4
	c-16.7-10-30.2-3.8-36,0C6,18.1,6.7,14.2,6.7,14.2L6.7,14.2z M41.2,32.3c-0.2,0.1-0.2,0-0.4,0.1c-0.4,0.1-2.3,0.2-6.2-2.8
	c-0.1-0.1-3.6-2.9-10.3-2.9l-0.3,0l-0.3,0c-6.7,0-10.1,2.8-10.2,2.9c-3.9,3.1-5.9,3-6.2,2.9c-0.1-0.1-0.1-0.1-0.4-0.1
	c-0.9-0.3-1.9-1-1.6-3.9c0.9-0.8,16.5-14.7,37.3-0.3C43.1,31.2,42.2,32,41.2,32.3L41.2,32.3z M46.5,30.2L46.3,30
	c0.1-1.2-0.1-2.6-0.5-4.4l-0.1-0.3c0-0.2-0.1-0.3-0.2-0.5c0.2-6.5-0.6-11.1-0.7-11.4c-1.3-6.3-7.2-9.9-12.1-10.7
	c-2.9-0.4-4.6-0.8-5.7-1.2c-0.3-0.9-1.5-1.6-3-1.6c-1.4,0-2.6,0.6-3,1.5c-1.5,0.4-3.6,1-5.8,1.3C10.5,3.5,4.6,7.1,3.2,13.5
	c0,0.2-0.9,4.9-0.6,11.5c-0.1,0.1-0.1,0.2-0.1,0.4l-0.1,0.3c-0.5,2-0.6,3.6-0.4,4.9c-0.5,0.7-2.4,3.5-1.9,6.8
	c0.3,2.4,1.7,4.5,4.1,6.2C5,47.2,9.2,63,24.3,63l0.1,0l0.1,0c15,0,19.3-15.8,20.1-19.5c2.3-1.8,3.7-3.8,4.1-6.2
	C49.1,33.5,46.6,30.4,46.5,30.2L46.5,30.2z"/>
</svg>
