<?xml version="1.0" encoding="utf-8"?>
<!-- Generator: Adobe Illustrator 21.0.2, SVG Export Plug-In . SVG Version: 6.00 Build 0)  -->
<svg version="1.1" id="sroki" xmlns="http://www.w3.org/2000/svg" xmlns:xlink="http://www.w3.org/1999/xlink" x="0px" y="0px"
	 viewBox="0 0 64.7 58.2" style="enable-background:new 0 0 64.7 58.2;" xml:space="preserve">
<style type="text/css">
	.st0{fill:#414953;}
</style>
<path class="st0" d="M46.2,13.9c0,1,0.8,1.8,1.8,1.8c1,0,1.8-0.8,1.8-1.8V1.8C49.8,0.8,49,0,48,0c-1,0-1.8,0.8-1.8,1.8v3.8h-5.8v3.6
	h5.8V13.9L46.2,13.9z"/>
<path class="st0" d="M32.6,13.9c0,1,0.8,1.8,1.8,1.8c1,0,1.8-0.8,1.8-1.8V9.3h0V5.6h0V1.8c0-1-0.8-1.8-1.8-1.8c-1,0-1.8,0.8-1.8,1.8
	v3.8h-5.8v3.6h5.8V13.9z"/>
<path class="st0" d="M59.5,54.6H12.3c-0.8,0-1.6-0.7-1.6-1.6V24H61v29C61,53.9,60.3,54.6,59.5,54.6z M59.5,5.6H54v3.6h5.5
	c0.8,0,1.6,0.7,1.6,1.6v9.6H10.8v-9.6c0-0.8,0.7-1.6,1.6-1.6h6.6v4.6c0,1,0.8,1.8,1.8,1.8s1.8-0.8,1.8-1.8V9.3h0V5.6h0V1.8
	c0-1-0.8-1.8-1.8-1.8s-1.8,0.8-1.8,1.8v3.8h-6.6c-2.9,0-5.2,2.3-5.2,5.2v42.2c0,2.9,2.3,5.2,5.2,5.2h47.2c2.9,0,5.2-2.3,5.2-5.2
	V10.8C64.7,8,62.3,5.6,59.5,5.6z M17.3,41.4h4.2v-4.2h-4.2V41.4z M25.6,41.4h4.2v-4.2h-4.2V41.4z M33.9,41.4h4.2v-4.2h-4.2V41.4z
	 M42.2,41.4h4.2v-4.2h-4.2V41.4z M50.5,41.4h4.2v-4.2h-4.2V41.4z M25.6,33.1h4.2V29h-4.2V33.1z M33.9,33.1h4.2V29h-4.2V33.1z
	 M42.2,33.1h4.2V29h-4.2V33.1z M50.5,33.1h4.2V29h-4.2V33.1z M17.3,49.7h4.2v-4.2h-4.2V49.7z M25.6,49.7h4.2v-4.2h-4.2V49.7z
	 M33.9,49.7h4.2v-4.2h-4.2V49.7z M42.2,49.7h4.2v-4.2h-4.2V49.7z"/>
<path class="st0" d="M29,21.1c-2.2,5.7-6.7,15.8-8.7,21.9C17.4,51.3,1.6,26.2,0,23.7c6.4,4.7,11.8,10.1,17.3,15.7
	C20.7,32,23.1,29.4,29,21.1z"/>
</svg>
