<?xml version="1.0" encoding="UTF-8"?>
<!DOCTYPE svg PUBLIC "-//W3C//DTD SVG 1.1//EN" "http://www.w3.org/Graphics/SVG/1.1/DTD/svg11.dtd">
<!-- Creator: CorelDRAW X8 -->
<svg xmlns="http://www.w3.org/2000/svg" xml:space="preserve" width="204px" height="46px" version="1.1" style="shape-rendering:geometricPrecision; text-rendering:geometricPrecision; image-rendering:optimizeQuality; fill-rule:evenodd; clip-rule:evenodd"
viewBox="0 0 302136 67997"
 xmlns:xlink="http://www.w3.org/1999/xlink">
 <defs>
  <style type="text/css">
   <![CDATA[
    .fil0 {fill:black}
    .fil1 {fill:#DC1F25;fill-rule:nonzero}
   ]]>
  </style>
 </defs>
 <g id="Слой_x0020_1">
  <metadata id="CorelCorpID_0Corel-Layer"/>
  <g id="_965651878336">
   <path class="fil0" d="M223952 32237l0 23499 -7720 0 0 -23499c-64,-3205 -2728,-4998 -4973,-4961 -2809,-37 -5047,2364 -4994,4961l0 23499 -7711 0 0 -23499c21,-2993 -2564,-5013 -4976,-4961 -2855,16 -4898,2290 -4898,4961l0 23499 -7808 0 0 -35114 7808 0 0 1597c996,-798 2163,-1941 4898,-1961 3846,-228 6897,1110 8838,3590 2451,-2385 5690,-3628 8843,-3590 6719,-64 12367,5320 12693,11979z"/>
   <path class="fil0" d="M158273 49448l1324 -32c3426,32 6394,-2418 6333,-6301l0 -9503c212,-3709 -2927,-6336 -6333,-6336l-1324 0c-3404,0 -6413,2486 -6348,6336l0 9503c-95,3851 3020,6333 6348,6333zm-1142 6717c-7660,0 -13109,-6261 -13109,-13050l0 -9799c0,-6838 5528,-13058 13084,-13058l3463 0c7635,0 13091,6288 13091,13058l0 9799c19,7375 -6027,13050 -13091,13050l-3438 0z"/>
   <path class="fil0" d="M97693 49421c3813,-36 6318,-3031 6355,-6306l0 -9597c39,-2693 -1953,-6242 -6355,-6448 -3348,-170 -6541,2539 -6504,6448l-20 9597c-97,3846 3197,6306 6524,6306zm-1147 6744c-7636,0 -13091,-6342 -13091,-13128l0 -9519c-229,-7253 6354,-13642 14238,-13208 2509,234 4326,883 6257,2375l3 -17364 7846 0 0 50415 -7849 0 0 -2475c-1468,1771 -3748,2863 -5891,2904l-1513 0z"/>
   <path class="fil0" d="M129844 55667l-7731 0 0 -35109 7731 0 0 2524c1124,-1493 3675,-2920 6061,-2920l1261 0c1112,58 2725,322 3231,460l-625 6632c-1187,-94 -2393,-154 -3603,-154 -3745,0 -6325,3116 -6325,6322l0 22245z"/>
   <path class="fil0" d="M287152 55795c-6468,0 -13011,-5136 -13011,-12917l0 -22367 7672 0 19 22320c0,3079 2449,6246 6317,6272 3725,-26 6292,-3087 6292,-6272l0 -22320 7695 0 0 34888 -7695 0 0 -2509c-1111,1477 -3660,2926 -6023,2905l-1266 0z"/>
   <path class="fil0" d="M258845 55795l-7690 0 0 -34888 7690 0 0 2503c1134,-1476 3664,-2926 6034,-2899l1259 0c1091,33 2690,291 3215,429l-625 6627c-1189,-123 -2380,-175 -3584,-154 -3727,0 -6299,3068 -6299,6252l0 22130z"/>
   <path class="fil0" d="M237727 46030c2708,0 4936,2228 4936,4984 0,2734 -2228,4971 -4936,4971 -2718,0 -4944,-2237 -4944,-4971 0,-2756 2226,-4984 4944,-4984z"/>
   <path class="fil1" d="M32097 49151c-671,5 -1275,-285 -1471,-803 -633,-2228 410,-1518 1383,-1909 393,-3952 -824,-9828 1107,-13774 6400,85 12782,-566 18103,2417 -3846,2417 -14718,-2713 -16549,3015 -230,741 9,6484 -42,8203 -45,1996 -1403,2842 -2531,2851zm21981 -3770c448,131 849,401 1215,703 971,798 1500,1988 1303,3316 -25,281 -109,545 -200,793 -143,434 -396,826 -705,1164 -650,741 -1503,1190 -2467,1317 -127,12 -249,12 -383,12 -121,19 -254,0 -374,0 -87,0 -161,-12 -258,-12 -45,-12 -115,-27 -179,-27 -20,-15 -69,-20 -106,-31 -141,-26 -265,-69 -381,-94 -417,-128 -775,-302 -1109,-540 -276,-191 -544,-457 -765,-715 -429,-508 -727,-1111 -835,-1783 -46,-173 -55,-342 -63,-535 -41,-809 171,-1522 538,-2140 422,-725 1125,-1270 1883,-1551 128,-52 282,-94 425,-115 706,-133 1698,-58 2461,238zm-1812 -9479c2323,645 2486,3433 3406,4645 2630,777 6412,1172 7403,2490 139,291 282,598 302,884 377,3475 -212,5967 -3020,6452l-734 0c-686,-217 -941,-613 -1067,-1062 2519,-191 3238,-2371 2538,-4904 -942,-3427 -8803,-175 -8828,-4404l0 -4101zm-15154 9797c264,-366 627,-689 977,-942 132,-86 286,-170 409,-244 329,-185 715,-333 1098,-408 265,-58 545,-103 854,-103 977,-13 1854,263 2591,797 359,242 698,577 964,935 138,191 269,403 371,624 206,402 339,852 402,1324 59,422 28,895 -39,1284 -184,1038 -788,1994 -1664,2624 -657,460 -1407,756 -2280,787l-376 0c-1232,-61 -2330,-597 -3115,-1602 -609,-783 -864,-1569 -981,-2523 -58,-994 259,-1840 789,-2553zm31093 -11695c0,-18787 -15264,-34004 -34105,-34004 -16888,0 -30908,12238 -33622,28315 320,157 892,469 2034,1087 2358,1263 6167,4734 5668,10075 8218,-5505 16467,1847 16302,8055l0 91c317,-43 623,-43 943,-21 2314,243 3405,1379 4522,2665 1436,1953 2858,4274 4423,5073l27 37c-220,0 -429,22 -641,0 -2186,-329 -5998,-4426 -7134,-4999 -479,-333 -983,-354 -1445,-201 -456,154 -859,488 -1114,847 -326,566 -541,1174 -690,1804 -307,931 -827,1707 -1714,1808 -1224,138 -1903,-925 -2034,-1719 -34,-132 -45,-634 -34,-760 122,-1858 1284,-3227 2350,-3905 69,-258 58,-519 49,-766 -139,-3205 -3521,-6522 -8125,-6384 -2062,105 -4624,1603 -5525,4776 -759,1702 -2011,2088 -2999,1724 -991,-375 -1717,-1518 -1452,-2920 163,-899 668,-1777 1114,-2485 149,-243 222,-439 222,-705 94,-3501 -1437,-6166 -3355,-7404 -1026,-661 -1575,-897 -1858,-974 -8,296 -12,592 -12,890 0,18781 15269,33993 34100,33993 18841,0 34105,-15212 34105,-33993z"/>
  </g>
 </g>
</svg>
