<?xml version="1.0" encoding="UTF-8"?>
<!DOCTYPE svg PUBLIC "-//W3C//DTD SVG 1.1//EN" "http://www.w3.org/Graphics/SVG/1.1/DTD/svg11.dtd">
<!-- Creator: CorelDRAW X8 -->
<svg xmlns="http://www.w3.org/2000/svg" xml:space="preserve" width="173px" height="36px" version="1.1" style="shape-rendering:geometricPrecision; text-rendering:geometricPrecision; image-rendering:optimizeQuality; fill-rule:evenodd; clip-rule:evenodd"
viewBox="0 0 174333 36554"
 xmlns:xlink="http://www.w3.org/1999/xlink">
 <defs>
  <style type="text/css">
   <![CDATA[
    .fil0 {fill:#EF9E0D}
    .fil2 {fill:black;fill-rule:nonzero}
    .fil1 {fill:white;fill-rule:nonzero}
   ]]>
  </style>
 </defs>
 <g id="Слой_x0020_1">
  <metadata id="CorelCorpID_0Corel-Layer"/>
  <g id="_965400515728">
   <polygon class="fil0" points="0,0 174333,0 174333,36554 0,36554 "/>
   <polygon class="fil1" points="77489,26103 77489,26103 79485,23265 67910,23265 67818,24685 67910,26103 "/>
   <polygon class="fil1" points="82341,19009 82341,19009 81295,17582 67549,17582 67459,19002 67549,20421 81302,20421 "/>
   <polygon class="fil1" points="77489,11901 77489,11901 67910,11901 67818,13322 67910,14741 79485,14741 "/>
   <polygon class="fil1" points="46823,17582 46823,17582 58150,17582 58150,14741 46823,14741 "/>
   <polygon class="fil1" points="58150,20421 58150,20421 46823,20421 46823,23265 58150,23265 "/>
   <polygon class="fil1" points="25183,17582 33513,17582 33513,20421 25183,20421 "/>
   <path class="fil2" d="M25268 18952l0 0c0,865 -85,1469 -85,1469l-10443 0c121,1624 1297,3219 3551,3219 1033,0 1898,-409 2553,-1209l3696 0c-526,1603 -2835,4053 -6249,4053 -4197,0 -7198,-2877 -7198,-7398 0,-4700 3175,-7565 7288,-7565 3063,0 6887,1881 6887,7431zm-3610 -1370l0 0c-48,-1380 -905,-3222 -3367,-3222 -2459,0 -3423,2001 -3540,3222l6907 0z"/>
   <polygon class="fil2" points="82250,19009 82250,19009 77489,26103 81198,26103 84098,21412 87001,26103 90700,26103 85946,19009 90700,11901 87018,11901 84104,16611 81182,11901 77489,11901 "/>
   <polygon class="fil2" points="44181,11901 44181,11901 40172,17069 36160,11901 33421,11901 33421,26103 36564,26103 36564,17032 40172,21687 43774,17032 43774,26103 46918,26103 46918,11901 "/>
   <polygon class="fil2" points="67910,26103 58057,26103 58057,11901 67910,11901 67910,14741 61200,14741 61200,17582 67549,17582 67549,20421 61200,20421 61200,23265 67910,23265 "/>
   <path class="fil2" d="M101924 25974c-151,101 -272,169 -362,205 -90,35 -185,54 -284,54 -148,0 -261,-27 -342,-79 -81,-52 -135,-141 -163,-265 -288,229 -592,344 -913,344 -244,0 -444,-81 -600,-240 -155,-160 -233,-355 -233,-583 0,-292 124,-527 372,-709 143,-105 403,-224 780,-357l594 -207 0 -187c0,-396 -203,-594 -609,-594 -180,0 -364,47 -550,140 -186,93 -358,233 -515,418l0 -729c262,-306 634,-459 1115,-459 363,0 652,89 867,266 238,195 357,478 357,851l0 1731c0,124 43,186 129,186 71,0 191,-64 357,-192l0 406zm-1151 -486l0 0 0 -987c-354,120 -601,224 -744,315 -210,134 -315,291 -315,472 0,143 45,258 136,344 90,85 207,128 351,128 104,0 202,-22 292,-68 91,-45 184,-113 280,-204z"/>
   <path class="fil2" d="M105123 25288c0,263 -114,475 -340,637 -227,162 -505,243 -834,243l-1466 0 0 -3370 1209 0c328,0 604,76 826,226 222,150 333,342 333,576 0,191 -53,349 -158,475 -105,127 -255,211 -451,254 297,67 517,183 663,347 145,165 218,369 218,612zm-959 -1517l0 0c0,-119 -45,-215 -132,-289 -89,-74 -205,-111 -348,-111l-529 0 0 823 537 0c133,0 245,-39 336,-115 91,-76 136,-179 136,-308zm272 1360l0 0c0,-153 -55,-262 -164,-329 -111,-67 -271,-101 -480,-101l-637 0 0 894 637 0c429,0 644,-155 644,-464z"/>
   <polygon class="fil2" points="108220,23400 107169,23400 107169,26168 106504,26168 106504,23400 105459,23400 105459,22798 108220,22798 "/>
   <path class="fil2" d="M112162 24451c0,529 -169,959 -508,1288 -339,329 -777,494 -1316,494 -520,0 -947,-168 -1281,-501 -333,-334 -501,-761 -501,-1281 0,-487 171,-895 512,-1227 341,-332 764,-498 1270,-498 529,0 966,163 1309,487 343,325 515,737 515,1238zm-687 7l0 0c0,-329 -108,-600 -325,-812 -218,-212 -490,-318 -819,-318 -315,0 -575,105 -780,314 -206,210 -308,480 -308,809 0,353 99,638 297,855 198,217 462,326 791,326 358,0 638,-104 840,-312 203,-207 304,-494 304,-862z"/>
   <path class="fil2" d="M115210 25245c0,306 -121,546 -361,723 -242,176 -593,265 -1056,265 -229,0 -428,-20 -597,-58 -170,-38 -341,-100 -512,-186l0 -615c368,181 720,271 1059,271 234,0 422,-36 565,-110 143,-74 215,-187 215,-340 0,-153 -54,-273 -161,-361 -108,-89 -261,-133 -462,-133l-501 0 0 -507 387 0c171,0 312,-39 423,-115 109,-76 164,-189 164,-337 0,-142 -52,-250 -154,-321 -103,-72 -276,-107 -519,-107 -158,0 -317,28 -479,86 -96,33 -241,100 -436,200l0 -602c133,-75 290,-140 472,-193 181,-52 360,-79 536,-79 348,0 634,72 859,215 257,163 386,396 386,701 0,191 -58,347 -176,465 -116,119 -279,210 -489,272 243,53 439,146 586,280 167,152 251,348 251,586z"/>
   <path class="fil2" d="M118651 25974c-152,101 -273,169 -363,205 -90,35 -185,54 -284,54 -147,0 -261,-27 -342,-79 -80,-52 -135,-141 -163,-265 -287,229 -591,344 -912,344 -245,0 -445,-81 -600,-240 -156,-160 -233,-355 -233,-583 0,-292 123,-527 371,-709 143,-105 403,-224 781,-357l593 -207 0 -187c0,-396 -203,-594 -608,-594 -181,0 -365,47 -551,140 -186,93 -358,233 -515,418l0 -729c262,-306 634,-459 1116,-459 363,0 651,89 865,266 239,195 358,478 358,851l0 1731c0,124 43,186 129,186 72,0 191,-64 358,-192l0 406zm-1152 -486l0 0 0 -987c-353,120 -601,224 -744,315 -210,134 -314,291 -314,472 0,143 45,258 136,344 89,85 206,128 349,128 106,0 203,-22 294,-68 91,-45 183,-113 279,-204z"/>
   <polygon class="fil2" points="122042,26168 121377,26168 121377,23400 119874,23400 119874,26168 119209,26168 119209,22798 122042,22798 "/>
   <path class="fil2" d="M125590 26168l-665 0 0 -1502c-181,52 -340,91 -475,114 -136,24 -293,36 -469,36 -339,0 -619,-103 -841,-311 -222,-208 -333,-467 -333,-776l0 -931 666 0 0 759c0,448 233,672 701,672 148,0 274,-7 379,-21 105,-14 229,-53 372,-115l0 -1295 665 0 0 3370z"/>
   <path class="fil2" d="M129203 25974c-152,101 -273,169 -362,205 -91,35 -186,54 -285,54 -147,0 -261,-27 -341,-79 -81,-52 -136,-141 -163,-265 -288,229 -592,344 -913,344 -244,0 -445,-81 -600,-240 -156,-160 -233,-355 -233,-583 0,-292 124,-527 372,-709 143,-105 402,-224 780,-357l594 -207 0 -187c0,-396 -203,-594 -609,-594 -181,0 -365,47 -551,140 -186,93 -358,233 -514,418l0 -729c262,-306 633,-459 1115,-459 363,0 652,89 866,266 239,195 357,478 357,851l0 1731c0,124 44,186 129,186 72,0 191,-64 358,-192l0 406zm-1151 -486l0 0 0 -987c-354,120 -602,224 -744,315 -210,134 -315,291 -315,472 0,143 45,258 136,344 90,85 206,128 350,128 105,0 203,-22 293,-68 91,-45 184,-113 280,-204z"/>
   <path class="fil2" d="M132308 26040c-109,52 -260,97 -450,135 -191,38 -377,58 -559,58 -501,0 -911,-158 -1230,-473 -320,-315 -480,-720 -480,-1216 0,-553 151,-995 452,-1324 300,-329 705,-494 1216,-494 181,0 352,22 514,65 120,29 275,86 465,172l0 715c-185,-124 -349,-211 -489,-261 -141,-50 -290,-75 -448,-75 -300,0 -546,106 -737,318 -190,213 -286,488 -286,827 0,348 104,621 312,819 207,198 485,297 833,297 262,0 558,-74 887,-222l0 659z"/>
   <polygon class="fil2" points="135385,23400 134333,23400 134333,26168 133667,26168 133667,23400 132622,23400 132622,22798 135385,22798 "/>
   <polygon class="fil2" points="138811,26168 138161,26168 138161,23850 136493,26168 135892,26168 135892,22798 136543,22798 136543,25116 138210,22798 138811,22798 "/>
   <path class="fil2" d="M144427 25288c0,263 -113,475 -339,637 -227,162 -505,243 -834,243l-1466 0 0 -3370 1208 0c329,0 605,76 826,226 222,150 333,342 333,576 0,191 -52,349 -157,475 -105,127 -255,211 -451,254 296,67 517,183 662,347 146,165 218,369 218,612zm-959 -1517l0 0c0,-119 -44,-215 -131,-289 -89,-74 -205,-111 -348,-111l-529 0 0 823 536 0c134,0 246,-39 337,-115 91,-76 135,-179 135,-308zm272 1360l0 0c0,-153 -54,-262 -164,-329 -110,-67 -270,-101 -479,-101l-637 0 0 894 637 0c429,0 643,-155 643,-464z"/>
   <path class="fil2" d="M148577 24451c0,529 -170,959 -508,1288 -339,329 -777,494 -1316,494 -521,0 -948,-168 -1282,-501 -334,-334 -500,-761 -500,-1281 0,-487 170,-895 512,-1227 341,-332 764,-498 1270,-498 529,0 965,163 1308,487 344,325 516,737 516,1238zm-687 7l0 0c0,-329 -109,-600 -326,-812 -217,-212 -489,-318 -819,-318 -315,0 -575,105 -780,314 -205,210 -307,480 -307,809 0,353 99,638 297,855 198,217 461,326 790,326 357,0 638,-104 841,-312 203,-207 304,-494 304,-862z"/>
   <path class="fil2" d="M151932 25288c0,263 -114,475 -340,637 -226,162 -505,243 -834,243l-1466 0 0 -3370 1209 0c329,0 605,76 826,226 222,150 333,342 333,576 0,191 -52,349 -158,475 -104,127 -254,211 -450,254 296,67 516,183 662,347 145,165 218,369 218,612zm-959 -1517l0 0c0,-119 -44,-215 -132,-289 -88,-74 -204,-111 -347,-111l-530 0 0 823 537 0c133,0 245,-39 336,-115 91,-76 136,-179 136,-308zm272 1360l0 0c0,-153 -55,-262 -164,-329 -110,-67 -270,-101 -480,-101l-637 0 0 894 637 0c429,0 644,-155 644,-464z"/>
   <path class="fil2" d="M155688 24508c0,511 -160,926 -479,1245 -320,319 -730,480 -1231,480 -119,0 -229,-10 -329,-29 -100,-20 -217,-57 -351,-114l0 1802 -665 0 0 -5094 1159 0c615,0 1085,146 1410,437 324,291 486,715 486,1273zm-687 -7l0 0c0,-353 -92,-625 -276,-816 -183,-190 -456,-285 -818,-285l-609 0 0 2088c196,95 408,144 637,144 310,0 565,-106 765,-316 201,-209 301,-481 301,-815z"/>
   <path class="fil2" d="M159272 24587l-2375 0c110,668 489,1001 1138,1001 200,0 394,-32 583,-96 188,-65 386,-164 596,-297l0 644c-214,143 -420,244 -618,304 -198,60 -440,90 -726,90 -506,0 -911,-182 -1217,-544 -281,-334 -422,-749 -422,-1245 0,-510 146,-924 437,-1241 291,-317 670,-477 1137,-477 458,0 817,158 1077,473 260,315 390,778 390,1388zm-658 -444l0 0c0,-257 -72,-460 -215,-608 -143,-147 -334,-221 -572,-221 -515,0 -820,276 -916,829l1703 0z"/>
   <polygon class="fil2" points="163243,26168 162591,26168 162591,23843 161626,24952 161582,24952 160617,23843 160617,26168 159966,26168 159966,22798 160502,22798 161604,24079 162706,22798 163243,22798 "/>
   <path class="fil2" d="M166476 26168l-665 0 0 -1402 -293 0c-168,0 -308,58 -423,172 -85,86 -181,230 -285,436l-408 794 -680 0 286 -573c71,-142 143,-286 214,-429 144,-272 294,-455 452,-550 -182,-67 -330,-176 -444,-326 -115,-150 -172,-335 -172,-554 0,-272 108,-496 325,-673 217,-177 517,-265 899,-265l1194 0 0 3370zm-665 -1910l0 0 0 -887 -451 0c-214,0 -371,37 -468,111 -98,74 -147,182 -147,325 0,138 51,248 154,330 102,81 270,121 504,121l408 0z"/>
  </g>
 </g>
</svg>
