<?xml version="1.0" encoding="UTF-8"?>
<!DOCTYPE svg PUBLIC "-//W3C//DTD SVG 1.1//EN" "http://www.w3.org/Graphics/SVG/1.1/DTD/svg11.dtd">
<!-- Creator: CorelDRAW X8 -->
<svg xmlns="http://www.w3.org/2000/svg" xml:space="preserve" width="51.8133mm" height="23.636mm" version="1.1" style="shape-rendering:geometricPrecision; text-rendering:geometricPrecision; image-rendering:optimizeQuality; fill-rule:evenodd; clip-rule:evenodd"
viewBox="0 0 3892296 1775573"
 xmlns:xlink="http://www.w3.org/1999/xlink">
 <defs>
  <style type="text/css">
   <![CDATA[
    .fil1 {fill:#E6C28C}
    .fil0 {fill:#C02222;fill-rule:nonzero}
   ]]>
  </style>
 </defs>
 <g id="Слой_x0020_1">
  <metadata id="CorelCorpID_0Corel-Layer"/>
  <g id="_2208618213040">
   <polygon class="fil0" points="3892296,1775573 0,1775573 0,0 3892296,0 "/>
   <path class="fil1" d="M1942418 180359c3095,-2148 6904,30 9699,1706 3200,1757 5822,5100 9608,5438 5288,-1592 8939,-6573 14446,-7767 4146,-1089 8263,1600 10494,4943 -4522,1698 -9105,3335 -13229,5874 -2907,1728 -3974,5304 -4147,8512 -112,2794 414,6047 2757,7887 969,849 2487,759 3494,15 2922,-1810 4004,-5724 7391,-6933 3734,-1450 7873,-1781 11832,-1187 6776,1172 11914,8211 10660,15032 -2644,-218 -5274,-924 -7933,-834 -4470,834 -6333,5897 -6310,9931 263,2734 3523,2584 5536,3057 3756,451 6896,3659 7250,7430 390,4207 -1030,8428 -3276,11952 -1998,-1510 -3508,-3771 -6017,-4515 -3057,-894 -6280,-248 -9390,158 -3418,368 -5890,3358 -6806,6513 -2306,7482 2659,15835 9713,18622 8203,3268 17947,4530 26067,368 2659,-1172 4357,-4034 7332,-4544 1623,-128 3974,75 4793,1667 188,4861 3778,8722 7640,11276 3748,2652 8541,2366 12906,2757 5596,421 10577,-2727 14829,-5987 5183,-3388 5649,-11742 1194,-15919 -2201,-2238 -5123,-3831 -8233,-4342 -2539,308 -4530,2284 -7129,2457 -203,-2922 420,-6017 2321,-8324 2133,-2719 5844,-3831 9202,-3418 2231,316 3839,2119 5972,2660 1375,75 2119,-1262 2555,-2374 1277,-3546 773,-7693 -1338,-10818 -1059,-1592 -2854,-2381 -4312,-3538 -45,-1284 1518,-1412 2412,-1810 3440,-887 7084,-1736 10615,-827 3883,1007 7391,3313 10021,6341 1960,2336 1998,5867 4409,7880 1811,1052 4079,1052 6153,1022 2479,-1052 2434,-4275 2539,-6529 308,-3312 -1157,-6340 -1871,-9480 3246,-466 6664,293 9451,2021 3358,2201 3681,7069 2028,10412 -2179,3808 -4470,7565 -7122,11073 -924,1532 -2561,3313 -1585,5213 661,1187 263,2464 -112,3681 -1450,-1472 -3080,-2997 -5229,-3290 -8398,-1330 -16752,5161 -18224,13409 -661,4410 -1480,9232 285,13484 759,1848 2983,1352 4560,1555 -834,767 -1765,1540 -2922,1728 -1465,616 -2659,-1592 -4057,-586 -2877,1480 -3140,5041 -4747,7512 -1277,1908 -1991,4072 -3013,6100 -593,1255 -3110,999 -3012,-571 -23,-3162 1352,-6130 2652,-8962 713,-1697 2261,-3230 1938,-5213 -4380,1547 -4260,7009 -6731,10254 -1097,1300 -2674,3395 -4613,2276 -3958,-2006 -8210,-3275 -12447,-4515 -6145,-2494 -12808,-3095 -19164,-4890 -4890,-1533 -10013,-1991 -15054,-2810 -9788,-390 -19351,-2884 -29125,-3485 -8458,-496 -16940,-368 -25398,-166 -10607,954 -21327,767 -31859,2532 -4523,864 -9053,1487 -13590,2246 -4515,1435 -9337,1375 -13777,3155 -7873,1998 -15858,3884 -23280,7242 -2134,759 -5011,1976 -6912,165 -2847,-3696 -3079,-9014 -6918,-12012 -992,2081 -203,4357 1352,5905 1668,3012 2577,6588 2111,10021 -2239,413 -3666,-1547 -4222,-3433 -1232,-3929 -2734,-8384 -6325,-10720 -2802,481 -5890,-75 -8136,-1870 1638,-248 3974,571 4936,-1240 1314,-2366 1187,-5198 1126,-7828 -202,-4484 -984,-9202 -3816,-12853 -3463,-4680 -9608,-7392 -15392,-6370 -2246,368 -3854,2073 -5184,3771 -338,-879 -676,-1758 -1036,-2644 856,-1007 1825,-2224 1179,-3629 -1570,-4680 -4905,-8436 -7722,-12395 -1683,-2426 -2569,-5912 -819,-8556 1810,-2547 4582,-4342 7467,-5424 1367,-586 2832,-323 4192,30 173,3463 -1623,6543 -2457,9789 -45,2734 1781,5551 4350,6543 3320,713 6445,-2029 7242,-5131 706,-3163 3215,-5371 5483,-7490 3125,-3005 7753,-3606 11915,-3561 2764,323 5799,947 7790,3065 -1833,2494 -5056,3929 -5950,7084 -1157,3185 -976,7843 2254,9714 3177,0 5506,-3433 8879,-2615 5732,308 10014,6250 8789,11757 -3252,-1766 -7249,-2599 -10780,-1210 -4439,2164 -7624,7212 -6828,12223 608,4319 3899,7857 7798,9593 6114,2719 13198,4372 19711,2103 4763,-1592 9714,-4657 11088,-9796 744,-2021 1360,-5085 4042,-5213 3944,-165 5950,3884 9338,5123 5198,2013 10892,3230 16444,2134 4439,-894 9232,-1781 12688,-4928 3613,-3208 6340,-7663 6768,-12538 308,-3185 -1067,-6498 -3681,-8384 -3989,-2907 -9525,-3801 -14108,-1810 -2043,841 -3200,2862 -5100,3899 -2953,-4019 -4583,-9481 -2712,-14304 871,-2554 3035,-4815 5837,-5010 2306,-451 5889,-714 6212,-3666 -120,-4162 -3057,-8496 -7279,-9360 -2321,-466 -4598,511 -6889,631 -165,-2765 -766,-5935 1165,-8271 1945,-2411 4176,-4981 7407,-5552 5198,-1081 11215,-1690 15858,1450 2396,1518 3756,4049 5551,6153 1097,1269 2953,533 3839,-594 2487,-2697 1976,-6686 1510,-10013 -601,-4072 -3846,-7069 -7347,-8850 -2441,-1359 -5258,-1622 -7948,-2133 -390,-2457 1736,-4237 3538,-5507zm1144853 1325768c-631,5372 -1683,7227 -12139,39642 3988,624 7977,917 14280,917 5537,0 8767,-293 12140,-917 -9203,-28892 -11509,-31040 -12899,-39799l-1382 157zm-46245 76827l3216 0c5987,0 9390,-6152 11831,-11215 5371,-11366 9826,-23198 12613,-31349 13499,-38717 16437,-47785 18277,-56694 4297,-789 8294,-2013 11817,-3538 2013,7828 4011,13672 12305,37651 18893,53930 15520,42872 20290,54395 5071,12140 9525,10750 13672,10750l1548 0 0 5852 -3854 0c-2607,0 -5214,-638 -7820,-931 -3396,-466 -6919,-616 -10322,-616 -2599,0 -5041,150 -7655,458 -2922,451 -5859,1089 -8774,1089l-6618 0 0 -5852 3561 0c4281,0 7219,-3831 5506,-9059l-6904 -21207c-3087,308 -10284,616 -16609,616 -3997,0 -5679,-308 -14281,-616l-6137 18750c-3561,10607 3373,11516 6430,11516l3561 0 0 5852 -2772 0c-11674,0 -1082,-1397 -14446,-1397 -2764,0 -5536,-150 -8301,466 -1690,293 -3395,931 -5078,931l-5056 0 0 -5852zm-165538 -98499c2442,0 5071,466 7528,759 2772,323 5694,623 8466,623 2757,0 5521,-300 8271,-623 2479,-293 5093,-759 7534,-759l5244 0 0 5837 -3230 0c-7227,0 -7535,8316 -7693,11538 -150,2615 -308,13658 -308,17646l0 10916c4455,638 11524,1397 27983,1397 16444,0 23513,-759 27953,-1397l0 -10916c0,-3988 -158,-15031 -293,-17646 -158,-3222 -466,-11538 -7693,-11538l-3230 0 0 -5837 5229 0c2456,0 5070,466 7512,759 2772,323 5544,623 8316,623 2764,0 5671,-300 8443,-623 2472,-293 5071,-759 7550,-759l5056 0 0 5837 -3223 0c-9848,0 -7993,16451 -7993,28892l0 44719c0,6311 466,19051 8459,19051l3065 0 0 5852 -5537 0c-2456,0 -4905,-759 -7377,-1224 -2772,-466 -5521,-631 -8293,-631 -2765,0 -5522,165 -8294,631 -2456,465 -4920,1224 -7361,1224l-5552 0 0 -5852 3080 0c7219,0 8136,-10284 8136,-19051l0 -26112c-4297,451 -9511,759 -17203,909l-10750 0 -10765 0c-7677,-150 -12913,-458 -17218,-909l0 26112c0,8767 932,19051 8151,19051l3080 0 0 5852 -5552 0c-2441,0 -4905,-759 -7377,-1224 -2757,-466 -5506,-631 -8293,-631 -2749,0 -5521,165 -8293,631 -2457,465 -4928,1224 -7362,1224l-5552 0 0 -5852 3080 0c7986,0 8444,-12740 8444,-19051l0 -44719c0,-4605 -308,-12899 -458,-17354 -301,-4935 -917,-11538 -7520,-11538l-3238 0 0 -5837 5078 0zm-175206 0c2615,0 5056,466 7685,759 2772,323 5522,623 8294,623 2764,0 5536,-300 8286,-623 2614,-293 5093,-759 7692,-759l5086 0 0 5837 -3230 0c-8602,0 -8001,10750 -8001,22747l0 35502c0,5672 -1239,15362 -1840,19209l1389 0c5837,-8917 12133,-14927 28727,-33362 11974,-13364 30732,-36877 40866,-50692 2772,-466 5401,-789 7843,-924 -458,4763 -909,11674 -909,20741l0 56394c0,10923 -173,23047 7978,23047l3237 0 0 5852 -5213 0c-2479,0 -4935,-759 -7392,-1224 -2772,-466 -5679,-631 -8451,-631 -2772,0 -5537,165 -8136,631 -2471,465 -4920,1224 -7392,1224l-5679 0 0 -5852 3230 0c7986,0 8151,-11982 8151,-23340l0 -35510c0,-3531 593,-8151 1690,-11974l-931 0c-1082,2306 -4921,8443 -22281,27036 -38275,41024 -41182,43638 -45494,49640l-10442 2599c759,-10584 1375,-17510 1375,-24121l0 -54553c0,-11366 931,-22439 -7828,-22439l-3230 0 0 -5837 4920 0zm-111277 51323l0 34586c0,6588 443,14123 10900,14123 12140,0 19990,-8444 19990,-21342 0,-17977 -11374,-27367 -26428,-27367l-4462 0zm0 -6310l2133 172c8474,616 20448,-4777 20448,-18900 0,-11374 -6145,-20899 -17976,-20899 -1533,0 -3058,150 -4605,451l0 39176zm-27517 -45013c2764,0 5378,466 8150,623 2149,136 4455,136 6619,136 16136,0 18435,-1668 26728,-1668 17376,0 28418,10284 28418,24422 0,13830 -13198,21672 -26871,23062l0 1518c20899,616 36269,11831 36269,29372 0,11216 -7219,27810 -33346,27810 -5860,0 -11539,-466 -17218,-1082 -4312,-480 -8767,-931 -13079,-931 -3373,0 -6904,451 -10292,781 -1682,150 -3530,308 -5213,308l-3696 0 0 -5852 2772 0c9368,0 8601,-17045 8601,-26728l0 -38590c0,-10893 767,-27344 -8759,-27344l-2614 0 0 -5837 3531 0zm-211482 0c3696,0 7549,293 11215,623 5537,459 11073,601 16610,601 18607,0 20898,-293 38101,-1224 -2133,12297 -2599,10457 -5829,24752l-5852 0c638,-4297 774,-6002 774,-7700 0,-9209 -8587,-8902 -10765,-8902l-17511 0 0 38568 12297 0c5694,0 12748,308 13830,-5386l1255 -6603 5829 0c-616,3523 -2629,15662 -2629,21837l0 10442 -5537 0c166,-1082 323,-2298 323,-3388 0,-3230 -323,-10457 -10922,-10457l-14446 0 0 25204c0,17533 3854,19223 9991,20132 3996,639 7843,639 11681,0 5710,-759 13222,-2764 17511,-17511l5537 0c-293,5387 -2923,17654 -6003,21057 -4146,4612 -10907,3388 -16579,3388 -3395,0 -18765,-1390 -23047,-1548 -3238,-172 -6295,-172 -9533,-293 -1533,0 -2922,-172 -4455,-172 -1390,0 -2922,0 -4297,172 -2163,293 -4469,759 -6618,759l-5679 0 0 -5852 2907 0c8601,0 8925,-13499 8925,-20726l0 -48408c0,-8451 -324,-23528 -9060,-23528l-2772 0 0 -5837 4748 0zm-100671 0c2479,0 5078,466 7520,759 2772,323 5709,623 8466,623 2749,0 5521,-300 8286,-623 2479,-293 5093,-759 7550,-759l5213 0 0 5837 -3230 0c-9360,0 -7986,14153 -7986,23528l0 47777c0,8910 158,21357 8151,21357l3065 0 0 5852 -5536 0c-2442,0 -4921,-759 -7362,-1224 -2772,-466 -5537,-631 -8309,-631 -2772,0 -5536,165 -8308,631 -2442,465 -4921,1224 -7362,1224l-5537 0 0 -5852 3080 0c8752,0 8444,-14739 8444,-22116l0 -46402c0,-10164 1240,-24144 -7978,-24144l-3238 0 0 -5837 5071 0zm-64837 84361c0,9841 1517,15070 11351,15070 9240,0 18299,-7843 18299,-23205 0,-15671 -9232,-25196 -25368,-25196 -1375,0 -2923,0 -4282,150l0 33181zm-25677 -84361c2457,0 5071,466 7535,759 2764,323 5679,623 8444,623 2771,0 5536,-300 8323,-623 2441,-293 5041,-759 7520,-759l5070 0 0 5837 -3237 0c-8910,0 -7978,10750 -7978,23212l0 16888c4282,-459 8586,-752 12898,-752 26586,0 37208,14289 37208,28727 0,13514 -5559,31363 -34286,31363 -4605,0 -9059,-173 -13672,-631 -2764,-293 -5379,-451 -8151,-1052 -4146,-788 -5829,-1547 -10614,-638 -3366,638 -5972,1397 -11674,1397l-3238 0 0 -5852 3080 0c8925,0 8759,-14889 8759,-23047l0 -46403c0,-9059 1548,-23212 -7827,-23212l-3223 0 0 -5837 5063 0zm-176738 0c2441,0 5055,466 7519,759 2780,323 5687,623 8444,623 2772,0 5551,-300 8308,-623 2457,-293 5071,-759 7535,-759l5244 0 0 5837 -3238 0c-7219,0 -7550,8316 -7685,11538 -173,2615 -323,13658 -323,17646l0 10916c4485,638 11539,1397 27983,1397 16436,0 23490,-759 27960,-1397l0 -10916c0,-3988 -150,-15031 -308,-17646 -135,-3222 -466,-11538 -7685,-11538l-3200 0 0 -5837 5206 0c2464,0 5078,466 7519,759 2772,323 5537,623 8309,623 2764,0 5672,-300 8444,-623 2471,-293 5070,-759 7549,-759l5056 0 0 5837 -3230 0c-9841,0 -8001,16451 -8001,28892l0 44719c0,6311 466,19051 8451,19051l3103 0 0 5852 -5552 0c-2456,0 -4905,-759 -7376,-1224 -2772,-466 -5537,-631 -8309,-631 -2734,0 -5521,165 -8293,631 -2457,465 -4898,1224 -7370,1224l-5506 0 0 -5852 3057 0c7227,0 8136,-10284 8136,-19051l0 -26112c-4297,451 -9525,759 -17203,909l-10757 0 -10773 0c-7685,-150 -12898,-458 -17210,-909l0 26112c0,8767 924,19051 8151,19051l3095 0 0 5852 -5544 0c-2472,0 -4913,-759 -7392,-1224 -2765,-466 -5537,-631 -8279,-631 -2764,0 -5536,165 -8316,631 -2464,465 -4905,1224 -7384,1224l-5522 0 0 -5852 3080 0c7978,0 8444,-12740 8444,-19051l0 -44719c0,-4605 -293,-12899 -466,-17354 -293,-4935 -924,-11538 -7512,-11538l-3238 0 0 -5837 5079 0zm-109280 84361c0,9841 1525,15070 11381,15070 9203,0 18285,-7843 18285,-23205 0,-15671 -9218,-25196 -25369,-25196 -1390,0 -2907,0 -4297,150l0 33181zm-25669 -84361c2449,0 5063,466 7520,759 2787,323 5694,623 8459,623 2772,0 5529,-300 8308,-623 2449,-293 5078,-759 7520,-759l5070 0 0 5837 -3215 0c-8924,0 -7993,10750 -7993,23212l0 16888c4162,-459 8286,-752 12448,-752 27194,0 37651,14446 37651,28727 0,7685 -924,31656 -35518,31363 -4124,0 -8286,-308 -12432,-631 -12763,-1052 -6761,-2148 -14604,-2148 -2614,0 -5213,766 -7828,1217 -2629,480 -5386,638 -8015,638l-3200 0 0 -5852 3065 0c8909,0 8751,-14889 8751,-23047l0 -46403c0,-9059 1533,-23212 -7827,-23212l-3230 0 0 -5837 5070 0zm-164764 98499l4147 0c8451,0 12936,-10607 15069,-16113 3839,-9992 3989,-8940 13515,-35984 5228,-14596 10456,-29184 15084,-47627 4132,-458 8121,-1081 11817,-2005 6761,24594 12605,40257 24129,71598 5386,14776 11065,30131 18592,30131l3238 0 0 5852 -5078 0c-2149,0 -4312,-638 -6468,-1089 -3058,-601 -6138,-766 -9203,-766 -2922,0 -5859,0 -8616,631 -2299,465 -4605,1224 -7069,1224l-7820 0 0 -5852 1976 0c12763,0 7084,-12590 4612,-19809l-17669 -50880c-616,-1683 -616,-2900 -1224,-6295l-1217 0c-323,5063 -1255,8293 -3095,14295l-15513 49017c-3853,12147 1533,13672 4598,13672l3380 0 0 5852 -2599 0c-1855,0 -3846,-466 -5702,-759 -3207,-638 -6588,-1096 -9826,-1096 -6295,0 -9367,1855 -12763,1855l-6295 0 0 -5852zm-107439 -76827c-601,5372 -1682,7227 -12139,39642 3989,624 8008,917 14303,917 5529,0 8759,-293 12147,-917 -9240,-28892 -11539,-31040 -12921,-39799l-1390 157zm-46230 76827l3216 0c5987,0 9367,-6152 11846,-11215 5356,-11366 9826,-23198 12591,-31349 13522,-38717 16429,-47785 18284,-56694 4297,-789 8309,-2013 11832,-3538 1983,7828 3989,13672 12297,37651 18908,53930 15513,42872 20283,54395 5056,12140 9526,10750 13687,10750l1510 0 0 5852 -3816 0c-2629,0 -5243,-638 -7843,-931 -3388,-466 -6926,-616 -10299,-616 -2629,0 -5078,150 -7685,458 -2929,451 -5837,1089 -8759,1089l-6603 0 0 -5852 3523 0c4305,0 7227,-3831 5537,-9059l-6912 -21207c-3080,308 -10284,616 -16594,616 -3996,0 -5694,-308 -14296,-616l-6152 18750c-3531,10607 3395,11516 6460,11516l3531 0 0 5852 -2772 0c-11674,0 -1067,-1397 -14431,-1397 -2787,0 -5559,-150 -8308,466 -1683,293 -3373,931 -5086,931l-5041 0 0 -5852zm-94082 5852c-2471,0 -4920,-759 -7392,-1224 -2772,-466 -5679,-631 -8428,-631 -2787,0 -5552,165 -8151,631 -2464,465 -4921,1224 -7362,1224l-5709 0 0 -5852 3230 0c6761,0 7535,-9059 7685,-12590 315,-5687 623,-19051 623,-24437l0 -29358c0,-11523 0,-26277 -8458,-26277l-3080 0 0 -5837 3403 0c1690,0 3373,158 5040,293 2938,330 6003,466 8940,466 4748,0 9375,-601 14123,-1052 3681,-323 7219,-789 10907,-789 32438,0 37201,20448 37201,29808 0,16287 -10923,31198 -33354,31198 -2923,0 -5687,-293 -8594,-758l0 -5071c9818,2471 21807,-3997 21807,-22597 0,-16136 -9067,-25661 -23821,-25661 -1517,0 -2907,0 -4439,165l0 15047 0 50264c0,9059 -1097,27186 8135,27186l4290 0 0 5852 -6596 0zm-193813 -104351c1855,0 3695,293 5536,466 4162,465 8459,916 12605,916 3997,0 7986,-300 12005,-759 2599,-330 5213,-623 7827,-623l3681 0 0 5837 -3230 0c-3523,0 -5829,2937 -5829,6603 0,4147 2614,11073 15820,46568 7069,18893 7843,23055 8444,27509l1720 0c752,-3688 1841,-8744 3058,-12605l14603 -45944c4598,-14446 902,-22131 -3846,-22131l-5078 0 0 -5837 4162 0c1675,0 3388,293 5078,623 2907,459 5829,759 8737,759 3388,0 6926,-451 10314,-916 1690,-173 3523,-466 5213,-466l2930 0 0 5837 -6160 0c-3373,0 -8601,4620 -17819,33346 -9826,30740 -16286,54554 -24287,72695 -6453,14904 -12748,17819 -19832,17819 -8443,0 -14581,-4763 -14581,-11208 0,-1705 466,-3388 924,-4935 932,-3065 2149,-5056 3065,-11351l5386 0c-300,1389 -465,2606 -465,3989 0,8909 5994,12898 10622,12898 3666,0 7670,-2441 7670,-8151 0,-9510 -8301,-24422 -30282,-77435 -8293,-20140 -12282,-27667 -18284,-27667l-2307 0 0 -5837 2600 0zm-122629 6002c-9991,0 -17684,3696 -21981,19201l-5851 0c2171,-15212 3102,-18600 3688,-27352 13221,1067 14303,1390 20148,1683 5213,316 19974,466 26127,466 15362,0 36103,-1390 49332,-2149 -931,12448 -2148,14589 -4319,27352l-5987 0c773,-3531 773,-6303 773,-6919 0,-11989 -11674,-12282 -17834,-12282l-12139 0 0 65769c0,9999 -609,26728 8594,26728l3237 0 0 5852 -5679 0c-2629,0 -5070,-759 -7527,-1224 -2787,-466 -5694,-631 -8451,-631 -2780,0 -5687,165 -8459,631 -2464,465 -4905,1224 -7550,1224l-6122 0 0 -5852 3230 0c8895,0 9067,-16436 9067,-26570l0 -65927 -12297 0zm-136338 15670c-616,5372 -1683,7227 -12125,39642 3989,624 7978,917 14273,917 5537,0 8775,-293 12140,-917 -9202,-28892 -11516,-31040 -12898,-39799l-1390 157zm-46267 76827l3237 0c6002,0 9368,-6152 11847,-11215 5371,-11366 9826,-23198 12590,-31349 13522,-38717 16429,-47785 18285,-56694 4297,-789 8293,-2013 11832,-3538 2013,7828 3989,13672 12297,37651 18908,53930 15528,42872 20275,54395 5078,12140 9533,10750 13695,10750l1547 0 0 5852 -3853 0c-2615,0 -5229,-638 -7858,-931 -3358,-466 -6904,-616 -10284,-616 -2614,0 -5071,150 -7685,458 -2915,451 -5837,1089 -8744,1089l-6626 0 0 -5852 3531 0c4319,0 7226,-3831 5544,-9059l-6919 -21207c-3080,308 -10307,616 -16594,616 -3997,0 -5680,-308 -14296,-616l-6152 18750c-3531,10607 3403,11516 6460,11516l3531 0 0 5852 -2772 0c-11674,0 -1067,-1397 -14446,-1397 -2735,0 -5507,-150 -8279,466 -1697,293 -3403,931 -5070,931l-5093 0 0 -5852zm-165508 -98499c2449,0 5063,466 7519,759 2772,323 5680,623 8452,623 2764,0 5536,-300 8300,-623 2464,-293 5071,-759 7535,-759l5229 0 0 5837 -3238 0c-7219,0 -7527,8316 -7685,11538 -150,2615 -308,13658 -308,17646l0 10916c4470,638 11539,1397 27983,1397 16429,0 23498,-759 27960,-1397l0 -10916c0,-3988 -150,-15031 -323,-17646 -120,-3222 -443,-11538 -7670,-11538l-3215 0 0 -5837 5228 0c2457,0 5071,466 7520,759 2764,323 5529,623 8301,623 2772,0 5679,-300 8444,-623 2479,-293 5078,-759 7549,-759l5056 0 0 5837 -3230 0c-9834,0 -7993,16451 -7993,28892l0 44719c0,6311 466,19051 8443,19051l3080 0 0 5852 -5521 0c-2464,0 -4905,-759 -7384,-1224 -2765,-466 -5537,-631 -8301,-631 -2757,0 -5529,165 -8294,631 -2456,465 -4920,1224 -7377,1224l-5521 0 0 -5852 3080 0c7219,0 8128,-10284 8128,-19051l0 -26112c-4312,451 -9525,759 -17210,909l-10750 0 -10765 0c-7693,-150 -12899,-458 -17218,-909l0 26112c0,8767 931,19051 8136,19051l3095 0 0 5852 -5522 0c-2471,0 -4935,-759 -7392,-1224 -2772,-466 -5544,-631 -8293,-631 -2772,0 -5537,165 -8309,631 -2456,465 -4913,1224 -7377,1224l-5521 0 0 -5852 3065 0c7993,0 8459,-12740 8459,-19051l0 -44719c0,-4605 -308,-12899 -466,-17354 -293,-4935 -924,-11538 -7520,-11538l-3230 0 0 -5837 5071 0zm-97756 -561925l0 -13439c-84715,1751 -140109,2952 -167221,2952 -36133,0 -75640,-631 -118639,-2952l0 17511c34969,1743 43495,14055 43495,52052l0 117565c-8173,458 -15730,1953 -23408,5942 -9525,4996 -19088,13379 -21762,24723 0,0 -2735,11643 -834,11245 1870,-405 5476,-16759 40092,-17683 1548,-90 3591,-135 5912,-120l0 128240c0,40385 -6776,53787 -43495,55582l0 17466c35585,-1751 62734,-2900 80801,-2900 18036,0 44644,1149 80252,2900l0 -17466c-36246,-1795 -42962,-15197 -42962,-53216l0 -132680c14619,-578 27104,-578 38440,-578 53629,0 71185,8233 72823,59060l17555 0c-540,-28644 -1186,-47304 -1186,-56100 0,-22244 0,-48529 1186,-78923l-17555 0c-1638,47334 -20899,55582 -75663,55582 -10194,0 -22063,0 -35600,-616l0 -164786c16970,-1157 32768,-1781 46868,-1781 68391,0 99401,17511 109039,74235l15265 0 0 -11110c0,-22739 -3403,-46756 -3403,-70705zm2830363 325532l-29560 -69923c5153,53 10209,-60 15287,-601 10036,-1007 18420,-3448 26991,-9112 9030,-5905 17706,-15235 19456,-26773 0,0 1540,-11862 -247,-11261 -1826,608 -3959,17203 -38282,21627 -6085,1112 -20403,1668 -27277,1901 -2088,45 -4109,173 -5995,308l-96568 -228648 -9391 0 -120435 301749c-17909,44629 -31588,65310 -70937,68541l0 16286c27795,-1608 48837,-2674 63035,-2674 14213,0 35187,1066 63079,2674l0 -16286c-27892,-1563 -38860,-5958 -38860,-22830 0,-4920 1021,-9773 2614,-14123l26758 -77758 125168 0 30477 73957c2629,7047 3666,13004 3666,16842 0,18435 -10570,22845 -40498,23912l0 16286c35765,-1608 61547,-2674 79396,-2674 17360,0 43683,1066 77811,2674l0 -16286c-33647,-541 -42046,-16302 -55688,-47808zm-211926 -90859l49430 -134295 56800 134295 -106230 0zm-278708 138449l0 15482c31957,-1562 55312,-2546 71756,-2546 16474,0 40370,984 72327,2546l0 -15482c-31957,-1578 -37831,-13424 -37831,-46914l0 -239803c0,-33459 5874,-44329 37831,-46327l0 -15513c-28907,1578 -53344,2599 -72327,2599 -19411,0 -42827,-1021 -71756,-2599l0 15513c30890,1532 37884,12297 37884,45899l0 238128c0,35593 -5507,47439 -37884,49017zm-349946 0c32430,-1578 38424,-13424 38424,-49017l0 -238165c0,-33580 -7489,-44330 -38424,-45862l0 -15483c24932,1007 44404,2029 56874,2029 36366,0 70735,-5635 103157,-5635 76782,0 117167,37591 117167,97373 0,41302 -26405,74821 -73762,88215l64319 125836c15941,30395 35383,46373 59271,47966l0 11320c-13972,1518 -22867,1518 -27381,1518 -54276,0 -89763,-22694 -109655,-69593l-28937 -67534c-11990,-27299 -22462,-35593 -56830,-36089l0 106207c0,33490 6017,45336 37862,46914l0 15482c-31364,-1562 -54817,-2546 -70735,-2546 -15963,0 -39935,984 -71350,2546l0 -15482zm104223 -172765c12989,1052 23386,1615 30890,1615 49355,0 73747,-22213 73747,-71651 0,-59368 -27885,-88245 -83700,-88245 -2442,0 -9496,556 -20937,1082l0 157199zm-543332 6761c0,-108836 80771,-189727 196413,-189727 114155,0 197916,79862 197916,189727 0,110827 -76309,189720 -197405,189720 -115191,0 -196924,-78893 -196924,-189720zm211325 168047c65333,0 109730,-58272 109730,-142799 0,-115011 -63327,-193896 -136601,-193896 -67782,0 -111646,54681 -111646,142814 0,116033 62246,193881 138517,193881zm-294634 -292313c0,-10314 571,-25278 1066,-44397 -50812,-13394 -95224,-21064 -134993,-21064 -129743,0 -206464,73161 -206464,190193 0,115003 75249,189254 201859,189254 52848,0 102706,-10795 144053,-29899l0 -85631c0,-25744 9578,-35547 34879,-37065l0 -14926c-25909,1487 -48769,1998 -68240,1998 -15460,0 -36367,-511 -63779,-1998l0 14926c27908,1007 34864,10284 34864,36554l0 69090c-12395,17578 -32392,25819 -59796,25819 -84242,0 -149087,-75264 -149087,-189209 0,-95945 47845,-149507 128668,-149507 71749,0 116131,33963 124094,91724l13942 0c-495,-16489 -1066,-31461 -1066,-45862zm-713482 290270c37388,-3110 50369,-22672 67286,-64950l114155 -286191 8999 0 129119 305760c12959,29898 20876,44908 52803,45381l0 15482c-32407,-1547 -57340,-2561 -73829,-2561 -16918,0 -41272,1014 -75220,2561l0 -15482c28434,-1022 38373,-5161 38373,-22672 0,-3636 -970,-9330 -3464,-16008l-28906 -70164 -118685 0 -25406 73747c-1465,4177 -2426,8789 -2426,13424 0,15994 10411,20095 36817,21673l0 15482c-26406,-1547 -46358,-2561 -59775,-2561 -13469,0 -33376,1014 -59841,2561l0 -15482zm219385 -131508l-53923 -127316 -46793 127316 100716 0zm-538201 -103623l0 -52014 264705 307270 17932 0 2471 -301643c481,-36119 7430,-48972 38838,-51526l0 -15483c-19884,977 -37350,1548 -52292,1548 -15918,0 -33391,-571 -52360,-1548l0 15483c21981,466 34399,9262 37403,25233 2938,16519 3959,87156 3959,212451 0,4635 -413,9781 -413,13920l-230375 -267087c-19457,977 -34361,1548 -44314,1548 -13485,0 -29403,-571 -47364,-1548l0 15483c28884,1021 39852,10802 39852,37606l0 2088 -3020 241809c-466,36599 -7437,48942 -38838,51541l0 15482c21868,-1036 39409,-1562 52299,-1562 12959,0 30425,526 52390,1562l0 -15482c-21965,-473 -34436,-9293 -37373,-25241 -3500,-18608 -3500,-88741 -3500,-209890zm-465183 235131c37448,-3110 50414,-22672 67331,-64950l114125 -286191 9030 0 129088 305760c12989,29898 20937,44908 52871,45381l0 15482c-32475,-1547 -57325,-2561 -73769,-2561 -16940,0 -41377,1014 -75257,2561l0 -15482c28418,-1022 38334,-5161 38334,-22672 0,-3636 -976,-9330 -3463,-16008l-28929 -70164 -118640 0 -25428 73747c-1458,4177 -2464,8789 -2464,13424 0,15994 10442,20095 36862,21673l0 15482c-26420,-1547 -46358,-2561 -59842,-2561 -13387,0 -33384,1014 -59849,2561l0 -15482zm219400 -131508l-53810 -127316 -46891 127316 100701 0zm1096527 -951775c-4545,1389 -6325,6400 -6739,10697 -1367,9142 1653,18645 7468,25722 1051,1044 2336,2787 4026,2126 2441,-1458 3884,-4072 5274,-6468 4432,-7881 5303,-17308 3583,-26068 -541,-2516 -2119,-4965 -4635,-5829 -2870,-992 -6077,-1067 -8977,-180zm67587 7106c2103,-1652 4928,-729 7204,53 1968,676 3666,2163 4282,4192 1532,4589 466,9570 -1112,14010 -2336,6468 -5912,12432 -10134,17841 -1946,-608 -4530,-623 -5611,-2637 -1691,-3140 -1638,-6851 -1608,-10299 278,-4815 308,-9683 1435,-14386 856,-3388 2336,-6971 5544,-8774zm-133258 0c2862,-766 6265,23 8210,2321 2397,2772 3448,6386 4320,9871 413,3741 1187,7550 503,11306 -646,3606 248,7738 -2006,10878 -1750,1698 -5446,2441 -6881,-30 -2096,-3343 -4364,-6596 -6055,-10149 -2764,-5724 -5213,-12050 -4139,-18518 504,-2997 3373,-4792 6048,-5679zm324705 29530c2870,-2922 7092,-3403 10960,-3590 -1262,683 -2441,1547 -3380,2651 2982,692 6152,181 9090,1247 2832,917 5821,316 8729,451 6430,128 13251,887 18622,4748 4192,3140 8369,6378 11749,10397 2231,2539 3426,5724 4913,8721 1202,2675 2652,5432 2472,8482 -2862,-2540 -4816,-6010 -8076,-8076 -1720,-1022 -3155,-2614 -5168,-3005 1164,1735 2915,2960 4304,4515 3974,3966 6994,8947 8444,14408 541,2179 1750,4267 1623,6573 -369,3929 450,7821 398,11742 82,7159 4086,13717 9533,18157 2103,1622 5078,1990 6670,4319 1758,2359 4342,3877 6266,6108 2313,3012 3846,6543 5829,9773 1187,2028 3816,2599 4898,4718 -2306,-15 -4342,-1112 -6430,-1841 924,1998 2193,3786 3620,5446 3043,3464 2953,8369 4500,12516 1270,3380 864,7099 458,10607 -1292,-1285 -2020,-2952 -2651,-4620 -1165,-3133 -3952,-5153 -6130,-7535 -1871,-2043 -3741,-4086 -5492,-6235 -2674,-3230 -3944,-7287 -6002,-10885 -1345,-2201 -1638,-4973 -3523,-6844 -1578,-1682 -3200,-3320 -4966,-4807 -4394,-3756 -11065,-3328 -15069,-7678 -5829,-5784 -6926,-14273 -8804,-21868 -909,-4304 -2825,-8271 -4545,-12282 -932,-1608 -2442,-2750 -3523,-4252 -1984,-2644 -4906,-4365 -7768,-5882 -3824,-1991 -7459,-4658 -9848,-8286 -699,-1037 -1383,-2073 -2231,-2982 157,1713 653,3410 1592,4868 2231,3523 5093,6685 8632,8924 2411,1465 4612,3268 7084,4643 1840,1374 3297,3290 4364,5318 699,2276 1285,4575 2336,6731 1450,3050 1097,6543 2164,9698 1472,4838 1675,10315 5011,14401 4319,5086 10471,8061 16384,10923 3523,1622 6723,4192 8616,7625 2622,4635 2689,10314 1247,15354 -233,932 -834,1706 -1330,2495 -4898,-5041 -6498,-12343 -11418,-17376 -1758,-1713 -3644,-3373 -5935,-4297 466,1300 1473,2291 2502,3170 3253,2787 5183,6821 6070,10953 2456,7204 8879,11846 14288,16767 2554,2306 4860,5086 5604,8541 601,2795 150,5687 526,8519 2854,-2456 2328,-6738 2020,-10119 -60,-3027 -3065,-4432 -4236,-6941 -1067,-2103 -3171,-3388 -4440,-5341 -1578,-2712 -428,-5920 338,-8707 3688,3035 6551,6904 9623,10510 5168,6430 8752,14258 9901,22439 856,5851 -556,11696 -2486,17172 -1368,3711 -1954,7843 -4395,11058 -1901,2427 -2892,5431 -3448,8429 -857,173 -1720,323 -2554,496 -804,1630 -1668,3200 -2397,4837 -991,2570 -668,5417 -1502,8031 -1871,-7204 -571,-14694 1487,-21665 2066,-6055 4560,-11989 6078,-18195 0,-3838 -481,-7677 -91,-11493 -1630,841 -2381,2599 -2381,4349 -203,5199 -233,10578 -2359,15423 -1855,4109 -2937,8534 -5191,12448 -2757,4747 -3170,10336 -3252,15670 -181,3343 1547,6280 2727,9285 -3080,789 -5312,-1908 -7828,-3110 -1548,15 -1998,2208 -639,2937 5139,3839 11960,2321 17834,1518 -2456,4139 -7437,5799 -11937,6475 -4176,75 -8255,-1547 -12470,-1097 1397,2194 3989,2862 6220,3854 3276,1360 6528,3418 8294,6603 1021,1811 458,4019 -391,5785 -203,67 -631,202 -849,262 -1006,-1472 -1705,-3155 -2952,-4424 -1653,-1826 -4455,-1796 -6130,-3621 -1375,-1480 -2674,-3073 -4312,-4297 150,1300 323,2614 511,3929 -6761,-3358 -11126,-10209 -12793,-17421 -1999,-7084 -616,-14881 3313,-21049 1262,-2254 2967,-4500 2937,-7227 -1983,564 -3343,2141 -4252,3899 -2434,4568 -5559,8707 -8729,12763 -1931,2307 -3711,4748 -6033,6686 -338,-2802 308,-5739 -803,-8413 -2149,863 -2953,3057 -3741,5055 -188,-1472 -331,-2937 -481,-4409 3636,-3854 8263,-6574 11967,-10375 3102,-2989 6257,-5964 8609,-9593 2967,-4334 6520,-8804 6678,-14280 481,-2998 2058,-5890 1375,-8985 -1187,-5844 -3561,-11741 -7978,-15888 -2644,-2411 -4117,-5799 -6731,-8226 -1901,-1795 -2937,-4455 -5304,-5724 -3500,-2013 -7332,-3373 -10750,-5507 -2584,-1547 -3297,-4717 -5258,-6851 15,1841 -248,3877 744,5537 2486,3606 5904,6618 10066,8105 2599,819 4530,2893 5844,5214 1285,2276 2705,4545 3268,7129 496,2163 -188,4357 -308,6528 2750,-1217 2502,-4823 3613,-7219 2893,3380 4365,7700 5762,11877 676,2569 1788,5288 909,7962 -849,2367 -450,4951 -1254,7332 -879,2998 -3373,5154 -4312,8136 -1022,3035 -4027,4612 -5740,7197 -1795,2719 -4612,4469 -6806,6851 -5589,5566 -11561,10937 -18457,14829 -931,-1405 -2239,-3133 -1562,-4913 1675,-1848 4116,-2787 5724,-4703 3403,-4056 8166,-6528 11929,-10194 6062,-5739 12448,-11771 15355,-19817 856,-3245 2088,-6776 1067,-10134 -1202,3636 -1653,7550 -3651,10878 -1916,3576 -4981,6280 -7482,9405 -1360,1653 -2892,3215 -4755,4365 -2840,1622 -4666,4462 -7370,6265 -4642,3786 -9172,7685 -13852,11411 -1773,-2194 -3208,-4688 -5304,-6589 -1840,-1682 -3816,-3200 -5717,-4815 2720,-2607 6198,-4222 9000,-6753 5859,-3854 12635,-6528 17466,-11802 1930,-2156 5040,-3824 5025,-7084 -2944,691 -4875,3155 -6994,5101 -2554,2629 -5859,4365 -9217,5724 -1968,714 -3358,2336 -5198,3245 -2675,1338 -4628,3651 -7099,5297 -3201,2486 -6904,4251 -9946,6941 -2179,2073 -5244,2817 -7422,4935 -2607,2397 -5958,3621 -9038,5244 -3275,1697 -6678,3140 -10269,4004 -1953,556 -4530,1149 -5085,3433 -594,3546 525,7099 1667,10427 2524,6310 4808,12868 9263,18149 7677,9180 15828,18405 26390,24347 1037,473 1825,1668 1082,2764 -1668,3231 -4673,5462 -7009,8166 -3644,2442 -6806,5612 -10900,7347 -3065,1315 -6513,1563 -9390,3373 1254,1780 2847,3418 3388,5581 480,1879 -278,3749 -481,5590 7084,-2119 13920,-5342 20080,-9451 6528,-4252 10577,-11110 15865,-16632 4087,-1239 8482,451 12148,2261 3673,2269 7594,4373 10547,7625 2381,2412 5085,4688 6558,7813 -323,5243 -5492,8549 -6250,13687 -556,2742 -977,5522 -1247,8309 -459,4454 721,8879 2268,13011 1315,3673 3824,6798 5056,10517 1735,4883 5521,8676 7362,13499 1299,3471 3080,6791 3688,10472 909,5379 2945,10953 1067,16369 -1127,2922 -451,6243 -2058,8999 -789,1345 -849,2975 -1578,4350 -2479,3576 -2899,8068 -5063,11802 -2058,3478 -3741,7219 -6483,10224 -8023,-3163 -13732,-9901 -19952,-15581 -6461,-5934 -12771,-12011 -19179,-18006 2261,3733 5522,6701 8414,9923 7940,8316 16061,16452 24362,24400 1299,1307 2584,2697 3147,4492 -3853,646 -7121,-1961 -9765,-4394 -2194,-2164 -4613,-4087 -7039,-5973 -2036,-1465 -2817,-4049 -4823,-5566 -4568,-3636 -8399,-8061 -12545,-12162 -6206,-6153 -11855,-12839 -18255,-18788 -2441,-2013 -3403,-5649 -6618,-6656 631,3283 3290,5544 5183,8121 8519,10472 18059,20035 27374,29808 5417,5401 10427,11231 16122,16331 1667,1630 4251,2787 4717,5296 -556,1901 -3155,3741 -4920,2104 -3839,-2599 -6649,-6356 -10119,-9375 -8076,-7317 -15678,-15130 -22890,-23266 -4567,-5183 -10104,-9405 -14536,-14693 -6610,-7783 -13138,-15701 -18412,-24490 -1224,-2366 -3538,-4034 -4350,-6618 -661,-2239 -2516,-3839 -3147,-6077 -1180,-3621 -2111,-7332 -2464,-11126 -451,-3974 -1758,-7993 -789,-11982 1052,-5138 1976,-10367 4072,-15189 3260,-188 6445,-1165 9728,-834 2058,-203 4605,428 6325,-962 -1021,-1172 -2381,-2231 -2629,-3854 -383,-2456 -481,-4943 -639,-7422 -2133,308 -4267,707 -6430,759 -774,-2599 -301,-5311 -105,-7940 428,-4357 879,-8767 225,-13109 -1172,-8962 -3102,-18074 -7903,-25849 -2366,-3794 -3448,-8339 -6513,-11697 -4439,-5093 -7527,-11508 -13191,-15407 -2712,-759 -5386,1284 -8136,841 -2494,-458 -5010,526 -7489,-128 -2953,-856 -6341,-1457 -8196,-4221 2441,1404 4996,2862 7888,2907 6618,353 12958,-2149 18810,-5018 3478,-1698 7580,-2284 10457,-5071 1533,-1435 3403,-2396 5304,-3215 1081,2028 2614,3741 4484,5078 1653,1127 3110,2780 5154,3200 1217,211 1945,-946 2704,-1690 -5086,-3012 -8278,-8106 -11276,-13026 -1983,-4560 -4372,-8940 -6017,-13627 -3200,-11644 -5642,-23528 -9818,-34879 -2524,-6017 -5266,-12666 -11156,-16136 -4763,-2855 -10517,-2119 -15820,-2412 -3591,-180 -7362,-1329 -9916,-3989 -496,-1299 293,-2554 706,-3741 2246,353 4319,1390 6543,1751 1239,-188 2186,-1165 3373,-1518 3636,248 6655,2802 10306,2923 789,45 1488,-203 2074,-759 -98,-1435 -1638,-1856 -2817,-2119 -3809,-803 -7535,-2276 -11494,-2118 -2832,-203 -6062,45 -8459,-1720 -931,-1420 661,-3065 1886,-3696 3538,-1390 7392,495 11013,-556 4747,-774 9285,-3403 14213,-2322 3718,917 7317,2337 10750,4004 3463,1833 4755,5852 5634,9406 1067,4071 1547,8511 4192,11974 1757,2396 2824,5259 4950,7392 2795,2870 4169,6716 6138,10134 4364,8030 9517,15700 12650,24332 1255,3027 158,6588 1886,9465 1397,-3328 0,-7813 3177,-10284 5274,-4019 11674,-6325 17030,-10254 2787,-2412 5304,-5108 7738,-7880 1713,-2119 3786,-4297 3989,-7174 -1675,601 -2817,2013 -4042,3237 -2644,2765 -5258,5612 -8428,7775 -4004,2908 -9113,3989 -12764,7422 -1667,1578 -3388,3178 -5363,4365 -1901,-3050 -3283,-6415 -4275,-9849 -601,-1885 962,-3485 2539,-4229 3388,-2051 7595,-2306 10705,-4868 2397,-1547 5304,-4019 4042,-7241 -1277,1615 -2306,3463 -4012,4657 -2381,1976 -5581,2149 -8323,3358 -2795,1187 -5477,2674 -8301,3771 -759,-1728 -3313,-3914 -1518,-5754 3636,-2502 8369,-2269 12343,-3974 2749,-1698 6115,-2802 8008,-5589 1052,-1390 1833,-2945 2479,-4560 -586,-308 -1172,-601 -1750,-879 -1022,1623 -2089,3283 -3614,4500 789,-3321 1773,-6588 2412,-9946 1232,-4853 5859,-7640 10269,-9263 3403,-1517 7226,263 10720,-841 1757,-676 2148,-2780 2336,-4432 278,-3884 -789,-7783 -2539,-11231 1825,-699 3651,-1405 5521,-2013 1285,2148 2201,4485 3223,6776 819,1900 2516,3313 3230,5273 541,2660 -1082,5101 -2118,7422 -2397,5011 -6378,9488 -6994,15197 -376,2998 1923,6769 5213,6604 1916,-1593 143,-4831 2337,-6333 1705,-1285 2952,-3013 3050,-5221 -2915,759 -4448,3568 -6686,5318 -654,-4529 2734,-8188 4815,-11884 1638,-2869 2547,-6040 3553,-9180 3155,1345 6017,3261 9188,4575 2569,1067 5010,2705 7887,2757 2074,0 4057,706 5845,1713 3238,1795 6716,3681 8511,7099 2997,4252 2997,10119 7039,13725 3463,2809 6220,6385 9818,9044 2675,2059 4891,4628 7362,6934 2404,1931 2494,5364 4568,7557 586,-4515 -1984,-8594 -4891,-11786 -2306,-2735 -5686,-4252 -7857,-7099 -3261,-4237 -8925,-6776 -10330,-12313 -834,-5581 -1810,-11553 -5491,-16068 -4380,-5815 -11636,-8061 -17729,-11509 -3681,-2832 -6806,-6528 -8661,-10810 -1285,-2832 -2862,-5506 -3914,-8451 -1112,-2622 -1916,-5439 -3681,-7730 -428,2381 -90,4808 511,7129 1157,4981 3230,9728 5904,14093 2592,4252 6528,7550 10803,10036 3606,2043 7933,3200 10592,6573 -7565,-2193 -15099,-4545 -22176,-8038 -4507,-2411 -7257,-6964 -9300,-11463 -2013,-5372 -691,-11096 -511,-16617 1705,-7527 1563,-15716 -1592,-22860 -2014,-4868 -4207,-9788 -7625,-13860 -1781,-2118 -4087,-3876 -5184,-6483 -916,-2163 -1472,-4499 -2847,-6445 -773,5228 2337,9841 4876,14108 2321,3989 6716,6693 7827,11366 -6468,-3817 -12410,-8767 -16369,-15220 -2629,-4688 -3290,-10307 -2531,-15580 473,-1563 1172,-3043 1915,-4515 1375,-1653 3043,-3057 4132,-4966zm41640 33940c1577,3351 3155,6987 6002,9451 -390,-3726 -2186,-8136 -6002,-9451zm8444 13041c-61,5101 1202,10082 2351,15032 496,2014 909,4102 1946,5942 1915,3433 3500,7145 6235,10037 2321,2599 5837,3898 9270,4049 -1751,-1946 -4395,-2675 -6333,-4387 -4515,-3884 -6648,-9563 -8286,-15130 -1795,-5153 -1623,-11118 -5183,-15543zm-19645 8722c744,3741 3786,6528 4545,10284 1180,4831 3403,9315 5800,13642 1269,2216 3110,4350 5784,4756 -398,-1285 -954,-2510 -1743,-3591 -1931,-2660 -3576,-5507 -5386,-8249 -736,-2967 -2284,-5611 -3245,-8488 -1022,-2908 -2352,-5785 -4410,-8106 -338,-60 -1022,-203 -1345,-248zm19397 31837c450,2689 2817,5025 5611,5025 -105,-2802 -2794,-5311 -5611,-5025zm18374 48701c714,1893 2149,3328 3298,4935 2968,4846 4192,10848 2705,16354 -2164,3817 -3448,8301 -7009,11118 -3463,2757 -5199,6904 -6491,10983 -360,4275 1029,9300 4958,11576 2149,1315 4680,166 6994,60 -2509,2810 -6355,2938 -9818,3351 2359,2569 6250,1457 8984,143 3403,-1300 5229,-5695 3606,-8992 -2028,435 -3996,1254 -6100,1217 421,-3178 1766,-6145 3486,-8805 1840,-2201 4657,-3388 6235,-5852 -4042,248 -7137,3418 -9721,6250 -2268,2412 -2591,5755 -2982,8880 -1007,-1067 -2103,-2119 -2599,-3523 30,-1315 465,-2585 713,-3869 263,-2982 3276,-4440 4748,-6791 2487,-3779 6145,-6836 7655,-11231 1345,-3944 2276,-8323 1134,-12447 -1517,-5432 -5356,-10029 -9796,-13357zm-127781 52578c-323,1923 2118,2892 2907,4484 2930,4598 7121,8264 9638,13124 3185,4748 6280,9555 9540,14243 -165,-2336 -1292,-4440 -2411,-6430 -3711,-6438 -7993,-12538 -11366,-19156 -1097,-2149 -1705,-4688 -3561,-6341 -1374,-1164 -3260,-323 -4747,76zm-460218 -191335c2179,353 4402,601 6573,1187 2254,601 4132,2088 6236,3065 -526,-53 -1616,-158 -2141,-203 1089,1517 2411,2832 3485,4365 864,2779 2209,5536 2029,8518 -143,2990 -579,6003 -1631,8820 -1652,4064 -4702,7377 -7715,10502 -2772,3019 -6513,4807 -9841,7114 639,-3261 3546,-5146 5327,-7730 1960,-2833 4402,-5417 5611,-8700 1052,-2824 2276,-5739 2013,-8826 -1254,541 -1382,2028 -1825,3117 -1720,4801 -5011,8774 -8406,12470 -3012,5199 -6303,10465 -7324,16490 -594,3868 -1383,7827 -654,11741 233,3869 1112,7678 1179,11569 106,3110 759,6378 -450,9360 -1172,2982 -1826,6528 -4598,8496 -2569,1781 -4485,4545 -7557,5514 -6836,2404 -13199,6190 -20253,7850 3929,-3696 9112,-5649 13364,-8939 3899,-3005 7610,-6438 9961,-10833 3283,-5739 4365,-12402 4936,-18900 -1037,924 -2006,1991 -2366,3365 -1022,3636 -2149,7242 -3418,10803 -759,2291 -2953,3583 -4102,5626 -1916,3170 -4455,6048 -7685,7911 -4996,2937 -10577,5145 -14664,9382 -4349,4568 -6393,10848 -6994,17000 -187,2900 -2336,4981 -3958,7167 -2247,2997 -5740,4612 -8279,7317 -2329,2441 -5191,4342 -7234,7084 -2336,3080 -4222,6851 -3839,10825 1578,-1578 1796,-3959 3095,-5755 2194,-3140 4545,-6355 7888,-8368 1863,-1157 2862,-3200 4567,-4530 2705,-2261 6093,-3929 7760,-7212 3283,-5844 5011,-13086 10923,-17015 5987,-3726 13176,-4732 19502,-7715 2231,-1164 4379,-2456 6686,-3418 142,3403 2088,6213 3418,9218 1780,3756 4454,7189 4995,11433 -2531,-1224 -4177,-3726 -6746,-4935 113,886 233,1765 376,2644 1307,1007 3200,1705 3576,3546 398,1773 398,3613 796,5424 2802,232 5604,-2014 5604,-4883 30,-3666 -1840,-6934 -3110,-10239 -1856,-4478 -6153,-8031 -6190,-13132 669,-3530 3388,-6175 4845,-9375 496,-1254 939,-2524 1495,-3748 2156,390 4305,916 6333,1780 -1330,3869 -3313,7753 -3110,11944 30,1683 1194,3306 2877,3651 2952,676 6047,-127 8985,661 4161,1052 8646,2983 10487,7167 1795,4192 3763,8451 4439,13003 -2268,-1179 -3523,-3433 -5273,-5183 233,2524 743,5371 2907,6994 5334,4485 12868,4349 18623,8075 540,444 1457,1067 991,1886 -623,1435 -1562,2712 -2396,4034 -2044,-864 -3809,-2239 -5822,-3170 -2457,-774 -5071,-1157 -7362,-2442 -3027,-1449 -5476,-3801 -7625,-6340 -526,3245 1998,5912 4598,7377 3170,1675 6453,3155 9788,4455 1532,698 3313,1675 3703,3448 -435,2291 -1855,4289 -2321,6611 -556,1344 -789,3726 -2667,3726 -2719,-1578 -4605,-4365 -7587,-5552 -3951,-1690 -7272,-4477 -11110,-6378 -4703,-2396 -7828,-6746 -10863,-10870 -721,2074 669,4079 1517,5890 2600,4049 6311,7256 10427,9743 4072,2975 8910,4755 12733,8076 1856,1532 4530,2584 5214,5123 398,2486 323,5071 1059,7535 2126,-2930 1412,-6829 2682,-10059 819,-2074 1592,-4147 2366,-6235 2983,-5319 5379,-10968 8279,-16347 1517,-2524 3523,-4717 5040,-7256 1991,-3005 3433,-6401 5860,-9113 961,-1066 1750,-2283 2231,-3651 1330,-3666 3613,-7016 4079,-10967 263,-2645 1239,-5244 3080,-7205 5198,-5769 13845,-7887 21207,-5551 4470,1608 9262,2006 13980,1728 2464,-196 4995,1284 5416,3853 -4455,2682 -9916,526 -14566,2540 -3095,1299 -7752,443 -9405,4019 3989,1111 7760,-676 11426,-1946 1675,-744 3170,488 4552,1270 2104,-639 4094,-1796 6325,-1954 1796,684 1803,3854 0,4500 -3357,1300 -6558,3433 -10276,3388 -4342,15 -8737,233 -12959,1285 -2028,511 -3553,2043 -4747,3696 -3283,4499 -6235,9300 -8181,14543 -1134,3043 -2043,6160 -2975,9263 -1683,5649 -2426,11523 -4409,17090 -1435,3748 -1713,7843 -3524,11463 -2509,6694 -5416,13597 -10607,18683 -1690,1803 -4687,3035 -4394,5942 5115,-676 8631,-4890 12049,-8353 4530,3606 10066,5499 15205,8015 5258,2044 10547,4162 16158,5026 -2208,436 -4387,1021 -6588,1532 -2291,-165 -4868,-1968 -6971,-360 -4034,3162 -6468,7820 -9969,11486 -3132,3568 -5596,7685 -7467,12042 -3666,6272 -5972,13214 -7858,20192 -1510,6694 -2569,13575 -1825,20464 -105,2952 2013,5874 638,8751 -2058,857 -4477,-60 -6670,0 0,2261 -15,4523 -248,6746 -699,1796 -2051,3230 -2742,5041 4507,1795 9195,-661 13755,128 3853,3185 5093,8398 6145,13116 601,4747 -68,9525 15,14288 -173,5536 -2923,10457 -4891,15520 -2223,5409 -5942,9991 -9232,14769 -12080,17293 -26976,32332 -41986,47056 -5085,4883 -9660,10329 -15264,14656 -2254,1630 -3787,4185 -6251,5507 -1772,-196 -2779,-2164 -4004,-3321 4117,-4364 8309,-8661 12651,-12793 6904,-7174 13687,-14461 20794,-21455 5040,-4965 9390,-10547 14025,-15888 2366,-2809 5709,-5379 6145,-9277 -849,308 -1826,556 -2352,1389 -2426,2975 -5288,5537 -7722,8512 -3320,4019 -7219,7519 -10780,11321 -8549,9202 -17353,18179 -26398,26901 -3222,2757 -6858,5927 -11313,6017 218,-2442 1878,-4350 3561,-5972 7114,-6957 15092,-13087 21469,-20787 3576,-4289 7505,-8323 10548,-12996 -4590,3636 -8369,8211 -12388,12471 -5897,5596 -11772,11245 -18074,16391 -2149,1593 -4432,2982 -6754,4320 -646,248 -1344,818 -2088,586 -1901,-2104 -3125,-4703 -4500,-7167 -2471,-4808 -5228,-9555 -6603,-14829 -1225,-5243 -4012,-10059 -4425,-15468 -495,-5611 1037,-11125 1946,-16601 1194,-3291 3448,-6213 3854,-9774 1036,-2832 3313,-5025 4454,-7842 1841,-4252 4913,-7843 6649,-12140 2569,-6220 3733,-13229 2118,-19832 -1262,-6017 -4387,-11381 -6761,-17000 2156,-3666 4395,-7512 8016,-9931 3771,-2321 7039,-5687 11523,-6603 2960,-556 5770,-2164 8820,-1931 3185,804 4079,4402 6017,6648 3816,3974 7437,8249 12094,11276 3576,2494 7482,4440 11539,6002 2164,804 4259,2164 6648,1886 83,-1976 -368,-3989 128,-5905 421,-1622 1683,-2787 2764,-3981 -4988,-1931 -9675,-4560 -14092,-7573 -4034,-2787 -8376,-5416 -11306,-9465 -751,-1149 -1638,-2344 -1743,-3748 1435,-3140 5446,-2765 7610,-5071 1592,-1457 2982,-3110 4612,-4515 8564,-7121 15528,-16008 21185,-25571 1292,-3268 2959,-6423 3590,-9901 669,-3531 2585,-7084 1578,-10705 -1315,-1420 -3320,-1765 -5101,-2239 -3485,-774 -6671,-2411 -10029,-3546 -5844,-2118 -10021,-7098 -15587,-9713 -1690,-834 -3463,-1652 -4628,-3185 -2073,-2614 -5461,-3553 -7775,-5882 -3636,-3350 -7955,-5919 -12643,-7467 -4252,-1968 -7933,-5048 -11043,-8526 -849,-1007 -2028,-1593 -3297,-1886 -271,2479 1795,4162 3312,5800 2134,1983 4079,4304 6776,5589 1548,758 2847,1945 4395,2734 6197,2802 11028,7768 16692,11434 -2111,2193 -4860,3650 -6904,5904 -1450,1420 -2178,3448 -3778,4733 -1097,248 -1863,-736 -2652,-1315 -6874,-5965 -14018,-11599 -20997,-17428 -5070,-4207 -8533,-9931 -11613,-15655 -1210,-2247 -864,-4906 -1751,-7257 -278,3756 -1036,7880 857,11351 1247,2419 2621,4755 4004,7091 3771,5890 9931,9556 14648,14581 2645,2817 5973,4846 8850,7415 2103,1945 4822,3320 6182,5987 -804,1029 -1637,2006 -2471,2997 -2554,-2231 -6048,-3125 -8264,-5739 -1667,-1871 -4034,-2877 -5859,-4530 -7107,-6348 -14341,-12891 -18983,-21319 -1886,-4094 -3479,-8444 -3899,-12959 -383,-4920 1532,-9608 3591,-13965 894,-1908 1795,-3914 3478,-5273 481,2546 976,5273 2960,7129 758,-3005 383,-6115 661,-9143 1254,-3898 4522,-6836 7910,-8977 4432,-2283 9773,-4883 11193,-10111 263,-1397 1194,-3388 -391,-4335 -646,1503 -1059,3110 -1818,4568 -4176,4237 -10584,5146 -14723,9390 -4515,5642 -9361,11013 -13988,16564 -2164,2660 -2749,6108 -3861,9248 -609,1938 -1458,3981 -857,6002 774,2569 571,5319 1488,7858 2118,6280 5754,12049 10502,16677 4950,4838 10051,9510 15159,14198 -15,698 0,1374 15,2073 -1051,-406 -2118,-759 -3185,-1067 -451,2690 368,5402 45,8106 -2704,-1675 -4297,-4537 -6340,-6889 -4027,-4605 -5739,-10825 -10179,-15107 -849,-961 -2133,-1051 -3313,-1224 263,3223 3170,5153 4297,8000 1660,3989 3591,7993 3982,12373 308,2862 -872,5566 -1563,8293 -992,3629 -2043,7467 -4778,10224 -2404,2382 -4627,5131 -7782,6573 165,-1329 428,-2636 586,-3951 -1999,992 -2938,3050 -4440,4582 -1315,323 -2719,76 -4019,526 -2922,1315 -5619,3741 -5822,7144 -909,-1570 -1728,-3493 -969,-5303 1239,-2231 3350,-3711 5213,-5371 3058,-2472 8444,-1841 10052,-6033 -5755,-691 -11719,3298 -17218,293 -2825,-1585 -6521,-2704 -7835,-5979 2268,293 4259,1607 6558,1810 4402,503 9104,-669 12522,-3546 1165,-864 -270,-2351 -1314,-1870 -2532,1142 -4703,3433 -7715,3125 804,-3065 2704,-5890 2299,-9173 -399,-7962 -1743,-16241 -6168,-23032 -3741,-6370 -5056,-13935 -4575,-21252 120,-1630 -901,-2952 -1765,-4206 -1240,2539 -1150,5446 -1067,8195 353,6235 2412,12223 4793,17932 2381,4898 2877,10404 3756,15715 263,3276 1254,6799 -225,9931 -1165,-2636 -729,-5679 -2089,-8248 -638,-1345 -1044,-2772 -1795,-4057 -804,-586 -1736,-924 -2629,-1322 -1706,-4830 -4350,-9255 -5943,-14145 -1750,-5439 -5461,-10510 -4965,-16474 428,-4402 556,-8880 1900,-13109 2074,-6746 6160,-12605 10457,-18119 2186,-2735 3854,-6003 6904,-7933 796,3215 2765,7422 -143,10149 -3808,3793 -8353,8196 -7948,14040 278,2569 -217,6002 2284,7580 601,-4425 -308,-9308 2351,-13207 3313,-4439 7648,-7985 11554,-11861 1863,-1901 4222,-3621 4830,-6378 1698,-3831 2787,-7993 5387,-11381 1202,-2073 3666,-3298 4237,-5724 -3238,1066 -5199,4064 -7400,6483 -1961,2133 -3185,4777 -4237,7452 -1540,2997 -3418,5927 -5964,8203 -1090,-3576 -1458,-7369 -1510,-11095 841,-4470 2494,-9128 6054,-12170 4222,-3809 10240,-4568 14604,-8151 2599,-2171 5687,-3793 7843,-6438 1329,-1517 849,-3696 1788,-5386 1066,-1765 833,-3876 1472,-5784 1533,-4853 1022,-10194 3245,-14859 2637,-5785 7039,-10953 12793,-13830 4643,-2509 7595,-7024 10149,-11479 0,-541 15,-1653 30,-2216 -1096,1270 -1960,2697 -3012,3997 -5041,6167 -13394,8473 -18209,14881 -2502,3170 -3539,7159 -5537,10607 -330,3020 -1780,5755 -2178,8737 -624,5634 -2479,11283 -5912,15828 -6018,5754 -15205,6671 -20914,12853 -1728,1420 -1638,3869 -2862,5597 -1142,1720 -2502,3343 -3110,5356 -1871,5739 -5950,10344 -10007,14664 -3328,3508 -6310,7332 -8849,11441 -1435,-3786 774,-7467 1209,-11193 571,-6100 4373,-11171 7423,-16272 -1916,399 -3847,834 -5830,729 1503,-1923 3651,-3178 5214,-5048 1487,-1653 1404,-4057 2644,-5845 2742,-4116 6603,-7286 10472,-10291 2441,-1916 5318,-3245 7647,-5349 1683,-1487 2412,-3681 3583,-5536 1037,-1811 2382,-3561 2570,-5695 180,-2396 262,-4792 751,-7144 683,-5093 548,-10269 1149,-15362 887,-2028 1180,-4267 1983,-6310 2254,-3088 4207,-6513 7220,-8970 1547,-1344 3342,-2471 4454,-4244 -1420,113 -2847,526 -3929,1510 -3433,2854 -6685,5965 -9653,9307 849,-7534 5033,-14400 10397,-19614 5431,-5536 11757,-10938 19614,-12327 3884,-834 7798,-15 11697,135 2764,233 5161,-1390 7782,-1916 1991,-157 4019,0 5995,-308 -631,-834 -1300,-1652 -1976,-2441zm-38191 47131c1014,-436 2088,-931 2381,-2088 834,-2599 2486,-4770 3606,-7212 -3486,1675 -5867,5461 -5987,9300zm-5785 13808c-1953,6114 -3313,12703 -7534,17743 -2352,2847 -6063,4222 -8249,7242 3749,90 6438,-2952 9210,-5026 3290,-2419 4282,-6565 6325,-9901 1758,-2712 2134,-5957 2780,-9037 728,-4064 1532,-8151 1585,-12282 -3178,2899 -2945,7459 -4117,11261zm19892 1517c-1795,3981 -4131,7798 -4905,12162 -1270,5041 -5724,8354 -7783,12989 1398,-90 2757,-511 3726,-1563 2975,-3012 4598,-7069 6025,-10960 1232,-3343 1262,-7182 3403,-10134 1292,-1878 2659,-3749 3336,-5957 -2209,-571 -2968,1968 -3802,3463zm-21740 33241c2990,804 5108,-2366 5589,-4920 -2539,541 -4717,2479 -5589,4920zm-21988 55793c-976,2937 -481,6077 -315,9112 142,2630 1645,4883 2186,7422 924,3035 3959,4643 5724,7129 1840,2494 3891,4801 5642,7355 1720,2779 893,6791 -1593,8827 -774,-2457 -278,-5259 -1668,-7513 -1577,-2674 -4004,-4710 -6483,-6528 -1239,-961 -2802,-1412 -4379,-1269 4206,3959 9210,8488 8909,14821 -1360,-548 -2689,-1239 -4124,-1517 -856,-233 -2111,60 -1848,1202 233,2569 578,5814 3208,7099 2937,1938 7084,2990 10149,698 -1924,-676 -3982,-743 -5943,-1141 -1607,-519 -2937,-1646 -4251,-2645 2313,30 4725,1014 6971,263 4237,-2539 6453,-8143 4875,-12891 -2178,-7467 -10119,-11366 -12500,-18712 -1037,-2570 -864,-5432 -2164,-7888 1420,-5544 3727,-10795 6574,-15746 -3696,3366 -7009,7287 -8970,11922zm133566 39830c-1765,683 -2246,2696 -2944,4251 -1653,4688 -5454,8159 -7362,12703 -2269,5274 -6033,9871 -7377,15513 1660,-2254 3313,-4515 4905,-6821 2366,-4252 4222,-8970 7843,-12357 2501,-1706 3726,-4545 5228,-7069 1037,-1969 2953,-3231 4117,-5101 -1382,-639 -2847,-1593 -4410,-1119zm440310 -154879c-180,-4852 1052,-9916 4019,-13830 3629,8256 8467,16723 16535,21297 4950,2600 7136,8632 6963,13951 -413,7820 -105,15655 0,23483 -6062,2246 -12545,3185 -18990,3155 -2352,30 -4771,-999 -6145,-2953 -1187,-1855 -338,-4116 -323,-6137 263,-1608 -1270,-2652 -2006,-3854 428,-571 894,-1119 1345,-1683 -917,-916 -1781,-1878 -2652,-2817 481,-1074 1104,-2103 1337,-3267 -1209,-2262 -5108,-3351 -4027,-6513 1503,-3772 3974,-7069 6018,-10547 187,-3576 -1991,-6746 -2074,-10285zm1608 2547c330,699 669,1412 1022,2111 1968,-481 3943,-947 5972,-1119 2193,157 4259,1036 6468,1239 -917,-2118 -3283,-2734 -5311,-3215 -2735,-654 -5582,0 -8151,984zm1457 3163c233,1404 917,2659 1968,3628 1172,1067 849,2907 1818,4117 902,788 1616,-75 2232,-744 277,-1262 -173,-2547 -248,-3816 1885,646 3530,1773 5348,2591 -195,-1201 -788,-2313 -1840,-2967 -2675,-1870 -5920,-3478 -9278,-2809zm-4146 19516c2133,323 5040,1518 6700,-436 -2163,-210 -5010,-1547 -6700,436zm3373 7941c1960,1051 4980,1419 6385,-729 -2149,-594 -4395,-128 -6385,729zm-494255 -36525c2111,-3012 3222,-6558 5153,-9668 1735,3095 3809,6168 4222,9759 436,3433 67,6933 -992,10194 -368,1352 -894,2674 -849,4086 1676,3914 4891,7054 6205,11103 646,2967 -3312,3516 -4221,5837 150,1322 713,2569 1066,3861 -991,917 -1998,1796 -2997,2705 646,405 1292,826 1946,1224 -744,1120 -1796,2074 -2149,3403 0,2434 1067,5124 -526,7302 -1690,2336 -4905,1983 -7444,2073 -5860,-232 -11922,-263 -17383,-2674 105,-2952 833,-5859 556,-8834 -451,-5627 -677,-11276 -707,-16910 136,-2427 489,-5056 2021,-7001 1998,-1939 3869,-4027 6235,-5507 4177,-2742 6956,-6994 9864,-10953zm-4981 8782c1908,-413 3734,-1247 5679,-1420 2352,188 4425,1826 6859,1443 -143,-496 -436,-1488 -564,-1984 -3741,-2509 -9307,-1825 -11974,1961zm331 6784c1780,-827 3328,-2141 5288,-2509 -75,1262 -323,2509 -435,3771 435,1382 1915,931 2937,728 255,-2719 1720,-4980 3005,-7286 -1991,-46 -4034,-106 -6003,323 -2396,525 -4034,2772 -4792,4973zm9044 14476c1796,120 3606,-83 5387,-421 -46,-323 -128,-977 -173,-1300 -1728,451 -4620,-443 -5214,1721zm-3959 6543c1939,1682 4688,1262 7024,1029 -1885,-1653 -4702,-1961 -7024,-1029zm242989 -33565c26187,-781 52502,2149 77848,8752 10818,2742 21485,6265 31469,11351 1464,826 2997,1825 3801,3358 931,1923 -691,4642 -2893,4439 -2163,-135 -4116,-1201 -6032,-2088 -5288,-2486 -10802,-4590 -16564,-5611 -7302,-1841 -14529,-3989 -21718,-6191 -5461,-1577 -11170,-1855 -16804,-2253 -5019,-376 -9864,-2201 -14920,-1923 -11080,556 -22108,-1743 -33181,-834 -7610,120 -15144,1315 -22754,1157 -3275,-75 -6415,1134 -9698,1224 -13642,443 -26789,4605 -39800,8399 -8210,2246 -16534,4612 -23963,8864 -1773,203 -3351,-1299 -3539,-3020 -323,-1840 1225,-3230 2569,-4191 4110,-2810 8887,-4343 13507,-6138 12230,-4815 25226,-7234 38019,-10074 14657,-3305 29696,-4169 44653,-5221zm-172126 11088c2524,-2599 6460,-3170 9923,-3020 1803,759 3591,3231 5672,1871 2764,-1878 6340,-2674 9525,-1375 2224,609 3636,2524 5304,3952 2201,616 4747,751 6325,2651 2321,1841 218,5462 2411,7347 2201,1428 4981,2344 6221,4846 818,2516 728,5228 871,7857 3170,421 5424,3043 7099,5552 2051,2832 -594,6280 488,9330 887,2614 3170,4410 4117,6971 451,2089 -323,4192 -451,6265 38,2615 -2779,4425 -2103,7137 578,2794 2043,5409 1592,8376 81552,0 163082,0 244649,0 -233,-3215 646,-6333 819,-9525 -1165,-3404 -3126,-6761 -2727,-10487 713,-2690 2088,-5184 3838,-7362 1736,-1976 248,-4658 338,-6957 -413,-3297 2096,-5867 4395,-7842 977,-932 2689,-857 3448,-1984 233,-2336 -45,-4702 511,-6993 1315,-2772 4440,-3561 6874,-4951 1945,-1607 -752,-4357 848,-6235 2322,-3538 7310,-3148 9946,-6325 2803,-3013 7625,-2780 10961,-849 1164,699 2569,1780 3868,729 3719,-2494 9286,-2998 12598,383 1608,1337 1390,3666 2600,5198 3598,2464 7331,4763 10765,7460 1810,-1458 4432,-1285 5566,924 2562,4499 4500,9916 3275,15159 -458,2787 -1697,5356 -3155,7738 -1051,1780 -991,3846 -526,5784 -1172,-601 -2516,-1119 -3170,-2351 -1728,-2930 -3929,-5634 -6791,-7505 -1577,-744 -3373,-849 -4950,-1547 -3020,-1390 -6483,218 -9481,-1300 308,-338 924,-999 1225,-1345 6092,-586 12327,1195 17428,4515 1367,992 2599,2216 4207,2787 1322,-4222 3636,-8496 2607,-13041 -549,-2441 -1631,-5198 -4087,-6227 -789,1359 -1442,2809 -2291,4139 -233,-30 -684,-105 -902,-135 -1014,-2712 -1510,-5943 -4034,-7738 -2486,-1683 -5566,-2148 -8368,-3057 -864,2501 -3185,4837 -2261,7669 976,2818 4056,4117 5476,6664 -3493,1104 -6077,-1638 -8857,-3140 -4582,-1593 -10742,420 -12515,5198 -571,1457 -714,3215 135,4598 811,1126 1953,1960 2892,2967 1210,1142 2276,2689 4057,2922 1517,316 2982,804 4470,1255 1502,-203 2952,-677 4484,-849 -278,2005 -1435,4169 -3523,4732 -4582,1187 -9270,-1517 -13830,-45 -2426,729 -4161,3140 -4131,5672 -173,1983 1314,3501 2321,5048 -669,1067 -1443,2119 -1690,3373 -661,2877 -3088,4763 -5349,6430 90,2194 526,4365 323,6544 -556,2246 -1826,4221 -3140,6077 -3073,2930 -4951,7197 -4673,11463 248,6957 1345,13875 1007,20847 -421,8218 278,16444 188,24677 -804,22289 15,44607 -218,66911 -684,11065 128,22123 481,33181 -759,7317 586,14634 112,21966 -901,10006 504,20027 181,30041 -729,18202 556,36396 45,54598 37,4778 698,9563 37,14341 -758,4920 -1044,10134 -3666,14506 -3606,6483 -10126,10487 -16279,14235 -6836,4365 -15189,5191 -22273,9015 -3095,1224 -6423,1720 -9631,2517 -8406,1720 -16586,4304 -24925,6347 -5026,1300 -10179,2104 -15137,3726 -5123,1676 -10509,2231 -15640,3824 -5837,1765 -11757,3433 -17143,6325 -3050,1608 -5642,3869 -8226,6108 -3448,2877 -5604,6963 -8774,10103 -992,1097 -2659,526 -3508,-450 -4297,-5567 -8722,-11464 -15100,-14829 -7362,-4365 -15993,-5492 -23866,-8609 -10194,-2359 -20463,-4387 -30612,-6986 -12725,-3434 -25676,-6236 -38124,-10630 -3936,-1796 -8293,-2644 -11832,-5176 -2434,-1630 -5529,-1923 -7737,-3914 -3651,-3035 -7460,-6100 -9991,-10164 -2014,-3170 -3140,-6836 -3719,-10524 -1247,-8474 -1059,-17068 -991,-25624 22,-12779 691,-25557 698,-38350 376,-14724 -368,-29478 60,-44209 406,-21019 23,-42023 0,-63027 -691,-16895 -105,-33812 458,-50707 181,-17120 121,-34240 0,-51368 106,-3388 -1487,-6836 -4259,-8819 -3155,-2487 -5213,-6589 -4778,-10653 15,-1051 421,-2148 15,-3140 -1172,-1675 -2952,-2960 -3726,-4905 -202,-1720 -758,-3358 -1487,-4936 962,-1209 2584,-2208 2539,-3929 -60,-2989 -2464,-5611 -5213,-6513 -4282,-1081 -8677,143 -13011,53 -2479,-83 -3080,-2885 -3929,-4688 3313,211 7151,1202 10036,-946 1863,-1375 3869,-2629 5386,-4395 1563,-1900 2074,-5025 218,-6941 -2742,-3035 -7114,-5476 -11261,-3914 -3222,849 -5551,4913 -9202,3493 1202,-2524 3621,-4116 5026,-6483 1081,-2892 -714,-5784 -1931,-8323 -2073,856 -4305,1194 -6408,1953 -3290,1886 -5754,5183 -6588,8879 -1037,-1374 -2043,-2787 -3065,-4191 -2674,2501 -4192,6220 -4282,9863 338,3501 1187,7137 3403,9954 2749,-1518 4890,-4132 8091,-4861 4514,-1284 9465,-4101 14122,-1765 -3635,1457 -7722,977 -11343,2524 -2577,1082 -6122,1841 -6941,4928 -1578,3824 -5694,5469 -8617,8061 849,-1713 1390,-3606 2615,-5116 1194,-1375 -353,-3035 -887,-4365 -3921,-6768 -3350,-15617 1037,-22040 578,-759 1540,-1037 2306,-1503 1104,609 2179,1255 3313,1811 218,-1022 413,-2036 616,-3058 2674,-1472 5296,-3050 7858,-4687 2103,-1105 1374,-3959 3005,-5447zm348939 15c-1405,481 -2306,1999 -2103,3448 248,2772 2411,5326 5153,5882 2937,384 5860,-2772 5011,-5679 -1127,-3095 -4981,-4793 -8061,-3651zm-343208 571c-2148,1105 -4199,3035 -4529,5522 450,2216 2929,3170 4905,3478 3929,466 7039,-4500 5063,-7865 -1104,-1811 -3666,-1939 -5439,-1135zm326659 2457c1886,1592 3553,3455 5274,5198 2366,-233 4732,-541 7098,-909 -1156,-3125 -3801,-6017 -7174,-6626 -2073,-383 -3838,962 -5198,2337zm-314947 -474c-1638,1202 -2720,2998 -3599,4793 2344,1157 5086,1698 7700,1315 1706,-1593 3110,-3516 4718,-5229 -2058,-2659 -6212,-2802 -8819,-879zm308697 3171c-1653,495 -2502,2411 -1916,4004 1052,3245 4515,6002 8023,5311 1706,-256 3080,-1954 2712,-3689 -804,-3801 -4778,-7437 -8819,-5626zm-298345 631c-1796,1066 -3554,2742 -3681,4965 -308,1300 -30,2847 1239,3523 4034,2261 9556,-1607 9323,-6062 -661,-2907 -4515,-3260 -6881,-2426zm314045 3418c-1998,638 -3899,2103 -4454,4176 -526,2337 1359,4500 3500,5139 1871,-699 3636,-1796 5657,-2119 1360,-450 3516,-608 3718,-2396 -1397,-3110 -4943,-5619 -8421,-4800zm-333292 5897c2772,954 5387,2283 8076,3448 3140,1224 5912,-2953 4252,-5649 -2374,-5304 -11584,-3171 -12328,2201zm311717 -977c-2141,278 -4146,1720 -4672,3884 -932,2659 -30,6731 3185,7234 4673,391 7640,-5394 5844,-9323 -766,-1607 -2734,-2133 -4357,-1795zm-286498 3388c-849,2321 465,4763 1990,6453 1413,999 3208,1202 4786,1863 999,-766 2283,-1322 2937,-2449 1082,-3921 -1750,-9105 -6175,-8909 -1810,-143 -3012,1510 -3538,3042zm296287 624c-3974,1697 -5800,8443 -1653,10885 4395,1622 8233,-3809 7302,-7843 -293,-2599 -3298,-4327 -5649,-3042zm-304904 525c-1870,459 -2952,2442 -2727,4282 301,2877 2029,5830 4816,6897 2689,908 5213,-1706 5679,-4177 646,-4147 -3809,-7843 -7768,-7002zm20907 8677c-6033,2081 -2427,12575 3515,11456 2983,-714 3170,-4515 2427,-6941 -586,-2584 -2968,-5604 -5942,-4515zm263879 -83c-2637,1578 -3636,5003 -3193,7911 173,1727 1683,3380 3546,3102 3907,-481 6153,-5056 5394,-8646 -466,-2517 -3666,-3591 -5747,-2367zm-275673 2464c-6318,2810 -2990,13995 3665,13657 3614,-390 4958,-4830 4049,-7887 -706,-3373 -3988,-6964 -7714,-5770zm287362 166c-5476,1299 -8188,10396 -2689,13304 4838,1547 8939,-3944 8556,-8414 60,-2982 -2817,-5814 -5867,-4890zm-298338 1983c-2411,398 -4124,2997 -3470,5401 691,2239 2997,3553 5176,3966 3034,549 5664,-2937 4702,-5746 -759,-2645 -3756,-4252 -6408,-3621zm309336 -158c-2922,789 -5131,4425 -2862,7024 2975,4425 10795,556 9683,-4410 -1082,-2471 -4380,-3696 -6821,-2614zm-28276 13364c-1375,2276 -1608,5649 338,7685 902,992 2321,826 3531,887 661,-1623 849,-3358 1022,-5086 180,-1751 1810,-2802 2892,-4012 -2089,-1930 -6235,-2193 -7783,526zm-257727 -511c2021,2847 4252,5815 4207,9481 1375,67 2937,-8 3876,-1172 2246,-2690 1074,-7347 -1976,-8925 -2013,-976 -4176,15 -6107,616zm269206 1037c-5124,1517 -5184,10615 323,11584 4116,0 6092,-5191 5348,-8707 -443,-2561 -3410,-3583 -5671,-2877zm11628 -135c-4116,1495 -4995,8105 -1344,10577 1795,1112 4702,1172 5874,-879 1413,-2434 1247,-5649 -165,-8061 -856,-1479 -2742,-2291 -4365,-1637zm-298983 616c-4282,2629 -3148,11388 2336,11741 3531,-142 4657,-4537 4117,-7422 -233,-3065 -3509,-5499 -6453,-4319zm12305 -75c-5154,1510 -4230,9322 0,11336 3365,1081 6445,-2412 6137,-5665 188,-3215 -2727,-6753 -6137,-5671zm268431 11012c-3200,1097 -3425,5259 -2569,8008 541,2382 3155,4921 5687,3636 2682,-1667 3576,-5348 2855,-8271 -594,-2569 -3516,-4056 -5973,-3373zm-264382 4763c-511,1210 -1623,2629 -789,3929 819,1660 2321,3343 4312,3328 2306,-98 4131,-2216 4477,-4395 -300,-2659 -1562,-5303 -3733,-6941 -1270,1510 -2810,2750 -4267,4079zm-8527 -1998c-3448,623 -4635,4718 -3673,7707 533,2239 2456,5071 5131,4222 3230,-1472 4041,-5769 3373,-8939 -376,-2216 -2697,-3711 -4831,-2990zm283374 -60c-2577,1795 -2472,5536 -1480,8211 684,2148 3170,4274 5476,3035 2765,-1766 3666,-5665 2675,-8662 -834,-2629 -4290,-3929 -6671,-2584zm-275764 10036c-909,1923 -2103,3666 -3726,5048 -1037,819 -105,2036 398,2877 1014,1390 2201,2923 3922,3449 2073,127 4402,-917 5303,-2878 466,-1870 -278,-3838 -1082,-5521 -1239,-1487 -3080,-2224 -4815,-2975zm266208 1908c-443,1931 -803,4049 308,5845 887,1652 2772,3929 4831,2599 1788,-1119 4004,-2629 4177,-4936 -1518,-1900 -3223,-3681 -4568,-5724 -1487,947 -3042,1765 -4748,2216zm-255127 9668c-316,6153 105,12298 -15,18450 0,73679 0,147336 0,220993 105,7903 -421,15873 1051,23678 1022,5694 3786,11253 8459,14822 6851,5401 15595,7099 23776,9435 21312,5942 42661,11771 63928,17849 9826,2930 19705,7504 26233,15700 3914,-5641 9991,-9232 16136,-12004 8256,-3629 17105,-5582 25737,-8106 18434,-5161 36907,-10269 55357,-15370 7271,-1998 14896,-4717 19937,-10644 2682,-3569 5649,-7257 6295,-11832 1457,-9285 1225,-18720 1180,-28073 -76,-8444 292,-16895 187,-25339 -45,-4762 -849,-9502 -541,-14258 662,-9548 -390,-19103 399,-28636 683,-8676 -692,-17353 -541,-26030 511,-11268 67,-22521 -90,-33782 0,-2381 -481,-4770 -30,-7129 570,-3253 -76,-6513 -46,-9766 -52,-2809 496,-5626 151,-8428 -436,-7813 -60,-15626 157,-23416 61,-4995 -788,-9946 -495,-14949 293,-7377 480,-14754 187,-22116 -232,-7023 767,-14137 -405,-21079 -82333,15 -164674,-37 -247007,30zm121005 -79411c2863,-1209 6927,-1179 8850,1653 1465,1608 2584,4342 5100,4357 2960,-1743 5462,-4778 9143,-4883 3463,-30 4762,4064 7888,4763 3297,-60 5521,-4004 9037,-3080 3245,233 3944,4177 6700,5168 4170,714 7265,-4177 11457,-3155 2982,774 2802,4793 5408,5920 3396,-75 6566,-2885 10029,-1728 1961,1465 2426,4455 4778,5424 2682,-691 5491,-1931 8263,-909 2224,773 2997,3298 4853,4515 2201,112 4026,-2006 6333,-1833 2313,180 4387,1314 6588,1990 -60,3403 -1630,6543 -2043,9886 -2029,1127 -4410,2254 -6664,1067 -3252,-774 -3005,-4793 -5063,-6761 -2396,60 -3726,2569 -5912,3200 -2209,316 -4500,-541 -6047,-2118 -1029,-1360 -1262,-3155 -2314,-4515 -2584,-278 -3899,2937 -6423,2982 -1750,45 -3771,-225 -4965,-1652 -714,-1638 -744,-3516 -1706,-5041 -2005,-992 -3493,1112 -4883,2209 -2148,2216 -6145,2449 -8353,217 -1420,-1667 -2104,-3898 -3741,-5416 -1968,-278 -3050,1938 -4440,2960 -2524,2825 -7520,1142 -8586,-2246 -571,-1255 -1157,-3155 -2907,-2892 -1856,1404 -2833,3823 -5056,4732 -1983,804 -4380,1240 -6325,151 -2307,-1157 -3298,-3726 -5214,-5289 -3328,-458 -5371,3005 -8053,4395 -2546,1705 -5311,-444 -7429,-1856 -1585,-976 -2727,-3298 -4801,-3065 -2276,1360 -2967,4380 -5386,5619 -2238,1443 -5086,924 -7407,-30 -2366,-856 -3155,-3500 -4883,-5078 -2103,2389 -3170,6288 -6716,6934 -2659,541 -4762,-1458 -6468,-3170 -586,-481 -1607,-1638 -2291,-684 -1435,1698 -2081,4117 -4094,5273 -2261,1300 -5288,1811 -7580,376 -1344,-1119 -2193,-2644 -3433,-3854 -1690,2494 -2246,6108 -5431,7212 -3448,1593 -6325,-1457 -9285,-2697 -323,3125 -2269,6205 -5567,6776 -3290,1007 -6340,-864 -8796,-2847 -947,3358 -3463,6190 -6889,7099 -2051,158 -3801,-1232 -5642,-1931 -142,-3418 -2832,-6167 -2381,-9638 2922,-773 5724,-2441 8812,-2163 2058,158 3253,2306 5183,2614 2291,-1270 3373,-3884 5567,-5213 2712,-1315 5386,616 8030,1081 2464,-1172 3456,-4064 5755,-5431 1201,-646 2629,-721 3958,-526 1751,361 2863,2156 4613,2449 3343,-976 3974,-5401 7272,-6528 2328,-804 4883,233 6603,1886 864,616 1698,1780 2922,1472 2795,-1630 4365,-5356 7940,-5559 3103,-323 4958,2847 7791,3403 3185,-278 4717,-3636 7226,-5198 3245,-752 6002,1592 8241,3590 932,699 1780,2457 3125,1661 1938,-1984 3028,-4876 5709,-6048zm326253 12846c2269,1705 4267,3734 6423,5574 1405,1285 3028,2381 3989,4064 -3035,932 -5506,-1592 -8263,-2411 -1871,-1796 -1841,-4793 -2149,-7227zm-651469 6423c2291,-1578 4177,-3636 6145,-5597 105,2600 -759,5304 -2554,7205 -2569,1404 -5476,2989 -8496,2381 1081,-1916 3230,-2689 4905,-3989zm293801 1240c9097,-571 18141,-1924 27269,-1796 4334,45 8661,-451 12996,-375 9510,97 18945,1254 28426,1968 12267,886 24144,4319 36088,7099 7783,1765 15377,4267 22784,7226 2119,894 4545,1886 5620,4087 661,1615 878,3433 706,5176 -1916,4597 -5086,8864 -9586,11231 -3395,2088 -7392,2659 -11110,3943 -2802,789 -5597,1901 -8557,1841 -2839,-15 -5709,60 -8548,-150 6325,-1954 12740,-4012 18314,-7678 1623,-1194 3538,-2546 3929,-4657 120,-2412 -1938,-4162 -3741,-5379 -4597,-2922 -9931,-4410 -15167,-5784 -11937,-2938 -24219,-4350 -36472,-5274 -17338,-1239 -34773,-1269 -52126,-233 -12516,789 -25038,2081 -37321,4688 -6002,1344 -12064,2832 -17556,5671 -2126,1210 -4507,2697 -5153,5199 -406,2201 1577,3786 3110,4965 6062,4222 13304,6236 20245,8512 -3072,210 -6182,75 -9262,120 -2397,-45 -4876,263 -7144,-669 -6363,-2343 -13169,-4432 -18135,-9262 -2787,-2584 -3606,-6618 -3343,-10254 263,-2705 2772,-4335 5003,-5477 4853,-2554 10502,-2922 15385,-5378 1585,-752 3268,-1165 4981,-1428 4793,-758 9300,-2561 14003,-3726 8023,-1870 16196,-3110 24362,-4206zm23648 15978c16339,-293 32715,75 49009,1592 10254,1082 20613,2239 30484,5387 2547,924 5334,1855 7145,4004 1081,1247 390,3065 -819,3929 -2584,2088 -5830,3095 -8940,4094 -7640,2291 -15520,3666 -23378,4980 -1652,316 -3350,466 -5040,436 -26000,-60 -51999,60 -77999,-60 -7399,-947 -14716,-2419 -21943,-4222 -4342,-1179 -8767,-2396 -12635,-4778 -1285,-871 -2893,-2171 -2502,-3929 714,-2065 2937,-2974 4763,-3838 5912,-2397 12267,-3433 18532,-4440 14341,-2088 28847,-2847 43323,-3155zm-171337 28118c1186,-1886 3403,-2569 5228,-3666 -1082,2396 -2629,4485 -4282,6498 -1878,4132 -2126,8752 -2960,13146 -586,3779 -1051,7595 -1097,11434 98,4620 -1314,9112 -2787,13439 -428,1547 -1855,2411 -3140,3200 -2381,-180 -4394,-1577 -6490,-2546 1991,-4861 1803,-10232 3380,-15190 789,-2847 2277,-5461 2900,-8376 1360,-6708 5364,-12448 9248,-17939zm360373 -3944c3005,481 4642,3185 6175,5506 1202,2029 3275,3343 4379,5432 2344,4357 3088,9337 4778,13950 1623,4485 2351,9240 3786,13762 639,2216 1871,4350 1668,6731 -2457,143 -4312,2028 -6633,2404 -3103,-1180 -4087,-4815 -4981,-7678 -1608,-4372 30,-9187 -1810,-13484 172,-9330 -2457,-18690 -7362,-26623zm-296355 24843c12891,60 25804,-158 38688,105 16767,12793 31971,27600 46094,43270 23190,-14251 46501,-28313 70352,-41422 1637,-842 3200,-2156 5161,-1968 25090,30 50181,-45 75286,45 -30,5168 -172,10314 -150,15467 -43007,16970 -84752,37155 -124694,60451 7955,11185 15377,22754 22356,34571 33114,-17849 67159,-34106 102316,-47567 -30,4845 -353,9690 263,14498 -369,4530 -203,9060 22,13582 -886,5071 60,10156 -173,15265 -28974,10735 -56739,24640 -83002,40881 6003,12808 11659,25767 16798,38950 21920,-11080 44111,-21672 67023,-30552 -83,3606 -451,7205 -496,10810 -150,7377 383,14739 -82,22124 -166,2629 -90,5273 52,7918 -18667,7226 -37095,15715 -53283,27629 5536,17601 10299,35435 14363,53434l-211 496c-17961,5093 -35998,9931 -53944,15100 -9090,2711 -18097,6452 -25384,12673 -6836,-5792 -15062,-9699 -23603,-12238 -4943,-1502 -9976,-2772 -14919,-4319 14814,-11644 30334,-22439 46147,-32678 15445,-9886 31265,-19201 47649,-27457 -3883,-12793 -8248,-25444 -12920,-37959 -43541,23107 -82950,53472 -118234,87780 -7505,-2119 -15040,-4132 -22522,-6266 -5153,-1592 -10547,-3681 -14077,-7970 -3261,-3959 -4132,-9210 -4485,-14183 43946,-37771 91753,-71208 142904,-98529 -5777,-12501 -12170,-24745 -18931,-36750 -22905,12793 -44765,27382 -65814,43000 -20328,15047 -39709,31355 -58362,48416 -135,-19044 0,-38087 -60,-57123 -203,-1022 293,-1855 1127,-2396 19118,-15438 39228,-29621 59999,-42729 13417,-8504 27239,-16347 41084,-24114 -7888,-11088 -16068,-22011 -25045,-32235 -22281,14033 -43804,29282 -64327,45756 -4319,3388 -8429,7009 -12763,10352 -248,-34698 143,-69420 -203,-104118zm309967 28088c2817,-1593 5784,-3043 8992,-3696 1247,2892 1637,6032 2516,9037 -1329,676 -2569,1510 -3741,2426 -3192,2442 -6828,4252 -10592,5642 -3065,1134 -5904,2975 -9210,3283 932,-2908 3636,-4688 5664,-6821 2555,-2615 6431,-3711 8489,-6821 -2704,-98 -4935,1607 -7099,2997 -4192,2877 -8241,6017 -11726,9743 -1157,1195 -1961,2682 -2517,4260 1097,458 2209,1066 3463,976 5447,30 10254,-2742 15160,-4717 4868,-1954 9157,-5139 14085,-6964 263,1097 1104,2208 654,3358 -819,1202 -2262,1728 -3448,2501 -3328,2156 -6806,4042 -10134,6160 -6761,3245 -14634,5056 -22026,3073 -1375,-293 -2584,-1623 -2148,-3073 758,-3508 2892,-6558 5303,-9142 3388,-3591 7430,-6528 11509,-9278 2058,-1472 4687,-1615 6806,-2944zm-391789 -2675c2486,-465 4717,879 6911,1811 5604,2291 10615,5769 15543,9217 3560,3606 8383,6558 9795,11727 391,1547 496,3831 -1217,4620 -3433,1780 -7444,1337 -11080,488 -5506,-1210 -10750,-3366 -15881,-5619 -3267,-1811 -6115,-4267 -9285,-6198 353,-1149 759,-2276 1172,-3410 887,218 1781,390 2554,886 5199,3200 10502,6431 16317,8414 4447,1006 9165,2719 13694,1314 -330,-1472 -856,-2944 -1855,-4101 -3358,-4117 -7971,-6911 -12455,-9623 -2239,-1300 -4455,-2855 -7099,-3215 263,916 789,1705 1607,2216 3651,2606 7505,4980 10863,7978 984,833 1668,1953 2269,3095 -4388,-1037 -8542,-2833 -12764,-4335 -3230,-1157 -5994,-3230 -9172,-4530 -1187,-466 -2389,-1577 -2156,-2982 473,-2652 1337,-5214 2239,-7753zm451728 19074c2412,-286 4380,1690 6175,3042 2442,2321 5394,4800 5980,8294 -894,2433 -2907,4251 -3846,6663 -2427,5702 -5041,11839 -4042,18164 436,2690 278,5664 1750,8061 -45,-2276 -623,-4568 -292,-6859 510,-4124 683,-8413 2569,-12200 1419,-3650 4297,-6415 6197,-9788 631,1683 1270,3373 1886,5071 -1518,2501 -3493,4717 -4695,7377 -1428,4965 -1240,10412 556,15249 1562,4260 3380,8422 4980,12658 954,2502 1315,5236 601,7843 -3230,-98 -5739,-2374 -8263,-4117 -7858,-5709 -14116,-13191 -21109,-19847 -2262,-2599 -5432,-5536 -4643,-9330 391,-2223 -391,-4357 -1127,-6415 -1683,-4763 -1299,-10066 586,-14709 323,-1097 1458,-1593 2419,-2013 2472,-1052 5146,-1608 7497,-2953 2352,-1269 4410,-3049 6821,-4191zm-512937 8323c2494,-3485 6145,-6250 10224,-7565 278,76 864,203 1149,278 3756,2209 7332,4883 11554,6198 3320,1022 5987,3921 6295,7444 924,4222 -729,8294 -2231,12140 -1217,2644 466,5679 -947,8233 -2035,4252 -5889,7099 -9044,10472 -4327,4530 -8324,9466 -13440,13192 -3200,2276 -6340,4980 -10336,5739 -323,-1157 -714,-2351 -511,-3576 653,-4635 2434,-9014 4425,-13206 1487,-2982 2073,-6310 2539,-9578 616,-4049 -699,-8121 -2397,-11749 -1036,-2231 -3666,-4305 -2659,-6994 473,-932 383,-2817 1840,-2644 5477,5904 8354,13995 8459,22010 391,2209 -961,4470 -15,6604 2073,-2585 1826,-6078 1946,-9188 233,-5168 -1435,-10149 -3261,-14911 -1051,-2818 -2892,-5199 -4582,-7648 -1285,-1698 38,-3756 992,-5251zm461148 43218c1300,-2494 2772,-5604 6003,-5740 218,3546 -2307,6341 -3741,9353 -2705,5852 -6311,11201 -8895,17113 -1239,2644 -2494,5348 -2772,8293 609,-496 1195,-1022 1533,-1735 2178,-4132 4319,-8279 6498,-12388 2216,-4147 5386,-7655 7812,-11681 962,-1645 2006,-3298 3509,-4500 -1375,9601 -6867,17969 -9466,27209 5139,-5957 5785,-14776 11915,-20080 1667,3726 1900,7858 1870,11877 -83,4485 1435,9082 -60,13477 -624,1667 -526,3463 -789,5213 -961,2614 -3516,4169 -4890,6543 -729,1360 -774,2982 -1548,4327 -1179,2013 -2509,3929 -3576,6002 -6513,-10442 -17788,-16436 -25331,-25999 677,-1240 1345,-2479 1991,-3711 1165,1405 2554,2644 4222,3403 2892,-4740 4748,-10044 7888,-14634 1442,-2156 2246,-4657 3515,-6911 1097,-2081 3276,-3313 4312,-5431zm-405063 -5244c2660,248 4275,2532 5852,4425 2855,3726 5334,7745 7640,11846 1668,2908 2817,6093 4823,8797 1765,2336 2058,5431 4057,7648 924,-549 1855,-1120 2749,-1691 774,819 1608,1608 2494,2352 -3974,5311 -8819,9886 -13935,14047 -4349,3539 -7490,8226 -10938,12576 -1660,-3486 -3403,-6904 -5063,-10367 -1885,-3606 -4748,-6866 -5146,-11058 -623,-8909 -2163,-18390 1856,-26773 2990,2576 4101,6498 5987,9833 1901,3463 2967,7460 5627,10472 -759,-3989 -2630,-7610 -4162,-11306 -2209,-5288 -5627,-10359 -5476,-16301 2584,2178 3898,5394 5882,8053 1667,3238 4424,5777 5972,9082 2193,4507 4980,8707 6836,13394 278,-428 834,-1292 1112,-1727 -2487,-8174 -8294,-14709 -11494,-22537 -1638,-3531 -4778,-6656 -4673,-10765zm378831 41775c2554,2817 4981,5709 7610,8444 3681,3899 7797,7505 10592,12132 1397,2336 3095,4545 3839,7174 1021,3854 1795,7783 1998,11757 368,3756 4793,4965 6002,8271 150,2186 -864,4259 -1442,6332 -2194,6205 -2877,12809 -3291,19337 -187,3568 -1254,7114 -578,10697 1548,-1698 1300,-4252 1878,-6355 691,-6228 1991,-12388 4094,-18300 421,-1322 1195,-2472 2141,-3463 2644,1908 4169,5198 4485,8368 -992,4951 -3253,9578 -4335,14529 -2787,8534 -2817,17593 -2689,26473 368,3102 962,6175 1810,9172 849,-2359 -187,-4838 -30,-7249 203,-8617 1773,-17135 3929,-25459 474,-3531 2299,-6626 4094,-9623 368,-759 1090,-1202 1766,-1668 2133,3772 789,8038 -75,11952 -864,5432 -2712,10735 -2712,16272 30,3951 -556,7887 -30,11816 435,3576 713,7197 1487,10743 1713,5491 3403,11088 6528,15978 616,766 1450,1345 2254,1946 -2269,-5860 -4169,-11907 -5154,-18142 -2095,-7385 -1772,-15250 -120,-22694 1037,-4455 1518,-9173 3809,-13222 473,-1052 1525,-1502 2584,-1810 2179,4079 338,8586 -856,12650 -2614,10562 -2239,21876 1239,32190 2014,5859 4936,11644 9759,15685 9961,8459 24399,9841 36599,6183 9202,-2622 16647,-9090 23047,-15911 5198,-5867 9946,-12297 13011,-19539 819,-1736 2584,-2862 3065,-4748 1052,-3478 2765,-6716 4267,-9991 2471,-5371 7783,-8571 12763,-11306 4635,-2321 9413,-5206 14784,-4980 1683,-83 2817,1487 3230,2937 1383,4440 113,9059 98,13582 -30,5469 -2629,10412 -5108,15137 -2802,5469 -5334,11230 -9699,15670 -2178,2216 -3635,4981 -5611,7355 -8046,8593 -15272,18126 -24610,25413 -12252,9646 -26232,17661 -41670,20696 -5341,939 -10675,2209 -16106,2021 -2396,-75 -4778,391 -7174,323 -4567,-413 -9052,-1495 -13409,-2870 -5169,-668 -9796,-3132 -14529,-5093 -6197,-2704 -11786,-6656 -16955,-10968 -4484,-3696 -9435,-7174 -12372,-12327 -2720,-4620 -5694,-9105 -8286,-13815 -1983,-3583 -2757,-7670 -3997,-11539 -1254,-4777 -3042,-9465 -3327,-14430 -339,-5244 -1082,-10427 -1405,-15656 -413,-5814 -308,-11659 -353,-17481 0,-7189 105,-14461 1637,-21514 759,-3291 1375,-6604 2014,-9924 601,-2885 556,-5897 1570,-8699 2479,-8632 5514,-17105 7429,-25894 789,-2442 1998,-4793 2291,-7377 15,-2209 -2103,-3509 -3545,-4876 593,-1435 1179,-2869 1765,-4312zm164734 105261c-2291,5048 -5754,9405 -8646,14092 -4598,7317 -9992,14168 -16414,19968 -5334,4845 -9646,10787 -15588,14956 -4102,2817 -7813,6190 -12162,8669 -2765,1555 -5161,3802 -8226,4868 -4823,1721 -9330,4275 -14251,5755 -4823,1622 -9908,2043 -14971,2103 -4358,15 -8647,1194 -13019,932 -8354,-256 -16369,-2960 -23896,-6378 -2930,-1540 -5507,-3666 -8436,-5199 -3065,-1585 -5011,-4530 -7730,-6558 -3110,-2501 -6686,-4560 -8977,-7918 -1698,-2396 -3464,-4762 -5627,-6746 -4597,-6340 -8955,-12973 -11464,-20463 1022,5154 1916,10472 4440,15145 1796,3388 3591,6791 5522,10119 5581,9089 13582,16669 22837,21995 6648,4004 13702,7640 21372,9188 6948,1314 14010,2073 21079,1840 12455,-360 24474,-4349 35795,-9277 4688,-1908 9082,-4568 12778,-8031 3666,-3561 8324,-5912 11915,-9563 4882,-4875 9991,-9510 14476,-14769 3080,-3470 5258,-7632 8556,-10937 3072,-3125 5041,-7084 7640,-10585 1540,-2051 2178,-4545 2907,-6956 526,-1826 2209,-3095 2471,-4996 579,-3268 1533,-6483 1315,-9826 -1375,2802 -2269,5792 -3696,8572zm-523808 -90289c3832,-4455 7821,-8782 11982,-12943 594,1141 1210,2276 1863,3372 -1547,1743 -3313,4050 -2246,6514 3110,9510 6250,19020 9000,28643 1314,2660 871,5725 1705,8527 977,3538 1750,7129 1931,10810 608,8879 3035,17661 2096,26623 -346,6926 120,13897 -346,20831 -278,4162 -1487,8203 -1953,12327 -519,5094 -2795,9744 -4004,14679 -1450,5912 -4650,11171 -7933,16211 -5093,7700 -11434,14604 -18871,20110 -9713,7392 -20635,13597 -32670,16167 -11118,2501 -22874,2238 -33812,-1120 -12110,-3568 -23295,-9803 -33564,-17060 -7114,-5131 -14003,-10660 -19923,-17150 -6062,-6528 -11696,-13424 -17405,-20268 -4688,-5521 -6897,-12575 -10517,-18743 -3246,-5476 -3839,-11974 -3929,-18209 52,-2907 0,-6138 1765,-8632 924,-1374 2742,-969 4147,-961 4131,-30 7873,2013 11291,4131 2952,1826 6355,2960 8969,5327 2817,2561 4575,6047 6145,9450 2817,6505 6213,12741 9661,18916 5634,8248 12320,15963 20485,21762 9481,6761 21643,10277 33204,7933 7490,-1345 14206,-5702 19126,-11411 2239,-2629 4545,-5416 5379,-8849 1254,-4703 2847,-9338 3298,-14213 773,-8451 278,-17075 -2126,-25226 -849,-2900 -1420,-6002 -399,-8932 3651,1149 4350,5431 5199,8631 1390,6904 2749,13875 2922,20929 90,7212 -2479,14048 -4222,20929 -496,2074 -1562,3929 -2186,5957 4553,-3778 7182,-9525 8001,-15309 1825,-6296 2193,-12869 2381,-19389 75,-9909 -2336,-19645 -4500,-29245 -375,-1675 308,-3253 1037,-4703 939,496 1961,1007 2479,1991 3508,5814 4432,12658 6092,19118 1871,7490 1217,15243 2134,22852 1217,-1307 1179,-3170 1284,-4830 -263,-12575 -390,-25474 -4499,-37523 -947,-2952 -2930,-5852 -2171,-9082 540,-2194 1239,-4620 3049,-6123 1082,-819 2149,481 2600,1375 3035,6137 3305,13101 4980,19629 451,2044 421,4207 1315,6138 263,-3599 -323,-7204 -391,-10810 128,-5845 -969,-11614 -2306,-17278 -563,-2780 -2118,-5274 -2592,-8053 -345,-1548 1270,-2292 2164,-3200 1517,-1510 3801,-2637 4049,-4989 496,-4529 593,-9172 1983,-13552 1826,-4725 5567,-8330 8849,-12079zm-155704 83024c135,4485 1780,8767 3185,12989 1457,4605 4537,8443 6949,12575 2118,3786 5371,6746 8075,10119 8196,9525 15776,19719 25519,27780 16549,14070 38207,22244 60000,21545 6190,-203 12485,-631 18375,-2705 9037,-3140 17262,-8323 24549,-14483 4951,-4177 9007,-9247 13101,-14213 4087,-4688 6746,-10367 9503,-15881 1743,-3838 3711,-7647 4733,-11779 -593,609 -1149,1255 -1660,1923 -7497,10119 -15678,19750 -24775,28494 -7430,7039 -15483,13642 -24798,18052 -9097,4402 -19584,4747 -29425,3350 -13071,-1945 -25519,-6896 -37027,-13236 -3509,-2044 -7129,-3974 -10112,-6776 -5341,-4846 -10975,-9375 -16061,-14491 -7189,-7445 -13484,-15671 -19486,-24069 -4365,-5927 -6619,-13086 -10645,-19194zm643236 -85698c2434,2148 4552,4612 6949,6791 5243,5138 11388,9330 17931,12620 3185,1645 6648,2697 9676,4628 5243,3282 9518,8000 12718,13251 2907,5048 6085,10337 5972,16384 6926,-2795 14446,-511 21049,2103 3208,1082 5709,3403 8474,5229 6964,4935 10983,12823 17563,18172 4312,3545 8737,6979 13485,9931 2291,1675 5138,2156 7722,3223l0 878c-1352,2615 -2509,5447 -4785,7422 -3816,3419 -9075,4568 -14055,4981 -7024,466 -14281,-30 -20854,-2719 -3433,-1360 -7129,-1766 -10532,-3170 -4906,-1946 -10149,-3171 -15438,-3126 -3373,-45 -6498,1413 -9811,1796 361,-5274 2029,-10397 2014,-15716 135,-4529 172,-9698 -2968,-13319 -2952,-2614 -7301,-1840 -10892,-1329 -6446,849 -11599,5183 -17646,7189 120,-4688 157,-9338 -308,-14010 -2434,-9729 -6919,-18766 -11261,-27750 -1164,-2291 -2644,-4425 -3433,-6866 -759,-2412 -2246,-4508 -2930,-6934 -924,-3185 -1202,-6513 -1232,-9803 -30,-3464 1465,-6656 2592,-9856zm8060 16632c-646,1960 83,4049 556,5979 1863,6265 4583,12238 7227,18210 2472,5228 4057,10825 5867,16301 1142,3125 939,6596 2299,9638 2013,-3561 2058,-7843 1547,-11786 -1097,-7347 -4485,-14093 -7767,-20666 -2938,-5259 -2645,-11727 -5860,-16873 -676,-1344 -2862,-2389 -3869,-803zm19525 16136c-248,6152 2336,11951 3695,17856 744,4485 774,9067 1315,13567 2028,-2209 1533,-5446 1653,-8196 143,-6776 -1961,-13364 -1668,-20155 -113,-1961 323,-4582 -1547,-5874 -1856,-797 -3494,999 -3448,2802zm15542 11058c-1450,616 -1758,2366 -2103,3726 -894,5085 -631,10299 -338,15437 1179,804 1637,-886 1607,-1780 60,-3050 481,-6078 1518,-8940 849,-2569 2133,-5401 1097,-8090 -556,-406 -1150,-526 -1781,-353zm14544 19824c-2554,2194 -6205,2720 -8527,5244 2509,638 4568,-1112 6919,-1623 3305,-901 6821,-1961 9323,-4440 916,-803 405,-2058 405,-3095 -3328,-616 -5694,2149 -8120,3914zm13860 10427c-2585,436 -5274,-120 -7738,932 -3170,1314 -6678,1555 -9713,3230 -30,435 -90,1299 -128,1728 2607,-759 5123,-1788 7828,-2179 4740,-699 9488,188 14250,-15 3531,-165 6972,-1315 10067,-2997 -999,-2014 -3306,-2938 -5447,-2960 -3102,466 -6009,1810 -9119,2261zm-9669 12530c-3357,601 -7083,947 -9788,3231 2442,2366 5597,-511 8421,-369 3005,263 6070,-510 9022,369 3479,931 7114,1179 10540,2396 4778,1675 9788,2554 14829,2945 4252,180 8864,180 12590,-2186 -338,-2284 -2569,-3771 -4762,-3854 -2645,-105 -5184,811 -7813,886 -3989,248 -7798,-1254 -11742,-1592 -2719,-248 -5333,-1052 -7962,-1683 -4425,-436 -8910,-962 -13335,-143zm-671218 -79028c2193,-2321 3899,-5115 6603,-6926 1713,2998 1758,6528 2284,9849 826,7129 -2472,13829 -5364,20125 -4673,10487 -11231,20373 -13086,31896 -458,4515 -1240,9083 -428,13612 -4455,-1487 -8346,-4319 -12921,-5431 -4395,-1405 -9113,-2396 -13703,-1547 -2741,638 -3680,3575 -4259,5972 -496,2569 -1172,5228 -631,7842 714,3884 15,7933 1285,11712 480,1495 788,3065 976,4642 -2629,-623 -5138,-1803 -7895,-1893 -7249,-526 -14198,2156 -20936,4485 -6934,2336 -13958,4748 -21282,5446 -4335,481 -8609,-571 -12779,-1532 -4131,-1525 -7940,-4064 -10832,-7377 -1225,-1202 -1405,-2982 -1112,-4597 879,-1217 2442,-1608 3726,-2239 9481,-4132 17233,-11246 24167,-18758 6866,-7272 14055,-15137 23858,-18277 5184,-789 10600,-1465 15738,22 136,-2681 -285,-5528 1142,-7940 1916,-3305 3403,-6866 5582,-10006 1036,-1931 2231,-3824 3996,-5146 3614,-2937 7565,-5431 11381,-8113 3185,-2254 7024,-3275 10382,-5243 5131,-2915 9368,-7099 14108,-10578zm-5304 10315c-2727,3207 -2299,7677 -3516,11478 -1532,4455 -3928,8557 -5927,12808 -751,2412 -1404,4876 -2531,7182 -1390,2967 -1330,6295 -1856,9465 -886,2923 444,5845 1578,8489 736,-4312 2269,-8429 3568,-12605 1300,-5116 2802,-10239 5168,-14972 2322,-4560 4327,-9285 6048,-14093 728,-2479 1457,-5153 834,-7730 -429,-1675 -2600,-1104 -3366,-22zm-20380 14731c-1330,3711 22,7745 -984,11554 -1142,4732 -849,9645 -729,14476 218,2276 30,4875 1713,6685 518,-3035 -293,-6077 142,-9112 639,-4485 1766,-8879 2983,-13229 758,-2952 1562,-5979 1359,-9059 -90,-1195 -533,-2727 -1893,-2990 -1134,-105 -2246,571 -2591,1675zm-13207 15588c631,3110 2104,5972 2675,9112 653,2441 202,5258 1840,7377 699,-5431 451,-10998 -586,-16362 -405,-1269 -676,-3313 -2336,-3403 -1503,211 -1886,2014 -1593,3276zm-21237 13537c1548,2644 4335,4094 6897,5536 3207,1623 6648,3035 10284,3050 -2036,-2336 -5146,-3238 -7527,-5138 -2134,-1548 -4072,-3576 -6671,-4312 -1097,-406 -2051,428 -2983,864zm-19471 13687c4402,4267 11351,4823 16947,2907 5229,113 10382,1209 15543,1968 -2547,-2817 -6490,-3636 -10051,-4379 -4913,-391 -9864,-924 -14581,-2487 -2727,-962 -5942,-188 -7858,1991zm3869 13845c-3546,202 -6799,2058 -10367,1953 -3523,135 -6964,-849 -10472,-812 -2013,-37 -4162,1631 -3854,3779 1428,1698 3794,2164 5890,2457 5469,435 10772,-1375 16166,-1886 4117,-1037 8136,-2351 12342,-2952 4320,-1826 9098,-1533 13665,-1135 2381,173 4763,1923 7054,391 -624,-654 -1210,-1412 -2126,-1675 -3816,-1495 -7963,-1976 -12050,-2119 -5506,-263 -10794,1615 -16248,1999zm699599 53937c3681,-4087 6994,-8489 10780,-12470 759,3162 541,6468 1518,9578 1532,5318 7549,7444 9578,12515 864,2877 3929,4673 3906,7828 256,3944 421,8271 -1855,11726 -2314,3906 -7220,6183 -11689,5071 -3651,-1067 -6686,-3756 -8677,-6919 -1397,-2516 -2261,-5273 -3162,-7978 -924,-2862 -564,-5972 -1578,-8804 -661,-1901 -2547,-2997 -3381,-4793 369,-759 767,-1487 1217,-2178 3471,1284 4936,5025 5973,8286 1134,3403 1900,7256 4627,9810 1022,849 2306,-315 2982,-1081 248,-1225 -773,-2291 -1194,-3358 -1525,-2479 -1788,-5432 -2997,-8031 -1548,-3343 -3373,-6633 -6048,-9202zm17158 25075c-1968,121 -3718,-1066 -5649,-1269 -1472,-203 -3155,1870 -1638,2952 1856,1638 4605,3065 7099,2044 2720,-1375 4643,-4177 5026,-7190 -1923,729 -2922,2780 -4838,3463zm-659327 -36321c2517,2246 4034,5349 6416,7723 1284,1547 3155,2764 3793,4747 -466,1683 -1983,2810 -3020,4162 -2426,2780 -3230,6476 -4439,9879 -759,2156 -2209,4161 -2224,6528 541,1119 2103,1855 3095,818 2907,-3185 3012,-7842 4688,-11643 1404,-2367 3380,-4320 5160,-6408 669,683 1976,1164 1796,2321 -1195,2201 -3726,3606 -4072,6235 -338,2757 -503,5589 -1713,8136 -1630,3793 -2103,8684 -6002,10937 -2584,1375 -5063,3742 -8195,3358 -2863,-555 -5522,-2058 -7610,-4071 -2712,-2584 -3471,-6558 -3155,-10149 533,-5657 3230,-11118 7512,-14859 2614,-2584 5784,-5138 6513,-8962 541,-2907 541,-5905 1457,-8752zm-11478 34218c278,3786 3928,6573 7407,7392 2711,556 4454,-1946 5799,-3854 -631,-601 -1300,-1157 -1991,-1637 -1780,150 -3418,976 -5183,1194 -2584,526 -3794,-2449 -6032,-3095zm137172 4688c4004,-1938 7392,-5492 12019,-5912 4605,-323 9247,-391 13867,-76 8234,586 16031,3464 23814,5988 9961,3185 18848,8766 28058,13574 3696,1983 7557,3621 11291,5559 17616,9608 35773,18285 54523,25474 11231,4237 22799,7670 34526,10209 11801,2614 23986,2231 35945,1097 15904,-1495 31198,-6543 46020,-12298 10119,-4004 20095,-8383 29973,-12913 6919,-3125 13244,-7347 20186,-10367 11020,-4928 21101,-11644 32009,-16797 10066,-4868 21004,-7550 31912,-9773 3786,-789 7669,-15 11486,-391 2441,-135 5123,-631 7354,699 3831,1968 7234,4702 11208,6422 5942,3058 12177,5454 18593,7287 1164,1420 2148,2983 3268,4455 -3464,-1427 -7197,-1983 -10645,-3456 -1826,-661 -3696,-1622 -5679,-1487 -3959,977 -7775,2404 -11704,3426 -3869,465 -6656,3410 -9466,5799 2517,-316 5041,-616 7513,-1164 1840,-263 2847,-2254 4747,-2367 5431,-751 10968,-323 16369,556 3373,699 7144,1375 9390,4274 -2148,2307 -5634,1751 -8496,2044 -4394,-143 -8819,676 -12786,2561 -3342,1661 -6828,3283 -9563,5852 2818,-293 5071,-2201 7730,-3019 3471,-1067 7152,-1082 10750,-1142 5469,45 11051,-879 16399,706 2645,811 5740,1908 6949,4650 -1660,1262 -3899,616 -5799,616 -3095,-436 -6085,706 -9143,849 -7850,263 -15978,2336 -22040,7512 4154,-789 8113,-2472 12387,-2765 6461,-631 12959,-848 19442,-1164 5093,-263 10074,1487 14506,3824 1652,773 2584,2411 3005,4116 -2772,744 -5507,-465 -8249,-773 -7564,-1638 -15264,-248 -22829,495 -10487,1007 -20478,4620 -30161,8549 -7978,3283 -16054,6453 -23446,10923 -3140,1810 -5852,4267 -9105,5897 -3260,1698 -6768,2982 -9803,5116 -3328,2381 -7189,3914 -10224,6686 -1548,1510 -3606,2163 -5536,2937 -2382,909 -3959,3110 -6311,4041 -1983,737 -3771,1833 -5551,2938 -9345,5010 -18811,9773 -28186,14723 -3140,1653 -6603,2517 -9886,3832 -6813,2524 -13574,5266 -20553,7271 -5830,1037 -11584,2524 -17436,3471 -8271,1480 -16474,3771 -24933,3974 -9916,428 -19847,736 -29763,368 -7324,-729 -14618,-1825 -21928,-2629 -7707,-1360 -15197,-3786 -22942,-4861 -5657,-706 -10795,-3260 -16211,-4837 -7730,-2269 -14446,-6919 -21966,-9744 -8586,-3313 -16346,-8263 -24332,-12748 -1517,-819 -2967,-1750 -4372,-2719 -2907,-2134 -6716,-2524 -9548,-4770 -3913,-3726 -9322,-5221 -13454,-8647 -2847,-2501 -6633,-3290 -9841,-5161 -5379,-3005 -10239,-6896 -15896,-9405 -12996,-5897 -26315,-11464 -40437,-13988 -4050,-766 -8211,-864 -12260,-1697 -4508,-909 -9037,465 -13590,150 -2922,-180 -5904,67 -8534,1502 -2118,-909 211,-2817 1082,-3846 5522,-3869 12575,-4582 19134,-4425 6325,181 12605,1000 18900,1525 3170,158 5770,2126 8752,2945 -1976,-2246 -4462,-4086 -7294,-5093 -5462,-2013 -11284,-3065 -17113,-3170 -4177,-218 -8534,420 -12478,-1285 5169,-5010 12884,-5153 19622,-5446 3733,668 7790,-503 11231,1367 1893,541 4011,-113 5837,789 1712,819 3463,1570 5318,2088 -2967,-3035 -6971,-4740 -10825,-6378 -2862,-1374 -6205,-525 -9037,-2028 -3523,376 -6926,-586 -10389,-984 -23,-1007 -83,-2321 1127,-2644 3433,-1428 6775,-3666 10659,-3268 4327,-15 8654,128 12974,556 4717,436 8774,3358 13522,3718 -1661,-2186 -4440,-2817 -6543,-4394 -3005,-2336 -6882,-2757 -10367,-3997 -1886,-503 -3696,-1419 -5649,-1525 -3471,481 -6476,2442 -9834,3358 -1517,383 -3065,736 -4590,1142 1495,-1082 2600,-2554 3862,-3854 6565,-2644 13071,-5431 19464,-8503zm387364 1945c-1916,864 -4162,1503 -5274,3448 6048,-1006 11990,-2674 18097,-3373 -1653,-833 -3215,-1930 -5010,-2396 -2720,308 -5289,1315 -7813,2321zm-386936 1330c6656,-661 12981,1870 19479,2727 -917,-2073 -3170,-2787 -5109,-3576 -2832,-1007 -5716,-2058 -8751,-2276 -2141,406 -4004,1720 -5619,3125zm54298 11929c788,1022 1840,1931 2208,3215 218,1623 -894,2990 -1698,4282 -5093,7092 -10058,14251 -15084,21365 -977,1270 -2306,3065 -4147,2494 -1329,-173 -2997,-2171 -3831,-263 2592,2592 6077,4192 8955,6506 2426,1547 4439,3951 7324,4642 -120,-1810 -1863,-2727 -2517,-4267 -368,-1472 541,-2817 1255,-4004 2366,-3636 4808,-7226 7084,-10922 2757,1757 5829,3260 7903,5874 1517,1856 157,4132 -278,6130 375,90 1081,270 1457,368 2321,-3681 4395,-7535 6588,-11291 -338,-187 -1051,-541 -1397,-728 -1187,1329 -2607,3095 -4635,2614 -3155,-774 -5739,-2922 -8369,-4718 2893,-4500 5770,-9007 8797,-13409 3471,2276 7550,4162 9781,7828 1330,2208 676,4853 203,7204 503,60 1021,113 1547,143 1450,-2615 2562,-5387 3907,-8031 -8391,-4627 -16610,-9743 -23866,-16038 -308,263 -894,758 -1187,1006zm276162 6649c1735,11583 3928,23137 4740,34848 90,1969 -158,4147 -1585,5620 -819,1081 -2547,1915 -1811,3538 3486,-1931 6656,-4357 10179,-6190 1074,-706 2990,-1202 2336,-2855 -1750,413 -4499,2659 -5566,150 -804,-2997 -1082,-6092 -1653,-9142 3974,-2509 7775,-5243 11629,-7918 2689,1653 5754,2787 8166,4853 1690,2299 -1871,3719 -2569,5664 375,0 1104,-15 1472,-15 4845,-3756 9773,-7422 14544,-11276 -1631,-1216 -3080,639 -4718,759 -1457,143 -2787,-601 -4072,-1142 -6776,-3297 -13446,-6828 -19952,-10584 -3794,-1991 -7189,-4658 -11140,-6310zm-25887 18592c-1428,819 -3591,962 -4087,2787 1668,188 3929,-864 5056,864 1637,2366 2614,5138 3944,7685 2614,5619 5536,11095 8000,16790 1127,2328 -1427,3726 -2772,5130 729,316 1563,511 2239,-30 3951,-2148 7895,-4267 11914,-6235 819,-338 1270,-961 1382,-1870 -1337,188 -2637,638 -3996,601 -1390,-398 -2059,-1848 -2720,-2998 -3448,-6746 -6963,-13431 -10457,-20140 -540,-1157 -1254,-2366 -1141,-3681 631,-1329 1780,-2336 2163,-3793 -3403,1164 -6175,3591 -9525,4890zm-215239 1871c-6783,6062 -13860,11771 -21161,17202 -1706,1225 -3486,2570 -5597,2923 -1803,172 -3501,-586 -5236,-834 113,338 346,991 466,1314 2148,1398 4545,2367 6746,3711 1840,977 3493,2464 5611,2787 -323,-1900 -2704,-2418 -3042,-4251 586,-1871 2546,-2817 3869,-4132 1126,-789 2020,-2134 3403,-2426 3816,1915 7527,3988 11426,5716 -30,3005 435,6033 -45,9007 -774,2600 -3824,586 -5612,631 293,1781 2299,1976 3643,2660 4222,1592 8211,3681 12365,5431 -22,-308 -30,-939 -52,-1240 -1405,-1314 -3291,-2471 -3373,-4589 -1097,-11840 -766,-23761 -796,-35623 -947,451 -1848,1006 -2615,1713zm186430 10396c-2344,1037 -4868,1503 -7265,2397 -112,278 -375,856 -496,1127 1195,112 2427,0 3606,315 1202,646 1578,2066 2044,3260 2298,7160 4574,14356 6873,21515 391,1413 977,2922 496,4395 -864,1284 -3215,1592 -2795,3516 4132,-1383 8151,-3035 12343,-4245 1194,-473 2922,-586 3215,-2118 -1825,-203 -4500,713 -5394,-1495 -1570,-3809 -2802,-7768 -4176,-11652 1870,-398 4124,-1126 5777,278 3019,2382 5446,5492 8714,7580 3080,1886 6978,1638 10254,391 1637,-684 3621,-1195 4500,-2915 -2352,218 -4883,654 -6972,-706 -4454,-2802 -8383,-6310 -12605,-9420 1577,-1721 3403,-3403 4019,-5740 1495,-4935 -2434,-10734 -7640,-10982 -5259,-436 -9826,2614 -14498,4499zm-164975 -1960c939,864 2081,1555 2855,2591 683,1225 52,2622 -323,3839 -2615,7137 -5304,14213 -7948,21327 -556,1285 -1074,2847 -2434,3516 -1322,233 -2690,113 -4034,233 128,233 383,728 511,976 3493,1585 7271,2570 10825,4064 112,-293 323,-878 435,-1171 -1660,-1022 -3929,-2389 -3080,-4688 2209,-7940 5109,-15670 7798,-23453 5446,12545 11644,24813 18976,36351 450,759 1532,669 2276,992 2351,-10179 4470,-20418 7024,-30552 398,-2659 3576,-1968 5010,-3568 -3605,-857 -7226,-1630 -10780,-2652 113,2321 3847,2652 2968,5326 -1157,7069 -2735,14093 -4530,21019 -5694,-9255 -10562,-18998 -14942,-28937 -638,-1209 -879,-3035 -2524,-3238 -2321,-631 -4530,-1622 -6791,-2411 -323,90 -969,323 -1292,436zm134888 9585c-5994,1007 -11816,4252 -15062,9496 -4349,6791 -3771,16632 2074,22371 4657,4702 11801,6047 18157,4935 6625,-1081 13431,-4364 16737,-10487 4222,-7647 1254,-17976 -5694,-22972 -4605,-3373 -10653,-4349 -16212,-3343zm-79952 3065c-4469,7610 -8969,15220 -13875,22582 -1667,2411 -3125,5063 -5363,7024 -1608,1472 -3929,1314 -5942,1652 203,1443 1810,1270 2907,1533 3591,466 7136,1284 10690,2013 541,-2599 -4470,-1592 -3621,-4349 1097,-2750 2922,-5116 4297,-7753 4244,593 8466,1224 12718,1735 849,2847 2231,5552 2734,8497 143,2576 -3042,1930 -4695,2208 30,323 75,1022 105,1360 5672,233 11306,901 16955,1329 -67,-2103 -2614,-1502 -3778,-2674 -1142,-1127 -1668,-2704 -2292,-4147 -3583,-9300 -6768,-18742 -9510,-28320 -263,-984 -714,-1901 -1330,-2690zm31882 2765c-5071,1254 -9788,4492 -12140,9240 -3020,6047 -3192,13935 939,19531 3546,4846 9654,7039 15468,7407 6596,346 13319,-864 19261,-3801 -218,-3328 -879,-6633 -714,-9961 203,-2073 3298,-1720 3501,-3771 -4815,601 -9661,1022 -14513,1022 60,2268 3328,999 3898,2982 646,2907 436,5957 692,8909 -3434,3291 -8797,2998 -12959,1420 -5596,-2193 -9067,-7978 -9653,-13807 -466,-4748 0,-10044 3125,-13883 2539,-3147 6716,-4454 10630,-4327 3711,15 7760,1082 10134,4162 1202,1420 1389,3636 3132,4582 83,-3140 -496,-6235 -511,-9375 -6678,-1036 -13619,-2141 -20290,-330zm136571 -34706c4064,2366 8068,4875 12200,7189 -3140,2351 -6371,4597 -9759,6595 -713,-4612 -1645,-9195 -2441,-13784zm86585 14107c4335,-818 8774,-555 13161,-758 8091,30 16835,1517 23093,7039 2073,1682 3080,4206 4815,6197 894,887 1052,2404 278,3433 -1487,2382 -1683,5371 -3493,7587 -2922,4162 -6408,8361 -11343,10112 -6994,2464 -13920,5288 -21282,6400 -8752,1307 -17601,1998 -26338,3298 -9300,1623 -18765,2509 -27833,5274 -3771,1066 -7715,1675 -11178,3605 -5153,2735 -11523,4034 -15084,9068 -834,1224 -2599,2719 -3869,1081 -661,-2261 789,-4424 1931,-6250 4116,-5619 10074,-9811 16662,-11959 3681,-1375 7670,-1518 11351,-2922 2697,-1112 5724,-181 8406,-1360 4687,-1375 9683,-1127 14378,-2487 917,-172 1442,-961 2066,-1570 -3433,-788 -6551,1736 -10014,1135 -11771,-391 -24016,706 -34864,5671 -3974,1841 -7459,4598 -10314,7903 -789,1165 -1923,98 -2832,-210 308,-3914 3200,-6656 6152,-8850 4305,-3786 9654,-6235 15205,-7549 5356,-1285 10735,-2892 16309,-2630 4192,-187 8842,-713 11877,-3973 -3974,1727 -8316,1577 -12546,2073 -4282,263 -8676,-616 -12838,744 -1765,586 -3621,616 -5439,661 -3020,-30 -5634,1615 -8406,2539 -3741,1299 -7332,3200 -10051,6122 -1255,1397 -3095,2697 -4936,1533 5349,-3621 10750,-7189 16505,-10089 2471,-1097 4161,-3508 6851,-4139 2862,-744 5619,-1969 8571,-2322 4222,-540 8564,-435 12636,-1870 2148,-819 4732,-962 6377,-2772 -2479,466 -4717,1961 -7309,1780 -3929,-188 -7888,233 -11764,-383 4132,-3102 8939,-5138 13499,-7535 13147,-6407 27104,-11463 41610,-13627zm-465896 1285c3899,-609 7797,-1382 11741,-1240 2569,-202 5161,-525 7730,-172 3959,495 8016,450 11899,1532 4635,1593 9353,3065 14228,3816 4327,722 8166,2960 12080,4801 5431,2569 10825,5183 16151,7970 2231,1187 4575,2254 6370,4079 -6415,1097 -12913,-150 -19193,-1517 3839,1983 8075,3545 12440,3478 4342,188 8519,1562 12756,2411 2922,549 5183,2607 7827,3824 3779,2043 7392,4364 11291,6205 2073,1668 4455,2832 6761,4117 -676,833 -1630,1532 -2772,1171 -3290,-939 -5146,-4109 -7903,-5912 -4514,-3012 -10036,-3643 -15219,-4837 -3944,-939 -8031,-1172 -12080,-1195 -5709,53 -11463,-488 -17030,-1803 3493,1796 7234,3215 11186,3553 3463,549 7046,451 10419,1563 2569,834 5416,98 7910,1285 3336,1434 7084,2028 10022,4282 3418,2599 7316,4740 9991,8203 991,1172 1547,3268 0,4252 -992,203 -1811,-541 -2569,-1037 -2750,-2028 -4763,-5093 -7978,-6408 -5349,-706 -9886,-4192 -15310,-4665 -10510,-1022 -21057,-1908 -31589,-2434 2014,1848 4823,2073 7392,2434 3756,308 7332,1578 11073,1983 7708,894 15317,2652 22559,5424 6370,2411 11208,7813 13898,13950 510,932 202,1968 67,2960 -2554,-60 -3823,-2434 -5619,-3854 -3741,-3080 -8428,-4627 -12740,-6716 -3208,-1592 -6596,-2884 -10134,-3478 -6311,-2043 -12891,-3170 -19442,-4162 -3981,-187 -7910,-893 -11831,-1547 -9301,-1007 -18586,-2133 -27735,-4057 -4102,-631 -8016,-2126 -12065,-2937 -2839,-533 -5198,-2254 -7790,-3403 -3756,-1585 -6581,-4665 -9172,-7700 -2299,-3320 -3073,-7377 -4463,-11088 631,-1427 2021,-2336 2765,-3696 2877,-5213 8631,-7827 14078,-9435zm121111 9976c3267,-2877 6513,-5784 9871,-8571 -60,4515 -136,9014 -173,13522 -3290,-1533 -6506,-3201 -9698,-4951zm202573 -3343c2426,-1051 5123,-2133 7797,-1375 2735,707 4372,3336 5274,5860 758,1953 909,4395 -481,6115 -1811,2193 -4650,3140 -7317,3846 -2163,-4635 -3523,-9653 -5273,-14446zm-35465 9481c3523,-1052 7392,-91 10329,2013 4440,3170 7166,8248 8474,13439 1036,4087 638,8804 -2119,12162 -3583,4395 -10329,5394 -15250,2795 -7038,-3666 -10081,-12253 -9495,-19810 263,-4725 3290,-9473 8061,-10599zm-86916 21056c2133,-3854 4327,-7677 6558,-11463 1300,4297 2599,8616 3929,12898 -3516,-383 -7009,-879 -10487,-1435zm190088 28020c4950,-5100 11073,-9247 17954,-11163 2959,4763 3155,10563 5341,15656 894,3463 3335,6280 4229,9713 -135,233 -428,706 -563,962 -4192,1960 -8699,3320 -13214,4296 -4335,977 -9030,586 -12959,-1562 -3763,-2088 -5311,-6776 -5010,-10863 165,-2922 2366,-5040 4222,-7039zm-309877 -10344c759,-758 1871,0 2704,203 5094,2118 9533,5491 13860,8864 2742,2006 4538,5101 5357,8339 0,3260 60,7024 -2119,9668 -2749,2103 -6175,3508 -9668,3411 -3741,22 -7670,435 -11171,-1202 -2749,-1285 -5964,-1646 -8428,-3546 -849,-1608 871,-2967 1667,-4177 2172,-2269 1984,-5611 3456,-8271 2021,-4237 2066,-9187 4342,-13289z"/>
  </g>
 </g>
</svg>
