<?xml version="1.0" encoding="UTF-8"?>
<!DOCTYPE svg PUBLIC "-//W3C//DTD SVG 1.1//EN" "http://www.w3.org/Graphics/SVG/1.1/DTD/svg11.dtd">
<!-- Creator: CorelDRAW X8 -->
<svg xmlns="http://www.w3.org/2000/svg" xml:space="preserve" width="189px" height="48px" version="1.1" style="shape-rendering:geometricPrecision; text-rendering:geometricPrecision; image-rendering:optimizeQuality; fill-rule:evenodd; clip-rule:evenodd"
viewBox="0 0 212997 54577"
 xmlns:xlink="http://www.w3.org/1999/xlink">
 <defs>
  <style type="text/css">
   <![CDATA[
    .fil2 {fill:#002868}
    .fil1 {fill:#052769}
    .fil3 {fill:#BA122B}
    .fil0 {fill:white}
   ]]>
  </style>
 </defs>
 <g id="Слой_x0020_1">
  <metadata id="CorelCorpID_0Corel-Layer"/>
  <g id="_965431735744">
   <path class="fil0" d="M193638 7487l-44809 0 -5 9185c0,0 13428,0 15838,0 -832,1606 -3172,6123 -3172,6123 0,0 3944,0 5088,0 -2,1097 -5,3488 -7,4582 -1524,0 -14061,0 -14996,0 -475,-889 -10634,-19890 -10634,-19890l-88511 0 -29 27454 31276 0c0,0 0,-16624 0,-18220 1552,-1 20243,-14 22419,-15 -745,2068 -6582,18257 -6582,18257l10585 0c0,0 730,-1969 993,-2679 1065,0 10894,0 11873,0 310,665 1238,2657 1238,2657l71529 0 0 -17092c0,0 -3508,11 -5106,16 941,-1877 3906,-7790 3906,-7790l-18 -2588 -876 0z"/>
   <path class="fil0" d="M116167 18432c1002,2101 2518,5282 3233,6785 -1586,0 -4227,0 -5681,0 512,-1420 1666,-4617 2448,-6785z"/>
   <polygon class="fil1" points="212987,51204 0,51204 0,38062 212987,38062 "/>
   <path class="fil0" d="M30077 48061l-15962 -7729c0,0 -924,-16719 -8065,-24196l6973 -9577 3108 84 84 -5713 2017 1344 2100 -1176 504 1260 504 84 672 -1092 2101 840 2016 -1092 504 1260 924 -84 252 -756 2100 504 1681 -756 840 1008 924 -84 336 -756 1848 504 1765 -504 756 672 840 168 420 -840 2016 672 2268 -840 169 5041 2940 420 6889 9493c0,0 -6889,7898 -7813,24028l-15711 7813z"/>
   <path class="fil1" d="M53311 8370l87101 0 10634 19890 16406 0 9 -6348 -4521 0 3172 -6122 -16406 0 4 -7420 43927 0 11 1499 -4453 8883 5655 -19 0 15326 -70085 0 -1239 -2657 -13048 0 -993 2679 -8715 0 6582 -18258 -24558 17 0 18219 -29511 0 28 -25689zm67487 17729l-4744 -9954 -3592 9954 8336 0z"/>
   <path class="fil0" d="M193638 7487l-44809 0 -5 9185c0,0 13428,0 15838,0 -832,1606 -3172,6123 -3172,6123 0,0 3944,0 5088,0 -2,1097 -5,3488 -7,4582 -1524,0 -14061,0 -14996,0 -475,-889 -10634,-19890 -10634,-19890l-88511 0 -29 27454 31276 0c0,0 0,-16624 0,-18220 1552,-1 20243,-14 22419,-15 -745,2068 -6582,18257 -6582,18257l10585 0c0,0 730,-1969 993,-2679 1065,0 10894,0 11873,0 310,665 1238,2657 1238,2657l71529 0 0 -17092c0,0 -3508,11 -5106,16 941,-1877 3906,-7790 3906,-7790l-18 -2588 -876 0zm-877 1765c2,200 3,311 4,411 -182,364 -5001,9976 -5001,9976 0,0 4945,-16 6205,-20 0,1475 0,12087 0,13558 -1707,0 -67550,0 -68642,0 -310,-665 -1238,-2657 -1238,-2657l-14225 0c0,0 -729,1969 -992,2679 -896,0 -5158,0 -6847,0 746,-2067 6583,-18259 6583,-18259l-26695 18c0,0 0,16621 0,18219 -1609,0 -26136,0 -27746,0 1,-1588 24,-22340 25,-23925 1716,0 84658,0 85691,0 476,889 10635,19890 10635,19890l17815 0 11 -8112c0,0 -2615,0 -3953,0 832,-1606 3172,-6122 3172,-6122 0,0 -15394,0 -16974,0 1,-1186 2,-4472 2,-5656 1660,0 40523,0 42170,0z"/>
   <path class="fil0" d="M115225 15910l-4018 11135 10989 0 -6254 -13122 -717 1987zm942 2586c1002,2102 2518,5283 3233,6785 -1586,0 -4227,0 -5681,0 512,-1419 1666,-4616 2448,-6785z"/>
   <path class="fil1" d="M42242 29928l-25001 -6c-1535,-6022 -2325,-8578 -5690,-13708l3728 -5045 28938 0 3720 5045c-3585,5487 -4060,7610 -5695,13714zm-13532 -16126c25,51 -98,173 -115,207 -365,-91 -846,-194 -1221,-21 -375,173 -1166,205 -1746,329l-115 104c-107,206 -183,409 -165,614 0,0 906,92 1042,164 137,72 442,227 527,482 -57,180 -188,336 -336,474 -874,657 -2194,1849 -2486,2278 -293,429 -648,967 -784,1468 -137,502 31,761 109,1085 -802,151 -1798,238 -2487,270l-166 61c3,325 -60,684 -8,983 726,549 1665,945 2285,1373 -1258,1370 -2199,2933 -3691,4075 -528,313 -1271,996 -1483,1201 -212,206 -175,364 -175,364 225,66 585,34 834,40 383,-12 736,-348 906,-743 264,-173 452,-517 759,-579 545,-261 737,-913 1115,-1343 387,-354 602,-798 1048,-1078 592,-371 852,-1076 1420,-1534l969 675c491,183 1020,-26 1551,4l239 -165c-11,-300 -303,-527 -528,-671 -326,-236 -530,176 -854,127 -283,-108 -639,-71 -841,-342 512,-295 857,-726 1412,-936l830 155c1657,-297 3584,-561 5199,-355 399,108 697,533 920,881 618,964 -685,1365 -1019,2078 -1061,1128 -2672,1929 -3256,3455 -32,189 -96,412 -12,590 365,-11 671,-194 993,-316 400,-143 204,-387 236,-618 -28,-383 234,-694 448,-944 358,159 520,-252 651,-475 753,-1221 2826,-2179 3091,-2387 265,-209 386,-227 426,-447 40,-220 -332,-769 -267,-1323 957,265 1897,555 2756,1068 783,421 1219,1224 1692,1934 797,1198 1488,2878 2634,3437 265,154 596,154 739,79 -87,-426 -322,-792 -351,-1253 -124,53 -273,96 -414,46 -365,-13 -594,-428 -645,-669 -50,-241 21,-555 21,-555 -533,-175 -1021,-713 -1304,-1134 -283,-420 -818,-1497 -784,-2437 -1288,-236 -2147,-2269 -2251,-2809 -103,-539 30,-811 126,-1189 -527,-482 -1150,-845 -1858,-944 -708,-100 -3410,-34 -5051,161 -373,46 -862,145 -1138,-153 -141,-142 -205,-523 -127,-782 78,-258 581,-741 802,-1068 221,-328 595,-1015 864,-1504 242,65 602,151 922,94 321,-58 730,-200 694,-417 -37,-217 -904,-409 -1380,-295 -243,28 -492,-171 -518,-423 24,-120 148,-180 239,-232 1138,228 2593,333 3643,129 1138,-221 2520,-634 3231,-1802 -418,-47 -975,-151 -1196,-151 -385,709 -1362,1360 -2280,1443 -427,38 -624,-218 -858,-437 -595,533 -1923,573 -2585,409 -661,-165 -2159,-970 -2794,-1568 -84,313 -167,809 -181,922 540,371 2097,840 2097,840z"/>
   <path class="fil2" d="M23863 22435c169,288 -278,446 -368,661 -492,-261 -1033,-495 -1402,-970 631,-6 1245,57 1770,309z"/>
   <path class="fil1" d="M46877 5920l-3018 2 1 -5920 -2643 1204 -2629 -1200 0 1615 -452 0 0 -1621 -2644 1204 -2628 -1200 0 1617 -495 0 0 -1600 -2644 1204 -2628 -1200 0 1590 -435 0 0 -1613 -2644 1204 -2628 -1200 0 1615 -511 0 -2 -1614 -2643 1204 -2628 -1201 1 5913 -3023 1 -7580 10292c5875,7402 7651,14899 8199,24592l16542 8360 16535 -8360c574,-12306 3781,-19061 8187,-24592l-7590 -10296zm-5660 -2466l1827 -849 -1 6025 -3639 0 0 -6018 1813 842zm-5724 -3l1827 -849 -1 6025 -3640 1 0 -6018 1814 841zm-5767 22l1828 -849 -2 6025 -3639 1 0 -6018 1813 841zm-5708 -19l1828 -849 -2 6025 -3638 0 0 -6018 1812 842zm-5783 4l1831 -851 9 6016 -3653 11 0 -6018 1813 842zm26666 36460l-15156 7652 -15161 -7654c-570,-9578 -2035,-16294 -7781,-23714l6504 -8852 2300 0 0 2101 5285 -15 -10 -6032 508 0 0 6042 5270 -1 1 -6041 436 0 1 6061 5269 -1 2 -6060 495 0 0 6039 5270 0 1 -6039 453 0 1 6042 5269 -1 1 -2096 2297 -1 6521 8858c-4341,5568 -7155,11618 -7776,23712z"/>
   <path class="fil0" d="M43011 2533c0,0 -1730,804 -1794,834 -64,-30 -1892,-878 -1892,-878l1 6220 3796 0 1 -6227 -112 51zm-1761 992c0,0 1519,-705 1716,-797 0,234 -2,5673 -2,5823 -147,0 -3334,1 -3481,1 0,-150 -1,-5583 -1,-5817 197,92 1735,806 1735,806l33 -16z"/>
   <path class="fil0" d="M37287 2531c0,0 -1730,804 -1794,833 -64,-29 -1892,-878 -1892,-878l0 6221 3796 -1 2 -6227 -112 52zm-1761 991c0,0 1518,-705 1715,-796 0,233 -1,5673 -1,5823 -147,0 -3335,0 -3482,0 0,-150 0,-5583 0,-5816 197,91 1735,805 1735,805l33 -16z"/>
   <path class="fil0" d="M31520 2552c0,0 -1730,805 -1794,834 -64,-29 -1892,-878 -1892,-878l0 6220 3797 0 1 -6228 -112 52zm-1761 993c0,0 1519,-706 1716,-798 0,234 -1,5673 -1,5823 -148,0 -3335,1 -3483,1 0,-150 0,-5583 0,-5816 197,91 1735,805 1735,805l33 -15z"/>
   <path class="fil0" d="M25813 2533c0,0 -1730,804 -1795,834 -63,-30 -1891,-878 -1891,-878l0 6220 3796 0 2 -6227 -112 51zm-1761 992c0,0 1518,-705 1716,-797 -1,234 -2,5673 -2,5823 -147,0 -3335,1 -3482,1 0,-150 0,-5583 0,-5817 197,92 1734,806 1734,806l34 -16z"/>
   <path class="fil0" d="M20033 2536c0,0 -1734,805 -1798,835 -64,-30 -1892,-878 -1892,-878l1 6219 3810 -11 -10 -6217 -111 52zm-1765 993c0,0 1523,-707 1720,-798 0,232 8,5663 9,5813 -148,0 -3348,10 -3496,11 0,-151 0,-5582 0,-5815 196,91 1734,805 1734,805l33 -16z"/>
   <path class="fil0" d="M38588 3326l-532 0c0,0 -1,5885 -1,6038 -150,0 -4962,0 -5112,0 0,-153 -1,-6038 -1,-6038l-652 0c0,0 -1,5907 -1,6060 -151,0 -4962,0 -5113,0 0,-153 0,-6060 0,-6060l-593 0c0,0 -2,5887 -2,6041 -150,0 -4962,0 -5112,0 0,-153 -1,-6041 -1,-6041l-664 0c0,0 9,5878 9,6031 -150,0 -4977,15 -5128,15 0,-146 0,-2101 0,-2101l-2418 1 -6562 8931 36 47c2772,3580 4621,7083 5818,11023 553,1820 978,3767 1299,5951 286,1946 491,4074 648,6697l3 45 15236 7692 15232 -7690 3 -46c152,-2979 436,-5601 865,-8015 408,-2294 939,-4344 1623,-6266 1189,-3340 2815,-6236 5271,-9387l37 -47 -6580 -8938 -2416 2c0,0 0,1950 0,2096 -151,0 -4962,0 -5113,0 0,-153 0,-6041 0,-6041l-79 0zm-78 157c0,154 0,6042 0,6042l5427 -1c0,0 0,-1951 0,-2096 144,-1 2105,-1 2179,-2 47,63 6393,8684 6463,8779 -2447,3147 -4071,6043 -5259,9384 -687,1930 -1220,3988 -1630,6291 -428,2407 -711,5021 -865,7988 -81,41 -15010,7578 -15080,7613 -70,-35 -15004,-7574 -15085,-7615 -156,-2606 -362,-4725 -646,-6664 -322,-2193 -749,-4148 -1304,-5975 -1198,-3942 -3044,-7447 -5808,-11026 69,-94 6398,-8709 6445,-8772 73,0 2037,-1 2181,-1 0,146 0,2102 0,2102l5443 -16c0,0 -9,-5877 -10,-6031 92,0 259,0 350,0 0,154 0,6042 0,6042l5428 -1c0,0 1,-5887 1,-6041 82,0 197,0 279,0 0,154 0,6061 0,6061l5427 -1c0,0 1,-5906 1,-6060 91,0 248,0 338,0 0,154 1,6039 1,6039l5426 0c0,0 2,-5885 2,-6039 84,0 211,0 296,0z"/>
   <polygon class="fil2" points="28408,35825 29499,35825 28878,33936 "/>
   <path class="fil2" d="M17368 30737c402,1478 828,6712 828,6712l11549 5830 11551 -5849c0,0 295,-4244 810,-6686l-24738 -7zm21823 6641l-9173 0 -162 -505 -1708 0 -130 508 -1140 0 861 -3464 -3214 3 0 3458 -3862 0 -10 -4897 11431 0 1374 3795 2147 0 1 -1204 -591 0 415 -1162 -2148 0 1 -1408 5749 0 1 285 -582 1686 740 -4 0 2909z"/>
   <path class="fil0" d="M67656 41260c164,-410 504,-925 1887,-925 1383,0 1722,515 1887,925l2203 5333 820 0 0 2039 -9821 0 0 -2039 809 0 2215 -5333zm445 5333l2883 0 -1312 -3563c-24,-70 -59,-211 -129,-211 -71,0 -106,141 -129,211l-1313 3563z"/>
   <path class="fil0" d="M77817 48632c-340,0 -680,-24 -996,-281 -376,-317 -376,-644 -376,-1031l0 -5626c0,-316 47,-656 352,-937 305,-282 703,-328 996,-328l5895 0 0 1992 -4055 0c-152,0 -316,35 -410,117 -128,106 -128,293 -128,399l0 621 4476 0 0 1781 -4476 0 0 891c0,163 58,258 117,304 128,118 339,106 504,106l4008 0 0 1992 -5907 0z"/>
   <polygon class="fil0" points="88294,48632 88294,42468 85364,42468 85364,40429 93873,40429 93873,42468 90943,42468 90943,48632 "/>
   <path class="fil0" d="M96907 41330c258,-609 609,-995 1875,-995 785,0 1488,82 1875,995l3035 7302 -2789 0 -644 -1687 -2954 0 -644 1687 -2790 0 3036 -7302zm1031 3739l1688 0 -738 -2074c-24,-58 -70,-176 -106,-176 -35,0 -82,118 -105,176l-739 2074z"/>
   <path class="fil0" d="M108135 41178c340,-796 1266,-843 1769,-843 504,0 1430,47 1770,843l3153 7454 -2813 0 -1981 -5426c-23,-47 -70,-199 -129,-199 -58,0 -105,152 -128,199l-1981 5426 -2813 0 3153 -7454z"/>
   <path class="fil0" d="M122820 48632l117 -4817c0,-152 0,-305 -117,-305 -71,0 -141,130 -305,399l-2333 3985c-222,387 -633,832 -1769,832 -1617,0 -1829,-984 -1829,-1969l0 -6328 2696 0 -117 4699c0,47 0,82 0,129 0,106 0,281 141,281 70,0 128,-105 234,-293l2262 -3949c515,-914 1289,-961 1770,-961 1875,0 1945,1359 1945,2027l0 6270 -2695 0z"/>
   <path class="fil0" d="M143985 47624c-187,598 -422,1102 -1582,1102 -1160,0 -1394,-504 -1582,-1102l-1266 -3961c-47,-153 -105,-293 -164,-293 -105,0 -94,188 -94,270l83 4992 -2661 0 0 -6856c0,-1441 1594,-1441 2016,-1441 691,0 1676,82 2097,1359l1325 3985c24,82 152,375 246,375 93,0 222,-293 246,-375l1325 -3985c422,-1277 1406,-1359 2109,-1359 1864,0 2016,937 2016,1441l0 6856 -2673 0 94 -4992c0,-223 -58,-270 -105,-270 -47,0 -94,70 -164,293l-1266 3961z"/>
   <path class="fil0" d="M153010 41330c257,-609 609,-995 1875,-995 784,0 1488,82 1875,995l3035 7302 -2789 0 -645 -1687 -2953 0 -645 1687 -2789 0 3036 -7302zm1031 3739l1688 0 -739 -2074c-24,-58 -70,-176 -105,-176 -35,0 -82,118 -106,176l-738 2074z"/>
   <path class="fil0" d="M169042 40429l0 6164 1593 0c118,0 282,0 388,-129 70,-94 93,-246 93,-445l0 -5590 2649 0 0 6973c0,269 -47,632 -328,902 -199,188 -539,328 -961,328l-9517 0c-480,0 -773,-164 -949,-328 -292,-270 -339,-609 -339,-902l0 -6973 2648 0 0 5590c0,199 24,351 94,445 105,129 269,129 386,129l1594 0 0 -6164 2649 0z"/>
   <path class="fil0" d="M182695 48632l118 -4817c0,-152 0,-305 -118,-305 -70,0 -141,130 -304,399l-2332 3985c-223,387 -633,832 -1770,832 -1617,0 -1828,-984 -1828,-1969l0 -6328 2695 0 -117 4699c0,47 0,82 0,129 0,106 0,281 140,281 71,0 130,-105 235,-293l2262 -3949c515,-914 1289,-961 1770,-961 1874,0 1945,1359 1945,2027l0 6270 -2696 0z"/>
   <polygon class="fil0" points="196360,48632 193712,48632 193712,45374 190735,45374 190735,48632 188087,48632 188087,40429 190735,40429 190735,43335 193712,43335 193712,40429 196360,40429 "/>
   <polygon class="fil3" points="212997,54577 11,54577 11,51225 212997,51225 "/>
  </g>
 </g>
</svg>
