<?xml version="1.0" encoding="UTF-8"?>
<!DOCTYPE svg PUBLIC "-//W3C//DTD SVG 1.1//EN" "http://www.w3.org/Graphics/SVG/1.1/DTD/svg11.dtd">
<!-- Creator: CorelDRAW X6 -->
<svg xmlns="http://www.w3.org/2000/svg" xml:space="preserve" width="40.301mm" height="9.4826mm" version="1.1" style="shape-rendering:geometricPrecision; text-rendering:geometricPrecision; image-rendering:optimizeQuality; fill-rule:evenodd; clip-rule:evenodd"
viewBox="0 0 162881 38325"
 xmlns:xlink="http://www.w3.org/1999/xlink">
 <defs>
  <style type="text/css">
   <![CDATA[
    .fil2 {fill:#FEFEFE;fill-rule:nonzero}
    .fil0 {fill:black;fill-rule:nonzero}
    .fil1 {fill:#009933;fill-rule:nonzero}
   ]]>
  </style>
 </defs>
 <g id="Слой_x0020_1">
  <metadata id="CorelCorpID_0Corel-Layer"/>
  <g id="_685668496">
   <polygon class="fil0" points="0,38325 162881,38325 162881,0 0,0 "/>
   <path class="fil1" d="M15150 10900c877,0 2680,185 3279,432l297 122 1401 -3817 -294 -100c-1064,-361 -3102,-585 -4380,-585 -4461,0 -7702,1431 -9023,8414 -663,3553 -443,5834 691,7179 904,1072 2390,1571 4675,1571 1812,0 4256,-337 5563,-766l171 -56 1828 -9745 -6711 0 -719 3743 2775 0 -515 2747c-332,40 -745,84 -1086,84 -1187,0 -2066,-105 -2498,-618 -490,-581 -525,-1810 -115,-3983 800,-4262 1794,-4620 4663,-4620z"/>
   <path class="fil1" d="M27080 11059l3384 0c226,0 325,86 379,151 120,142 294,538 103,1586 -207,1116 -671,1731 -1307,1731l-3227 0 667 -3467zm4911 -3721l-8073 0 -3088 16459 3860 0 1045 -5664 1191 0c695,0 1478,1579 2702,5452l67 212 4690 0 -135 -398c-1300,-3835 -2083,-5666 -2855,-6499 2044,-406 3369,-1969 3850,-4563 343,-1784 157,-3117 -552,-3962 -577,-688 -1487,-1037 -2703,-1037z"/>
   <polygon class="fil1" points="49790,11150 50506,7338 39433,7338 36345,23797 47420,23797 48113,19985 40901,19985 41449,17132 46615,17132 47311,13389 42147,13389 42574,11150 "/>
   <polygon class="fil1" points="63375,11150 64092,7338 53018,7338 49931,23797 61005,23797 61698,19985 54487,19985 55034,17132 60201,17132 60896,13389 55733,13389 56160,11150 "/>
   <path class="fil1" d="M76089 7338l-1777 9419c-896,-3082 -1885,-6176 -2944,-9215l-71 -204 -4694 0 -3088 16459 3798 0 1861 -9930c1197,3526 2213,6713 3096,9712l64 218 4504 0 3088 -16459 -3838 0z"/>
   <path class="fil2" d="M85642 17041l3584 0c231,0 323,77 372,136 101,119 244,460 70,1397 -240,1331 -684,1502 -1045,1502l-3551 0 570 -3035zm5012 -4842c-235,1161 -590,1258 -905,1258l-3448 0 466 -2398 3565 0c223,0 279,67 298,89 67,79 159,321 25,1051zm1145 -4861l-8193 0 -3088 16459 8367 0c2661,0 4225,-1480 4782,-4523 334,-1719 238,-2754 -320,-3458 -232,-293 -544,-518 -940,-679 1571,-580 2142,-1859 2467,-3644 299,-1602 186,-2608 -367,-3262 -507,-601 -1393,-893 -2708,-893z"/>
   <polygon class="fil2" points="96052,23797 107127,23797 107820,19985 100609,19985 101155,17132 106322,17132 107017,13389 101854,13389 102281,11150 109496,11150 110213,7338 99140,7338 "/>
   <polygon class="fil2" points="111599,7338 110883,11150 115565,11150 113194,23797 117073,23797 119444,11150 124106,11150 124823,7338 "/>
   <path class="fil2" d="M8597 30634c206,0 339,-135 405,-451 73,-334 -6,-487 -224,-487l-1156 0 -206 938 1180 0zm1598 -2455l-2240 0 -169 750 1416 0c739,0 1041,422 860,1259 -212,967 -702,1248 -1386,1248l-2409 0 896 -4084 3214 0 -181 826z"/>
   <path class="fil2" d="M13917 27353l1132 0c-854,1359 -2070,2994 -2984,4084l-1241 0c278,-281 672,-721 938,-1055 -133,-761 -514,-2220 -841,-3029l1174 0c188,533 394,1307 514,1986 479,-668 981,-1430 1307,-1986z"/>
   <path class="fil2" d="M17101 31436c-212,-1500 -539,-1834 -1186,-1904l-418 1904 -974 0 896 -4084 974 0 -430 1957c417,-363 1192,-1113 1919,-1957l1162 0c-938,1054 -1562,1664 -1786,1834 412,164 775,474 999,2250l-1156 0z"/>
   <path class="fil2" d="M23020 27353l1247 0 -896 4084 -945 0 605 -2760c-472,685 -1144,1729 -1573,2420l-775 0c-121,-679 -297,-1763 -454,-2420l-605 2760 -945 0 896 -4084 1307 0c200,680 411,1623 557,2391 472,-774 1095,-1717 1579,-2391z"/>
   <polygon class="fil2" points="28407,27353 28225,28179 26052,28179 25889,28911 27445,28911 27269,29720 25714,29720 25514,30610 27687,30610 27511,31436 24364,31436 25260,27353 "/>
   <path class="fil2" d="M30731 31436c-212,-1500 -539,-1834 -1187,-1904l-417 1904 -974 0 896 -4084 975 0 -430 1957c418,-363 1193,-1113 1919,-1957l1162 0c-938,1054 -1562,1664 -1786,1834 412,164 775,474 999,2250l-1156 0z"/>
   <polygon class="fil2" points="36354,27353 36172,28179 33999,28179 33836,28911 35391,28911 35216,29720 33660,29720 33461,30610 35634,30610 35458,31436 32311,31436 33207,27353 "/>
   <path class="fil2" d="M38563 29386c255,0 460,-170 557,-597 97,-445 -12,-627 -278,-627l-1053 0 -266 1224 1041 0zm-2463 2051l896 -4084 2355 0c865,0 1023,598 841,1436 -163,738 -666,1377 -1453,1377l-1386 0 -279 1271 -974 0z"/>
   <path class="fil2" d="M42951 27253c393,0 890,59 1192,146l-369 832c-194,-70 -538,-112 -805,-112 -848,0 -1187,117 -1435,1248 -248,1125 30,1277 878,1277 266,0 636,-47 854,-111l0 849c-345,82 -854,135 -1247,135 -1356,0 -1889,-498 -1526,-2162 369,-1670 1102,-2103 2458,-2103z"/>
   <path class="fil2" d="M46377 31436c-212,-1500 -539,-1834 -1187,-1904l-417 1904 -974 0 896 -4084 974 0 -430 1957c417,-363 1192,-1113 1919,-1957l1162 0c-938,1054 -1562,1664 -1786,1834 412,164 775,474 999,2250l-1156 0z"/>
   <path class="fil2" d="M51781 31436l-962 0 587 -2689c-696,908 -1440,1834 -2173,2689l-1277 0 896 -4084 956 0 -618 2800c781,-920 1568,-1869 2294,-2800l1192 0 -896 4084z"/>
   <path class="fil2" d="M55449 26333c-61,252 54,305 296,305 236,0 369,-53 430,-305l569 0c-127,574 -533,838 -1144,838 -593,0 -890,-264 -763,-838l611 0zm1150 5103l-962 0 587 -2689c-696,908 -1441,1834 -2173,2689l-1277 0 896 -4084 956 0 -618 2800c781,-920 1568,-1869 2294,-2800l1192 0 -896 4084z"/>
   <path class="fil2" d="M61725 31436c-212,-1500 -539,-1834 -1186,-1904l-418 1904 -974 0 896 -4084 974 0 -430 1957c417,-363 1192,-1113 1919,-1957l1162 0c-938,1054 -1561,1664 -1786,1834 412,164 775,474 999,2250l-1156 0z"/>
   <path class="fil2" d="M65430 28179c-321,1002 -787,2133 -1435,3258l-1035 0c672,-1213 1356,-2596 1750,-4084l2954 0 -896 4084 -974 0 714 -3258 -1077 0z"/>
   <path class="fil2" d="M71034 27353l1132 0c-854,1359 -2070,2994 -2984,4084l-1241 0c278,-281 672,-721 938,-1055 -133,-761 -514,-2220 -841,-3029l1174 0c188,533 394,1307 514,1986 479,-668 981,-1430 1307,-1986z"/>
   <path class="fil2" d="M73969 30634c206,0 339,-135 405,-451 73,-334 -6,-487 -224,-487l-1156 0 -206 938 1180 0zm1598 -2455l-2240 0 -169 750 1416 0c738,0 1041,422 860,1259 -212,967 -702,1248 -1386,1248l-2409 0 896 -4084 3214 0 -181 826z"/>
   <polygon class="fil1" points="132623,4982 159077,4982 155114,31938 141364,34334 128592,31733 "/>
   <path class="fil2" d="M141111 17354c902,-719 1570,-1365 1981,-1920 625,-836 940,-1750 940,-2715 0,-867 -289,-1571 -857,-2091 -530,-498 -1208,-751 -2016,-751 -1900,0 -3163,952 -3754,2830 -162,520 -242,883 -242,1111l0 209 2342 0 21 -154c150,-1062 579,-1578 1310,-1578 496,0 717,235 717,763 0,445 -162,887 -479,1309 -283,364 -681,767 -1185,1197 -457,358 -913,717 -1353,1069 -613,489 -1275,1086 -1963,1773l-44 42 -310 2126 6719 0 350 -2389 -3139 0c311,-288 634,-567 963,-832z"/>
   <polygon class="fil2" points="151286,14779 149020,14766 148781,16773 147240,16773 151433,9986 148761,9986 144373,16879 144101,19110 148497,19110 148323,20563 150574,20575 150795,19110 151566,19110 151850,16773 151041,16773 "/>
   <path class="fil2" d="M138557 22296l-366 1866c-48,259 -427,314 -735,314 -276,0 -423,-35 -489,-118 -61,-77 -68,-215 -23,-449l316 -1613 -1034 0 -317 1623c-112,574 -65,983 146,1248 195,245 517,359 1013,359 319,0 655,-50 883,-129l-242 1255 1028 0 847 -4357 -1027 0z"/>
   <path class="fil2" d="M141194 24743c284,-576 541,-1080 747,-1464l44 0c27,398 73,912 137,1464l-928 0zm1756 -2385l-5 -62 -1481 0 -19 34c-696,1219 -1660,3076 -2195,4227l-45 97 1101 0 17 -40c116,-259 252,-562 409,-893l1495 0c56,390 101,671 143,879l10 54 1121 0 -15 -80c-200,-1076 -432,-2888 -538,-4215z"/>
   <path class="fil2" d="M145971 25700c-351,0 -595,-31 -715,-183 -129,-161 -137,-487 -25,-1056 222,-1134 503,-1236 1252,-1236 257,0 558,46 713,110l61 25 390 -990 -67 -22c-278,-91 -736,-154 -1114,-154 -1388,0 -1995,583 -2318,2229 -177,917 -126,1512 161,1871 242,303 656,445 1303,445 378,0 843,-57 1160,-141l49 -13 0 -1024 -86 29c-191,63 -519,112 -763,112z"/>
   <path class="fil2" d="M148837 24743c284,-576 542,-1080 749,-1464l44 0c26,398 74,912 138,1464l-930 0zm2295 1830c-201,-1076 -432,-2888 -538,-4215l-5 -62 -1481 0 -19 34c-695,1219 -1659,3076 -2194,4227l-45 97 1101 0 17 -40c117,-259 252,-562 409,-893l1494 0c56,390 101,671 143,879l11 54 1122 0 -15 -80z"/>
   <polygon class="fil1" points="118516,32602 79246,32602 80931,26523 120093,26523 "/>
   <path class="fil2" d="M84931 29834l165 -727 1554 0c68,-633 -273,-711 -939,-711 -250,0 -643,42 -842,100 -6,-248 -6,-496 -11,-749 324,-74 853,-131 1223,-131 1275,0 1838,390 1491,1892 -341,1497 -1092,1945 -2367,1945 -369,0 -876,-53 -1172,-121 125,-253 239,-511 358,-764 177,58 546,100 797,100 694,0 1081,-111 1309,-833l-1565 0z"/>
   <path class="fil2" d="M90598 31378c-199,-1349 -506,-1650 -1115,-1713l-393 1713 -916 0 842 -3674 916 0 -404 1761c393,-327 1121,-1002 1804,-1761l1092 0c-882,949 -1468,1497 -1679,1650 387,148 728,427 939,2024l-1087 0z"/>
   <path class="fil2" d="M94917 27615c370,0 836,53 1121,131l-348 749c-182,-63 -506,-100 -757,-100 -797,0 -1115,105 -1348,1123 -234,1012 28,1149 825,1149 250,0 597,-42 802,-100l0 764c-325,74 -802,121 -1172,121 -1275,0 -1775,-448 -1434,-1945 347,-1502 1035,-1892 2310,-1892z"/>
   <polygon class="fil2" points="96914,31378 95998,31378 96840,27704 100164,27704 99322,31378 98405,31378 99077,28447 97586,28447 "/>
   <path class="fil2" d="M102855 29533c238,0 432,-153 523,-538 92,-401 -11,-564 -261,-564l-991 0 -250 1102 979 0zm-2316 1845l842 -3674 2214 0c814,0 962,538 791,1292 -154,664 -626,1238 -1366,1238l-1303 0 -262 1144 -915 0z"/>
   <polygon class="fil2" points="108517,27704 108347,28447 106303,28447 106150,29106 107612,29106 107447,29834 105984,29834 105797,30635 107840,30635 107675,31378 104716,31378 105557,27704 "/>
   <path class="fil2" d="M111111 27615c370,0 837,53 1121,131l-347 749c-182,-63 -506,-100 -757,-100 -797,0 -1115,105 -1349,1123 -233,1012 30,1149 825,1149 251,0 598,-42 803,-100l0 764c-325,74 -803,121 -1173,121 -1274,0 -1774,-448 -1434,-1945 348,-1502 1037,-1892 2311,-1892z"/>
   <path class="fil2" d="M114742 27615c369,0 836,53 1121,131l-347 749c-183,-63 -506,-100 -757,-100 -796,0 -1115,105 -1348,1123 -234,1012 28,1149 825,1149 250,0 597,-42 802,-100l0 764c-326,74 -802,121 -1172,121 -1275,0 -1775,-448 -1434,-1945 347,-1502 1035,-1892 2310,-1892z"/>
  </g>
 </g>
</svg>
