<?xml version="1.0" encoding="UTF-8"?>
<!DOCTYPE svg PUBLIC "-//W3C//DTD SVG 1.1//EN" "http://www.w3.org/Graphics/SVG/1.1/DTD/svg11.dtd">
<!-- Creator: CorelDRAW X8 -->
<svg xmlns="http://www.w3.org/2000/svg" xml:space="preserve" width="199px" height="38px" version="1.1" style="shape-rendering:geometricPrecision; text-rendering:geometricPrecision; image-rendering:optimizeQuality; fill-rule:evenodd; clip-rule:evenodd"
viewBox="0 0 277044 53159"
 xmlns:xlink="http://www.w3.org/1999/xlink">
 <defs>
  <style type="text/css">
   <![CDATA[
    .fil0 {fill:black}
    .fil2 {fill:yellow;fill-rule:nonzero}
    .fil1 {fill:white;fill-rule:nonzero}
   ]]>
  </style>
 </defs>
 <g id="Слой_x0020_1">
  <metadata id="CorelCorpID_0Corel-Layer"/>
  <g id="_812840511088">
   <polygon class="fil0" points="0,0 277044,0 277044,53159 0,53159 "/>
   <path class="fil1" d="M32487 6890l14384 0c-293,586 -520,1231 -681,1935 -161,704 -242,1672 -242,2904l0 18476c0,1319 66,2287 198,2903 132,616 374,1261 725,1936l-12537 0c293,-587 514,-1247 660,-1980 147,-733 220,-1686 220,-2859l0 -17333 -7874 22172 -7434 0 -7566 -22436 -88 17318c0,1598 58,2683 175,3248 118,564 411,1188 880,1870l-6774 0c469,-675 762,-1291 880,-1848 117,-557 175,-1628 175,-3212l0 -18036c0,-1583 -58,-2653 -175,-3211 -118,-557 -411,-1173 -880,-1847l14780 0 5367 15961 5807 -15961z"/>
   <path class="fil1" d="M50217 15160c0,-2933 594,-5044 1781,-6335 1188,-1290 2970,-1935 5345,-1935l16101 0c2375,0 4157,638 5345,1913 1187,1276 1781,3395 1781,6357l0 11614c0,2932 -594,5044 -1781,6334 -1188,1290 -2970,1936 -5345,1936l-16101 0c-2375,0 -4157,-638 -5345,-1914 -1187,-1276 -1781,-3394 -1781,-6356l0 -11614zm10733 13417c0,1202 704,1803 2112,1803l4663 0c1408,0 2112,-601 2112,-1803l0 -15221c0,-1202 -704,-1804 -2112,-1804l-4663 0c-1408,0 -2112,602 -2112,1804l0 15221z"/>
   <path class="fil1" d="M105028 30380c1144,0 2083,-80 2816,-241 733,-162 1334,-389 1804,-682l-924 5587 -24283 0c293,-587 513,-1247 660,-1980 146,-733 220,-1686 220,-2859l0 -18476c0,-1291 -66,-2251 -198,-2882 -132,-630 -359,-1283 -682,-1957l12493 0c-293,586 -513,1246 -660,1979 -146,733 -220,1687 -220,2860l0 18651 8974 0z"/>
   <path class="fil2" d="M137011 6890l880 5718c-616,-351 -1210,-615 -1782,-792 -572,-175 -1312,-264 -2222,-264l-4882 0 0 18653c0,1290 66,2250 198,2881 131,631 359,1283 681,1958l-12492 0c293,-587 512,-1247 659,-1980 147,-733 220,-1686 220,-2859l0 -18653 -4883 0c-967,0 -1693,81 -2177,243 -484,161 -1093,462 -1826,901l880 -5806 26746 0z"/>
   <path class="fil2" d="M151002 18151l6070 0c704,0 1173,-95 1408,-286 234,-191 352,-623 352,-1297l0 -3432c0,-645 -118,-1070 -352,-1275 -235,-206 -704,-309 -1408,-309l-6070 0 0 6599zm0 4663l0 7391c0,1290 66,2250 197,2881 132,631 360,1283 682,1958l-12493 0c293,-587 513,-1247 660,-1980 147,-733 220,-1686 220,-2859l0 -18476c0,-1291 -80,-2273 -242,-2948 -161,-674 -462,-1305 -902,-1891l23139 0c2551,0 4406,462 5565,1386 1158,923 1737,2529 1737,4816l0 5191c0,1877 -366,3102 -1100,3673 -733,572 -1803,858 -3211,858l3827 7918c382,822 770,1636 1166,2442 396,807 784,1430 1166,1870l-12009 0 -5103 -12230 -3299 0z"/>
   <path class="fil2" d="M191474 22814l-4010 -9524 -4311 9524 8321 0zm-10513 4663l-1892 3872c-264,527 -396,1085 -396,1671 0,469 29,799 88,990 59,190 235,535 528,1034l-7962 0c850,-1086 1481,-1951 1891,-2596 411,-645 851,-1481 1320,-2507l10250 -21468 -1232 -1583 12713 0 10030 24282c616,1467 1437,2757 2463,3872l-14121 0c235,-440 396,-799 485,-1078 88,-279 132,-535 132,-770 0,-792 -132,-1496 -396,-2111l-1540 -3608 -12361 0z"/>
   <path class="fil2" d="M215099 11729l-88 18255c0,1584 59,2655 176,3212 118,557 411,1173 880,1848l-6774 0c469,-675 762,-1291 879,-1848 118,-557 177,-1628 177,-3212l0 -18036c0,-1583 -59,-2653 -177,-3211 -117,-557 -410,-1173 -879,-1847l15088 0 11437 22962 132 -17904c0,-1583 -58,-2653 -175,-3211 -118,-557 -411,-1173 -880,-1847l6774 0c-469,674 -762,1290 -880,1847 -117,558 -175,1628 -175,3211l0 23096 -13901 0 -11614 -23315z"/>
   <path class="fil2" d="M271716 12608c-705,-337 -1379,-594 -2024,-777 -645,-183 -1423,-279 -2332,-279l-9986 0c-850,0 -1407,74 -1671,221 -264,146 -396,484 -396,1012l0 1583c0,528 132,865 396,1012 264,146 821,220 1671,220l7611 0c2375,0 4142,440 5300,1319 1159,880 1738,2332 1738,4356l0 6862c0,2346 -498,4084 -1495,5213 -998,1129 -2743,1694 -5235,1694l-19356 0 -924 -5455c645,242 1291,432 1936,579 645,139 1407,212 2287,212l10382 0c821,0 1364,-73 1628,-219 264,-147 396,-484 396,-1012l0 -1936c0,-498 -132,-828 -396,-990 -264,-161 -807,-241 -1628,-241l-8754 0c-2200,0 -3739,-441 -4619,-1320 -880,-880 -1320,-2478 -1320,-4795l0 -6291c0,-2170 513,-3827 1540,-4971 1026,-1143 2492,-1715 4399,-1715l19928 0 924 5718z"/>
   <polygon class="fil1" points="9849,47810 8531,47810 8531,43120 6212,43120 6212,42272 12161,42272 12161,43120 9849,43120 "/>
   <path id="1" class="fil1" d="M15159 45664c-117,0 -235,-1 -348,-4 -116,-3 -222,-8 -322,-17l0 2167 -1319 0 0 -5538 2073 0c346,0 650,11 910,35 259,23 491,58 694,105 491,116 868,301 1133,555 266,253 398,576 398,969 0,267 -72,507 -214,720 -143,215 -354,396 -629,545 -274,150 -611,264 -1008,343 -398,81 -854,120 -1368,120zm-670 -873c75,8 170,15 286,19 117,5 237,6 362,6 353,0 650,-23 888,-66 240,-44 432,-105 578,-184 147,-79 251,-174 316,-286 64,-111 96,-233 96,-366 0,-162 -47,-304 -144,-422 -97,-119 -264,-211 -504,-277 -124,-33 -278,-57 -463,-73 -183,-15 -408,-22 -675,-22l-740 0 0 1671z"/>
   <path id="2" class="fil1" d="M23027 46402l-2718 0 -695 1408 -1401 0 2849 -5538 1201 0 2849 5538 -1389 0 -696 -1408zm-1370 -2799c-256,577 -483,1060 -681,1449l-244 502 1872 0 -244 -500c-197,-392 -424,-875 -681,-1451l-22 0z"/>
   <polygon id="3" class="fil1" points="27449,44553 30767,44553 30767,42272 32085,42272 32085,47810 30767,47810 30767,45401 27449,45401 27449,47810 26131,47810 26131,42272 27449,42272 "/>
   <path id="4" class="fil1" d="M37302 43018c-357,0 -688,45 -991,137 -302,91 -560,224 -776,398 -218,173 -386,388 -507,644 -123,256 -183,549 -183,877 0,326 54,613 167,860 109,248 268,454 477,619 207,166 460,292 758,376 298,84 638,126 1017,126 273,0 549,-16 831,-48 284,-31 547,-78 794,-138l0 866c-250,55 -520,97 -809,130 -291,31 -591,47 -903,47 -607,0 -1142,-67 -1604,-201 -459,-134 -846,-324 -1157,-568 -309,-245 -543,-537 -699,-878 -156,-341 -234,-718 -234,-1129 0,-423 83,-814 250,-1176 167,-362 407,-676 722,-940 313,-266 704,-474 1175,-627 471,-151 1004,-229 1597,-231 304,0 591,15 864,46 271,33 516,77 734,135l0 853c-285,-66 -552,-111 -800,-138 -245,-27 -487,-40 -723,-40z"/>
   <polygon id="5" class="fil1" points="45924,42272 45924,47810 44606,47810 44606,43137 41541,43137 41541,47810 40222,47810 40222,42272 "/>
   <path id="6" class="fil1" d="M52954 45037c0,-338 -53,-632 -161,-885 -106,-253 -255,-464 -445,-632 -189,-168 -414,-294 -674,-378 -260,-83 -546,-124 -857,-124 -311,0 -597,41 -857,124 -260,84 -485,210 -674,378 -190,168 -338,379 -445,632 -108,253 -161,547 -161,885 0,336 53,632 161,885 107,252 255,462 445,630 189,167 414,293 674,377 260,84 546,126 857,126 311,0 597,-42 857,-126 260,-84 485,-210 674,-377 190,-168 339,-378 445,-630 108,-253 161,-549 161,-885zm1362 0c0,422 -77,809 -232,1162 -156,352 -385,655 -683,908 -299,255 -665,453 -1101,594 -434,140 -928,211 -1483,211 -555,0 -1049,-71 -1483,-211 -436,-141 -802,-339 -1101,-594 -298,-253 -525,-556 -680,-908 -156,-353 -235,-740 -235,-1162 0,-423 79,-810 235,-1162 155,-352 382,-656 680,-909 299,-255 665,-453 1101,-594 434,-140 928,-210 1483,-210 555,0 1049,70 1483,210 436,141 802,339 1101,594 298,253 527,557 683,909 155,352 232,739 232,1162z"/>
   <path id="7" class="fil1" d="M57693 45664c-117,0 -235,-1 -348,-4 -116,-3 -222,-8 -322,-17l0 2167 -1319 0 0 -5538 2073 0c346,0 650,11 910,35 259,23 491,58 694,105 491,116 868,301 1133,555 266,253 398,576 398,969 0,267 -72,507 -214,720 -143,215 -354,396 -629,545 -274,150 -611,264 -1008,343 -398,81 -854,120 -1368,120zm-670 -873c74,8 170,15 285,19 117,5 238,6 363,6 353,0 650,-23 888,-66 240,-44 432,-105 578,-184 147,-79 251,-174 315,-286 65,-111 97,-233 97,-366 0,-162 -47,-304 -144,-422 -97,-119 -264,-211 -504,-277 -124,-33 -278,-57 -463,-73 -183,-15 -408,-22 -676,-22l-739 0 0 1671z"/>
   <polygon id="8" class="fil1" points="65248,47810 63930,47810 63930,43120 61611,43120 61611,42272 67560,42272 67560,43120 65248,43120 "/>
   <polygon id="9" class="fil1" points="69888,44553 73206,44553 73206,42272 74524,42272 74524,47810 73206,47810 73206,45401 69888,45401 69888,47810 68569,47810 68569,42272 69888,42272 "/>
   <path id="10" class="fil1" d="M81557 45037c0,-338 -53,-632 -161,-885 -106,-253 -255,-464 -445,-632 -188,-168 -414,-294 -674,-378 -260,-83 -545,-124 -857,-124 -311,0 -597,41 -857,124 -260,84 -485,210 -674,378 -190,168 -338,379 -444,632 -109,253 -162,547 -162,885 0,336 53,632 162,885 106,252 254,462 444,630 189,167 414,293 674,377 260,84 546,126 857,126 312,0 597,-42 857,-126 260,-84 486,-210 674,-377 190,-168 339,-378 445,-630 108,-253 161,-549 161,-885zm1362 0c0,422 -77,809 -232,1162 -156,352 -385,655 -683,908 -298,255 -665,453 -1101,594 -434,140 -928,211 -1483,211 -554,0 -1049,-71 -1483,-211 -436,-141 -802,-339 -1100,-594 -299,-253 -526,-556 -681,-908 -156,-353 -235,-740 -235,-1162 0,-423 79,-810 235,-1162 155,-352 382,-656 681,-909 298,-255 664,-453 1100,-594 434,-140 929,-210 1483,-210 555,0 1049,70 1483,210 436,141 803,339 1101,594 298,253 527,557 683,909 155,352 232,739 232,1162z"/>
   <polygon id="11" class="fil1" points="86358,45291 88724,45291 88724,46182 86358,46182 "/>
   <path id="12" class="fil1" d="M93854 43018c-473,0 -969,62 -1491,187l0 -861c485,-122 1026,-182 1619,-182 619,0 1157,69 1613,207 456,137 843,332 1159,584 319,252 563,551 731,899 168,348 252,734 252,1155 0,434 -76,830 -230,1187 -156,358 -392,665 -709,918 -318,254 -719,451 -1203,590 -485,140 -1058,210 -1719,210 -297,0 -578,-16 -846,-48 -265,-32 -516,-75 -753,-130l0 -874c278,72 552,123 819,151 265,30 518,44 758,44 375,0 714,-35 1016,-105 303,-69 563,-172 778,-311 216,-138 387,-312 509,-520 125,-207 196,-449 218,-726l-3616 0 0 -848 3578 0c-46,-255 -139,-477 -280,-666 -141,-191 -321,-350 -535,-478 -214,-129 -461,-225 -739,-288 -279,-64 -588,-95 -929,-95z"/>
   <polygon id="13" class="fil1" points="99124,47810 99124,42272 100439,42272 100439,44792 100458,44792 103169,42272 104798,42272 101806,45015 105046,47810 103361,47810 100458,45309 100439,45309 100439,47810 "/>
   <path id="14" class="fil1" d="M109028 43018c-357,0 -688,45 -991,137 -302,91 -560,224 -776,398 -217,173 -386,388 -507,644 -123,256 -183,549 -183,877 0,326 54,613 167,860 109,248 268,454 477,619 207,166 460,292 758,376 299,84 638,126 1017,126 273,0 549,-16 831,-48 284,-31 548,-78 795,-138l0 866c-251,55 -520,97 -810,130 -291,31 -591,47 -903,47 -607,0 -1142,-67 -1603,-201 -460,-134 -846,-324 -1157,-568 -310,-245 -544,-537 -700,-878 -156,-341 -234,-718 -234,-1129 0,-423 84,-814 251,-1176 166,-362 406,-676 721,-940 313,-266 705,-474 1175,-627 471,-151 1004,-229 1597,-231 304,0 591,15 864,46 271,33 516,77 735,135l0 853c-286,-66 -553,-111 -800,-138 -246,-27 -488,-40 -724,-40z"/>
   <polygon id="15" class="fil1" points="117650,42272 117650,47810 116332,47810 116332,43137 113267,43137 113267,47810 111948,47810 111948,42272 "/>
   <polygon id="16" class="fil1" points="120681,46962 124211,46962 124211,47810 119363,47810 119363,42272 124017,42272 124017,43120 120681,43120 120681,44553 123547,44553 123547,45401 120681,45401 "/>
   <path id="17" class="fil1" d="M125614 46962c278,-276 538,-571 776,-886 240,-314 456,-662 647,-1041 192,-380 357,-796 496,-1251 140,-453 249,-958 327,-1512l3718 0 0 4690 853 0 0 2680 -1310 0 0 -1832 -4639 0 0 1832 -1310 0 0 -2680 442 0zm3353 -3842c-76,425 -169,814 -281,1165 -109,351 -242,681 -393,986 -152,304 -326,594 -520,867 -196,273 -411,543 -647,807l0 17 3139 0 0 -3842 -1298 0z"/>
   <path id="18" class="fil1" d="M138837 42272l1379 0 0 5538 -1318 0 0 -2550c0,-316 22,-828 64,-1535l-22 0c-245,322 -675,821 -1287,1494l-2342 2591 -1379 0 0 -5538 1319 0 0 2550c0,406 -22,916 -65,1531l22 0c230,-293 650,-781 1266,-1465l2363 -2616z"/>
   <polygon id="19" class="fil1" points="147022,47810 141925,47810 141925,42272 143243,42272 143243,46962 146165,46962 146165,42272 147484,42272 147484,46962 148341,46962 148341,49642 147022,49642 "/>
   <path id="20" class="fil1" d="M154742 42272l1379 0 0 5538 -1319 0 0 -2550c0,-316 23,-828 65,-1535l-22 0c-246,322 -676,821 -1288,1494l-2341 2591 -1379 0 0 -5538 1318 0 0 2550c0,406 -22,916 -64,1531l22 0c229,-293 650,-781 1265,-1465l2364 -2616z"/>
   <path id="21" class="fil1" d="M163146 45037c0,-338 -53,-632 -161,-885 -106,-253 -254,-464 -444,-632 -189,-168 -414,-294 -674,-378 -260,-83 -546,-124 -857,-124 -311,0 -597,41 -857,124 -260,84 -485,210 -674,378 -190,168 -339,379 -445,632 -108,253 -161,547 -161,885 0,336 53,632 161,885 106,252 255,462 445,630 189,167 414,293 674,377 260,84 546,126 857,126 311,0 597,-42 857,-126 260,-84 485,-210 674,-377 190,-168 338,-378 444,-630 108,-253 161,-549 161,-885zm1363 0c0,422 -77,809 -233,1162 -155,352 -384,655 -683,908 -298,255 -664,453 -1100,594 -434,140 -928,211 -1483,211 -555,0 -1049,-71 -1484,-211 -435,-141 -802,-339 -1100,-594 -298,-253 -525,-556 -681,-908 -156,-353 -234,-740 -234,-1162 0,-423 78,-810 234,-1162 156,-352 383,-656 681,-909 298,-255 665,-453 1100,-594 435,-140 929,-210 1484,-210 555,0 1049,70 1483,210 436,141 802,339 1100,594 299,253 528,557 683,909 156,352 233,739 233,1162z"/>
   <polygon id="22" class="fil1" points="167216,44553 170534,44553 170534,42272 171851,42272 171851,47810 170534,47810 170534,45401 167216,45401 167216,47810 165897,47810 165897,42272 167216,42272 "/>
   <polygon id="23" class="fil1" points="174886,44553 178204,44553 178204,42272 179522,42272 179522,47810 178204,47810 178204,45401 174886,45401 174886,47810 173567,47810 173567,42272 174886,42272 "/>
   <path id="24" class="fil1" d="M185354 46402l-2717 0 -696 1408 -1401 0 2849 -5538 1202 0 2849 5538 -1390 0 -696 -1408zm-1370 -2799c-256,577 -483,1060 -681,1449l-243 502 1871 0 -244 -500c-197,-392 -424,-875 -680,-1451l-23 0z"/>
   <path id="25" class="fil1" d="M192561 43128l-1212 0c-183,0 -339,7 -469,23 -132,16 -249,38 -351,68 -240,75 -418,182 -535,325 -115,141 -174,298 -174,468 0,92 13,178 37,260 25,83 67,160 126,230 61,70 137,132 235,185 96,54 216,98 359,130 96,23 210,40 343,50 132,11 295,17 488,17l1153 0 0 -1756zm-1386 2604l-1620 2078 -1500 0 1789 -2236 0 -16c-465,-133 -811,-328 -1036,-582 -226,-256 -339,-570 -339,-943 0,-365 124,-688 373,-970 250,-281 605,-492 1066,-630 176,-52 371,-92 586,-120 216,-27 463,-41 742,-41l2649 0 0 5538 -1318 0 0 -2078 -1392 0z"/>
   <polygon id="26" class="fil1" points="197857,47810 197857,42272 199171,42272 199171,44792 199191,44792 201902,42272 203531,42272 200539,45015 203778,47810 202094,47810 199191,45309 199171,45309 199171,47810 "/>
   <path id="27" class="fil1" d="M209577 45037c0,-338 -53,-632 -161,-885 -106,-253 -254,-464 -445,-632 -188,-168 -413,-294 -673,-378 -260,-83 -546,-124 -857,-124 -311,0 -598,41 -857,124 -260,84 -485,210 -674,378 -191,168 -339,379 -445,632 -108,253 -161,547 -161,885 0,336 53,632 161,885 106,252 254,462 445,630 189,167 414,293 674,377 259,84 546,126 857,126 311,0 597,-42 857,-126 260,-84 485,-210 673,-377 191,-168 339,-378 445,-630 108,-253 161,-549 161,-885zm1363 0c0,422 -77,809 -233,1162 -156,352 -385,655 -683,908 -298,255 -664,453 -1100,594 -434,140 -929,211 -1483,211 -555,0 -1049,-71 -1484,-211 -435,-141 -802,-339 -1100,-594 -299,-253 -525,-556 -681,-908 -156,-353 -234,-740 -234,-1162 0,-423 78,-810 234,-1162 156,-352 382,-656 681,-909 298,-255 665,-453 1100,-594 435,-140 929,-210 1484,-210 554,0 1049,70 1483,210 436,141 802,339 1100,594 298,253 527,557 683,909 156,352 233,739 233,1162z"/>
   <path id="28" class="fil1" d="M216019 46324c158,-436 352,-904 584,-1403l1240 -2649 1846 0 0 5538 -1319 0 0 -2806c0,-411 23,-889 64,-1433l-47 0c-61,158 -132,335 -215,530 -82,196 -168,390 -258,579l-1483 3130 -846 0 -1483 -3130c-90,-189 -176,-383 -258,-579 -83,-195 -154,-372 -215,-530l-47 0c42,512 64,986 64,1429l0 2810 -1318 0 0 -5538 1834 0 1240 2636c207,440 403,912 584,1416l33 0z"/>
   <polygon id="29" class="fil1" points="227106,42272 227106,47810 225788,47810 225788,43137 222723,43137 222723,47810 221404,47810 221404,42272 "/>
   <path id="30" class="fil1" d="M232935 46402l-2718 0 -696 1408 -1400 0 2849 -5538 1201 0 2849 5538 -1389 0 -696 -1408zm-1370 -2799c-256,577 -484,1060 -682,1449l-243 502 1871 0 -243 -500c-198,-392 -425,-875 -681,-1451l-22 0z"/>
   <polygon id="31" class="fil1" points="237357,44553 240675,44553 240675,42272 241993,42272 241993,47810 240675,47810 240675,45401 237357,45401 237357,47810 236038,47810 236038,42272 237357,42272 "/>
   <path id="32" class="fil1" d="M248614 42272l1379 0 0 5538 -1318 0 0 -2550c0,-316 21,-828 64,-1535l-22 0c-246,322 -676,821 -1288,1494l-2341 2591 -1379 0 0 -5538 1318 0 0 2550c0,406 -22,916 -64,1531l22 0c229,-293 650,-781 1265,-1465l2364 -2616z"/>
   <path id="33" class="fil1" d="M255805 43128l-1213 0c-182,0 -338,7 -468,23 -132,16 -249,38 -352,68 -240,75 -417,182 -535,325 -115,141 -173,298 -173,468 0,92 12,178 36,260 26,83 68,160 127,230 60,70 137,132 234,185 97,54 216,98 359,130 97,23 210,40 344,50 132,11 295,17 487,17l1154 0 0 -1756zm-1386 2604l-1621 2078 -1500 0 1789 -2236 0 -16c-465,-133 -811,-328 -1036,-582 -226,-256 -339,-570 -339,-943 0,-365 125,-688 373,-970 250,-281 605,-492 1066,-630 176,-52 372,-92 587,-120 215,-27 463,-41 741,-41l2650 0 0 5538 -1319 0 0 -2078 -1391 0z"/>
  </g>
 </g>
</svg>
