<?xml version="1.0" encoding="UTF-8"?>
<!DOCTYPE svg PUBLIC "-//W3C//DTD SVG 1.1//EN" "http://www.w3.org/Graphics/SVG/1.1/DTD/svg11.dtd">
<!-- Creator: CorelDRAW X8 -->
<svg xmlns="http://www.w3.org/2000/svg" xml:space="preserve" width="194px" height="66px" version="1.1" style="shape-rendering:geometricPrecision; text-rendering:geometricPrecision; image-rendering:optimizeQuality; fill-rule:evenodd; clip-rule:evenodd"
viewBox="0 0 255115 86765"
 xmlns:xlink="http://www.w3.org/1999/xlink">
 <defs>
  <style type="text/css">
   <![CDATA[
    .fil2 {fill:#FCFCFC}
    .fil0 {fill:red}
    .fil1 {fill:white}
   ]]>
  </style>
 </defs>
 <g id="Слой_x0020_1">
  <metadata id="CorelCorpID_0Corel-Layer"/>
  <g id="_965223348592">
   <path class="fil0" d="M127557 0c70448,0 127558,19423 127558,43382 0,23960 -57110,43383 -127558,43383 -70448,0 -127557,-19423 -127557,-43383 0,-23959 57109,-43382 127557,-43382z"/>
   <path class="fil1" d="M127557 2633c-16443,0 -32995,1041 -49276,3383 -13469,1937 -27174,4797 -40072,9183 -10970,3731 -35576,13720 -35576,28183 0,14464 24606,24452 35576,28183 12898,4387 26603,7247 40072,9184 16281,2342 32833,3382 49276,3382 16444,0 32996,-1040 49276,-3382 13470,-1937 27175,-4797 40073,-9184 10970,-3731 35575,-13719 35575,-28183 0,-14463 -24605,-24452 -35575,-28183 -12898,-4386 -26603,-7246 -40073,-9183 -16280,-2342 -32832,-3383 -49276,-3383zm0 2633c-16317,0 -32745,1032 -48901,3356 -13307,1914 -26857,4736 -39600,9070 -9542,3246 -33790,12910 -33790,25690 0,12780 24247,22445 33791,25690 12742,4334 26292,7156 39599,9071 16156,2323 32584,3355 48901,3355 16318,0 32746,-1032 48902,-3355 13307,-1915 26857,-4737 39599,-9071 9543,-3245 33790,-12910 33790,-25690 0,-12780 -24247,-22444 -33790,-25690 -12742,-4334 -26292,-7156 -39599,-9070 -16156,-2324 -32584,-3356 -48902,-3356z"/>
   <path class="fil2" d="M53353 40693l-177 -14209c6836,-1268 13970,-536 13991,6784 20,6902 -7073,8099 -13814,7425zm-6223 -18035l-85 40483 6051 -21 86 -16768c6465,196 10583,118 15298,-3144 3348,-2315 5910,-7186 4444,-13341 -1167,-4901 -4490,-7834 -9568,-9050 -6826,-1635 -11074,241 -16226,1841zm32828 23693c332,-11642 10224,-11487 13241,-9096 3246,2573 1207,6554 -2391,7808 -2376,827 -8325,1632 -10850,1288zm18964 14574c-217,-1102 -1401,-4095 -2119,-4889 -3286,964 -5405,2492 -9761,1815 -3228,-502 -5616,-2804 -6242,-5632 9522,-362 20458,-2053 19579,-12523 -401,-4786 -3217,-7644 -7249,-8834 -14972,-4416 -23559,13006 -16739,25856 5069,9553 17971,7364 22531,4207zm73992 -3409c-2330,1130 -12701,2267 -12219,-4541 352,-4971 7289,-5457 12328,-5650l-109 10191zm-16651 -24581c200,1456 1314,4019 1980,5096 2743,-1259 5313,-2410 9025,-2288 4511,147 5874,1733 5711,6270 -4847,421 -9946,809 -13555,3122 -3259,2089 -5900,5935 -4241,11568 3159,10729 22682,6369 23703,4222 299,-5662 991,-22529 -1659,-26260 -2009,-2827 -5217,-4173 -9591,-4289 -4885,-129 -7518,1155 -11373,2559zm27980 -137l-6 30312 5959 9 76 -26533c17340,-3567 10987,6105 12435,26410l5841 161c517,-3952 131,-10524 131,-14732 0,-4795 587,-9967 -1875,-13414 -4918,-6887 -14772,-4797 -22561,-2213zm-32545 28106l-2103 -5015c-3190,1227 -6032,3908 -10399,903 -5116,-3522 -5329,-15796 91,-19668 3946,-2819 7279,-352 10205,999l2323 -4893c-10469,-6797 -22294,-1171 -22546,13299 -245,14059 10133,21483 22429,14375zm-46438 2139l5903 104 111 -45639 -5937 2 -77 45533zm12376 47l5942 38 92 -32125 -6012 -87 -22 32174zm3034 -42466c2073,0 3754,1680 3754,3754 0,2073 -1681,3754 -3754,3754 -2074,0 -3754,-1681 -3754,-3754 0,-2074 1680,-3754 3754,-3754z"/>
  </g>
 </g>
</svg>
