<?xml version="1.0" encoding="UTF-8"?>
<!DOCTYPE svg PUBLIC "-//W3C//DTD SVG 1.1//EN" "http://www.w3.org/Graphics/SVG/1.1/DTD/svg11.dtd">
<!-- Creator: CorelDRAW X8 -->
<svg xmlns="http://www.w3.org/2000/svg" xml:space="preserve" width="199px" height="36px" version="1.1" style="shape-rendering:geometricPrecision; text-rendering:geometricPrecision; image-rendering:optimizeQuality; fill-rule:evenodd; clip-rule:evenodd"
viewBox="0 0 224960 40397"
 xmlns:xlink="http://www.w3.org/1999/xlink">
 <defs>
  <style type="text/css">
   <![CDATA[
    .fil0 {fill:black}
    .fil1 {fill:#B3112C}
   ]]>
  </style>
 </defs>
 <g id="Слой_x0020_1">
  <metadata id="CorelCorpID_0Corel-Layer"/>
  <g id="_965224148080">
   <path class="fil0" d="M217766 21931c1778,0 2808,-25 3085,-68 278,-43 419,-221 419,-528 0,-370 -197,-604 -586,-697 -390,-93 -1364,-142 -2918,-142 -3075,0 -5014,-180 -5819,-541 -805,-361 -1207,-1254 -1207,-2679 0,-1317 526,-2165 1576,-2531 802,-280 2594,-419 5366,-419 2471,0 4038,56 4695,162 1552,251 2332,1317 2332,3193l-3690 0c0,-514 -142,-815 -419,-899 -278,-84 -1247,-129 -2901,-129 -1666,0 -2628,25 -2884,75 -258,49 -386,232 -386,548 0,333 218,550 654,649 436,100 1330,149 2683,149 3040,0 5000,194 5877,582 878,388 1317,1281 1317,2679 0,1291 -493,2120 -1476,2476 -846,308 -2761,461 -5735,461 -2292,0 -3781,-42 -4460,-122 -1050,-124 -1767,-422 -2147,-886 -380,-465 -570,-1270 -570,-2416l3689 0c0,541 148,859 436,947 289,89 1313,136 3069,136zm-21428 -4966l0 -2504 14270 0c-659,834 -989,1669 -989,2504l-4293 0 0 7172 -3689 0 0 -7172 -5299 0zm-4969 7165l0 -9662 3689 0 0 9662 -3689 0zm-19151 -9737l0 5887c0,1749 -477,2849 -1425,3302 -862,412 -2929,622 -6205,622 -3264,0 -5328,-207 -6188,-622 -950,-459 -1425,-1561 -1425,-3302l0 -5887 3689 0 0 5887c0,585 203,960 604,1123 481,196 1587,298 3320,298 1710,0 2796,-93 3254,-278 457,-184 687,-566 687,-1143l0 -5887 3689 0zm17717 75l-3689 0c0,2462 0,4854 0,7316l-6457 -7316 -6036 0 0 9662 3689 0c0,-2437 0,-4875 0,-7312 2160,2430 4304,4875 6456,7312l6037 0c0,-3221 0,-6442 0,-9662z"/>
   <polygon class="fil0" points="78078,14853 81767,14853 81767,22012 88741,22012 88751,24515 78078,24515 "/>
   <path class="fil0" d="M64765 14853l6338 0 5936 9662 -4309 0 -1141 -1610 -7311 0 -1140 1610 -4310 0 5937 -9662zm3454 2179l-570 0 -1996 3369 4545 0 -1979 -3369z"/>
   <polygon class="fil0" points="47876,17350 47876,14846 62741,14846 61035,17350 56864,17350 56864,24522 53175,24522 53175,17350 "/>
   <polygon class="fil0" points="16012,24522 16012,14846 28925,14846 28925,17187 19702,17187 19702,18527 28505,18527 28505,20855 19702,20855 19702,22181 28925,22181 28925,24522 "/>
   <path class="fil0" d="M0 14846l10732 0c1319,0 2255,194 2800,582 593,422 890,1168 890,2233 0,830 -125,1444 -369,1841 -246,396 -677,694 -1292,893 671,234 1116,469 1333,703 218,235 328,655 328,1259l0 2165 -3690 0 0 -1732c0,-253 -87,-464 -251,-636 -215,-224 -533,-339 -956,-339l-5836 0 0 2707 -3689 0 0 -9676zm3689 2504l0 1962 5920 0c402,0 690,-70 863,-210 172,-139 260,-395 260,-764 0,-370 -89,-628 -268,-772 -179,-144 -466,-216 -855,-216l-5920 0z"/>
   <path class="fil0" d="M46352 14853l-3689 0c0,2463 0,4854 0,7316l-6456 -7316 -6037 0 0 9662 3689 0c0,-2437 0,-4875 0,-7312 2160,2430 4304,4876 6456,7312l6037 0c0,-3220 0,-6441 0,-9662z"/>
   <path class="fil1" d="M94150 24130l28293 16267 0 0 28294 -16267 0 -24130 -28294 16268 -28293 -16267 0 24129zm4399 -2687l23894 13625 23894 -13625 0 -13704 -23894 13625 -23894 -13625 0 13704z"/>
  </g>
 </g>
</svg>
