<?xml version="1.0" encoding="UTF-8"?>
<!DOCTYPE svg PUBLIC "-//W3C//DTD SVG 1.1//EN" "http://www.w3.org/Graphics/SVG/1.1/DTD/svg11.dtd">
<!-- Creator: CorelDRAW X8 -->
<svg xmlns="http://www.w3.org/2000/svg" xml:space="preserve" width="203px" height="34px" version="1.1" style="shape-rendering:geometricPrecision; text-rendering:geometricPrecision; image-rendering:optimizeQuality; fill-rule:evenodd; clip-rule:evenodd"
viewBox="0 0 263694 44828"
 xmlns:xlink="http://www.w3.org/1999/xlink">
 <defs>
  <style type="text/css">
   <![CDATA[
    .fil1 {fill:#393185}
    .fil0 {fill:#E31E24}
   ]]>
  </style>
 </defs>
 <g id="Слой_x0020_1">
  <metadata id="CorelCorpID_0Corel-Layer"/>
  <g id="_965431730624">
   <polygon class="fil0" points="72835,3307 57672,3144 45730,13843 60953,29841 75008,44778 90242,44774 60893,14006 67889,7794 "/>
   <polygon class="fil1" points="43318,15913 70911,44828 54221,44773 43133,32327 24982,32365 "/>
   <path class="fil0" d="M1 23992c109,8369 5569,19035 19110,20651l31404 105 -9198 -10228 -17075 -67c-6744,171 -11563,-3974 -11588,-10137 -24,-5935 4203,-10198 9553,-10608l12419 16 118 -10477 -13915 86c-12908,81 -20952,11035 -20828,20659z"/>
   <path class="fil0" d="M111492 10128l-4692 0c-70,-762 -342,-1354 -817,-1776 -475,-422 -1096,-633 -1864,-633 -880,0 -1564,364 -2053,1092 -489,729 -734,1794 -734,3196 0,1225 168,2137 503,2736 447,790 1243,1185 2388,1185 769,0 1372,-208 1813,-623 439,-415 708,-984 806,-1705l4755 0c-224,1892 -974,3366 -2252,4421 -1278,1055 -2929,1583 -4954,1583 -2486,0 -4441,-695 -5865,-2083 -1424,-1389 -2137,-3281 -2137,-5677 0,-2328 716,-4196 2147,-5605 1432,-1410 3223,-2114 5373,-2114 2276,0 4060,521 5352,1562 1292,1041 2036,2522 2231,4441zm17198 -5615l0 14702 -4943 0 0 -10639 -3918 0c-14,708 -21,1410 -21,2104 -42,1688 -118,3083 -230,4186 -154,1579 -377,2559 -671,2941 -488,639 -1186,1102 -2094,1388 -698,218 -1473,327 -2325,327 -517,0 -873,-11 -1068,-31 -196,-20 -343,-51 -441,-92l84 -3002c322,-40 566,-102 734,-183 516,-273 837,-763 963,-1471 195,-1075 349,-2440 461,-4094 112,-1654 175,-2940 188,-3859 14,-919 28,-1678 42,-2277l13239 0zm6263 14702l-4839 0 5404 -14702 5028 0 5404 14702 -4923 0 -586 -1939 -4923 0 -565 1939zm4629 -5002l-1592 -5269 -1529 5269 3121 0zm15459 5002l-7353 0 0 -14702 7207 0c1913,0 3351,245 4314,735 1188,599 1781,1586 1781,2961 0,694 -203,1341 -607,1940 -335,490 -790,912 -1362,1266 796,204 1414,609 1854,1215 439,606 659,1324 659,2155 0,1565 -593,2715 -1780,3451 -1061,653 -2632,979 -4713,979zm-670 -11272l-1739 0 0 2451 2053 0c642,0 1086,-115 1330,-348 244,-231 366,-544 366,-939 0,-449 -139,-755 -418,-919 -279,-163 -810,-245 -1592,-245zm-168 5126l-1571 0 0 2716 2158 0c698,0 1222,-81 1571,-245 433,-204 649,-545 649,-1021 0,-490 -262,-855 -786,-1092 -523,-239 -1197,-358 -2021,-358zm16988 1021c-1103,0 -1818,174 -2146,521 -329,347 -493,1024 -493,2032 0,694 -21,1241 -63,1643 -42,402 -105,712 -188,929l-5007 0 0 -449c266,0 419,-139 461,-418 42,-280 63,-998 63,-2155 0,-1347 223,-2294 670,-2838 294,-367 922,-722 1886,-1062 -852,-231 -1488,-663 -1907,-1297 -418,-633 -628,-1399 -628,-2297 0,-1470 482,-2525 1446,-3165 1018,-681 2764,-1021 5236,-1021l7122 0 0 14702 -4943 0 0 -5125 -1509 0zm1509 -6147l-2305 0c-600,0 -1082,130 -1445,389 -363,258 -545,640 -545,1143 0,504 189,861 566,1072 377,211 971,317 1780,317l1949 0 0 -2921zm12588 11272l-4943 0 0 -14702 4943 0 0 5166 4672 0 0 -5166 4943 0 0 14702 -4943 0 0 -5492 -4672 0 0 5492zm26624 -9087l-4692 0c-70,-762 -342,-1354 -817,-1776 -474,-422 -1096,-633 -1864,-633 -880,0 -1564,364 -2053,1092 -489,729 -733,1794 -733,3196 0,1225 168,2137 503,2736 447,790 1243,1185 2388,1185 768,0 1372,-208 1812,-623 439,-415 709,-984 806,-1705l4755 0c-223,1892 -974,3366 -2252,4421 -1277,1055 -2929,1583 -4953,1583 -2487,0 -4441,-695 -5866,-2083 -1424,-1389 -2137,-3281 -2137,-5677 0,-2328 717,-4196 2148,-5605 1431,-1410 3222,-2114 5373,-2114 2276,0 4059,521 5351,1562 1292,1041 2036,2522 2231,4441zm2305 9087l0 -14702 4943 0 0 4758 4336 -4758 5803 0 -5510 5533 6096 9169 -5928 0 -3917 -5574 -880 919 0 4655 -4943 0zm22267 -6922l5132 -7780 4629 0 0 14702 -4734 0 -63 -7678 -5132 7678 -4629 0 0 -14702 4734 0 63 7780zm17448 0l5133 -7780 4629 0 0 14702 -4734 0 -63 -7678 -5132 7678 -4629 0 0 -14702 4734 0 62 7780zm4001 -12293l2682 0c-70,245 -140,449 -210,613 -446,966 -1229,1769 -2346,2409 -140,82 -394,156 -764,225 -371,68 -744,102 -1121,102 -363,0 -664,-24 -901,-72 -237,-47 -468,-133 -691,-255 -1033,-653 -1760,-1354 -2178,-2103 -126,-245 -231,-551 -315,-919l2745 0c69,299 146,517 230,653 293,450 761,674 1403,674 517,0 915,-217 1194,-653 84,-136 175,-361 272,-674zm-126405 43720l0 -14703 4943 0 0 4758 4337 -4758 5802 0 -5510 5534 6096 9169 -5927 0 -3918 -5575 -880 919 0 4656 -4943 0zm22267 -6923l5132 -7780 4629 0 0 14703 -4734 0 -63 -7678 -5132 7678 -4629 0 0 -14703 4734 0 63 7780zm17198 6923l-4944 0 0 -14703 7269 0c2108,0 3721,449 4838,1348 1062,858 1592,2062 1592,3614 0,1648 -495,2907 -1487,3778 -1047,926 -2639,1389 -4776,1389l-2492 0 0 4574zm0 -8005l2052 0c629,0 1103,-123 1424,-367 378,-286 567,-735 567,-1348 0,-599 -308,-1028 -922,-1287 -434,-176 -1005,-265 -1718,-265l-1403 0 0 3267zm24989 -6698l0 14703 -4943 0 0 -10639 -4671 0 0 10639 -4944 0 0 -14703 14558 0zm7835 7780l5132 -7780 4629 0 0 14703 -4734 0 -63 -7678 -5132 7678 -4629 0 0 -14703 4734 0 63 7780zm25995 -7698l0 14703 -5404 0 0 -5350c-447,544 -936,956 -1466,1235 -531,279 -1152,419 -1865,419 -1508,0 -2751,-395 -3729,-1185 -1047,-844 -1570,-1981 -1570,-3410l0 -6412 5404 0 0 5656c0,613 98,1076 293,1389 252,409 663,613 1236,613 629,0 1068,-187 1320,-562 251,-374 377,-922 377,-1644l0 -5452 5404 0z"/>
  </g>
 </g>
</svg>
