<?xml version="1.0" encoding="UTF-8"?>
<!DOCTYPE svg PUBLIC "-//W3C//DTD SVG 1.1//EN" "http://www.w3.org/Graphics/SVG/1.1/DTD/svg11.dtd">
<!-- Creator: CorelDRAW X6 -->
<svg xmlns="http://www.w3.org/2000/svg" xml:space="preserve" width="17.9153mm" height="11.5799mm" version="1.1" style="shape-rendering:geometricPrecision; text-rendering:geometricPrecision; image-rendering:optimizeQuality; fill-rule:evenodd; clip-rule:evenodd"
viewBox="0 0 35808 23145"
 xmlns:xlink="http://www.w3.org/1999/xlink">
 <defs>
  <style type="text/css">
   <![CDATA[
    .fil0 {fill:#E0377B;fill-rule:nonzero}
   ]]>
  </style>
 </defs>
 <g id="Слой_x0020_1">
  <metadata id="CorelCorpID_0Corel-Layer"/>
  <g id="_1096968832">
   <path class="fil0" d="M14521 19139c24,-120 3,-226 -64,-323l-495 -736c-67,-98 -164,-151 -291,-159 -135,-25 -255,-3 -354,64l-968 655 5 -1034c1,-106 -43,-212 -132,-309 -96,-106 -193,-162 -306,-162l-886 -11c-34,0 -68,8 -102,19 -85,17 -162,67 -239,148 -90,98 -135,203 -135,309l0 1037 -961 -669c-98,-67 -218,-89 -353,-67 -128,6 -225,59 -293,156l-503 730c-68,98 -90,201 -68,321 30,128 90,220 173,287l1050 739 -1050 742c-83,67 -143,156 -173,284 -23,120 0,226 68,323l503 728c68,98 165,151 293,159 135,22 255,0 353,-70l961 -666 0 1037c0,106 45,209 135,307 77,84 154,131 239,151 34,11 68,17 102,17l886 -8c113,-3 210,-56 306,-162 89,-100 133,-203 132,-309l-5 -1037 968 658c98,67 219,86 354,64 128,-8 225,-64 291,-162l495 -733c67,-98 88,-203 64,-323 -31,-128 -92,-217 -176,-284l-1035 -714 1035 -714c83,-67 144,-156 176,-281z"/>
   <path class="fil0" d="M4419 3072c-324,-323 -820,-485 -1487,-485l-954 0c-127,0 -219,-36 -276,-109 -57,-75 -86,-151 -86,-234 0,-89 29,-170 86,-242 57,-73 149,-109 276,-109l1597 0c159,0 299,-28 423,-81 124,-53 227,-126 309,-212 82,-89 144,-189 185,-304 41,-114 62,-226 62,-340 0,-114 -21,-226 -62,-335 -41,-112 -103,-209 -185,-295 -82,-84 -184,-154 -304,-206 -121,-53 -260,-81 -418,-81l-1483 0c-1401,0 -2101,714 -2101,2144 0,683 165,1182 494,1503 329,321 820,479 1473,479l950 0c127,0 220,36 281,114 60,75 90,156 90,245 0,84 -30,162 -90,234 -61,72 -154,109 -281,109l-1920 0c-152,0 -287,28 -404,81 -117,53 -215,123 -295,209 -79,87 -138,184 -176,296 -38,109 -57,223 -57,337 0,120 19,234 57,346 38,112 95,209 171,296 76,86 171,156 286,209 114,53 247,81 400,81l1838 0c1390,0 2086,-711 2086,-2130 0,-691 -162,-1196 -486,-1519z"/>
   <path class="fil0" d="M10530 14773c0,505 414,917 919,917 506,0 919,-413 919,-917l2 -13792c0,-153 -27,-290 -81,-415 -54,-123 -127,-226 -219,-309 -92,-81 -196,-145 -314,-190 -107,-41 -218,-63 -333,-66l-64 0c-155,5 -307,46 -459,119 -161,78 -303,195 -423,346l-1321 1684 -1312 -1684c-121,-151 -263,-268 -428,-346 -154,-73 -309,-115 -463,-119l-63 0c-115,4 -226,26 -333,66 -117,45 -220,109 -309,190 -89,84 -160,187 -214,309 -54,126 -81,262 -81,415l0 4857c0,304 92,532 276,689 184,156 402,234 656,234 241,0 453,-81 637,-240 184,-159 276,-385 276,-683l0 -2860 684 892c196,259 421,390 675,390 127,0 247,-28 361,-86 114,-56 225,-159 333,-304l675 -892 4 11796z"/>
   <path class="fil0" d="M15733 3975l485 -1207 409 1207 -894 0zm543 -3975l-81 0c-232,6 -406,58 -519,153 -120,100 -218,234 -295,399l-2262 4963c-45,95 -67,217 -67,371 0,134 29,254 86,360 57,109 133,201 228,276 95,78 201,137 318,176 117,42 239,64 366,64 158,0 310,-50 456,-148 146,-101 263,-251 352,-452l295 -733 1977 0 266 733c70,201 176,351 318,452 143,98 309,148 499,148 120,0 241,-22 361,-67 120,-45 227,-106 318,-181 92,-75 166,-167 223,-276 57,-109 86,-226 86,-351 0,-134 -22,-256 -67,-371l-2063 -4951c-70,-173 -166,-309 -290,-410 -117,-95 -286,-147 -507,-153z"/>
   <path class="fil0" d="M24708 3222c219,-315 328,-703 328,-1160 0,-254 -44,-502 -133,-744 -89,-245 -225,-463 -409,-652 -184,-189 -418,-343 -704,-460 -285,-117 -624,-176 -1017,-176l-1996 0c-596,0 -893,309 -893,931l0 4829c0,622 309,931 927,931 611,0 917,-318 917,-951l0 -3973 1004 0c197,0 344,34 440,103 96,70 143,190 143,363 0,189 -47,329 -143,418 -95,89 -222,134 -380,134l-133 0c-222,0 -396,70 -523,212 -127,142 -190,334 -190,577 -6,126 6,243 38,351 32,106 63,187 95,237l1122 2091c89,164 204,284 347,362 143,75 287,114 433,114 120,0 241,-22 361,-67 121,-45 228,-106 323,-187 95,-78 171,-176 228,-290 57,-114 86,-237 86,-371 0,-164 -60,-354 -181,-569l-884 -1388c311,-128 575,-349 794,-666z"/>
   <path class="fil0" d="M29392 39l-3118 0c-291,0 -518,92 -680,273 -161,184 -242,401 -242,652 0,254 81,471 242,655 161,181 388,273 680,273l646 0 0 3945c0,304 91,532 271,689 181,156 395,234 642,234 253,0 472,-78 656,-234 184,-156 276,-385 276,-689l0 -3945 627 0c291,0 520,-92 685,-273 165,-184 247,-402 247,-655 0,-251 -82,-469 -247,-652 -165,-181 -393,-273 -685,-273z"/>
   <path class="fil0" d="M35727 546c-54,-109 -126,-203 -214,-284 -89,-78 -190,-142 -304,-190 -105,-44 -212,-68 -322,-72l-58 0c-136,5 -271,43 -404,114 -143,78 -261,198 -357,363l-827 1436 -827 -1447c-95,-164 -216,-282 -361,-354 -136,-70 -267,-106 -392,-111l-58 0c-116,4 -226,28 -330,72 -114,47 -215,114 -304,201 -89,84 -160,184 -214,298 -54,114 -81,234 -81,360 0,154 51,310 152,469l1502 2423 0 2016c0,304 90,532 271,689 181,156 398,234 651,234 247,0 463,-78 646,-234 184,-156 276,-385 276,-689l0 -2016 1483 -2414c102,-164 152,-332 152,-505 0,-126 -27,-245 -81,-357z"/>
   <path class="fil0" d="M9342 15375c177,-167 266,-393 266,-680 0,-201 -73,-396 -218,-580l-1559 -1996 1549 -1748c76,-75 130,-164 161,-265 32,-103 48,-206 48,-315 0,-265 -84,-485 -252,-661 -168,-173 -404,-262 -708,-262 -165,0 -303,28 -414,78 -111,50 -211,142 -299,276l-1511 2138 0 -1578c0,-293 -92,-518 -275,-675 -184,-159 -399,-240 -647,-240 -253,0 -471,81 -651,240 -181,156 -271,382 -271,675l0 4923c0,304 90,533 271,689 180,156 398,234 651,234 247,0 463,-78 647,-234 183,-156 275,-385 275,-689l0 -1578 1530 2138c89,126 195,217 318,276 124,56 255,86 395,86 285,0 516,-86 694,-254z"/>
   <path class="fil0" d="M16798 12763c-64,187 -157,354 -281,496 -124,142 -279,256 -466,346 -187,89 -401,134 -642,134l-171 0 0 -2955 161 0c253,0 475,39 666,123 190,81 345,190 466,323 120,134 210,284 271,452 60,167 91,340 91,519 0,189 -32,376 -95,563zm1050 -2799c-288,-315 -649,-572 -1084,-770 -434,-195 -939,-296 -1516,-296l-893 0c-114,0 -228,28 -342,78 -114,50 -217,117 -309,203 -92,87 -166,187 -223,298 -57,114 -86,231 -86,354l0 4829c0,290 87,519 262,683 174,164 407,248 699,248l1046 0c551,0 1033,-95 1445,-282 412,-187 757,-435 1036,-747 279,-309 488,-661 627,-1054 139,-393 209,-797 209,-1215 0,-418 -73,-834 -219,-1241 -146,-410 -363,-772 -651,-1090z"/>
   <path class="fil0" d="M22141 11416l-953 0c-127,0 -219,-36 -276,-109 -57,-73 -86,-151 -86,-234 0,-86 28,-167 86,-242 57,-73 149,-109 276,-109l1597 0c158,0 299,-25 423,-81 124,-53 227,-123 309,-212 82,-86 144,-189 185,-301 41,-114 62,-229 62,-343 0,-112 -21,-223 -62,-335 -41,-109 -103,-209 -185,-293 -82,-87 -184,-156 -304,-209 -121,-53 -260,-81 -418,-81l-1483 0c-1401,0 -2101,717 -2101,2144 0,683 165,1185 494,1503 329,321 820,479 1473,479l951 0c127,0 220,39 280,114 60,75 90,159 90,248 0,81 -30,159 -90,231 -60,73 -154,109 -280,109l-1920 0c-152,0 -287,28 -404,81 -118,56 -215,125 -294,209 -79,86 -138,184 -176,295 -38,112 -57,223 -57,337 0,120 19,237 57,349 38,109 95,209 171,293 77,87 171,156 286,209 114,56 248,81 400,81l1838 0c1390,0 2086,-708 2086,-2127 0,-691 -162,-1199 -486,-1522 -324,-323 -820,-485 -1487,-485z"/>
  </g>
 </g>
</svg>
