<?xml version="1.0" encoding="UTF-8"?>
<!DOCTYPE svg PUBLIC "-//W3C//DTD SVG 1.1//EN" "http://www.w3.org/Graphics/SVG/1.1/DTD/svg11.dtd">
<!-- Creator: CorelDRAW X8 -->
<svg xmlns="http://www.w3.org/2000/svg" xml:space="preserve" width="153px" height="70px" version="1.1" style="shape-rendering:geometricPrecision; text-rendering:geometricPrecision; image-rendering:optimizeQuality; fill-rule:evenodd; clip-rule:evenodd"
viewBox="0 0 154 70"
 xmlns:xlink="http://www.w3.org/1999/xlink">
 <defs>
  <style type="text/css">
   <![CDATA[
    .fil4 {fill:none}
    .fil2 {fill:black}
    .fil3 {fill:red}
    .fil0 {fill:black;fill-rule:nonzero}
    .fil1 {fill:red;fill-rule:nonzero}
   ]]>
  </style>
 </defs>
 <g id="Слой_x0020_1">
  <metadata id="CorelCorpID_0Corel-Layer"/>
  <g id="_965364374704">
   <polygon class="fil0" points="150,70 146,70 146,63 150,60 "/>
   <polygon class="fil0" points="154,58 150,58 146,62 146,58 142,58 142,56 154,56 "/>
   <polygon class="fil0" points="133,67 129,63 129,56 133,56 "/>
   <polygon class="fil0" points="141,70 137,70 137,68 141,64 "/>
   <polygon class="fil0" points="141,63 134,70 132,70 129,67 129,64 133,68 137,64 137,56 141,56 "/>
   <polygon class="fil0" points="128,62 124,58 120,63 120,70 116,70 116,63 123,56 125,56 128,59 "/>
   <polygon class="fil0" points="128,70 124,70 124,60 128,63 "/>
   <polygon class="fil0" points="115,67 112,70 106,70 103,67 103,63 107,60 107,68 111,68 115,64 "/>
   <polygon class="fil0" points="115,63 111,67 111,58 106,58 103,62 103,59 106,56 112,56 115,59 "/>
   <polygon class="fil0" points="102,70 98,70 98,68 102,64 "/>
   <polygon class="fil0" points="102,63 98,67 98,63 94,63 94,70 90,70 90,63 94,60 94,61 98,61 98,56 102,56 "/>
   <polygon class="fil0" points="94,58 90,62 90,56 94,56 "/>
   <polygon class="fil0" points="89,67 86,70 80,70 77,67 77,63 81,60 81,68 85,68 89,64 "/>
   <polygon class="fil0" points="89,63 85,67 85,58 80,58 77,62 77,59 80,56 86,56 89,59 "/>
   <polygon class="fil0" points="52,67 48,63 48,56 52,56 "/>
   <polygon class="fil0" points="60,70 56,70 56,68 60,64 "/>
   <polygon class="fil0" points="60,63 53,70 50,70 48,67 48,64 52,68 56,64 56,56 60,56 "/>
   <polygon class="fil0" points="56,54 53,57 53,54 "/>
   <polygon class="fil0" points="46,67 44,70 37,70 35,67 35,63 39,60 39,68 43,68 46,64 "/>
   <polygon class="fil0" points="46,63 43,67 43,58 38,58 35,62 35,59 37,56 44,56 46,59 "/>
   <polygon class="fil0" points="26,70 22,70 22,63 26,60 "/>
   <polygon class="fil0" points="34,63 31,65 28,65 30,63 30,60 "/>
   <polygon class="fil0" points="34,62 31,58 26,58 22,62 22,56 31,56 34,59 "/>
   <polygon class="fil0" points="18,70 14,70 14,63 18,60 "/>
   <polygon class="fil0" points="21,58 17,58 14,62 14,58 10,58 10,56 21,56 "/>
   <polygon class="fil0" points="9,70 2,70 0,67 0,63 4,60 4,68 9,68 "/>
   <polygon class="fil0" points="9,58 3,58 0,62 0,59 2,56 9,56 "/>
   <path class="fil1" d="M75 62l-3 -4 -4 4 -3 -4 -4 4 0 -3 3 -3 2 0 2 3 3 -3 2 0 2 3 0 3zm0 8l-3 0 0 -10 3 3 0 7zm-10 0l-4 0 0 -7 4 -3 0 10z"/>
   <path class="fil2" d="M51 18l-18 0 -10 10 0 -9 8 -7 20 0 0 6zm0 34l-20 0 -8 -7 0 -12 11 -11 0 24 17 0 0 6z"/>
   <path class="fil3" d="M95 21l-10 -10 -11 10 -11 -10 -10 10 0 -9 7 -7 6 0 8 7 8 -7 6 0 7 7 0 9zm0 22l-11 0 0 -28 11 11 0 17zm-31 9l-11 0 0 -26 11 -11 0 37z"/>
   <path class="fil2" d="M97 18l18 0 10 10 0 -9 -8 -7 -20 0 0 6zm-31 34l51 0 8 -7 0 -12 -11 -11 0 24 -48 0 0 6z"/>
   <polyline class="fil4" points="52,22 48,26 51,26 51,44 36,44 "/>
   <polyline class="fil4" points="96,22 100,26 97,26 97,44 112,44 "/>
   <line class="fil4" x1="95" y1="21" x2="74" y2= "0" />
   <line class="fil4" x1="53" y1="21" x2="74" y2= "0" />
  </g>
 </g>
</svg>
