<?xml version="1.0" encoding="UTF-8"?>
<!DOCTYPE svg PUBLIC "-//W3C//DTD SVG 1.1//EN" "http://www.w3.org/Graphics/SVG/1.1/DTD/svg11.dtd">
<!-- Creator: CorelDRAW X8 -->
<svg xmlns="http://www.w3.org/2000/svg" xml:space="preserve" width="147px" height="42px" version="1.1" style="shape-rendering:geometricPrecision; text-rendering:geometricPrecision; image-rendering:optimizeQuality; fill-rule:evenodd; clip-rule:evenodd"
viewBox="0 0 131819 38101"
 xmlns:xlink="http://www.w3.org/1999/xlink">
 <defs>
  <style type="text/css">
   <![CDATA[
    .fil1 {fill:#8A1F31}
    .fil0 {fill:#DA251E}
    .fil2 {fill:#FEFEFE}
   ]]>
  </style>
 </defs>
 <g id="Слой_x0020_1">
  <metadata id="CorelCorpID_0Corel-Layer"/>
  <g id="_965651892704">
   <path class="fil0" d="M42241 0l87979 0c880,0 1599,732 1599,1627l0 34846c0,895 -719,1628 -1599,1628l-87979 0c-879,0 -1599,-733 -1599,-1628l0 -34846c0,-895 720,-1627 1599,-1627zm16263 22922l11905 6851c2252,1295 3344,2777 1592,4044 -707,512 -3074,420 -3831,-16l-17671 -10168 0 9167c0,873 -714,1587 -1587,1587l-1879 0c-873,0 -1587,-714 -1587,-1587 0,-9194 22,-18392 22,-27583 0,-873 714,-1587 1586,-1587l16370 0c63,0 126,4 187,11 7753,463 9752,3725 10046,7816 9,67 14,136 14,205l0 532 0 2164 0 532c0,69 -5,138 -14,205 -411,5701 -4917,7827 -10233,7827l-4920 0zm17240 3662l0 -72c-2,-25 -4,-50 -5,-74l5 0 0 -14017c0,-758 33,-1274 154,-2031 572,-3575 2853,-6319 9895,-6747 55,-8 110,-13 165,-13l52 0 4567 0c41,0 81,3 121,7 5534,318 9775,1958 10126,8025l-3 2093 3 0c-1,17 -2,35 -3,52 0,5636 -4693,7578 -9673,7944 -191,15 -378,37 -571,37l-9781 0 0 4913c92,1770 1407,2713 3535,2713l14823 4c873,0 1587,714 1587,1587l0 1879c0,873 -714,1586 -1587,1586l-12074 0c-636,0 -1174,3 -1803,-46 -6650,-524 -8840,-3217 -9401,-6702 -59,-362 -132,-775 -132,-1138zm26519 -14925c0,-12 4,-38 12,-76 228,-3612 1743,-6599 7296,-7621 1680,-309 2702,-332 4318,-332l11539 0c873,0 1587,714 1587,1587l0 1879c0,872 -714,1586 -1587,1586l-11416 0c-2449,0 -6743,147 -6690,3612l0 13366c-53,3465 4241,3611 6690,3611l11416 0c873,0 1587,714 1587,1587l0 1879c0,873 -714,1587 -1587,1587l-11539 0c-1616,0 -2638,-23 -4318,-332 -5553,-1022 -7068,-4009 -7296,-7622 -8,-37 -12,-64 -12,-75l0 -14636zm-33645 3231c0,-1076 0,-2152 0,-3228 46,-2980 -3043,-2980 -5194,-2980l-1496 0 -11429 0 0 9188 11429 0 1496 0c2151,0 5240,0 5194,-2980zm27150 -904l0 -2465c0,-19 1,-37 1,-55 -66,-1955 -1600,-2681 -4034,-2817 -2043,-114 -4311,-67 -6372,-20 -2813,64 -4581,792 -4547,3033l-20 0 0 5074 7301 0c1356,0 2641,41 4066,-5 1820,-60 3518,-705 3605,-2745z"/>
   <path class="fil1" d="M1618 0l34865 0c890,0 1618,732 1618,1627l0 34846c0,895 -728,1628 -1618,1628l-34865 0c-890,0 -1618,-733 -1618,-1628l0 -34846c0,-895 728,-1627 1618,-1627z"/>
   <path class="fil2" d="M6448 3835l25205 0c873,0 1587,714 1587,1586l0 1879c0,873 -714,1587 -1587,1587l-10076 0 0 23792c0,873 -714,1587 -1587,1587l-1879 0c-873,0 -1587,-714 -1587,-1587l0 -23792 -10076 0c-873,0 -1587,-714 -1587,-1587l0 -1879c0,-872 714,-1586 1587,-1586z"/>
  </g>
 </g>
</svg>
