<?xml version="1.0" encoding="UTF-8"?>
<!DOCTYPE svg PUBLIC "-//W3C//DTD SVG 1.1//EN" "http://www.w3.org/Graphics/SVG/1.1/DTD/svg11.dtd">
<!-- Creator: CorelDRAW X8 -->
<svg xmlns="http://www.w3.org/2000/svg" xml:space="preserve" width="63.2778mm" height="22.8309mm" version="1.1" style="shape-rendering:geometricPrecision; text-rendering:geometricPrecision; image-rendering:optimizeQuality; fill-rule:evenodd; clip-rule:evenodd"
viewBox="0 0 3812291 1375491"
 xmlns:xlink="http://www.w3.org/1999/xlink">
 <defs>
  <style type="text/css">
   <![CDATA[
    .fil2 {fill:#FFED00}
    .fil1 {fill:#FFED00;fill-rule:nonzero}
    .fil0 {fill:#006842;fill-rule:nonzero}
   ]]>
  </style>
 </defs>
 <g id="Слой_x0020_1">
  <metadata id="CorelCorpID_0Corel-Layer"/>
  <polygon class="fil0" points="0,1375491 3812291,1375491 3812291,0 0,0 "/>
  <path class="fil1" d="M2335995 707769l41275 105733 15972 -127c-663,18285 -15020,34474 -38968,22262l-8760 19742c19261,10315 51746,18912 64434,-19863l41968 -128103 -30021 0 -26436 87617 -29449 -87261 -30015 0zm1023613 -222336l-26478 0 0 152274 28376 0 43739 -99642 0 99642 26448 0 0 -152274 -24701 0 -47221 105324 -163 0 0 -105324zm-84701 26696l32859 0 0 -26696 -90841 0 0 26696 31534 0 0 124777 26448 0 0 -124777zm-546192 -34443l-26479 0 0 154991 26479 0 0 -64495 47824 0 0 64495 26478 0 0 -154991 -26478 0 0 63831 -47824 0 0 -63831zm-139972 0l0 154991 80158 0 0 -22460 -53704 0 0 -45836 45258 0 416 -24605 -41408 0 0 -35395 46559 0 9013 -26695 -86292 0zm-111842 1741l-28654 0 0 153250 85780 1229 0 32895 24671 0 0 -59591 -12586 0 0 -128229 -26442 0 0 130380 -42769 0 0 -129934zm-142171 75754c0,-43305 12525,-56746 26882,-56746 14363,0 25123,13850 25123,57186 0,43233 -11200,56747 -25593,56747 -14332,0 -26412,-13851 -26412,-57187l0 0zm-29858 -409c0,72525 38618,81532 55445,81532 16833,0 55005,-9007 55005,-81532 0,-72598 -37769,-81484 -54565,-81484 -16827,0 -55885,8886 -55885,81484zm-81798 -77086l0 154991 26503 0 0 -128296 48366 0 6832 -26695 -81701 0zm-87424 26032l-17586 67658 34003 0 -15658 -58651 -759 -9007zm-14489 -26032l30677 0 44662 152424 -28744 0 -8634 -39353 -46811 0 -8483 39353 -27895 0 45228 -152424zm-104974 23689l13061 0c16441,0 24002,6458 23340,21598 -350,7724 -2657,24105 -19834,24105l-16567 0 0 -45703zm0 68097l24062 -410c33624,-6705 39131,-30147 40107,-42697 2150,-29105 -14767,-45420 -39318,-49535l-51330 506 0 154865 26479 0 0 -62729zm-137942 36503c10809,-21948 12935,-40166 12935,-79995l0 -26690 29130 0 0 106685 -42065 0zm-13290 -128289l0 46149c0,39443 -2555,60192 -14327,82140l-11387 0 0 59338 26852 0 0 -37004 68447 0 0 37004 24713 0 0 -59338 -12465 0 0 -128289 -81833 0zm1006822 0l-26479 0 0 154991 26479 0 0 -64495 47950 0 0 64495 26443 0 0 -154991 -26443 0 0 63831 -47950 0 0 -63831zm137206 84731c0,-43294 12465,-56735 26864,-56735 14387,0 25141,13851 25141,57181 0,43299 -11200,56746 -25556,56746 -14363,0 -26449,-13851 -26449,-57192zm-29858 -404c0,72556 38624,81538 55445,81538 16803,0 55042,-8982 55042,-81538 0,-72537 -37799,-81484 -54626,-81484 -16797,0 -55861,8947 -55861,81484zm134591 -885c0,72585 36914,81984 53741,81984 8820,0 25303,-386 37317,-13255l-11827 -21219c-4651,10116 -15242,10116 -22900,10116 -14363,0 -26442,-13881 -26442,-57126 0,-43360 12465,-56807 26858,-56807 7742,0 20394,2313 24888,12808l13375 -18755c-12363,-15905 -29503,-19230 -39119,-19230 -16827,0 -55891,8982 -55891,81484zm-614988 170890l0 45709 16604 0c17177,0 19430,-16321 19803,-24135 693,-15079 -6868,-21574 -23309,-21574l-13098 0zm0 68109l0 62687 -26503 0 0 -154859 51403 -415c24472,4042 41432,20375 39215,49504 -916,12526 -6386,35962 -40004,42631l-24111 452zm122723 -67374l789 8947 15664 58704 -34033 0 17580 -67651zm-14453 -26039l-45234 152365 27871 0 8543 -39221 46775 0 8670 39221 28720 0 -44698 -152365 -30647 0zm276479 30997l759 8893 15658 58740 -34033 0 17616 -67633zm-14484 -26057l-45233 152329 27931 0 8446 -39257 46872 0 8604 39257 28749 0 -44691 -152329 -30678 0zm-151129 -2909l0 88779c0,14429 -759,42354 -31943,43143l8471 25027c42040,-1115 48613,-46312 48613,-64181l0 -66079 28154 0 0 128235 26478 0 0 -154924 -79773 0z"/>
  <g id="_2208618219792">
   <path class="fil2" d="M381110 743887l483626 -483163 483132 483163 -482349 482396 -484409 -482396zm29581 -25l454027 -453592 453568 453592 -452827 452876 -454768 -452876z"/>
   <path class="fil1" d="M1443564 962179l6043 -16393 -94172 -34660 -6543 17490 51650 49757 -61585 -22749 -6037 16351 94190 34799 5664 -15279 -54403 -53204 0 -162 65193 24050zm-1095668 6007c-25087,10621 -35998,6705 -39474,-1651 -3518,-8284 1898,-17930 26979,-28653 25110,-10628 35648,-7435 39226,915 3507,8357 -1590,18791 -26731,29389zm7145 17429c42070,-17839 37805,-42456 33624,-52228 -4115,-9736 -18731,-29665 -60759,-11826 -42101,17773 -37992,41907 -33877,51655 4145,9772 18948,30268 61012,12399zm148159 -623308l19707 -18032 -45709 -49939 -13664 12459 11422 12429c17105,18731 23876,28129 28244,43083zm-59114 -56421l36275 -33022 54945 60060 5820 -5344 25424 27804 -11550 10628 -15869 -17309 -32045 29328 15845 17297 -12586 11453 -25400 -27768 5290 -4910c-3892,-15272 -10164,-26027 -26418,-45107l-19731 -23110zm127784 -96100l-14869 7621 44691 86798 14802 -7658 -18562 -36088 26852 -13790 18532 36058 14869 -7585 -44697 -86768 -14803 7621 18406 35678 -26816 13827 -18405 -35714zm-232355 471576l952 -8350c1103,-10380 -2343,-15538 -11676,-16200 -4807,-374 -14989,-127 -16164,10790l-1169 10435 28057 3325zm-41817 -4844l1928 -15212c6416,-20809 21219,-22514 28979,-22297 18092,699 26942,12525 27737,28376l-3825 32383 -95215 -11037 67 -573 -567 199 7146 -51915 13694 7121 -4434 30082 24490 2873zm19134 -148050l38974 3380 -7946 19929 -31028 -23309zm-23092 -512l78574 62150 6519 -16254 -20972 -14237 10597 -26508 25388 3331 6742 -16802 -99637 -9586 -7211 17906zm81797 -120928l4970 -6543c6260,-8157 12303,-9459 19575,-3380 3735,3067 11043,10375 4524,18942l-6296 8284 -22773 -17303zm33937 25786l8923 -12146c9332,-19261 -223,-30937 -6133,-36154 -13634,-12146 -28250,-9869 -39510,819l-19261 25750 77206 58734 10031 -13188 -31256 -23815zm-60825 337015l1717 17743 -69212 7121 50102 11386 289 12273 -43306 18851 68356 -4308 1163 16833 -96847 5127 -1644 -17116 52920 -23376 -56397 -12549 -512 -18857 93371 -13128zm383676 -598282l19171 34196 -20972 4555 1801 -38751zm-12591 -19297l-7182 99853 17146 -3789 -66 -25274 27870 -6133 11550 22833 17742 -3952 -48173 -87707 -18887 4169zm165962 -2404l-8224 0c-10308,0 -14953,4055 -14513,13574 222,4898 1704,15086 12465,14959l10434 0 -162 -28533zm223 42510l-15050 -186c-10158,15338 -4079,34858 -26418,44504l-9995 -16387c13796,-3573 12941,-23087 21797,-34064 -8320,-6259 -10212,-15092 -10628,-20622 -1488,-18219 9050,-28527 24388,-31094l32196 60 476 97016 -16574 24 -192 -39251zm346064 126145c-18689,19894 -30208,20683 -36817,14423 -6579,-6133 -5567,-17176 13128,-37076 18694,-19857 29605,-21219 36184,-15013 6645,6193 6169,17803 -12495,37666zm13513 12996c31304,-33245 17490,-53958 9706,-61260 -7718,-7247 -29129,-19586 -60410,13725 -31256,33244 -17778,53680 -10061,60976 7718,7181 29509,19899 60765,-13375l0 -66zm208093 344196l-35805 15917 -2627 -21225 38432 5308zm20406 -10652l-98787 -16513 2187 17429 25177 2278 3506 28346 -23791 9392 2217 17960 91858 -39691 -2367 -19201zm-95811 166505l-1681 16628 97142 9525 1675 -16574 -40426 -3922 3001 -30081 40365 3988 1675 -16544 -97172 -9645 -1639 16568 40040 3988 -2964 30045 -40016 -3976zm-69459 -357011l-10603 -14303 55608 -41908 -48836 16134 -6609 -10314 27358 -38528 -56301 38968 -9682 -13791 80249 -54366 10308 13700 -33274 47408 54758 -18405 10212 15869 -73188 59536zm-250073 -207876l41752 -86756 15881 7935 -16454 34533 10851 6362c12724,1934 16929,-38142 47010,-24038l-3295 10844c-27575,-3127 -15176,25280 -36660,23099 11103,12429 -4555,32798 6579,48577l-11261 10790c-21032,-18224 1242,-43558 -10844,-57475l-8676 -4965 -19032 39697 -15851 -8603zm279799 267213l88057 -36504 23599 56813 -90208 36811 -6392 -15152 78068 -32768 -10784 -25840 -75918 31852 -6422 -15212zm2784 576490l4837 -6711c6109,-8218 5609,-14417 -2241,-19635 -4115,-2753 -13158,-7657 -19514,1043l-6133 8344 23051 16959zm-34377 -25243l9109 -11959c-6266,-17231 -25527,-23912 -20020,-47661l19068 1711c-5314,13188 10875,24165 14453,37853 9935,-3067 18195,735 22876,3675 15490,9585 17520,24255 10525,38118l-19225 25774 -78254 -57379 9772 -13315 31696 23183zm-925248 36214l46245 -31057c7561,-5031 22298,-14429 33564,1548l10146 -13248c-15303,-21424 -41179,-9085 -50451,-2813l-34413 23122 -9833 -14616 66766 -44859 -9260 -13725 -80658 54120 27894 41528z"/>
   <g>
    <polygon class="fil0" points="1324847,743862 864724,283709 404570,743862 864724,1204046 "/>
    <polygon class="fil1" points="858711,743862 630689,516316 404130,743862 632116,972355 743519,859085 520648,859085 576545,690695 631641,516569 744055,858560 "/>
    <polygon class="fil1" points="1095469,514478 982290,856530 1211896,856880 "/>
    <polygon class="fil1" points="864633,283299 630689,516756 864633,516003 "/>
    <polygon class="fil1" points="859440,744055 1095620,514737 863242,515081 "/>
    <polygon class="fil1" points="1094421,975168 861404,742151 862127,975168 "/>
    <polygon class="fil1" points="632490,973150 865483,1206107 864754,973150 "/>
   </g>
  </g>
 </g>
</svg>
