<?xml version="1.0" encoding="UTF-8"?>
<!DOCTYPE svg PUBLIC "-//W3C//DTD SVG 1.1//EN" "http://www.w3.org/Graphics/SVG/1.1/DTD/svg11.dtd">
<!-- Creator: CorelDRAW X8 -->
<svg xmlns="http://www.w3.org/2000/svg" xml:space="preserve" width="4998px" height="6467px" version="1.1" style="shape-rendering:geometricPrecision; text-rendering:geometricPrecision; image-rendering:optimizeQuality; fill-rule:evenodd; clip-rule:evenodd"
viewBox="0 0 38423652 49712646"
 xmlns:xlink="http://www.w3.org/1999/xlink">
 <defs>
  <style type="text/css">
   <![CDATA[
    .fil3 {fill:#FEFEFE}
    .fil1 {fill:#FFE188}
    .fil9 {fill:#FCC10C}
    .fil10 {fill:#DC4390}
    .fil2 {fill:#84CAE8}
    .fil8 {fill:#0592D0}
    .fil7 {fill:#008DD2}
    .fil12 {fill:#CCCCCC}
    .fil0 {fill:#E44097}
    .fil4 {fill:#1F1B20;fill-rule:nonzero}
    .fil11 {fill:url(#id2)}
    .fil5 {fill:url(#id3);fill-rule:nonzero}
    .fil6 {fill:url(#id4);fill-rule:nonzero}
   ]]>
  </style>
    <mask id="id0">
  <linearGradient id="id1" gradientUnits="userSpaceOnUse" x1="1.72273e+07" y1="4.72987e+07" x2="4.00061e+07" y2="4.84658e+07">
   <stop offset="0" style="stop-opacity:1; stop-color:white"/>
   <stop offset="0.0509804" style="stop-opacity:-127.502; stop-color:white"/>
   <stop offset="1" style="stop-opacity:0; stop-color:white"/>
  </linearGradient>
     <rect style="fill:url(#id1)" x="17118534" y="44228487" width="21314199" height="5493248"/>
    </mask>
  <linearGradient id="id2" gradientUnits="userSpaceOnUse" x1="1.34634e+07" y1="4.70571e+07" x2="1.34649e+07" y2="3.25312e+07">
   <stop offset="0" style="stop-opacity:1; stop-color:#008DD2"/>
   <stop offset="1" style="stop-opacity:1; stop-color:#84CAE8"/>
  </linearGradient>
  <linearGradient id="id3" gradientUnits="objectBoundingBox" xlink:href="#id2" x1="32.8929%" y1="88.246%" x2="32.8933%" y2="10.1539%">
  </linearGradient>
  <linearGradient id="id4" gradientUnits="objectBoundingBox" xlink:href="#id2" x1="32.8924%" y1="88.246%" x2="32.8937%" y2="10.1539%">
  </linearGradient>
 </defs>
 <g id="Слой_x0020_1">
  <metadata id="CorelCorpID_0Corel-Layer"/>
  <g id="_848181865376">
   <g>
    <path class="fil0" d="M17127614 0c9459327,0 17127613,7668287 17127613,17127614 0,9459327 -7668286,17127613 -17127613,17127613 -9459327,0 -17127614,-7668286 -17127614,-17127613 0,-9459327 7668287,-17127614 17127614,-17127614z"/>
   </g>
   <circle class="fil1" cx="17127614" cy="17127608" r="16934010"/>
   <circle class="fil2" cx="17127614" cy="17127608" r="15930762"/>
   <circle class="fil3" cx="17127614" cy="17127608" r="15210785"/>
   <path class="fil4" d="M5992607 21444913l133411 0c76417,0 128136,3260 154849,9933 38208,9480 69425,28738 93650,58094 24380,29192 36501,66002 36501,110266 0,44573 -11804,81229 -35566,110276 -23607,28883 -56222,48296 -97690,58393 -30445,7300 -87131,10877 -170222,10877l-47842 0 0 311242 -67091 0 0 -669081zm67091 65230l0 227370 113381 1398c45817,0 79359,-4185 100642,-12575 21274,-8390 38054,-21747 50166,-40379 12113,-18641 18169,-39606 18169,-62597 0,-22363 -6056,-43020 -18169,-61652 -12112,-18641 -28265,-31843 -48150,-39761 -19876,-7927 -52337,-11804 -97691,-11804l-118348 0z"/>
   <polygon id="1" class="fil4" points="6843486,21444913 7226485,21444913 7226485,21510143 6910586,21510143 6910586,21719816 7223689,21719816 7223689,21785047 6910586,21785047 6910586,22048764 7223689,22048764 7223689,22113994 6843486,22113994 "/>
   <polygon id="2" class="fil4" points="7640638,21444913 7708665,21444913 7708665,21695891 7976886,21444913 8066968,21444913 7744540,21744977 8092128,22113994 8002827,22113994 7708665,21801508 7708665,22113994 7640638,22113994 "/>
   <polygon id="3" class="fil4" points="9031999,22113994 8959160,22113994 8737065,21596030 8511239,22113994 8438400,22113994 8730074,21444913 8744983,21444913 "/>
   <path id="4" class="fil4" d="M9716388 21444913l312177 669081 -71913 0 -104519 -219925 -289967 0 -103901 219925 -74556 0 315909 -669081 16770 0zm-8389 140403l-115079 243523 229703 0 -114624 -243523z"/>
   <polygon id="5" class="fil4" points="10401241,22113994 10493965,21444913 10507785,21444913 10780046,21993785 11050600,21444913 11060697,21444913 11156989,22113994 11092222,22113994 11025131,21635010 10788127,22113994 10770575,22113994 10531238,21631287 10467098,22113994 "/>
   <polygon id="6" class="fil4" points="13902056,21444913 14377308,21444913 14377308,22113994 14310216,22113994 14310216,21508273 13969157,21508273 13969157,22113994 13902056,22113994 "/>
   <path id="7" class="fil4" d="M14838050 21444913l133411 0c76417,0 128136,3260 154849,9933 38208,9480 69425,28738 93650,58094 24380,29192 36501,66002 36501,110266 0,44573 -11803,81229 -35566,110276 -23607,28883 -56222,48296 -97690,58393 -30445,7300 -87131,10877 -170222,10877l-47842 0 0 311242 -67091 0 0 -669081zm67091 65230l0 227370 113381 1398c45818,0 79359,-4185 100642,-12575 21274,-8390 38054,-21747 50167,-40379 12112,-18641 18168,-39606 18168,-62597 0,-22363 -6056,-43020 -18168,-61652 -12113,-18641 -28266,-31843 -48151,-39761 -19876,-7927 -52337,-11804 -97691,-11804l-118348 0z"/>
   <path id="8" class="fil4" d="M16007007 21428133c101268,0 186066,33859 254247,101423 68181,67564 102358,150808 102358,249589 0,97999 -34014,181089 -102040,249270 -68191,68182 -151127,102349 -249126,102349 -99089,0 -182797,-34013 -250987,-101885 -68181,-67864 -102349,-150028 -102349,-246475 0,-64304 15536,-123786 46598,-178765 31063,-54825 73457,-97845 127201,-128908 53580,-31062 111665,-46598 174098,-46598zm2951 65230c-49386,0 -96292,12894 -140711,38681 -44265,25778 -78896,60408 -103902,104056 -24852,43801 -37273,92406 -37273,146150 0,79358 27485,146459 82627,201129 55134,54825 121608,82155 199259,82155 52037,0 100024,-12576 144135,-37736 44264,-25160 78741,-59646 103438,-103284 24697,-43647 37119,-92098 37119,-145524 0,-53117 -12422,-101114 -37119,-143980 -24697,-42866 -59637,-77188 -104528,-102966 -44882,-25787 -92561,-38681 -143045,-38681z"/>
   <path id="9" class="fil4" d="M17087135 21444913l67101 0 0 85732 51401 0c100651,0 170539,19568 209519,58856 39144,39298 58711,86514 58711,141338 0,50167 -17243,94586 -51565,133566 -34476,38989 -99706,58556 -195844,58556l-72222 0 0 191033 -67101 0 0 -191033 -71903 0c-50793,0 -93033,-4975 -126275,-14755 -33387,-9942 -61970,-31062 -85732,-63368 -23762,-32307 -35721,-70197 -35721,-113999 0,-54515 19413,-101577 58248,-141020 38826,-39452 108868,-59174 210445,-59174l50938 0 0 -85732zm67101 150963l0 261855 70506 0 35883 463c46744,0 82464,-12112 107162,-36501 24697,-24225 37118,-54824 37118,-91789 0,-40687 -14600,-73302 -43638,-97536 -29201,-24380 -73157,-36492 -132022,-36492l-75009 0zm-67101 0l-75009 0c-54988,0 -98008,11486 -129071,34630 -31062,23145 -46589,56069 -46589,99089 0,36810 12267,67410 36810,91944 24534,24388 61344,36655 110112,36655l33705 -463 70042 0 0 -261855z"/>
   <polygon id="10" class="fil4" points="17907578,21444913 18290578,21444913 18290578,21510143 17974679,21510143 17974679,21719816 18287782,21719816 18287782,21785047 17974679,21785047 17974679,22048764 18287782,22048764 18287782,22113994 17907578,22113994 "/>
   <path id="11" class="fil4" d="M19328149 21568382l-52800 40541c-29046,-37899 -63995,-66637 -104836,-86204 -40697,-19567 -85424,-29356 -134347,-29356 -53272,0 -102666,12894 -148166,38517 -45508,25633 -80611,60109 -105617,103284 -25006,43175 -37582,91944 -37582,145842 0,81692 27957,149873 83871,204389 55905,54670 126420,82001 211689,82001 93650,0 171928,-36647 234988,-109958l52800 40069c-33387,42404 -75009,75327 -124867,98472 -49858,23136 -105618,34785 -167116,34785 -117103,0 -209519,-38980 -277073,-116949 -56695,-65693 -85115,-145215 -85115,-238248 0,-97845 34322,-180318 102975,-247101 68798,-66937 154840,-100333 258278,-100333 62433,0 118820,12276 169141,36810 50320,24698 91634,59174 123777,103439z"/>
   <path id="12" class="fil4" d="M20384197 21568382l-52799 40541c-29047,-37899 -63996,-66637 -104837,-86204 -40696,-19567 -85424,-29356 -134346,-29356 -53272,0 -102667,12894 -148166,38517 -45509,25633 -80612,60109 -105618,103284 -25006,43175 -37582,91944 -37582,145842 0,81692 27957,149873 83871,204389 55905,54670 126420,82001 211690,82001 93650,0 171928,-36647 234988,-109958l52799 40069c-33386,42404 -75009,75327 -124867,98472 -49857,23136 -105617,34785 -167115,34785 -117104,0 -209519,-38980 -277074,-116949 -56695,-65693 -85115,-145215 -85115,-238248 0,-97845 34322,-180318 102975,-247101 68799,-66937 154840,-100333 258278,-100333 62434,0 118820,12276 169141,36810 50321,24698 91635,59174 123777,103439z"/>
   <polygon id="13" class="fil4" points="21344262,22113994 21274374,22113994 21274374,21599907 20832827,22113994 20817754,22113994 20817754,21444913 20884855,21444913 20884855,21966599 21329199,21444913 21344262,21444913 "/>
   <path id="14" class="fil4" d="M22123546 21428133c101268,0 186065,33859 254246,101423 68181,67564 102358,150808 102358,249589 0,97999 -34013,181089 -102040,249270 -68190,68182 -151126,102349 -249125,102349 -99090,0 -182797,-34013 -250987,-101885 -68181,-67864 -102349,-150028 -102349,-246475 0,-64304 15536,-123786 46598,-178765 31062,-54825 73456,-97845 127200,-128908 53581,-31062 111665,-46598 174099,-46598zm2951 65230c-49386,0 -96293,12894 -140712,38681 -44264,25778 -78895,60408 -103901,104056 -24852,43801 -37273,92406 -37273,146150 0,79358 27485,146459 82627,201129 55133,54825 121607,82155 199259,82155 52037,0 100024,-12576 144134,-37736 44265,-25160 78741,-59646 103439,-103284 24697,-43647 37118,-92098 37118,-145524 0,-53117 -12421,-101114 -37118,-143980 -24698,-42866 -59637,-77188 -104528,-102966 -44882,-25787 -92561,-38681 -143045,-38681z"/>
   <polygon id="15" class="fil4" points="22912000,21444913 22979101,21444913 22979101,21725401 23320160,21725401 23320160,21444913 23387252,21444913 23387252,22113994 23320160,22113994 23320160,21790631 22979101,21790631 22979101,22113994 22912000,22113994 "/>
   <path id="16" class="fil4" d="M24121962 21444913l312177 669081 -71913 0 -104519 -219925 -289967 0 -103902 219925 -74555 0 315908 -669081 16771 0zm-8390 140403l-115079 243523 229704 0 -114625 -243523z"/>
   <polygon id="17" class="fil4" points="25378050,22113994 25305211,22113994 25083116,21596030 24857290,22113994 24784451,22113994 25076125,21444913 25091034,21444913 "/>
   <path id="18" class="fil4" d="M25788471 21444913l67092 0 0 287016 48305 0c87594,0 150499,4195 188699,12730 38208,8544 68962,27957 92261,58402 23453,30590 35103,69888 35103,118039 0,47370 -11341,86504 -34177,117567 -22673,31062 -51719,51410 -86813,61035 -35258,9479 -94277,14292 -177059,14292l-133411 0 0 -669081zm67092 603851l71441 0c75326,0 124412,-3578 147239,-10715 22827,-7146 41160,-20348 54671,-39761 13510,-19258 20193,-44110 20193,-74401 0,-33386 -8544,-60408 -25478,-81383 -17079,-20811 -38671,-33541 -64912,-38353 -26250,-4667 -75173,-6992 -146777,-6992l-56377 0 0 251605z"/>
   <polygon id="19" class="fil4" points="26650691,21444913 26717791,21444913 26717791,21725401 27058851,21725401 27058851,21444913 27125943,21444913 27125943,22113994 27058851,22113994 27058851,21790631 26717791,21790631 26717791,22113994 26650691,22113994 "/>
   <path id="20" class="fil4" d="M27905689 21428133c101269,0 186066,33859 254247,101423 68181,67564 102358,150808 102358,249589 0,97999 -34014,181089 -102040,249270 -68190,68182 -151126,102349 -249126,102349 -99089,0 -182797,-34013 -250987,-101885 -68181,-67864 -102349,-150028 -102349,-246475 0,-64304 15536,-123786 46598,-178765 31063,-54825 73457,-97845 127201,-128908 53581,-31062 111665,-46598 174098,-46598zm2951 65230c-49385,0 -96292,12894 -140711,38681 -44265,25778 -78896,60408 -103902,104056 -24851,43801 -37273,92406 -37273,146150 0,79358 27485,146459 82627,201129 55134,54825 121608,82155 199259,82155 52037,0 100025,-12576 144135,-37736 44264,-25160 78741,-59646 103438,-103284 24697,-43647 37119,-92098 37119,-145524 0,-53117 -12422,-101114 -37119,-143980 -24697,-42866 -59637,-77188 -104528,-102966 -44882,-25787 -92560,-38681 -143045,-38681z"/>
   <path id="21" class="fil4" d="M11858930 21444913l312177 669081 -71913 0 -104519 -219925 -289967 0 -103902 219925 -74555 0 315909 -669081 16770 0zm-8390 140403l-115078 243523 229703 0 -114625 -243523z"/>
   <path id="22" class="fil4" d="M12632312 22013352c15536,0 28574,5439 39606,16307 10869,11023 16308,24226 16308,40070 0,15536 -5439,28729 -16308,39761 -11032,11023 -24070,16616 -39606,16616 -15372,0 -28575,-5593 -39607,-16616 -10868,-11032 -16307,-24225 -16307,-39761 0,-15844 5439,-29047 16307,-40070 11032,-10868 24235,-16307 39607,-16307z"/>
   <polygon class="fil5" points="5985633,25720590 5985633,23027869 6493400,23027869 6493400,24167788 7515354,23027869 8146217,23027869 8146217,23044540 6949884,24333197 8247522,25690454 8247522,25720590 7620499,25720590 6493400,24528098 6493400,25720590 "/>
   <path id="1" class="fil5" d="M7948239 24811473c-33977,-133348 -51284,-272470 -51284,-416723 0,-144253 17951,-284020 53209,-420582 35902,-135917 91044,-264779 166053,-385315 75009,-121171 166054,-227597 273115,-318641 106435,-90391 236577,-162839 389810,-216057 153223,-53208 319921,-80139 500711,-80139 180800,0 347489,26931 499441,80139 152588,53218 282730,125021 390445,216057 107062,91044 198742,196825 273760,317361 75009,120527 129507,248753 164764,384035 33986,131422 50648,266704 50648,404546 0,5130 0,10261 0,15391 -1281,142327 -19232,279525 -54489,412237 -34622,132076 -89119,258378 -162848,377624 -73729,119247 -163484,223112 -267994,312222 -105145,88475 -234007,158999 -387240,210936 -153223,51928 -321837,77569 -506487,77569 -184640,0 -353254,-25641 -506486,-76934 -153224,-51283 -282731,-120526 -389801,-207721 -107070,-87194 -197470,-190415 -271834,-308381 -74374,-117966 -128872,-243623 -163493,-377624zm444943 -407107c2569,92960 14110,181434 34621,266059 21157,84634 53853,167334 100016,247482 45517,80140 101295,150019 167333,209002 66039,58983 149383,105790 249398,141047 100651,35267 212207,52573 335303,52573 123097,0 234653,-17951 335313,-53853 100015,-35267 183359,-83345 249398,-142972 65393,-59628 121171,-129507 166053,-209647 45518,-80139 78214,-162848 99371,-248117 20511,-85270 31416,-174380 32696,-267349 0,-6411 0,-11541 0,-16671 -1280,-87830 -10896,-174380 -28211,-259649 -19876,-90400 -52573,-176950 -98090,-259659 -44882,-82699 -101296,-155793 -168614,-219261 -66674,-63469 -150663,-113481 -251959,-151308 -100660,-37827 -212860,-56413 -335957,-56413 -123096,0 -235287,19231 -337228,57058 -101295,38462 -185929,89110 -253883,152588 -67963,63468 -125021,137197 -171184,221186 -46798,83990 -80139,171175 -100015,261575 -17306,80139 -25642,161568 -24361,244267 0,10261 0,20521 0,32062z"/>
   <path id="2" class="fil5" d="M10546202 25720590l0 -2692721c139767,0 351338,-636 634068,-1925 282740,-1280 493666,-1916 634078,-1916 158354,0 301326,26922 429552,81420 127582,54497 230803,126301 309662,215421 78214,89754 139122,191050 181435,304531 43601,115396 65393,233363 65393,354543 -1280,117322 -23081,231438 -65393,342994 -42957,113481 -103221,214776 -182080,304540 -78859,89110 -182079,160923 -309661,215412 -128227,54498 -271835,81429 -430197,81429l-759090 0 0 796272 -507767 0zm507767 -1257886l760379 0c78859,0 149383,-14101 212851,-41668 63469,-27575 114117,-63477 153224,-108350 38471,-44238 67963,-95530 89119,-152588 20521,-57068 30772,-116051 30772,-176314 0,-60263 -10896,-119247 -32052,-176305 -21156,-57058 -51293,-108350 -89755,-152588 -39116,-44882 -89764,-80784 -153233,-108350 -62833,-27567 -133356,-41677 -210926,-41677l-760379 0 0 957840z"/>
   <path id="3" class="fil5" d="M12589582 24811473c-33977,-133348 -51284,-272470 -51284,-416723 0,-144253 17951,-284020 53209,-420582 35902,-135917 91044,-264779 166053,-385315 75009,-121171 166054,-227597 273115,-318641 106435,-90391 236577,-162839 389810,-216057 153223,-53208 319921,-80139 500712,-80139 180799,0 347488,26931 499440,80139 152588,53218 282731,125021 390446,216057 107061,91044 198741,196825 273759,317361 75009,120527 129507,248753 164764,384035 33986,131422 50648,266704 50648,404546 0,5130 0,10261 0,15391 -1280,142327 -19231,279525 -54489,412237 -34621,132076 -89119,258378 -162848,377624 -73729,119247 -163484,223112 -267994,312222 -105145,88475 -234007,158999 -387240,210936 -153223,51928 -321837,77569 -506486,77569 -184640,0 -353254,-25641 -506487,-76934 -153224,-51283 -282730,-120526 -389801,-207721 -107070,-87194 -197470,-190415 -271834,-308381 -74374,-117966 -128871,-243623 -163493,-377624zm444943 -407107c2569,92960 14110,181434 34622,266059 21156,84634 53853,167334 100015,247482 45517,80140 101295,150019 167334,209002 66038,58983 149382,105790 249398,141047 100650,35267 212206,52573 335303,52573 123096,0 234652,-17951 335312,-53853 100015,-35267 183359,-83345 249398,-142972 65393,-59628 121171,-129507 166053,-209647 45518,-80139 78215,-162848 99371,-248117 20511,-85270 31416,-174380 32697,-267349 0,-6411 0,-11541 0,-16671 -1281,-87830 -10896,-174380 -28212,-259649 -19876,-90400 -52572,-176950 -98090,-259659 -44882,-82699 -101296,-155793 -168614,-219261 -66674,-63469 -150663,-113481 -251959,-151308 -100660,-37827 -212860,-56413 -335956,-56413 -123097,0 -235288,19231 -337228,57058 -101296,38462 -185930,89110 -253884,152588 -67963,63468 -125021,137197 -171184,221186 -46797,83990 -80139,171175 -100015,261575 -17306,80139 -25641,161568 -24361,244267 0,10261 0,20521 0,32062z"/>
   <polygon id="4" class="fil5" points="15191395,25724440 15191395,23031719 15699162,23031719 15699162,24166508 17022441,24166508 17022441,23031719 17530208,23031719 17530208,25724440 17022441,25724440 17022441,24639653 15699162,24639653 15699162,25724440 "/>
   <path id="5" class="fil5" d="M17237989 25720590l1207874 -2692721 553929 0 1207883 2692721 -553929 0 -227607 -507767 -1406623 0 -230803 507767 -550724 0zm984127 -980921l1001432 0 -501356 -1146966 -500076 1146966z"/>
   <path class="fil6" d="M20672585 24216511l473154 0c252603,0 431477,-40387 535978,-120527 104501,-80139 156438,-214140 156438,-402630 0,-177585 -54498,-305176 -164129,-381466 -109630,-76289 -292999,-114761 -550724,-114761l-450717 0 0 1019384zm-300046 1504079l0 -2781196 808457 0c332107,0 577011,61553 735373,185285 158354,123096 237213,314156 237213,573805 0,248118 -77570,439813 -232083,575730 -154512,135917 -371849,203880 -652028,203880l-596886 0 0 1242496 -300046 0z"/>
   <path id="1" class="fil6" d="M22861452 23197127l-476995 0 0 1004003 465455 0c287224,0 493665,-39752 621247,-118611 126947,-78859 190415,-205796 190415,-381465 0,-186574 -56413,-317362 -169894,-392371 -113481,-74373 -323127,-111556 -630228,-111556zm-780891 2523463l0 -2781196 780891 0c389165,0 671896,58348 847565,175669 176313,116686 264143,303251 264143,558415 0,182079 -48078,332107 -143607,450718 -95530,119246 -239783,206441 -432758,261574l653300 1334820 -337873 0 -612268 -1261736 -715497 0 0 1261736 -303896 0z"/>
   <polygon id="2" class="fil6" points="24007210,25720590 24007210,22939394 24318796,22939394 24318796,25720590 "/>
   <polygon id="3" class="fil6" points="24477214,25720590 24477214,22939394 24915102,22939394 26192863,25108313 26192863,22939394 26481369,22939394 26481369,25720590 26242876,25720590 24765719,23258671 24765719,25720590 "/>
   <polygon id="4" class="fil6" points="27142432,25720590 27142432,23204818 26330769,23204818 26330769,22939394 28269530,22939394 28269530,23204818 27457868,23204818 27457868,25720590 "/>
   <circle class="fil7" cx="24146764" cy="22526589" r="229573"/>
   <polygon class="fil8" points="12269923,11656584 11536911,13348109 14007038,19654318 13668003,19654318 11196206,13343832 12107475,11240942 13915376,12281010 13729138,12496131 "/>
   <polygon class="fil9" points="12330332,11890565 11928564,12808626 13231114,12352923 "/>
   <polygon class="fil2" points="9823304,15024715 9850853,16346496 13277249,19654318 12951262,19654318 9627405,16445531 9593247,14802212 11082770,14940181 11025621,15136134 "/>
   <path class="fil2" d="M17127614 19654309l2393992 0 0 -10547600 -2393992 -2574419 -2393992 2574419 0 10547600 2393992 0zm2134669 -10476550l0 10265260 -2134669 0 -2134661 0 0 -10265260 2134661 -2294839 2134669 2294839z"/>
   <polygon class="fil8" points="21985313,11656584 22718316,13348109 20248189,19654318 20587224,19654318 23059022,13343832 22147753,11240942 20339860,12281010 20526089,12496131 "/>
   <polygon class="fil8" points="18034960,8283869 17127614,8283869 16220267,8283869 17127614,7330877 "/>
   <polygon class="fil10" points="21924904,11890565 22326663,12808626 21024113,12352923 "/>
   <polygon class="fil2" points="24431923,15024715 24404375,16346496 20977978,19654318 21303975,19654318 24627822,16445531 24661981,14802212 23172457,14940181 23229606,15136134 "/>
   <polygon class="fil8" points="13832885,20127817 17127614,20127817 20422342,20127817 20422342,20452442 17127614,20452442 13832885,20452442 "/>
   <polygon class="fil8" points="17354149,18892567 17127614,18892567 16901079,18892567 17126070,9168298 17127614,9234672 17129157,9168298 "/>
   <path class="fil11" d="M28809704 30642502l-11682090 18600994 -11185210 -18104114c2994029,2589664 6893970,4155986 11159078,4155986 4531158,0 8649762,-1768232 11708222,-4652866z"/>
   <path class="fil12" style="mask:url(#id0)" d="M37604163 45765362c1938217,1355885 320802,2996671 -3612598,3664798 -3933401,668128 -8693273,110585 -10631489,-1245310 -1938217,-1355885 -320812,-2996671 3612598,-3664798 3933400,-668118 8693272,-110585 10631489,1245310zm-10348178 3838815l-10128371 -360681 5236250 -2881992c-463366,612068 -315582,1281711 558342,1893071 928430,649486 2507609,1114950 4333779,1349602z"/>
  </g>
 </g>
</svg>
