<?xml version="1.0" encoding="UTF-8"?>
<!DOCTYPE svg PUBLIC "-//W3C//DTD SVG 1.1//EN" "http://www.w3.org/Graphics/SVG/1.1/DTD/svg11.dtd">
<!-- Creator: CorelDRAW X8 -->
<svg xmlns="http://www.w3.org/2000/svg" xml:space="preserve" width="50.7272mm" height="37.9935mm" version="1.1" style="shape-rendering:geometricPrecision; text-rendering:geometricPrecision; image-rendering:optimizeQuality; fill-rule:evenodd; clip-rule:evenodd"
viewBox="0 0 407500 305208"
 xmlns:xlink="http://www.w3.org/1999/xlink">
 <defs>
  <style type="text/css">
   <![CDATA[
    .fil18 {fill:#0091CE}
    .fil17 {fill:#5EBCDB}
    .fil1 {fill:#FCEFF9}
    .fil11 {fill:#F7F2E4;fill-rule:nonzero}
    .fil13 {fill:#F5E8DB;fill-rule:nonzero}
    .fil15 {fill:#F1DDDA;fill-rule:nonzero}
    .fil7 {fill:#E4EBF5;fill-rule:nonzero}
    .fil3 {fill:#E2E1EB;fill-rule:nonzero}
    .fil9 {fill:#DCE8DB;fill-rule:nonzero}
    .fil5 {fill:#D3DEED;fill-rule:nonzero}
    .fil2 {fill:#0091CE;fill-rule:nonzero}
    .fil6 {fill:url(#id0)}
    .fil10 {fill:url(#id1)}
    .fil8 {fill:url(#id2)}
    .fil0 {fill:url(#id3)}
    .fil16 {fill:url(#id4)}
    .fil14 {fill:url(#id5)}
    .fil4 {fill:url(#id6)}
    .fil12 {fill:url(#id7)}
   ]]>
  </style>
  <linearGradient id="id0" gradientUnits="userSpaceOnUse" x1="15827.8" y1="175657" x2="401482" y2="175657">
   <stop offset="0" style="stop-opacity:1; stop-color:#CDCACD"/>
   <stop offset="0.988235" style="stop-opacity:1; stop-color:#8B8F94"/>
   <stop offset="1" style="stop-opacity:1; stop-color:#A5A5A7"/>
  </linearGradient>
  <linearGradient id="id1" gradientUnits="userSpaceOnUse" xlink:href="#id0" x1="3504.87" y1="200146" x2="396109" y2="200146">
  </linearGradient>
  <linearGradient id="id2" gradientUnits="userSpaceOnUse" xlink:href="#id0" x1="8529.62" y1="187714" x2="398623" y2="187714">
  </linearGradient>
  <linearGradient id="id3" gradientUnits="userSpaceOnUse" xlink:href="#id0" x1="37257.9" y1="153079" x2="405758" y2="153079">
  </linearGradient>
  <linearGradient id="id4" gradientUnits="userSpaceOnUse" x1="194445" y1="297010" x2="194445" y2="182010">
   <stop offset="0" style="stop-opacity:1; stop-color:#CDCACD"/>
   <stop offset="0.839216" style="stop-opacity:1; stop-color:#8B8F94"/>
   <stop offset="1" style="stop-opacity:1; stop-color:#CDCACD"/>
  </linearGradient>
  <linearGradient id="id5" gradientUnits="userSpaceOnUse" x1="79903.6" y1="340631" x2="309391" y2="112165">
   <stop offset="0" style="stop-opacity:1; stop-color:#CDCACD"/>
   <stop offset="0.901961" style="stop-opacity:1; stop-color:#8B8F94"/>
   <stop offset="1" style="stop-opacity:1; stop-color:#A5A5A7"/>
  </linearGradient>
  <linearGradient id="id6" gradientUnits="userSpaceOnUse" xlink:href="#id0" x1="25084.4" y1="163940" x2="403276" y2="163940">
  </linearGradient>
  <linearGradient id="id7" gradientUnits="userSpaceOnUse" xlink:href="#id0" x1="72859.3" y1="316093" x2="321003" y2="109097">
  </linearGradient>
 </defs>
 <g id="Слой_x0020_1">
  <metadata id="CorelCorpID_0Corel-Layer"/>
  <g id="_2501655901456">
   <path class="fil0" d="M41460 96454c-5136,-3595 -6707,-10254 -3498,-14839l54322 -77574c3210,-4587 10001,-5387 15140,-1792l294910 206503c5140,3595 6709,10254 3500,14835l-54322 77581c-3211,4584 -10001,5386 -15137,1789l-294915 -206503z"/>
   <path class="fil1" d="M349943 301445c-2858,4082 -8934,4758 -13568,1512l-294915 -206503c-4637,-3246 -6075,-9185 -3218,-13266l54318 -77578c2857,-4081 8936,-4757 13572,-1512l294907 206501c4639,3246 6081,9185 3226,13269l-54322 77577z"/>
   <polygon class="fil2" points="280277,130168 223016,90070 162228,176886 219489,216983 "/>
   <polygon class="fil2" points="99888,133235 157148,173330 217938,86518 160675,46420 "/>
   <path class="fil2" d="M155595 42863l-51403 -35993c-2896,-2028 -6700,-1603 -8483,941l-54322 77580c-1782,2545 -881,6268 2015,8291l51405 35995 60788 -86814z"/>
   <path class="fil3" d="M399100 213367l-51403 -35993 -60791 86817 51407 35995c2893,2023 6699,1601 8480,-946l54323 -77577c1783,-2548 879,-6267 -2016,-8296z"/>
   <polygon class="fil2" points="342619,173816 285354,133726 224567,220540 281829,260634 "/>
   <path class="fil2" d="M356742 247023c-4049,5780 -12017,7184 -17797,3136 -5781,-4047 -7182,-12015 -3137,-17796 4048,-5780 12015,-7184 17796,-3136 5780,4047 7186,12015 3138,17796z"/>
   <path class="fil4" d="M29996 123485c-5431,-3135 -7577,-9630 -4779,-14476l47357 -82022c2796,-4842 9494,-6230 14925,-3097l311786 180011c5430,3139 7577,9632 4778,14477l-47352 82017c-2801,4847 -9496,6238 -14927,3099l-311788 -180009z"/>
   <path class="fil1" d="M355171 300807c-2491,4317 -8482,5520 -13387,2687l-311788 -180009c-4900,-2832 -6856,-8620 -4364,-12932l47353 -82022c2490,-4313 8483,-5516 13387,-2687l311789 180010c4899,2831 6851,8624 4360,12938l-47350 82015z"/>
   <polygon class="fil2" points="270840,136256 210304,101302 157314,193085 217848,228039 "/>
   <polygon class="fil2" points="91407,155034 151940,189985 204935,98205 144396,63251 "/>
   <path class="fil2" d="M139027 60151l-54345 -31380c-3060,-1763 -6814,-1013 -8368,1684l-47354 82017c-1554,2692 -330,6315 2727,8084l54348 31378 52992 -91783z"/>
   <path class="fil5" d="M396468 208788l-54349 -31381 -52990 91783 54346 31378c3062,1764 6814,1010 8365,-1679l47355 -82022c1553,-2691 332,-6318 -2727,-8079z"/>
   <polygon class="fil2" points="336750,174307 276211,139355 223222,231139 283758,266088 "/>
   <path class="fil2" d="M357200 246001c-3527,6114 -11344,8206 -17452,4677 -6112,-3527 -8209,-11341 -4680,-17454 3529,-6112 11343,-8206 17455,-4675 6114,3526 8205,11341 4677,17452z"/>
   <path class="fil6" d="M21243 151596c-5684,-2647 -8388,-8932 -6022,-14002l40025 -85838c2362,-5068 8912,-7036 14599,-4385l326288 152151c5684,2649 8385,8933 6021,14006l-40024 85831c-2364,5073 -8915,7041 -14602,4390l-326285 -152153z"/>
   <path class="fil1" d="M360631 299904c-2104,4515 -7971,6237 -13103,3845l-326285 -152153c-5132,-2391 -7583,-7990 -5478,-12506l40021 -85831c2108,-4515 7974,-6237 13106,-3844l326288 152150c5129,2394 7584,7996 5475,12509l-40024 85830z"/>
   <polygon class="fil2" points="262283,143328 198929,113783 154141,209835 217492,239377 "/>
   <polygon class="fil2" points="85164,177675 148518,207217 193309,111163 129957,81620 "/>
   <path class="fil2" d="M124336 79000l-56877 -26521c-3199,-1492 -6872,-415 -8184,2402l-40027 85834c-1312,2817 221,6322 3425,7816l56871 26523 44792 -96054z"/>
   <path class="fil7" d="M393750 204635l-56874 -26526 -44791 96054 56875 26521c3200,1492 6873,413 8190,-2403l40024 -85835c1314,-2817 -223,-6324 -3424,-7811z"/>
   <polygon class="fil2" points="331257,175491 267901,145947 223111,241999 286466,271540 "/>
   <path class="fil2" d="M357875 245128c-2981,6397 -10583,9162 -16980,6181 -6394,-2984 -9164,-10586 -6180,-16981 2980,-6398 10586,-9161 16980,-6177 6396,2979 9164,10579 6180,16977z"/>
   <path class="fil8" d="M14734 180072c-5890,-2140 -9132,-8165 -7217,-13422l32392 -88994c1914,-5261 8265,-7796 14161,-5650l338309 123137c5893,2144 9133,8169 7222,13426l-32397 88994c-1912,5260 -8264,7788 -14160,5647l-338310 -123138z"/>
   <path class="fil1" d="M365763 298240c-1705,4680 -7399,6902 -12719,4970l-338310 -123138c-5316,-1932 -8250,-7299 -6544,-11980l32390 -88993c1706,-4681 7397,-6907 12719,-4973l338307 123136c5319,1937 8248,7299 6545,11980l-32388 88998z"/>
   <polygon class="fil2" points="254137,150827 188453,126919 152206,226510 217890,250417 "/>
   <polygon class="fil2" points="80688,200480 146379,224390 182626,124797 116939,100887 "/>
   <path class="fil2" d="M111112 98767l-58970 -21462c-3321,-1208 -6886,186 -7948,3108l-32390 88992c-1067,2923 771,6282 4089,7489l58967 21465 36252 -99592z"/>
   <path class="fil9" d="M390448 200440l-58970 -21463 -36249 99588 58973 21464c3320,1210 6884,-184 7946,-3104l32392 -88996c1064,-2920 -773,-6283 -4092,-7489z"/>
   <polygon class="fil2" points="325651,176857 259964,152949 223717,252540 289402,276447 "/>
   <path class="fil2" d="M358243 243910c-2414,6631 -9750,10047 -16380,7636 -6632,-2414 -10051,-9748 -7634,-16376 2412,-6630 9747,-10050 16375,-7638 6631,2414 10051,9746 7639,16378z"/>
   <path class="fil10" d="M11206 208979c-6058,-1622 -9811,-7340 -8364,-12745l24509 -91481c1452,-5403 7561,-8479 13618,-6859l347755 93182c6057,1622 9806,7338 8360,12747l-24510 91478c-1452,5405 -7558,8481 -13617,6861l-347751 -93183z"/>
   <path class="fil1" d="M371192 296097c-1289,4813 -6766,7528 -12235,6065l-347751 -93183c-5469,-1465 -8855,-6553 -7567,-11365l24512 -91481c1290,-4812 6766,-7525 12235,-6059l347752 93182c5469,1466 8853,6552 7566,11367l-24512 91474z"/>
   <polygon class="fil2" points="247146,158975 179626,140885 152196,243257 219716,261350 "/>
   <polygon class="fil2" points="78687,223558 146206,241650 173638,139280 106117,121188 "/>
   <path class="fil2" d="M100125 119579l-60615 -16238c-3410,-912 -6841,786 -7645,3788l-24513 91479c-803,3003 1314,6190 4729,7105l60614 16238 27430 -102372z"/>
   <path class="fil11" d="M387263 196524l-60617 -16245 -27428 102370 60616 16244c3411,914 6843,-787 7643,-3789l24513 -91479c806,-3005 -1317,-6191 -4727,-7101z"/>
   <polygon class="fil2" points="320659,178674 253134,160581 225705,262951 293229,281043 "/>
   <path class="fil2" d="M358964 242631c-1824,6818 -8829,10862 -15645,9039 -6818,-1830 -10865,-8834 -9035,-15652 1826,-6816 8830,-10860 15649,-9036 6814,1828 10859,8833 9031,15649z"/>
   <path class="fil12" d="M9592 237641c-6179,-1088 -10416,-6457 -9442,-11966l16447 -93271c970,-5511 6787,-9104 12965,-8015l354550 62518c6177,1089 10412,6455 9444,11969l-16448 93266c-969,5509 -6789,9109 -12965,8017l-354551 -62518z"/>
   <path class="fil1" d="M375802 293060c-866,4904 -6086,8084 -11659,7099l-354551 -62518c-5576,-981 -9392,-5755 -8528,-10662l16446 -93268c866,-4906 6085,-8084 11663,-7105l354549 62519c5571,984 9389,5757 8527,10664l-16447 93271z"/>
   <polygon class="fil2" points="240275,167269 171439,155131 153034,259500 221875,271638 "/>
   <polygon class="fil2" points="78086,246283 146929,258423 165330,154050 96491,141914 "/>
   <path class="fil2" d="M90383 140838l-61798 -10897c-3480,-614 -6749,1377 -7287,4440l-16448 93269c-543,3059 1853,6045 5330,6662l61801 10897 18402 -104371z"/>
   <path class="fil13" d="M383135 192456l-61802 -10897 -18404 104372 61803 10900c3476,611 6748,-1383 7284,-4442l16447 -93268c539,-3062 -1849,-6050 -5328,-6665z"/>
   <polygon class="fil2" points="315226,180483 246387,168345 227981,272717 296822,284857 "/>
   <path class="fil2" d="M358767 241970c-1224,6951 -7850,11587 -14800,10366 -6950,-1226 -11590,-7855 -10367,-14803 1227,-6951 7855,-11593 14803,-10366 6952,1226 11590,7854 10364,14803z"/>
   <path class="fil14" d="M10482 268012c-6249,-546 -10934,-5523 -10446,-11099l8251 -94347c491,-5576 5971,-9664 12220,-9116l358653 31375c6249,548 10936,5528 10444,11099l-8252 94349c-487,5573 -5967,9664 -12219,9119l-358651 -31380z"/>
   <path class="fil1" d="M380132 291297c-436,4962 -5360,8586 -10999,8095l-358651 -31380c-5636,-494 -9855,-4914 -9423,-9880l8255 -94344c434,-4965 5357,-8586 10996,-8092l358651 31375c5637,493 9856,4919 9427,9879l-8256 94347z"/>
   <polygon class="fil2" points="234160,177798 164523,171711 155287,277284 224922,283379 "/>
   <polygon class="fil2" points="79474,270654 149106,276744 158346,171167 88708,165075 "/>
   <path class="fil2" d="M82533 164534l-62519 -5468c-3516,-311 -6600,1961 -6870,5058l-8253 94344c-273,3095 2371,5865 5889,6174l62515 5470 9238 -105578z"/>
   <path class="fil15" d="M378666 190441l-62513 -5467 -9238 105579 62512 5469c3522,310 6603,-1961 6875,-5058l8253 -94347c272,-3098 -2371,-5868 -5889,-6176z"/>
   <polygon class="fil2" points="309973,184431 240336,178341 231097,283918 300738,290012 "/>
   <path class="fil2" d="M358807 240765c-617,7032 -6810,12232 -13840,11616 -7032,-615 -12230,-6812 -11616,-13842 614,-7030 6814,-12231 13841,-11615 7029,615 12232,6814 11615,13841z"/>
   <path class="fil16" d="M14382 297051c-6273,0 -11374,-4555 -11374,-10148l0 -94709c0,-5595 5101,-10146 11374,-10146l360018 0c6275,0 11379,4551 11379,10146l0 94709c0,5593 -5104,10148 -11379,10148l-360018 0z"/>
   <path class="fil17" d="M384648 288032c0,4978 -4585,9019 -10248,9019l-360018 0c-5659,0 -10250,-4041 -10250,-9019l0 -94710c0,-4979 4591,-9019 10250,-9019l360018 0c5663,0 10248,4040 10248,9019l0 94710z"/>
   <path class="fil2" d="M359006 239548c0,7061 -5720,12778 -12779,12778 -7054,0 -12776,-5717 -12776,-12778 0,-7055 5722,-12776 12776,-12776 7059,0 12779,5721 12779,12776z"/>
   <path class="fil18" d="M346227 252226c-6999,0 -12674,-5679 -12674,-12678 0,-6998 5675,-12676 12674,-12676 6997,0 12675,5678 12675,12676 0,6999 -5678,12678 -12675,12678z"/>
   <path class="fil18" d="M346227 252119c-6942,0 -12572,-5627 -12572,-12571 0,-6943 5630,-12571 12572,-12571 6941,0 12576,5628 12576,12571 0,6944 -5635,12571 -12576,12571z"/>
   <path class="fil18" d="M346227 252020c-6883,0 -12470,-5585 -12470,-12472 0,-6882 5587,-12470 12470,-12470 6884,0 12471,5588 12471,12470 0,6887 -5587,12472 -12471,12472z"/>
   <path class="fil18" d="M346227 251916c-6829,0 -12368,-5540 -12368,-12368 0,-6825 5539,-12370 12368,-12370 6827,0 12370,5545 12370,12370 0,6828 -5543,12368 -12370,12368z"/>
   <path class="fil18" d="M346227 251817c-6769,0 -12266,-5498 -12266,-12269 0,-6768 5497,-12265 12266,-12265 6772,0 12265,5497 12265,12265 0,6771 -5493,12269 -12265,12269z"/>
   <path class="fil18" d="M346227 251711c-6712,0 -12164,-5451 -12164,-12163 0,-6709 5452,-12163 12164,-12163 6710,0 12163,5454 12163,12163 0,6712 -5453,12163 -12163,12163z"/>
   <path class="fil18" d="M346227 251608c-6653,0 -12062,-5406 -12062,-12060 0,-6652 5409,-12059 12062,-12059 6656,0 12061,5407 12061,12059 0,6654 -5405,12060 -12061,12060z"/>
   <path class="fil18" d="M346227 251505c-6596,0 -11958,-5361 -11958,-11957 0,-6595 5362,-11957 11958,-11957 6597,0 11958,5362 11958,11957 0,6596 -5361,11957 -11958,11957z"/>
   <path class="fil18" d="M346227 251404c-6541,0 -11853,-5315 -11853,-11856 0,-6539 5312,-11855 11853,-11855 6540,0 11857,5316 11857,11855 0,6541 -5317,11856 -11857,11856z"/>
   <path class="fil18" d="M346227 251302c-6479,0 -11751,-5270 -11751,-11754 0,-6479 5272,-11753 11751,-11753 6485,0 11752,5274 11752,11753 0,6484 -5267,11754 -11752,11754z"/>
   <path class="fil18" d="M346227 251200c-6425,0 -11650,-5227 -11650,-11652 0,-6424 5225,-11649 11650,-11649 6424,0 11651,5225 11651,11649 0,6425 -5227,11652 -11651,11652z"/>
   <path class="fil18" d="M346227 250073c-5801,0 -10523,-4724 -10523,-10525 0,-5800 4722,-10520 10523,-10520 5803,0 10525,4720 10525,10520 0,5801 -4722,10525 -10525,10525z"/>
   <path class="fil18" d="M346227 249544c-5512,0 -9997,-4482 -9997,-9996 0,-5511 4485,-9995 9997,-9995 5510,0 9998,4484 9998,9995 0,5514 -4488,9996 -9998,9996z"/>
   <path class="fil18" d="M346227 249044c-5235,0 -9497,-4257 -9497,-9496 0,-5236 4262,-9497 9497,-9497 5236,0 9497,4261 9497,9497 0,5239 -4261,9496 -9497,9496z"/>
   <path class="fil18" d="M346227 248572c-4971,0 -9019,-4046 -9019,-9024 0,-4973 4048,-9021 9019,-9021 4974,0 9023,4048 9023,9021 0,4978 -4049,9024 -9023,9024z"/>
   <path class="fil18" d="M346227 248117c-4725,0 -8569,-3839 -8569,-8569 0,-4724 3844,-8570 8569,-8570 4723,0 8570,3846 8570,8570 0,4730 -3847,8569 -8570,8569z"/>
   <path class="fil18" d="M346227 247692c-4488,0 -8142,-3652 -8142,-8144 0,-4486 3654,-8139 8142,-8139 4488,0 8143,3653 8143,8139 0,4492 -3655,8144 -8143,8144z"/>
   <path class="fil18" d="M346227 247284c-4263,0 -7736,-3472 -7736,-7736 0,-4264 3473,-7733 7736,-7733 4266,0 7735,3469 7735,7733 0,4264 -3469,7736 -7735,7736z"/>
   <path class="fil18" d="M346227 246898c-4048,0 -7345,-3297 -7345,-7350 0,-4050 3297,-7344 7345,-7344 4050,0 7348,3294 7348,7344 0,4053 -3298,7350 -7348,7350z"/>
   <path class="fil18" d="M346227 246528c-3850,0 -6981,-3131 -6981,-6980 0,-3847 3131,-6979 6981,-6979 3848,0 6984,3132 6984,6979 0,3849 -3136,6980 -6984,6980z"/>
   <path class="fil18" d="M346227 246179c-3656,0 -6633,-2974 -6633,-6631 0,-3656 2977,-6630 6633,-6630 3656,0 6632,2974 6632,6630 0,3657 -2976,6631 -6632,6631z"/>
   <path class="fil18" d="M346227 245850c-3475,0 -6299,-2827 -6299,-6302 0,-3474 2824,-6298 6299,-6298 3474,0 6301,2824 6301,6298 0,3475 -2827,6302 -6301,6302z"/>
   <path class="fil18" d="M346227 245536c-3297,0 -5984,-2687 -5984,-5988 0,-3299 2687,-5983 5984,-5983 3300,0 5987,2684 5987,5983 0,3301 -2687,5988 -5987,5988z"/>
   <path class="fil18" d="M346227 245235c-3136,0 -5683,-2551 -5683,-5687 0,-3133 2547,-5685 5683,-5685 3134,0 5689,2552 5689,5685 0,3136 -2555,5687 -5689,5687z"/>
   <path class="fil18" d="M346227 244953c-2979,0 -5400,-2426 -5400,-5405 0,-2978 2421,-5400 5400,-5400 2978,0 5404,2422 5404,5400 0,2979 -2426,5405 -5404,5405z"/>
   <path class="fil18" d="M346227 244680c-2827,0 -5132,-2302 -5132,-5132 0,-2826 2305,-5132 5132,-5132 2831,0 5131,2306 5131,5132 0,2830 -2300,5132 -5131,5132z"/>
   <path class="fil18" d="M346227 244427c-2688,0 -4872,-2189 -4872,-4879 0,-2687 2184,-4871 4872,-4871 2688,0 4877,2184 4877,4871 0,2690 -2189,4879 -4877,4879z"/>
   <path class="fil18" d="M346227 244180c-2553,0 -4630,-2077 -4630,-4632 0,-2552 2077,-4631 4630,-4631 2553,0 4631,2079 4631,4631 0,2555 -2078,4632 -4631,4632z"/>
   <path class="fil18" d="M346227 243950c-2422,0 -4395,-1976 -4395,-4402 0,-2423 1973,-4399 4395,-4399 2428,0 4401,1976 4401,4399 0,2426 -1973,4402 -4401,4402z"/>
   <path class="fil18" d="M346227 243730c-2301,0 -4177,-1877 -4177,-4182 0,-2303 1876,-4178 4177,-4178 2307,0 4183,1875 4183,4178 0,2305 -1876,4182 -4183,4182z"/>
   <path class="fil18" d="M346227 243523c-2190,0 -3970,-1783 -3970,-3975 0,-2189 1780,-3970 3970,-3970 2190,0 3972,1781 3972,3970 0,2192 -1782,3975 -3972,3975z"/>
   <path class="fil18" d="M346227 243324c-2080,0 -3771,-1696 -3771,-3776 0,-2079 1691,-3773 3771,-3773 2079,0 3770,1694 3770,3773 0,2080 -1691,3776 -3770,3776z"/>
   <path class="fil18" d="M346227 243137c-1977,0 -3582,-1611 -3582,-3589 0,-1975 1605,-3583 3582,-3583 1977,0 3582,1608 3582,3583 0,1978 -1605,3589 -3582,3589z"/>
   <path class="fil18" d="M346227 242956c-1877,0 -3402,-1529 -3402,-3408 0,-1875 1525,-3402 3402,-3402 1878,0 3405,1527 3405,3402 0,1879 -1527,3408 -3405,3408z"/>
   <path class="fil18" d="M346227 242783c-1782,0 -3233,-1449 -3233,-3235 0,-1784 1451,-3232 3233,-3232 1785,0 3234,1448 3234,3232 0,1786 -1449,3235 -3234,3235z"/>
   <path class="fil18" d="M346227 242622c-1696,0 -3072,-1378 -3072,-3074 0,-1695 1376,-3071 3072,-3071 1695,0 3073,1376 3073,3071 0,1696 -1378,3074 -3073,3074z"/>
   <path class="fil18" d="M346227 242470c-1609,0 -2917,-1309 -2917,-2922 0,-1610 1308,-2914 2917,-2914 1609,0 2919,1304 2919,2914 0,1613 -1310,2922 -2919,2922z"/>
   <path class="fil18" d="M346227 242321c-1528,0 -2771,-1243 -2771,-2773 0,-1528 1243,-2774 2771,-2774 1531,0 2774,1246 2774,2774 0,1530 -1243,2773 -2774,2773z"/>
   <path class="fil18" d="M346227 242183c-1450,0 -2631,-1181 -2631,-2635 0,-1451 1181,-2634 2631,-2634 1453,0 2637,1183 2637,2634 0,1454 -1184,2635 -2637,2635z"/>
   <path class="fil18" d="M346227 242053c-1379,0 -2500,-1125 -2500,-2505 0,-1380 1121,-2500 2500,-2500 1380,0 2502,1120 2502,2500 0,1380 -1122,2505 -2502,2505z"/>
   <path class="fil18" d="M346227 241925c-1312,0 -2377,-1062 -2377,-2377 0,-1314 1065,-2378 2377,-2378 1311,0 2378,1064 2378,2378 0,1315 -1067,2377 -2378,2377z"/>
   <path class="fil18" d="M346227 241807c-1246,0 -2256,-1011 -2256,-2259 0,-1242 1010,-2258 2256,-2258 1246,0 2259,1016 2259,2258 0,1248 -1013,2259 -2259,2259z"/>
   <path class="fil18" d="M346227 241695c-1181,0 -2145,-963 -2145,-2147 0,-1183 964,-2141 2145,-2141 1185,0 2145,958 2145,2141 0,1184 -960,2147 -2145,2147z"/>
   <path class="fil18" d="M346227 241588c-1124,0 -2038,-915 -2038,-2040 0,-1121 914,-2034 2038,-2034 1126,0 2039,913 2039,2034 0,1125 -913,2040 -2039,2040z"/>
   <path class="fil18" d="M346227 241484c-1066,0 -1936,-866 -1936,-1936 0,-1066 870,-1932 1936,-1932 1069,0 1937,866 1937,1932 0,1070 -868,1936 -1937,1936z"/>
   <path class="fil18" d="M346227 241389c-1016,0 -1838,-826 -1838,-1841 0,-1015 822,-1835 1838,-1835 1017,0 1839,820 1839,1835 0,1015 -822,1841 -1839,1841z"/>
   <path class="fil18" d="M346227 241299c-964,0 -1746,-786 -1746,-1751 0,-964 782,-1743 1746,-1743 962,0 1748,779 1748,1743 0,965 -786,1751 -1748,1751z"/>
   <path class="fil18" d="M346227 241209c-913,0 -1659,-742 -1659,-1661 0,-915 746,-1660 1659,-1660 917,0 1659,745 1659,1660 0,919 -742,1661 -1659,1661z"/>
   <path class="fil18" d="M346227 241125c-868,0 -1576,-708 -1576,-1577 0,-868 708,-1577 1576,-1577 869,0 1576,709 1576,1577 0,869 -707,1577 -1576,1577z"/>
   <path class="fil18" d="M346227 241049c-823,0 -1497,-672 -1497,-1501 0,-825 674,-1496 1497,-1496 829,0 1498,671 1498,1496 0,829 -669,1501 -1498,1501z"/>
   <path class="fil18" d="M346227 240974c-785,0 -1421,-641 -1421,-1426 0,-784 636,-1421 1421,-1421 784,0 1425,637 1425,1421 0,785 -641,1426 -1425,1426z"/>
   <path class="fil18" d="M346227 240903c-745,0 -1348,-608 -1348,-1355 0,-742 603,-1351 1348,-1351 748,0 1353,609 1353,1351 0,747 -605,1355 -1353,1355z"/>
   <path class="fil18" d="M346227 240834c-707,0 -1284,-574 -1284,-1286 0,-707 577,-1283 1284,-1283 710,0 1285,576 1285,1283 0,712 -575,1286 -1285,1286z"/>
   <path class="fil18" d="M346227 240769c-672,0 -1218,-549 -1218,-1221 0,-671 546,-1219 1218,-1219 673,0 1223,548 1223,1219 0,672 -550,1221 -1223,1221z"/>
   <path class="fil18" d="M346227 240708c-638,0 -1158,-522 -1158,-1160 0,-635 520,-1160 1158,-1160 640,0 1159,525 1159,1160 0,638 -519,1160 -1159,1160z"/>
   <path class="fil18" d="M346227 240653c-608,0 -1099,-498 -1099,-1105 0,-605 491,-1098 1099,-1098 608,0 1102,493 1102,1098 0,607 -494,1105 -1102,1105z"/>
   <path class="fil18" d="M346227 240597c-580,0 -1045,-472 -1045,-1049 0,-576 465,-1046 1045,-1046 578,0 1048,470 1048,1046 0,577 -470,1049 -1048,1049z"/>
   <path class="fil18" d="M346227 240542c-547,0 -992,-443 -992,-994 0,-545 445,-993 992,-993 552,0 995,448 995,993 0,551 -443,994 -995,994z"/>
   <path class="fil18" d="M346227 240495c-522,0 -944,-425 -944,-947 0,-519 422,-944 944,-944 523,0 945,425 945,944 0,522 -422,947 -945,947z"/>
   <path class="fil18" d="M346227 240446c-497,0 -895,-407 -895,-898 0,-490 398,-896 895,-896 498,0 898,406 898,896 0,491 -400,898 -898,898z"/>
   <path class="fil18" d="M346227 240400c-470,0 -852,-382 -852,-852 0,-467 382,-849 852,-849 471,0 853,382 853,849 0,470 -382,852 -853,852z"/>
   <path class="fil18" d="M346227 240360c-444,0 -809,-363 -809,-812 0,-443 365,-809 809,-809 450,0 810,366 810,809 0,449 -360,812 -810,812z"/>
   <path class="fil18" d="M346227 240316c-423,0 -769,-343 -769,-768 0,-424 346,-768 769,-768 426,0 767,344 767,768 0,425 -341,768 -767,768z"/>
   <path class="fil18" d="M346227 240279c-404,0 -728,-327 -728,-731 0,-403 324,-725 728,-725 402,0 732,322 732,725 0,404 -330,731 -732,731z"/>
   <path class="fil18" d="M346227 240241c-382,0 -693,-309 -693,-693 0,-379 311,-692 693,-692 383,0 694,313 694,692 0,384 -311,693 -694,693z"/>
   <path class="fil18" d="M346227 240210c-361,0 -658,-296 -658,-662 0,-360 297,-657 658,-657 367,0 661,297 661,657 0,366 -294,662 -661,662z"/>
   <path class="fil18" d="M346227 240175c-342,0 -625,-280 -625,-627 0,-342 283,-623 625,-623 347,0 628,281 628,623 0,347 -281,627 -628,627z"/>
   <path class="fil18" d="M346227 240146c-328,0 -593,-266 -593,-598 0,-325 265,-595 593,-595 329,0 597,270 597,595 0,332 -268,598 -597,598z"/>
  </g>
 </g>
</svg>
