<?xml version="1.0" encoding="UTF-8"?>
<!DOCTYPE svg PUBLIC "-//W3C//DTD SVG 1.1//EN" "http://www.w3.org/Graphics/SVG/1.1/DTD/svg11.dtd">
<!-- Creator: CorelDRAW X8 -->
<svg xmlns="http://www.w3.org/2000/svg" xml:space="preserve" width="62.0695mm" height="38.2789mm" version="1.1" style="shape-rendering:geometricPrecision; text-rendering:geometricPrecision; image-rendering:optimizeQuality; fill-rule:evenodd; clip-rule:evenodd"
viewBox="0 0 1334125 822769"
 xmlns:xlink="http://www.w3.org/1999/xlink">
 <defs>
  <style type="text/css">
   <![CDATA[
    .str0 {stroke:#5EBCDB;stroke-width:1637.85}
    .fil2 {fill:#0091CE}
    .fil26 {fill:#FCEFF9}
    .fil0 {fill:white}
    .fil23 {fill:#CAD4DE;fill-rule:nonzero}
    .fil27 {fill:#524F62;fill-rule:nonzero}
    .fil24 {fill:#0094D5;fill-rule:nonzero}
    .fil1 {fill:#0091CE;fill-rule:nonzero}
    .fil22 {fill:#5EBCDB;fill-rule:nonzero}
    .fil25 {fill:#FCEFF9;fill-rule:nonzero}
    .fil20 {fill:url(#id0)}
    .fil9 {fill:url(#id1)}
    .fil18 {fill:url(#id2)}
    .fil3 {fill:url(#id3)}
    .fil19 {fill:url(#id4)}
    .fil14 {fill:url(#id5)}
    .fil16 {fill:url(#id6)}
    .fil21 {fill:url(#id7)}
    .fil13 {fill:url(#id8)}
    .fil8 {fill:url(#id9)}
    .fil11 {fill:url(#id10)}
    .fil17 {fill:url(#id11)}
    .fil15 {fill:url(#id12)}
    .fil12 {fill:url(#id13)}
    .fil5 {fill:url(#id14)}
    .fil10 {fill:url(#id15)}
    .fil4 {fill:url(#id16)}
    .fil6 {fill:url(#id17)}
    .fil7 {fill:url(#id18)}
   ]]>
  </style>
  <linearGradient id="id0" gradientUnits="userSpaceOnUse" x1="666634" y1="826928" x2="667734" y2="688657">
   <stop offset="0" style="stop-opacity:1; stop-color:#BBBFC6"/>
   <stop offset="0.101961" style="stop-opacity:1; stop-color:#E4E6EB"/>
   <stop offset="0.160784" style="stop-opacity:1; stop-color:#EEEFF2"/>
   <stop offset="0.878431" style="stop-opacity:1; stop-color:#EEEFF2"/>
   <stop offset="0.988235" style="stop-opacity:1; stop-color:#BBBFC6"/>
   <stop offset="1" style="stop-opacity:1; stop-color:#BBBFC6"/>
  </linearGradient>
  <linearGradient id="id1" gradientUnits="userSpaceOnUse" x1="666984" y1="822401" x2="667150" y2="690430">
   <stop offset="0" style="stop-opacity:1; stop-color:#82888D"/>
   <stop offset="0.101961" style="stop-opacity:1; stop-color:#DDDDE3"/>
   <stop offset="0.160784" style="stop-opacity:1; stop-color:#F2F2F5"/>
   <stop offset="0.878431" style="stop-opacity:1; stop-color:#F2F2F5"/>
   <stop offset="0.988235" style="stop-opacity:1; stop-color:#82888D"/>
   <stop offset="1" style="stop-opacity:1; stop-color:#82888D"/>
  </linearGradient>
  <linearGradient id="id2" gradientUnits="userSpaceOnUse" x1="666634" y1="825533" x2="667418" y2="689407">
   <stop offset="0" style="stop-opacity:1; stop-color:#B2B4BB"/>
   <stop offset="0.101961" style="stop-opacity:1; stop-color:#E3E4E8"/>
   <stop offset="0.160784" style="stop-opacity:1; stop-color:#EFEFF2"/>
   <stop offset="0.878431" style="stop-opacity:1; stop-color:#EFEFF2"/>
   <stop offset="0.988235" style="stop-opacity:1; stop-color:#B2B4BB"/>
   <stop offset="1" style="stop-opacity:1; stop-color:#B2B4BB"/>
  </linearGradient>
  <linearGradient id="id3" gradientUnits="userSpaceOnUse" x1="666984" y1="822401" x2="666984" y2="690978">
   <stop offset="0" style="stop-opacity:1; stop-color:#62696C"/>
   <stop offset="0.101961" style="stop-opacity:1; stop-color:#D9D9DF"/>
   <stop offset="0.160784" style="stop-opacity:1; stop-color:#F3F5F7"/>
   <stop offset="0.878431" style="stop-opacity:1; stop-color:#F3F5F7"/>
   <stop offset="0.988235" style="stop-opacity:1; stop-color:#62696C"/>
   <stop offset="1" style="stop-opacity:1; stop-color:#62696C"/>
  </linearGradient>
  <linearGradient id="id4" gradientUnits="userSpaceOnUse" x1="666634" y1="825877" x2="667556" y2="688934">
   <stop offset="0" style="stop-opacity:1; stop-color:#B7BAC2"/>
   <stop offset="0.101961" style="stop-opacity:1; stop-color:#E3E4EA"/>
   <stop offset="0.160784" style="stop-opacity:1; stop-color:#EEEFF2"/>
   <stop offset="0.878431" style="stop-opacity:1; stop-color:#EEEFF2"/>
   <stop offset="0.988235" style="stop-opacity:1; stop-color:#B7BAC2"/>
   <stop offset="1" style="stop-opacity:1; stop-color:#B7BAC2"/>
  </linearGradient>
  <linearGradient id="id5" gradientUnits="userSpaceOnUse" x1="666286" y1="823446" x2="666696" y2="690107">
   <stop offset="0" style="stop-opacity:1; stop-color:#9DA1A9"/>
   <stop offset="0.101961" style="stop-opacity:1; stop-color:#DEDFE5"/>
   <stop offset="0.160784" style="stop-opacity:1; stop-color:#EFEFF2"/>
   <stop offset="0.878431" style="stop-opacity:1; stop-color:#EFEFF2"/>
   <stop offset="0.988235" style="stop-opacity:1; stop-color:#9DA1A9"/>
   <stop offset="1" style="stop-opacity:1; stop-color:#9DA1A9"/>
  </linearGradient>
  <linearGradient id="id6" gradientUnits="userSpaceOnUse" x1="666982" y1="824839" x2="667545" y2="690507">
   <stop offset="0" style="stop-opacity:1; stop-color:#A7ACB2"/>
   <stop offset="0.101961" style="stop-opacity:1; stop-color:#E3E4E8"/>
   <stop offset="0.160784" style="stop-opacity:1; stop-color:#EFEFF2"/>
   <stop offset="0.878431" style="stop-opacity:1; stop-color:#EFEFF2"/>
   <stop offset="0.988235" style="stop-opacity:1; stop-color:#A7ACB2"/>
   <stop offset="1" style="stop-opacity:1; stop-color:#A7ACB2"/>
  </linearGradient>
  <linearGradient id="id7" gradientUnits="userSpaceOnUse" x1="666982" y1="827270" x2="668306" y2="687434">
   <stop offset="0" style="stop-opacity:1; stop-color:#C1C3CB"/>
   <stop offset="0.101961" style="stop-opacity:1; stop-color:#E4E6EB"/>
   <stop offset="0.160784" style="stop-opacity:1; stop-color:#EEEFF2"/>
   <stop offset="0.878431" style="stop-opacity:1; stop-color:#EEEFF2"/>
   <stop offset="0.988235" style="stop-opacity:1; stop-color:#C1C3CB"/>
   <stop offset="1" style="stop-opacity:1; stop-color:#C1C3CB"/>
  </linearGradient>
  <linearGradient id="id8" gradientUnits="userSpaceOnUse" x1="666286" y1="823792" x2="666634" y2="690724">
   <stop offset="0" style="stop-opacity:1; stop-color:#989DA4"/>
   <stop offset="0.101961" style="stop-opacity:1; stop-color:#DEDFE5"/>
   <stop offset="0.160784" style="stop-opacity:1; stop-color:#EFEFF2"/>
   <stop offset="0.878431" style="stop-opacity:1; stop-color:#EFEFF2"/>
   <stop offset="0.988235" style="stop-opacity:1; stop-color:#989DA4"/>
   <stop offset="1" style="stop-opacity:1; stop-color:#989DA4"/>
  </linearGradient>
  <linearGradient id="id9" gradientUnits="userSpaceOnUse" x1="667676" y1="823792" x2="667812" y2="692023">
   <stop offset="0" style="stop-opacity:1; stop-color:#7D8489"/>
   <stop offset="0.101961" style="stop-opacity:1; stop-color:#DADCE3"/>
   <stop offset="0.160784" style="stop-opacity:1; stop-color:#F3F3F5"/>
   <stop offset="0.878431" style="stop-opacity:1; stop-color:#F3F3F5"/>
   <stop offset="0.988235" style="stop-opacity:1; stop-color:#7D8489"/>
   <stop offset="1" style="stop-opacity:1; stop-color:#7D8489"/>
  </linearGradient>
  <linearGradient id="id10" gradientUnits="userSpaceOnUse" x1="667676" y1="824488" x2="667926" y2="691821">
   <stop offset="0" style="stop-opacity:1; stop-color:#8D9398"/>
   <stop offset="0.101961" style="stop-opacity:1; stop-color:#DDDEE5"/>
   <stop offset="0.160784" style="stop-opacity:1; stop-color:#F2F2F5"/>
   <stop offset="0.878431" style="stop-opacity:1; stop-color:#F2F2F5"/>
   <stop offset="0.988235" style="stop-opacity:1; stop-color:#8D9398"/>
   <stop offset="1" style="stop-opacity:1; stop-color:#8D9398"/>
  </linearGradient>
  <linearGradient id="id11" gradientUnits="userSpaceOnUse" x1="666984" y1="824488" x2="667646" y2="689435">
   <stop offset="0" style="stop-opacity:1; stop-color:#ADB0B7"/>
   <stop offset="0.101961" style="stop-opacity:1; stop-color:#E3E4E8"/>
   <stop offset="0.160784" style="stop-opacity:1; stop-color:#EFEFF2"/>
   <stop offset="0.878431" style="stop-opacity:1; stop-color:#EFEFF2"/>
   <stop offset="0.988235" style="stop-opacity:1; stop-color:#ADB0B7"/>
   <stop offset="1" style="stop-opacity:1; stop-color:#ADB0B7"/>
  </linearGradient>
  <linearGradient id="id12" gradientUnits="userSpaceOnUse" x1="666982" y1="823792" x2="667463" y2="689927">
   <stop offset="0" style="stop-opacity:1; stop-color:#A0A6AD"/>
   <stop offset="0.101961" style="stop-opacity:1; stop-color:#DEE1E6"/>
   <stop offset="0.160784" style="stop-opacity:1; stop-color:#EFEFF2"/>
   <stop offset="0.878431" style="stop-opacity:1; stop-color:#EFEFF2"/>
   <stop offset="0.988235" style="stop-opacity:1; stop-color:#A0A6AD"/>
   <stop offset="1" style="stop-opacity:1; stop-color:#A0A6AD"/>
  </linearGradient>
  <linearGradient id="id13" gradientUnits="userSpaceOnUse" x1="666984" y1="823792" x2="667279" y2="691300">
   <stop offset="0" style="stop-opacity:1; stop-color:#92999E"/>
   <stop offset="0.101961" style="stop-opacity:1; stop-color:#DDDEE5"/>
   <stop offset="0.160784" style="stop-opacity:1; stop-color:#F2F2F5"/>
   <stop offset="0.878431" style="stop-opacity:1; stop-color:#F2F2F5"/>
   <stop offset="0.988235" style="stop-opacity:1; stop-color:#92999E"/>
   <stop offset="1" style="stop-opacity:1; stop-color:#92999E"/>
  </linearGradient>
  <linearGradient id="id14" gradientUnits="userSpaceOnUse" x1="665589" y1="821701" x2="665634" y2="690832">
   <stop offset="0" style="stop-opacity:1; stop-color:#6D7377"/>
   <stop offset="0.101961" style="stop-opacity:1; stop-color:#DADCE1"/>
   <stop offset="0.160784" style="stop-opacity:1; stop-color:#F3F3F5"/>
   <stop offset="0.878431" style="stop-opacity:1; stop-color:#F3F3F5"/>
   <stop offset="0.988235" style="stop-opacity:1; stop-color:#6D7377"/>
   <stop offset="1" style="stop-opacity:1; stop-color:#6D7377"/>
  </linearGradient>
  <linearGradient id="id15" gradientUnits="userSpaceOnUse" x1="667676" y1="823792" x2="667883" y2="691326">
   <stop offset="0" style="stop-opacity:1; stop-color:#888F95"/>
   <stop offset="0.101961" style="stop-opacity:1; stop-color:#DDDDE4"/>
   <stop offset="0.160784" style="stop-opacity:1; stop-color:#F2F2F5"/>
   <stop offset="0.878431" style="stop-opacity:1; stop-color:#F2F2F5"/>
   <stop offset="0.988235" style="stop-opacity:1; stop-color:#888F95"/>
   <stop offset="1" style="stop-opacity:1; stop-color:#888F95"/>
  </linearGradient>
  <linearGradient id="id16" gradientUnits="userSpaceOnUse" x1="667676" y1="822399" x2="667700" y2="691053">
   <stop offset="0" style="stop-opacity:1; stop-color:#686E72"/>
   <stop offset="0.101961" style="stop-opacity:1; stop-color:#D9DBE1"/>
   <stop offset="0.160784" style="stop-opacity:1; stop-color:#F3F5F7"/>
   <stop offset="0.878431" style="stop-opacity:1; stop-color:#F3F5F7"/>
   <stop offset="0.988235" style="stop-opacity:1; stop-color:#686E72"/>
   <stop offset="1" style="stop-opacity:1; stop-color:#686E72"/>
  </linearGradient>
  <linearGradient id="id17" gradientUnits="userSpaceOnUse" x1="667676" y1="823792" x2="667749" y2="692644">
   <stop offset="0" style="stop-opacity:1; stop-color:#71797D"/>
   <stop offset="0.101961" style="stop-opacity:1; stop-color:#DADCE3"/>
   <stop offset="0.160784" style="stop-opacity:1; stop-color:#F3F3F5"/>
   <stop offset="0.878431" style="stop-opacity:1; stop-color:#F3F3F5"/>
   <stop offset="0.988235" style="stop-opacity:1; stop-color:#71797D"/>
   <stop offset="1" style="stop-opacity:1; stop-color:#71797D"/>
  </linearGradient>
  <linearGradient id="id18" gradientUnits="userSpaceOnUse" x1="666286" y1="822401" x2="666387" y2="690931">
   <stop offset="0" style="stop-opacity:1; stop-color:#777E82"/>
   <stop offset="0.101961" style="stop-opacity:1; stop-color:#DADCE3"/>
   <stop offset="0.160784" style="stop-opacity:1; stop-color:#F3F3F5"/>
   <stop offset="0.878431" style="stop-opacity:1; stop-color:#F3F3F5"/>
   <stop offset="0.988235" style="stop-opacity:1; stop-color:#777E82"/>
   <stop offset="1" style="stop-opacity:1; stop-color:#777E82"/>
  </linearGradient>
 </defs>
 <g id="Слой_x0020_1">
  <metadata id="CorelCorpID_0Corel-Layer"/>
  <g id="_2501497080496">
   <path class="fil0" d="M175035 693173c-17331,0 -31444,-14187 -31444,-31633l0 -629899c0,-17436 14113,-31639 31444,-31639l984034 0c17337,0 31454,14203 31454,31639l0 629899c0,17446 -14117,31633 -31454,31633l-984034 0z"/>
   <path class="fil1" d="M181631 40211l0 586573c0,3147 2595,5672 5797,5672l959460 0c3190,0 5778,-2525 5778,-5672l0 -586573c0,-3140 -2588,-5681 -5778,-5681l-959460 0c-3202,0 -5797,2541 -5797,5681z"/>
   <path class="fil2" d="M1064732 671403c0,2006 -1632,3644 -3639,3644l-773973 0c-2014,0 -3641,-1638 -3641,-3644 0,-1990 1627,-3624 3641,-3624l773973 0c2007,0 3639,1634 3639,3624z"/>
   <path class="fil3" d="M1190468 693278c0,0 -1821,-1782 -4420,-1782l-1037982 0c-2609,0 -4430,1782 -4430,1782l-143636 113482c0,8841 21068,16007 47050,16007l1240014 0c25999,0 47061,-7166 47061,-16007l-143657 -113482z"/>
   <path class="fil4" d="M143780 693306c0,0 1761,-1715 4265,-1715 10,-11 1107,-22 1119,-26l1036863 0c1876,4 3344,967 3968,1457 212,168 335,284 335,284l143638 113471c-21,8798 -21010,15934 -46904,15934l-1240014 0c-25876,0 -46861,-7136 -46882,-15934l143612 -113471z"/>
   <path class="fil5" d="M143931 693329c0,0 1687,-1648 4092,-1648 22,-17 1090,-45 1118,-56l1036869 0c1814,11 3245,952 3851,1431 200,160 323,278 323,278l143619 113454c-45,8763 -20944,15856 -46739,15856l-1240014 0c-25771,0 -46676,-7093 -46725,-15856l143606 -113459z"/>
   <path class="fil6" d="M144075 693351c0,0 1616,-1576 3924,-1576 35,-34 1088,-73 1120,-90l1036861 0c1756,17 3153,937 3742,1404 200,157 318,273 318,273l143602 113443c-69,8714 -20895,15777 -46578,15777l-1240014 0c-25670,0 -46498,-7063 -46571,-15777l143596 -113454z"/>
   <path class="fil7" d="M144225 693379c0,0 1548,-1515 3753,-1515 45,-39 1068,-89 1131,-117l1036856 0c1687,28 3050,918 3630,1380 183,147 305,263 305,263l143585 113432c-95,8673 -20832,15693 -46421,15693l-1240014 0c-25565,0 -46315,-7020 -46403,-15693l143578 -113443z"/>
   <path class="fil8" d="M144371 693411c0,0 1486,-1453 3585,-1453 56,-49 1058,-112 1131,-144l1036856 0c1636,32 2949,903 3517,1348 174,144 296,256 296,256l143561 113415c-105,8634 -20776,15628 -46253,15628l-1240014 0c-25464,0 -46130,-6994 -46242,-15628l143563 -113422z"/>
   <path class="fil9" d="M144515 693428c0,0 1415,-1382 3424,-1382 60,-60 1041,-131 1124,-172l1036850 0c1575,41 2863,879 3409,1320 165,135 290,245 290,245l143548 113411c-131,8589 -20727,15549 -46096,15549l-1240014 0c-25358,0 -45947,-6960 -46085,-15549l143550 -113422z"/>
   <path class="fil10" d="M144666 693456c0,0 1341,-1315 3252,-1315 71,-78 1023,-159 1124,-211l1036849 0c1516,52 2756,871 3296,1298 156,127 279,239 279,239l143535 113394c-157,8550 -20666,15471 -45937,15471l-1240014 0c-25259,0 -45763,-6921 -45928,-15471l143544 -113405z"/>
   <path class="fil11" d="M144805 693484c0,0 1286,-1253 3089,-1253 84,-84 1015,-178 1126,-228l1036850 0c1457,50 2661,841 3179,1264 155,116 273,234 273,234l143522 113375c-189,8507 -20615,15394 -45780,15394l-1240014 0c-25148,0 -45578,-6887 -45763,-15394l143518 -113392z"/>
   <path class="fil12" d="M144954 693512c0,0 1210,-1186 2919,-1186 94,-88 1006,-200 1130,-263l1036846 0c1394,63 2564,832 3067,1236 144,119 271,230 271,230l143490 113364c-200,8462 -20549,15317 -45613,15317l-1240014 0c-25053,0 -45395,-6855 -45601,-15317l143505 -113381z"/>
   <path class="fil13" d="M145100 693534c0,0 1148,-1120 2751,-1120 105,-99 991,-222 1129,-288l1036845 0c1335,66 2465,812 2957,1208 134,105 254,221 254,221l143479 113351c-221,8424 -20496,15242 -45451,15242l-1240014 0c-24941,0 -45217,-6818 -45447,-15242l143497 -113372z"/>
   <path class="fil14" d="M145246 693555c0,0 1079,-1051 2582,-1051 118,-112 980,-243 1130,-316l1036839 0c1281,73 2373,795 2846,1180 127,99 256,217 256,217l143459 113338c-249,8377 -20440,15158 -45294,15158l-1240014 0c-24840,0 -45032,-6781 -45283,-15158l143479 -113368z"/>
   <path class="fil15" d="M145399 693585c0,0 1003,-980 2405,-980 135,-129 965,-273 1133,-350l1036843 0c1214,77 2272,771 2729,1145 117,95 243,213 243,213l143447 113321c-273,8344 -20389,15091 -45135,15091l-1240014 0c-24741,0 -44849,-6747 -45122,-15091l143471 -113349z"/>
   <path class="fil16" d="M145545 693613c0,0 935,-920 2237,-920 147,-133 955,-294 1131,-378l1036845 0c1159,84 2171,763 2616,1124 112,90 234,200 234,200l143430 113310c-296,8301 -20327,15016 -44974,15016l-1240014 0c-24636,0 -44666,-6715 -44967,-15016l143462 -113336z"/>
   <path class="fil17" d="M145685 693639c0,0 872,-856 2076,-856 157,-146 935,-318 1130,-406l1036846 0c1096,88 2076,740 2497,1096 101,78 235,194 235,194l143406 113293c-318,8258 -20269,14936 -44811,14936l-1240014 0c-24535,0 -44481,-6678 -44806,-14936l143441 -113321z"/>
   <path class="fil18" d="M145839 693663c0,0 798,-791 1900,-791 159,-151 925,-334 1135,-435l1036839 0c1036,101 1975,725 2390,1071 88,71 222,189 222,189l143389 113274c-334,8223 -20209,14867 -44650,14867l-1240014 0c-24423,0 -44303,-6644 -44645,-14867l143434 -113308z"/>
   <path class="fil19" d="M145979 693691c0,0 735,-725 1743,-725 166,-161 914,-361 1131,-468l1036839 0c980,107 1880,707 2276,1042 84,67 213,183 213,183l143376 113265c-361,8174 -20157,14788 -44493,14788l-1240014 0c-24322,0 -44114,-6614 -44488,-14788l143417 -113297z"/>
   <path class="fil20" d="M146129 693718c0,0 669,-657 1570,-657 178,-176 902,-385 1132,-495l1036839 0c911,110 1782,690 2165,1006 73,63 206,185 206,185l143357 113248c-392,8129 -20110,14708 -44334,14708l-1240014 0c-24217,0 -43936,-6579 -44320,-14708l143399 -113287z"/>
   <path class="fil21" d="M146273 693744c0,0 598,-593 1404,-593 189,-185 886,-408 1137,-524l1036832 0c854,116 1688,672 2049,980 66,56 202,174 202,174l143333 113237c-402,8086 -20043,14635 -44166,14635l-1240014 0c-24118,0 -43753,-6549 -44165,-14635l143388 -113274z"/>
   <g>
    <path class="fil2" d="M401788 811121c-2796,0 -5143,-1449 -5339,-3241l25675 -32918 268774 0 18227 32922c-199,1795 -2553,3237 -5356,3237l-301981 0z"/>
    <path class="fil2" d="M402061 809494c-391,-129 -1182,-617 -1414,-1438l24553 -31465 262354 0 17380 31405c-200,858 -1023,1369 -1414,1498l-301459 0z"/>
    <polygon class="fil22" points="405045,808675 428187,779028 684106,779028 700515,808675 "/>
   </g>
   <g>
    <path class="fil1" d="M167391 769266c-13691,0 -24686,-3691 -25042,-8407l-33 -356 62761 -56813 921134 0 65594 56795 -35 374c-361,4716 -11351,8407 -25030,8407l-999349 0z"/>
    <path class="fil2" d="M1123539 705321l-915737 0 -61299 55493c288,3770 9548,6816 20888,6816l999349 0c11330,0 20583,-3046 20867,-6816l-64068 -55493z"/>
    <path class="fil2" d="M167391 767630c-9309,0 -17087,-2390 -17736,-5373l60202 -54505 911660 0 62943 54505c-660,2994 -8439,5373 -17720,5373l-999349 0z"/>
    <path class="fil1" d="M870348 756627c-185,-462 -1593,-819 -3241,-819l-45123 0c-1023,0 -1891,136 -2416,381 -378,165 -528,361 -455,567l3123 9079c150,473 1552,830 3250,830l46126 0c1064,0 1954,-144 2476,-378 350,-172 501,-374 391,-581l-4131 -9079zm58649 -17c-267,-462 -1679,-802 -3289,-802l-45129 0c-1027,0 -1913,140 -2409,381 -364,172 -508,378 -407,578l4336 9092c202,456 1620,806 3301,806l46137 0c1064,0 1961,-144 2459,-383 329,-174 464,-380 329,-591l-5328 -9081zm58646 -28c-357,-501 -2009,-774 -3381,-774l-45354 0c-1047,0 -1937,140 -2423,398 -339,172 -473,376 -339,593l5558 9075c316,524 1941,791 3377,791l46420 0c1062,0 1959,-144 2427,-383 350,-184 451,-402 312,-608l-6597 -9092zm58963 -15c-428,-496 -2094,-759 -3424,-759l-45383 0c-1059,0 -1917,140 -2394,398 -336,176 -437,393 -290,600l6770 9096c383,496 2025,763 3428,763l46415 0c1079,0 1960,-144 2426,-395 325,-172 407,-400 241,-617l-7789 -9086zm-234195 84c-146,-486 -1537,-843 -3224,-843l-45374 0c-1002,0 -1926,140 -2461,368 -368,161 -540,350 -508,546l1933 9092c101,483 1483,851 3217,851l46410 0c1051,0 1954,-144 2476,-368 374,-161 536,-365 469,-578l-2938 -9068zm362347 8967l-10217 -9092c-535,-462 -2192,-718 -3512,-718l-45384 0c-1047,0 -1905,147 -2356,409 -299,189 -372,423 -155,627l9191 9088c496,477 2139,733 3525,733l46414 0c1075,0 1920,-144 2365,-406 318,-196 363,-424 129,-641zm-69194 -9068c-482,-479 -2139,-742 -3469,-742l-45372 0c-1049,0 -1917,147 -2379,402 -329,172 -413,407 -222,619l7977 9084c440,485 2093,752 3486,752l46408 0c1074,0 1947,-144 2388,-395 329,-207 406,-422 182,-641l-8999 -9079zm-883309 -333c-439,-262 -1279,-409 -2336,-409l-45396 0c-1302,0 -2979,256 -3493,718l-10168 9092c-241,217 -207,445 116,641 434,262 1291,406 2364,406l46410 0c1393,0 3046,-256 3536,-733l9141 -9088c221,-204 157,-438 -174,-627zm527668 -409l-45133 0c-974,0 -1894,136 -2440,357 -389,157 -571,346 -567,535l735 9101c22,496 1387,864 3128,864l46137 0c1012,0 1960,-144 2499,-368 368,-150 546,-361 525,-556l-1728 -9075c-101,-484 -1453,-858 -3156,-858zm-468710 402c-458,-255 -1313,-402 -2366,-402l-45379 0c-1324,0 -2985,263 -3473,742l-8959 9079c-217,219 -137,434 183,641 441,251 1320,395 2394,395l46400 0c1401,0 3054,-267 3484,-752l7950 -9084c190,-212 95,-447 -234,-619zm56564 -402l-45385 0c-1354,0 -3000,267 -3424,759l-7744 9086c-185,217 -101,432 223,617 473,251 1359,395 2431,395l46421 0c1410,0 3039,-267 3413,-763l6754 -9096c137,-207 36,-424 -318,-600 -462,-258 -1337,-398 -2371,-398zm58922 0l-45385 0c-1356,0 -2999,273 -3373,774l-6532 9092c-148,206 -53,424 293,608 466,239 1369,383 2437,383l46414 0c1436,0 3068,-267 3386,-791l5511 -9075c122,-217 4,-421 -346,-593 -495,-258 -1359,-398 -2405,-398zm528074 -2125c288,438 1702,788 3323,788l45161 0c1026,0 1898,-141 2377,-382 351,-183 448,-400 323,-608l-6384 -9084c-314,-434 -1745,-769 -3331,-769l-44119 0c-1019,0 -1872,133 -2367,384 -335,162 -455,385 -335,581l5352 9090zm58606 10c361,508 1999,778 3368,778l45172 0c1029,0 1887,-141 2356,-382 318,-194 406,-413 245,-630l-7583 -9079c-417,-501 -2066,-752 -3362,-752l-44145 0c-1023,0 -1870,133 -2325,384 -364,172 -469,389 -306,602l6580 9079zm-116479 -34c217,462 1621,812 3263,812l44888 0c1032,0 1900,-141 2401,-371 340,-179 473,-394 361,-607l-5150 -9068c-266,-456 -1646,-797 -3239,-797l-43880 0c-1004,0 -1851,133 -2351,363 -368,172 -490,372 -422,582l4129 9086zm-58238 -22c157,473 1537,834 3196,834l44889 0c1025,0 1904,-137 2409,-371 357,-168 503,-368 419,-583l-3931 -9077c-204,-471 -1582,-812 -3196,-812l-43863 0c-1008,0 -1870,122 -2388,352 -357,166 -535,366 -458,583l2923 9074zm236708 834l45165 0c1047,0 1907,-141 2341,-389 337,-204 411,-423 189,-644l-8793 -9082c-456,-477 -2109,-728 -3400,-728l-44126 0c-1025,0 -1876,133 -2332,384 -339,179 -408,413 -223,624l7772 9075c445,507 2038,760 3407,760zm-870196 0l96135 0c1334,0 2990,-266 3419,-743l8134 -9082c182,-221 120,-455 -219,-634 -452,-251 -1290,-384 -2287,-384l-93977 0c-1279,0 -2921,247 -3450,713l-10211 9086c-250,210 -200,451 118,645 440,258 1281,399 2338,399zm883385 -23052c-991,0 -1815,151 -2234,396 -346,195 -427,421 -217,640l8469 9086c462,483 2093,741 3407,741l19974 0c791,0 1393,161 1481,226l11140 11230c452,484 2088,733 3442,733l54597 0c1059,0 1887,-141 2317,-399 326,-194 372,-435 116,-645l-23889 -21273c-468,-423 -1926,-735 -3413,-735l-75190 0zm-776127 22670c451,241 1302,382 2338,382l45179 0c1345,0 2990,-270 3368,-778l6930 -9064c161,-215 62,-445 -278,-617 -462,-251 -1313,-384 -2321,-384l-44138 0c-1313,0 -2949,251 -3362,735l-7957 9096c-172,217 -88,436 241,630zm106144 382c1621,0 3046,-337 3336,-788l5711 -9075c146,-211 17,-434 -333,-596 -480,-251 -1342,-384 -2350,-384l-44125 0c-1565,0 -2985,335 -3325,769l-6740 9084c-147,202 -46,425 298,608 475,241 1337,382 2373,382l45155 0zm353998 -361c368,-148 568,-350 536,-539l-1550 -9086c-84,-505 -1391,-857 -3061,-857l-43880 0c-952,0 -1866,122 -2401,341 -378,149 -584,351 -574,544l525 9086c28,501 1345,872 3073,872l44910 0c969,0 1887,-137 2422,-361zm10969 361l44903 0c1015,0 1887,-137 2429,-365 361,-163 533,-363 466,-574l-2734 -9070c-148,-482 -1491,-834 -3134,-834l-43880 0c-963,0 -1855,122 -2383,352 -379,155 -557,355 -518,555l1721 9087c101,484 1443,849 3130,849zm246638 -12569c333,-172 438,-400 255,-624l-7075 -9085c-346,-434 -1748,-774 -3298,-774l-42872 0c-980,0 -1803,151 -2282,385 -351,178 -469,400 -316,617l6068 9081c294,449 1702,780 3280,780l43912 0c1004,0 1859,-135 2328,-380zm-56732 13c353,-185 447,-398 318,-609l-5829 -9085c-301,-452 -1685,-802 -3228,-802l-42616 0c-976,0 -1815,151 -2296,385 -355,172 -484,378 -389,595l4828 9086c251,451 1635,797 3228,797l43659 0c991,0 1837,-135 2325,-367zm-56673 0c350,-175 490,-381 385,-587l-4643 -9092c-234,-456 -1588,-817 -3175,-817l-42612 0c-973,0 -1818,140 -2321,368 -355,172 -512,384 -434,591l3630 9085c200,467 1541,819 3168,819l43657 0c993,0 1844,-135 2345,-367zm-240882 -11826l42445 0c935,0 1779,-117 2314,-346 392,-145 596,-334 585,-546l-561 -9714c-34,-490 -1298,-885 -2917,-885l-41337 0c-1610,0 -2895,395 -2906,885l-529 9720c-13,206 200,395 596,540 533,229 1375,346 2310,346zm-112519 -357c507,230 1341,357 2311,357l42433 0c1636,0 2934,-364 3033,-841l2016 -9726c43,-200 -150,-419 -518,-574 -522,-217 -1341,-350 -2265,-350l-41361 0c-1567,0 -2866,350 -3022,851l-3089 9711c-73,211 94,411 462,572zm7059 -14780l40886 0c1569,0 2871,-374 2977,-853l1147 -5511c22,-202 -161,-413 -535,-578 -511,-230 -1320,-346 -2209,-346l-40239 0c-1548,0 -2818,367 -2967,829l-1766 5529c-67,206 107,412 490,591 496,221 1298,339 2216,339zm50349 15137l42438 0c1638,0 2936,-368 2969,-869l741 -9715c0,-213 -202,-406 -580,-563 -540,-222 -1369,-344 -2270,-344l-41354 0c-1570,0 -2879,395 -2969,857l-1814 9727c-32,193 157,401 529,550 529,230 1375,357 2310,357zm2741 -15137l40907 0c1593,0 2857,-397 2900,-864l402 -5528c28,-195 -172,-389 -563,-557 -523,-223 -1331,-339 -2221,-339l-40245 0c-1548,0 -2818,378 -2923,857l-1019 5524c-45,215 148,400 518,568 533,221 1348,339 2244,339zm96216 40856l-279629 0c-1625,0 -3046,340 -3319,802l-5290 9081c-126,211 0,417 340,591 503,239 1404,383 2450,383l285972 0c1013,0 1965,-144 2511,-357 378,-155 574,-344 561,-544l-499 -9081c-51,-494 -1382,-875 -3097,-875zm-242846 -1337c1620,0 3035,-350 3250,-795l4488 -9090c122,-223 -22,-412 -390,-595 -490,-230 -1358,-363 -2349,-363l-43904 0c-1592,0 -2983,341 -3262,786l-5494 9079c-129,200 0,417 339,596 484,241 1359,382 2395,382l44927 0zm40434 -39519l40897 0c1554,0 2850,-339 3022,-831l1870 -5509c80,-226 -88,-426 -460,-587 -496,-232 -1298,-361 -2188,-361l-40245 0c-1520,0 -2829,361 -3035,817l-2483 5517c-105,213 52,426 419,602 471,234 1290,352 2203,352zm-95259 16467c-1539,0 -2913,350 -3231,802l-5990 9075c-138,221 -45,434 318,619 466,232 1324,367 2326,367l43675 0c1576,0 2967,-346 3229,-791l4993 -9092c112,-217 -22,-423 -378,-595 -490,-234 -1320,-385 -2277,-385l-42665 0zm86206 -1694c507,237 1348,364 2317,364l42416 0c1600,0 2941,-357 3085,-824l3308 -9732c71,-194 -91,-413 -452,-585 -496,-217 -1330,-350 -2250,-350l-41348 0c-1552,0 -2878,350 -3093,819l-4389 9715c-88,217 56,428 406,593zm-55444 -606c-120,213 0,424 368,606 479,230 1304,364 2272,364l42433 0c1569,0 2930,-346 3140,-802l4598 -9726c90,-211 -56,-422 -400,-589 -483,-230 -1309,-374 -2250,-374l-41335 0c-1520,0 -2889,344 -3158,802l-5668 9719zm11398 -14167l40897 0c1530,0 2865,-339 3072,-808l2611 -5517c105,-224 -45,-428 -417,-596 -468,-238 -1264,-367 -2173,-367l-40239 0c-1502,0 -2822,346 -3091,795l-3222 5518c-127,217 0,440 361,619 467,227 1269,356 2201,356zm111499 26494l2577 -9090c69,-202 -116,-402 -484,-576 -511,-221 -1356,-361 -2310,-361l-42662 0c-1599,0 -2934,361 -3123,840l-3592 9069c-81,213 69,430 441,597 507,222 1358,357 2349,357l43674 0c1655,0 2992,-352 3130,-836zm-85429 13025l44934 0c1659,0 3028,-350 3200,-834l3280 -9068c82,-223 -77,-423 -440,-589 -518,-230 -1397,-352 -2378,-352l-43897 0c-1610,0 -2990,341 -3207,797l-4288 9092c-99,194 45,404 391,583 501,230 1387,371 2405,371zm28772 -13008l3762 -9081c101,-211 -43,-423 -411,-595 -500,-228 -1343,-368 -2310,-368l-42655 0c-1561,0 -2936,361 -3171,817l-4797 9081c-112,217 21,423 378,598 501,232 1348,367 2339,367l43680 0c1597,0 2979,-352 3185,-819zm29568 13008l44920 0c1698,0 3052,-361 3158,-849l2072 -9077c60,-204 -136,-410 -503,-565 -523,-230 -1397,-352 -2382,-352l-43902 0c-1640,0 -2985,352 -3153,823l-3084 9081c-56,206 94,411 447,574 533,228 1419,365 2427,365zm196505 -12541c391,-151 580,-351 563,-551l-1032 -9085c-36,-479 -1363,-875 -2983,-875l-42655 0c-1664,0 -2951,396 -2951,890l17 9088c0,494 1320,885 3007,885l43678 0c959,0 1840,-131 2356,-352zm-79823 12541l44929 0c978,0 1887,-137 2431,-350 385,-148 581,-344 581,-539l-318 -9080c-22,-490 -1359,-874 -3025,-874l-43895 0c-1659,0 -2990,384 -3028,864l-692 9090c0,184 184,391 556,539 546,213 1470,350 2461,350zm-32929 -13049l1380 -9079c35,-213 -150,-400 -546,-563 -528,-221 -1375,-361 -2332,-361l-42644 0c-1627,0 -2940,368 -3069,858l-2375 9074c-63,207 105,424 483,579 529,221 1380,352 2347,352l43700 0c1668,0 2983,-357 3056,-860zm44248 -26470l40880 0c917,0 1743,-118 2272,-335 374,-157 595,-357 567,-557l-312 -5517c-34,-494 -1274,-879 -2861,-879l-40230 0c-1569,0 -2829,395 -2872,879l-277 5517c-13,200 189,400 578,557 533,217 1359,335 2255,335zm12426 26445l161 -9088c0,-194 -200,-389 -589,-529 -552,-232 -1399,-361 -2345,-361l-42655 0c-1631,0 -2945,396 -3003,875l-1173 9085c-32,200 150,400 524,551 540,221 1425,352 2388,352l43670 0c1674,0 2994,-380 3022,-885zm-82095 13074l44927 0c1722,0 3052,-371 3102,-872l868 -9079c11,-196 -172,-402 -561,-551 -548,-219 -1403,-341 -2383,-341l-43926 0c-1648,0 -2996,352 -3091,840l-1880 9086c-28,200 144,389 518,556 543,224 1429,361 2426,361zm253121 -12546c367,-167 529,-367 438,-597l-3424 -9069c-185,-479 -1526,-840 -3123,-840l-42633 0c-942,0 -1793,140 -2304,361 -368,174 -546,374 -490,576l2426 9090c127,484 1453,836 3095,836l43670 0c967,0 1842,-135 2345,-357zm180862 357l43918 0c1008,0 1851,-146 2283,-391 357,-178 413,-411 217,-641l-8284 -9068c-382,-434 -1825,-763 -3340,-763l-42872 0c-991,0 -1816,151 -2257,396 -344,184 -438,406 -266,619l7278 9089c333,435 1769,759 3323,759zm-822159 0l69564 0c1298,0 2918,-258 3389,-741l8643 -9086c211,-219 133,-445 -189,-640 -447,-245 -1264,-396 -2255,-396l-67921 0c-1475,0 -2941,312 -3413,735l-10204 9079c-251,230 -195,458 127,658 419,245 1253,391 2259,391zm186900 -769l6214 -9092c154,-217 36,-439 -325,-606 -456,-245 -1292,-396 -2270,-396l-42878 0c-1526,0 -2947,335 -3297,774l-7238 9085c-161,213 -83,452 263,624 466,245 1307,380 2321,380l43902 0c1582,0 3000,-331 3308,-769zm-56970 10l7426 -9068c172,-230 90,-456 -260,-640 -434,-245 -1271,-396 -2261,-396l-42875 0c-1513,0 -2944,329 -3344,763l-8441 9068c-210,230 -133,463 200,641 445,245 1288,391 2293,391l43911 0c1558,0 2983,-324 3351,-759zm454691 407c372,-155 540,-372 508,-579l-2238 -9068c-125,-496 -1436,-864 -3039,-864l-42653 0c-957,0 -1786,140 -2326,361 -395,163 -580,350 -546,553l1208 9089c71,493 1391,860 3068,860l43654 0c991,0 1836,-131 2364,-352zm35614 -23332c-929,0 -1750,140 -2249,350 -367,172 -539,391 -455,585l3338 9732c163,467 1483,824 3080,824l42416 0c953,0 1782,-127 2287,-364 368,-165 508,-376 419,-593l-4421 -9715c-221,-469 -1541,-819 -3084,-819l-41331 0zm-107331 0c-907,0 -1747,122 -2270,344 -374,157 -580,350 -565,576l759 9702c43,501 1330,869 2968,869l42417 0c952,0 1786,-127 2321,-357 378,-149 550,-357 501,-550l-1827 -9727c-95,-462 -1415,-857 -2973,-857l-41331 0zm53652 0c-912,0 -1733,133 -2259,350 -351,155 -549,374 -501,574l2042 9726c111,477 1397,841 3035,841l42405 0c967,0 1797,-127 2315,-357 374,-161 546,-361 458,-572l-3119 -9711c-168,-501 -1459,-851 -3028,-851l-41348 0zm107352 0c-946,0 -1769,144 -2227,374 -378,167 -533,378 -434,589l4632 9726c230,456 1577,802 3144,802l42423 0c959,0 1788,-134 2268,-364 356,-182 477,-393 356,-606l-5706 -9719c-262,-458 -1621,-802 -3134,-802l-41322 0zm104987 395c-361,168 -462,389 -307,606l7250 9727c322,429 1732,763 3267,763l42668 0c973,0 1803,-134 2237,-368 340,-196 424,-423 241,-641l-8335 -9726c-372,-427 -1765,-756 -3250,-756l-41572 0c-950,0 -1752,144 -2199,395zm117642 10360c423,430 1865,736 3363,736l42649 0c991,0 1782,-134 2209,-385 336,-200 368,-439 119,-662l-10919 -9720c-456,-406 -1903,-724 -3356,-724l-41554 0c-974,0 -1765,144 -2182,395 -324,183 -395,424 -172,645l9843 9715zm-63657 -10360c-340,179 -424,413 -239,630l8551 9709c367,423 1788,757 3312,757l42657 0c980,0 1814,-134 2227,-385 335,-194 395,-417 178,-649l-9638 -9711c-400,-428 -1825,-746 -3301,-746l-41557 0c-959,0 -1750,144 -2190,395zm-819250 11096l44350 0c1490,0 2939,-306 3349,-736l9810 -9715c217,-221 140,-462 -183,-645 -419,-251 -1214,-395 -2171,-395l-43190 0c-1463,0 -2908,318 -3353,724l-10927 9720c-252,223 -217,462 116,662 412,251 1210,385 2199,385zm711274 -11117c-367,183 -483,400 -356,612l5958 9714c262,445 1646,791 3211,791l42651 0c969,0 1799,-134 2265,-368 357,-183 458,-411 295,-630l-7027 -9709c-316,-445 -1709,-784 -3205,-784l-41571 0c-946,0 -1754,144 -2221,374zm-538967 410l-7010 9709c-146,219 -51,447 299,630 452,234 1288,368 2268,368l42668 0c1547,0 2931,-346 3204,-791l5920 -9714c116,-212 11,-440 -361,-612 -458,-230 -1270,-374 -2216,-374l-41578 0c-1503,0 -2872,339 -3194,784zm-108045 -38l-9592 9711c-211,232 -138,455 185,649 423,251 1235,385 2231,385l42657 0c1498,0 2944,-334 3312,-757l8507 -9709c172,-217 106,-451 -238,-630 -441,-251 -1253,-395 -2201,-395l-41576 0c-1447,0 -2872,318 -3285,746zm45968 10377c440,234 1266,368 2246,368l42661 0c1524,0 2938,-334 3267,-763l7192 -9727c164,-217 63,-438 -288,-606 -455,-251 -1264,-395 -2216,-395l-41559 0c-1483,0 -2895,329 -3262,756l-8284 9726c-183,218 -84,445 243,641zm491809 -15600c164,492 1449,831 3001,831l40880 0c930,0 1738,-118 2216,-352 363,-176 496,-389 412,-602l-2510 -5517c-207,-456 -1526,-817 -3035,-817l-40211 0c-914,0 -1694,129 -2193,350 -387,172 -535,372 -457,602l1897 5505zm53011 23c217,469 1544,808 3080,808l40856 0c937,0 1722,-129 2195,-356 361,-179 483,-402 361,-619l-3239 -5518c-263,-449 -1587,-795 -3074,-795l-40211 0c-924,0 -1709,129 -2188,367 -368,168 -518,385 -406,596l2626 5517zm-156154 808l40875 0c914,0 1726,-118 2248,-339 364,-168 564,-353 525,-568l-1058 -5524c-79,-479 -1360,-857 -2919,-857l-40200 0c-885,0 -1687,116 -2233,346 -372,161 -595,355 -585,550l441 5528c56,484 1320,864 2906,864zm53073 0l40873 0c924,0 1733,-118 2229,-339 383,-179 544,-396 466,-591l-1771 -5529c-161,-462 -1431,-829 -2966,-829l-40211 0c-909,0 -1711,129 -2205,346 -396,165 -581,376 -542,578l1169 5511c101,479 1415,853 2958,853zm155643 -791c271,456 1618,791 3134,791l41113 0c942,0 1737,-129 2199,-356 340,-183 452,-419 301,-641l-3998 -5522c-322,-430 -1681,-769 -3157,-769l-40439 0c-924,0 -1722,135 -2177,378 -368,172 -501,385 -368,602l3392 5517zm53322 26c340,437 1698,765 3201,765l41096 0c948,0 1744,-135 2180,-374 331,-178 425,-417 226,-629l-4721 -5526c-356,-430 -1736,-759 -3206,-759l-40435 0c-931,0 -1709,135 -2154,378 -374,172 -451,406 -296,617l4109 5528zm53316 17c374,430 1789,748 3259,748l41103 0c946,0 1741,-135 2158,-374 335,-189 397,-434 174,-651l-5451 -5524c-417,-421 -1825,-739 -3267,-739l-40445 0c-920,0 -1705,135 -2146,378 -333,183 -410,417 -227,654l4842 5508zm-797313 748l42728 0c1457,0 2854,-318 3280,-735l5571 -5511c228,-225 172,-468 -167,-664 -422,-243 -1191,-378 -2133,-378l-42036 0c-1420,0 -2835,307 -3290,722l-6193 5520c-260,238 -217,470 112,649 413,262 1180,397 2128,397zm161756 0l41111 0c1516,0 2870,-335 3143,-791l3333 -5517c151,-217 33,-430 -335,-602 -460,-243 -1268,-378 -2175,-378l-40445 0c-1477,0 -2836,339 -3164,769l-3968 5522c-174,222 -58,458 316,641 434,227 1236,356 2184,356zm-53381 0l41127 0c1485,0 2850,-328 3166,-765l4092 -5528c179,-211 63,-445 -283,-617 -439,-243 -1241,-378 -2161,-378l-40445 0c-1453,0 -2829,329 -3196,759l-4705 5526c-200,212 -116,451 234,629 447,239 1238,374 2171,374z"/>
    <path class="fil2 str0" d="M869673 756382c-105,-256 -1135,-473 -2237,-473l-45400 0c-1116,0 -1943,217 -1855,473l3140 9079c84,258 1096,475 2238,475l46410 0c1152,0 1981,-217 1852,-475l-4148 -9079zm58993 0c-157,-256 -1200,-473 -2317,-473l-45385 0c-1113,0 -1922,217 -1799,473l4355 9079c122,258 1169,475 2299,475l46415 0c1152,0 1954,-217 1792,-475l-5360 -9079zm58977 0c-185,-256 -1253,-473 -2360,-473l-45378 0c-1131,0 -1900,217 -1760,473l5573 9079c155,258 1225,475 2366,475l46408 0c1157,0 1915,-217 1748,-475l-6597 -9079zm59008 0c-241,-256 -1326,-473 -2444,-473l-45380 0c-1122,0 -1870,217 -1681,473l6770 9079c190,258 1292,475 2440,475l46406 0c1154,0 1889,-217 1672,-475l-7783 -9079zm-238150 -473l-45383 0c-1126,0 -1988,217 -1928,473l1928 9079c37,258 1024,475 2169,475l46414 0c1138,0 2010,-217 1926,-475l-2951 -9079c-75,-256 -1079,-473 -2175,-473zm366323 9552l-10194 -9079c-295,-256 -1451,-473 -2560,-473l-45396 0c-1107,0 -1814,217 -1541,473l9174 9079c268,258 1425,475 2566,475l46410 0c1152,0 1836,-217 1541,-475zm-69183 -9079c-262,-256 -1393,-473 -2512,-473l-45379 0c-1117,0 -1852,217 -1607,473l7965 9079c235,258 1376,475 2500,475l46414 0c1142,0 1860,-217 1615,-475l-8996 -9079zm-886419 -473l-45374 0c-1107,0 -2276,217 -2566,473l-10171 9079c-301,258 406,475 1554,475l46397 0c1146,0 2289,-217 2560,-475l9158 -9079c256,-256 -434,-473 -1558,-473zm530355 0l-45393 0c-1126,0 -2018,217 -1995,473l718 9079c24,258 980,475 2122,475l46407 0c1155,0 2045,-217 1989,-475l-1726 -9079c-56,-256 -1019,-473 -2122,-473zm-471420 0l-45396 0c-1102,0 -2237,217 -2489,473l-8963 9079c-262,258 469,475 1610,475l46408 0c1141,0 2265,-217 2500,-475l7937 -9079c237,-256 -507,-473 -1607,-473zm58924 0l-45379 0c-1115,0 -2227,217 -2446,473l-7748 9079c-224,258 528,475 1674,475l46404 0c1158,0 2239,-217 2433,-475l6725 -9079c206,-256 -539,-473 -1663,-473zm353562 0l-281082 0c-1120,0 -2173,217 -2324,473l-5326 9079c-161,258 662,475 1803,475l287453 0c1152,0 2074,-217 2053,-475l-522 -9079c-22,-256 -959,-473 -2055,-473zm-294639 0l-45384 0c-1109,0 -2178,217 -2360,473l-6548 9079c-189,258 613,475 1731,475l46420 0c1142,0 2206,-217 2354,-475l5528 -9079c172,-256 -640,-473 -1741,-473zm530817 -2633c162,256 1202,473 2322,473l45140 0c1117,0 1876,-217 1691,-473l-6390 -9085c-178,-269 -1214,-473 -2296,-473l-44140 0c-1081,0 -1833,204 -1694,473l5367 9085zm58589 0c178,256 1257,473 2373,473l45161 0c1096,0 1831,-217 1614,-473l-7600 -9085c-221,-269 -1279,-473 -2382,-473l-44120 0c-1092,0 -1827,204 -1621,473l6575 9085zm-117156 0c123,256 1120,473 2227,473l45179 0c1107,0 1891,-217 1736,-473l-5171 -9085c-136,-269 -1148,-473 -2244,-473l-44110 0c-1103,0 -1894,204 -1786,473l4169 9085zm-56396 473l45162 0c1109,0 1921,-217 1803,-473l-3959 -9085c-110,-269 -1107,-473 -2182,-473l-44136 0c-1081,0 -1893,204 -1810,473l2939 9085c83,256 1064,473 2183,473zm232119 -473c230,256 1337,473 2422,473l45172 0c1107,0 1827,-217 1544,-473l-8774 -9085c-263,-269 -1369,-473 -2438,-473l-44144 0c-1079,0 -1789,204 -1552,473l7770 9085zm-764333 -9558l-93942 0c-1098,0 -2233,204 -2530,473l-10192 9085c-284,256 378,473 1481,473l96151 0c1109,0 2216,-217 2455,-473l8129 -9085c234,-269 -462,-473 -1552,-473zm778457 -11708l8490 9079c251,262 1337,469 2422,469l19981 0c1068,0 2184,221 2444,483l1186 1198c239,262 684,683 940,952l6270 6334c273,273 696,707 945,959l1778 1792c266,256 1373,473 2500,473l54590 0c1116,0 1776,-217 1494,-473l-2016 -1792c-301,-252 -774,-686 -1075,-959l-7131 -6334c-291,-269 -764,-690 -1058,-952l-1348 -1198c-277,-262 -707,-619 -862,-773 -195,-166 -586,-512 -874,-778l-9533 -8480c-288,-279 -1395,-486 -2465,-486l-75191 0c-1062,0 -1737,207 -1487,486zm-774016 21739l45161 0c1115,0 2190,-217 2394,-473l6932 -9085c172,-269 -535,-473 -1627,-473l-44131 0c-1079,0 -2158,204 -2393,473l-7933 9085c-224,256 473,473 1597,473zm164713 -473l4486 -9085c150,-269 -651,-473 -1724,-473l-44138 0c-1085,0 -2100,204 -2266,473l-5523 9085c-162,256 629,473 1738,473l45162 0c1117,0 2130,-217 2265,-473zm-60906 473c1101,0 2143,-217 2305,-473l5728 -9085c174,-269 -585,-473 -1670,-473l-44136 0c-1079,0 -2132,204 -2328,473l-6732 9085c-183,256 559,473 1672,473l45161 0zm72117 0l45161 0c1116,0 2094,-217 2178,-473l3319 -9085c88,-269 -708,-473 -1817,-473l-44125 0c-1075,0 -2076,204 -2192,473l-4310 9085c-133,256 684,473 1786,473zm281665 -473l-1556 -9085c-43,-269 -957,-473 -2053,-473l-44127 0c-1090,0 -1969,204 -1937,473l512 9085c23,256 948,473 2044,473l45178 0c1107,0 1986,-217 1939,-473zm11540 473l45155 0c1120,0 1947,-217 1887,-473l-2760 -9085c-79,-269 -1038,-473 -2128,-473l-44125 0c-1081,0 -1932,204 -1883,473l1737 9085c56,256 1001,473 2117,473zm-117287 0l45151 0c1115,0 2033,-217 2027,-473l-344 -9085c0,-269 -903,-473 -1988,-473l-44126 0c-1098,0 -1994,204 -2016,473l-685 9085c-18,256 874,473 1981,473zm-58638 0l45179 0c1096,0 2031,-217 2055,-473l859 -9085c41,-269 -827,-473 -1913,-473l-44125 0c-1085,0 -2033,204 -2089,473l-1898 9085c-43,256 817,473 1932,473zm-58640 0l45168 0c1096,0 2070,-217 2109,-473l2104 -9085c56,-269 -780,-473 -1866,-473l-44125 0c-1079,0 -2055,204 -2160,473l-3095 9085c-88,256 752,473 1865,473zm481833 -12660l-7076 -9079c-213,-279 -1243,-486 -2304,-486l-42875 0c-1057,0 -1775,207 -1603,486l6063 9079c172,262 1202,469 2287,469l43908 0c1086,0 1793,-207 1600,-469zm-56953 0l-5892 -9079c-154,-279 -1152,-486 -2216,-486l-42878 0c-1058,0 -1804,207 -1675,486l4871 9079c133,262 1141,469 2216,469l43904 0c1079,0 1837,-207 1670,-469zm-56959 0l-4665 -9079c-133,-279 -1102,-486 -2160,-486l-42872 0c-1070,0 -1850,207 -1739,486l3648 9079c116,262 1085,469 2164,469l43915 0c1057,0 1844,-207 1709,-469zm-56958 0l-3441 -9079c-105,-279 -1053,-486 -2110,-486l-42872 0c-1071,0 -1862,207 -1810,486l2454 9079c67,262 1008,469 2094,469l43904 0c1081,0 1893,-207 1781,-469zm227829 0l-8308 -9079c-217,-279 -1298,-486 -2345,-486l-42878 0c-1058,0 -1758,207 -1548,486l7283 9079c202,262 1253,469 2360,469l43880 0c1115,0 1792,-207 1556,-469zm-869334 469l69557 0c1086,0 2160,-207 2403,-469l8665 -9079c245,-279 -424,-486 -1471,-486l-67932 0c-1044,0 -2170,207 -2448,486l-10212 9079c-294,262 346,469 1438,469zm413688 -469l1393 -9079c38,-279 -796,-486 -1849,-486l-42874 0c-1058,0 -1986,207 -2042,486l-2416 9079c-69,262 770,469 1853,469l43904 0c1074,0 2009,-207 2031,-469zm-210369 -9565c-1062,0 -2076,207 -2244,486l-6027 9079c-189,262 561,469 1651,469l43899 0c1090,0 2092,-207 2234,-469l5014 -9079c151,-279 -589,-486 -1642,-486l-42885 0zm96470 9565l3796 -9079c118,-279 -662,-486 -1714,-486l-42867 0c-1069,0 -2049,207 -2182,486l-4810 9079c-146,262 619,469 1708,469l43904 0c1086,0 2049,-207 2165,-469zm-113906 0l6214 -9079c193,-279 -518,-486 -1586,-486l-42874 0c-1054,0 -2100,207 -2305,486l-7243 9079c-194,262 514,469 1586,469l43904 0c1103,0 2115,-207 2304,-469zm-56953 0l7433 -9079c217,-279 -473,-486 -1537,-486l-42868 0c-1051,0 -2115,207 -2370,486l-8441 9079c-239,262 434,469 1520,469l43903 0c1075,0 2139,-207 2360,-469zm455623 0l-2231 -9079c-73,-279 -998,-486 -2062,-486l-42861 0c-1068,0 -1889,207 -1855,486l1219 9079c45,262 946,469 2037,469l43898 0c1085,0 1921,-207 1855,-469zm-227829 0l2618 -9079c60,-279 -718,-486 -1786,-486l-42891 0c-1047,0 -1993,207 -2105,486l-3602 9079c-112,262 701,469 1775,469l43904 0c1079,0 2027,-207 2087,-469zm170869 0l-1029 -9079c-28,-279 -924,-486 -1965,-486l-42885 0c-1057,0 -1925,207 -1925,486l27 9079c0,262 875,469 1982,469l43887 0c1079,0 1932,-207 1908,-469zm-56946 0l168 -9079c15,-279 -847,-486 -1905,-486l-42867 0c-1064,0 -1965,207 -1995,486l-1184 9079c-39,262 819,469 1880,469l43932 0c1086,0 1971,-207 1971,-469zm148556 -21913l3366 9715c84,269 1025,484 2079,484l42655 0c1042,0 1816,-215 1680,-484l-4429 -9715c-144,-260 -1069,-477 -2079,-477l-41574 0c-1025,0 -1782,217 -1698,477zm-106256 -477c-1008,0 -1844,217 -1809,477l763 9715c21,269 896,484 1953,484l42658 0c1055,0 1870,-215 1824,-484l-1865 -9715c-43,-260 -929,-477 -1950,-477l-41574 0zm53978 0c-1016,0 -1807,217 -1745,477l2064 9715c49,269 958,484 2003,484l42657 0c1047,0 1848,-215 1760,-484l-3146 -9715c-84,-260 -998,-477 -2014,-477l-41579 0zm106325 477l4654 9715c111,269 1085,484 2132,484l42657 0c1051,0 1780,-215 1636,-484l-5739 -9715c-162,-260 -1127,-477 -2156,-477l-41570 0c-1019,0 -1754,217 -1614,477zm108059 0l7237 9715c211,269 1225,484 2279,484l42659 0c1064,0 1715,-215 1487,-484l-8322 -9715c-213,-260 -1247,-477 -2268,-477l-41559 0c-1036,0 -1708,217 -1513,477zm117902 9715c285,269 1347,484 2405,484l42663 0c1047,0 1664,-215 1363,-484l-10917 -9715c-283,-260 -1369,-477 -2401,-477l-41563 0c-1021,0 -1644,217 -1382,477l9832 9715zm-63879 -9715l8553 9715c238,269 1285,484 2332,484l42657 0c1045,0 1705,-215 1425,-484l-9614 -9715c-252,-260 -1309,-477 -2328,-477l-41572 0c-1027,0 -1674,217 -1453,477zm-821698 10199l44338 0c1057,0 2121,-215 2388,-484l9803 -9715c250,-260 -367,-477 -1386,-477l-43207 0c-1019,0 -2100,217 -2395,477l-10899 9715c-306,269 301,484 1358,484zm713639 -10199l5945 9715c172,269 1172,484 2206,484l42668 0c1053,0 1741,-215 1558,-484l-7031 -9715c-189,-260 -1180,-477 -2205,-477l-41570 0c-1031,0 -1726,217 -1571,477zm-490395 10199l42663 0c1069,0 2016,-215 2143,-484l4611 -9715c133,-260 -609,-477 -1627,-477l-41563 0c-1032,0 -1993,217 -2150,477l-5696 9715c-157,269 585,484 1619,484zm-55393 0l42668 0c1051,0 2038,-215 2197,-484l5915 -9715c159,-260 -552,-477 -1571,-477l-41565 0c-1023,0 -2014,217 -2203,477l-6999 9715c-178,269 522,484 1558,484zm-102636 -10199l-9578 9715c-260,269 381,484 1438,484l42645 0c1053,0 2104,-215 2338,-484l8505 -9715c213,-260 -432,-477 -1453,-477l-41556 0c-1021,0 -2079,217 -2339,477zm47248 10199l42655 0c1054,0 2079,-215 2268,-484l7203 -9715c206,-260 -484,-477 -1496,-477l-41583 0c-1001,0 -2033,217 -2254,477l-8284 9715c-241,269 434,484 1491,484zm221570 0l42678 0c1047,0 1933,-215 1999,-484l2021 -9715c56,-260 -733,-477 -1761,-477l-41556 0c-1032,0 -1928,217 -2012,477l-3112 9715c-106,269 689,484 1743,484zm55405 0l42661 0c1043,0 1939,-215 1939,-484l733 -9715c17,-260 -812,-477 -1818,-477l-41572 0c-1023,0 -1894,217 -1950,477l-1818 9715c-41,269 761,484 1825,484zm-110787 0l42655 0c1047,0 1982,-215 2072,-484l3334 -9715c79,-260 -686,-477 -1702,-477l-41572 0c-1023,0 -1971,217 -2076,477l-4415 9715c-112,269 647,484 1704,484zm166181 0l42649 0c1064,0 1900,-215 1876,-484l-550 -9715c-21,-260 -875,-477 -1891,-477l-41555 0c-1019,0 -1876,217 -1900,477l-529 9715c-15,269 847,484 1900,484zm160871 -15130l41113 0c1023,0 1744,-223 1621,-496l-2528 -5511c-111,-267 -1019,-486 -2027,-486l-40441 0c-995,0 -1743,219 -1648,486l1900 5511c112,273 991,496 2010,496zm53378 0l41103 0c1036,0 1713,-223 1575,-496l-3273 -5511c-144,-267 -1086,-486 -2094,-486l-40441 0c-988,0 -1708,219 -1579,486l2643 5511c144,273 1053,496 2066,496zm-160129 0l41101 0c1002,0 1804,-223 1743,-496l-1051 -5511c-41,-267 -909,-486 -1900,-486l-40445 0c-1004,0 -1799,219 -1765,486l424 5511c38,273 879,496 1893,496zm53376 0l41121 0c991,0 1764,-223 1687,-496l-1803 -5511c-73,-267 -970,-486 -1965,-486l-40441 0c-984,0 -1775,219 -1704,486l1169 5511c56,273 935,496 1936,496zm160142 0l41092 0c1023,0 1688,-223 1503,-496l-3996 -5511c-185,-267 -1159,-486 -2149,-486l-40452 0c-991,0 -1670,219 -1516,486l3371 5511c161,273 1128,496 2147,496zm53368 0l41113 0c1013,0 1649,-223 1432,-496l-4727 -5511c-240,-267 -1231,-486 -2222,-486l-40446 0c-1001,0 -1652,219 -1457,486l4108 5511c200,273 1186,496 2199,496zm51119 -496c228,273 1236,496 2255,496l41113 0c1013,0 1625,-223 1370,-496l-5456 -5511c-262,-267 -1294,-486 -2299,-486l-40435 0c-987,0 -1614,219 -1397,486l4849 5511zm-800015 496l42715 0c1004,0 2055,-223 2328,-496l5558 -5511c266,-267 -335,-486 -1337,-486l-42034 0c-991,0 -2048,219 -2332,486l-6218 5511c-284,273 294,496 1320,496zm161749 0l41092 0c1023,0 1978,-223 2143,-496l3358 -5511c150,-267 -542,-486 -1527,-486l-40445 0c-997,0 -1967,219 -2149,486l-3970 5511c-189,273 490,496 1498,496zm-53378 0l41096 0c1008,0 1993,-223 2212,-496l4069 -5511c189,-267 -447,-486 -1460,-486l-40434 0c-1002,0 -2004,219 -2216,486l-4710 5511c-228,273 424,496 1443,496zm213509 0l41113 0c991,0 1877,-223 1933,-496l1156 -5511c39,-267 -724,-486 -1719,-486l-40448 0c-991,0 -1881,219 -1964,486l-1765 5511c-71,273 662,496 1694,496zm53371 0l41110 0c1019,0 1876,-223 1887,-496l400 -5511c21,-267 -774,-486 -1782,-486l-40422 0c-1010,0 -1855,219 -1917,486l-1029 5511c-50,273 741,496 1753,496zm-160124 0l41093 0c1025,0 1958,-223 2087,-496l2611 -5511c116,-267 -602,-486 -1599,-486l-40428 0c-998,0 -1937,219 -2098,486l-3224 5511c-168,273 550,496 1558,496zm213509 0l41097 0c1025,0 1827,-223 1803,-496l-305 -5511c-21,-267 -847,-486 -1838,-486l-40439 0c-997,0 -1827,219 -1837,486l-291 5511c-21,273 798,496 1810,496zm-160130 0l41092 0c1012,0 1915,-223 2003,-496l1889 -5511c95,-267 -636,-486 -1644,-486l-40434 0c-1009,0 -1916,219 -2038,486l-2504 5511c-108,273 610,496 1636,496z"/>
    <path class="fil1" d="M1099423 697508c0,1921 -9386,3463 -20967,3463 -11581,0 -20955,-1542 -20955,-3463 0,-1902 9374,-3450 20955,-3450 11581,0 20967,1548 20967,3450z"/>
    <path class="fil2" d="M1078456 700027c-11313,0 -18528,-1487 -18528,-2519 0,-1017 7215,-2493 18528,-2493 11297,0 18521,1476 18521,2493 0,1032 -7224,2519 -18521,2519z"/>
    <path class="fil2" d="M1078484 699481c-10479,0 -17153,-1371 -17153,-2323 0,-940 6674,-2309 17153,-2309 10467,0 17141,1369 17141,2309 0,952 -6674,2323 -17141,2323z"/>
   </g>
   <polygon class="fil2" points="355654,698221 978467,698221 978467,682312 355654,682312 "/>
   <polygon class="fil23" points="1054728,548876 1056826,548876 1056826,214515 1054728,214515 "/>
   <polygon class="fil23" points="253299,215560 1055775,215560 1055775,213462 253299,213462 "/>
   <polygon class="fil23" points="253299,282434 1055775,282434 1055775,280334 253299,280334 "/>
   <polygon class="fil23" points="253299,349302 1055775,349302 1055775,347215 253299,347215 "/>
   <polygon class="fil23" points="253299,416174 1055775,416174 1055775,414077 253299,414077 "/>
   <polygon class="fil23" points="253299,483049 1055775,483049 1055775,480949 253299,480949 "/>
   <polygon class="fil23" points="253299,549923 1055775,549923 1055775,547834 253299,547834 "/>
   <polygon class="fil23" points="252259,548876 254352,548876 254352,214515 252259,214515 "/>
   <polygon class="fil23" points="319131,548876 321224,548876 321224,214515 319131,214515 "/>
   <polygon class="fil23" points="385999,548876 388097,548876 388097,214515 385999,214515 "/>
   <polygon class="fil23" points="452873,548876 454978,548876 454978,214515 452873,214515 "/>
   <polygon class="fil23" points="519746,548876 521846,548876 521846,214515 519746,214515 "/>
   <polygon class="fil23" points="586614,548876 588714,548876 588714,214515 586614,214515 "/>
   <polygon class="fil23" points="653488,548876 655590,548876 655590,214515 653488,214515 "/>
   <polygon class="fil23" points="720360,548876 722454,548876 722454,214515 720360,214515 "/>
   <polygon class="fil23" points="787239,548876 789343,548876 789343,214515 787239,214515 "/>
   <polygon class="fil23" points="854103,548876 856207,548876 856207,214515 854103,214515 "/>
   <polygon class="fil23" points="920988,548876 923082,548876 923082,214515 920988,214515 "/>
   <polygon class="fil23" points="987860,548876 989947,548876 989947,214515 987860,214515 "/>
   <polygon class="fil24" points="283094,548876 320178,548876 320178,430889 283094,430889 "/>
   <polygon class="fil24" points="349979,548876 387046,548876 387046,390639 349979,390639 "/>
   <polygon class="fil24" points="550594,548876 587669,548876 587669,443829 550594,443829 "/>
   <polygon class="fil24" points="751209,548876 788288,548876 788288,363888 751209,363888 "/>
   <polygon class="fil25" points="263281,548876 300354,548876 300354,466963 263281,466963 "/>
   <polygon class="fil25" points="330153,548876 367219,548876 367219,439033 330153,439033 "/>
   <polygon class="fil25" points="397027,548876 434098,548876 434098,357796 397027,357796 "/>
   <polygon class="fil25" points="463895,548876 500977,548876 500977,393189 463895,393189 "/>
   <polygon class="fil25" points="530770,548876 567841,548876 567841,475956 530770,475956 "/>
   <polygon class="fil25" points="597642,548876 634715,548876 634715,429748 597642,429748 "/>
   <polygon class="fil25" points="664517,548876 701587,548876 701587,375205 664517,375205 "/>
   <polygon class="fil25" points="731389,548876 768466,548876 768466,420467 731389,420467 "/>
   <path class="fil26" d="M865131 459343l0 89533 37078 0 0 -89533 -37078 0zm-66874 89533l37077 0 0 -163804 -37077 0 0 163804z"/>
   <polygon class="fil25" points="932004,548876 969083,548876 969083,439033 932004,439033 "/>
   <polygon class="fil25" points="998878,548876 1035949,548876 1035949,349089 998878,349089 "/>
   <path class="fil27" d="M243156 547750c0,-455 -164,-829 -480,-1145 -307,-329 -696,-497 -1145,-497 -452,0 -836,168 -1148,497 -305,316 -466,690 -466,1145l0 8441c0,441 161,819 466,1148 312,309 696,466 1148,466 449,0 838,-157 1145,-466 316,-329 480,-707 480,-1148l0 -8441zm-1625 -3155c885,0 1625,299 2231,922 623,613 924,1361 924,2233l0 8441c0,858 -301,1599 -924,2212 -606,623 -1346,943 -2231,943 -875,0 -1614,-320 -2229,-943 -617,-613 -922,-1354 -922,-2212l0 -8441c0,-872 305,-1620 922,-2233 615,-623 1354,-922 2229,-922z"/>
   <path class="fil27" d="M279977 572180l0 -1541 2403 0 0 -10278c0,-280 -105,-501 -288,-701 -206,-196 -445,-290 -718,-290l-1397 0 0 -1533 1397 0c697,0 1299,248 1797,738 497,498 735,1096 735,1786l0 10278 2406 0 0 1541 -6335 0z"/>
   <path class="fil27" d="M347881 564838c-245,320 -363,666 -363,1045l0 4756 4765 0 0 1541 -6285 0 0 -6297c0,-806 269,-1507 791,-2105 536,-612 1198,-973 1993,-1083 56,0 168,-13 322,-17 157,-20 275,-35 351,-45 369,-84 675,-280 926,-579 262,-292 389,-646 389,-1042 0,-456 -163,-834 -494,-1141 -308,-336 -697,-501 -1148,-501l-3130 0 0 -1533 3130 0c875,0 1621,314 2244,944 606,613 911,1356 911,2231 0,802 -266,1505 -795,2111 -524,599 -1165,950 -1950,1040 -571,84 -812,112 -735,84 -371,94 -672,294 -922,591z"/>
   <path class="fil27" d="M415226 562611c435,0 824,-157 1155,-468 309,-340 466,-714 466,-1152 0,-445 -157,-832 -466,-1142 -331,-324 -720,-479 -1155,-479l-2944 0 0 -1533 2944 0c865,0 1593,308 2216,927 624,606 942,1358 942,2227 0,973 -374,1775 -1120,2415 746,645 1120,1453 1120,2444l0 3091c0,890 -322,1651 -957,2291 -653,630 -1414,948 -2295,948l-3061 0 0 -1541 3061 0c473,0 875,-167 1201,-496 346,-336 514,-740 514,-1202l0 -3091c0,-468 -168,-870 -514,-1214 -326,-322 -728,-490 -1201,-490l-1513 0 0 -1535 1607 0z"/>
   <path class="fil27" d="M483130 567342l-1637 0c-873,0 -1619,-307 -2238,-924 -623,-624 -941,-1380 -941,-2233l0 -6348 1539 0 0 6348c0,434 159,825 494,1147 312,318 690,473 1146,473l1637 0 0 -7968 1544 0 0 14343 -1544 0 0 -4838z"/>
   <path class="fil27" d="M544741 557822l5513 0 0 1509 -3974 0 0 3302 1541 0c886,0 1642,311 2294,958 640,628 958,1402 958,2292l0 3058c0,890 -318,1647 -958,2270 -652,640 -1408,969 -2294,969l-3080 0 0 -1541 3080 0c458,0 864,-167 1197,-496 357,-336 518,-740 518,-1202l0 -3058c0,-473 -161,-873 -518,-1208 -333,-340 -739,-512 -1197,-512l-3080 0 0 -6341z"/>
   <path class="fil27" d="M612546 568941c0,449 151,834 462,1169 312,327 697,499 1152,529 447,-30 830,-202 1148,-529 312,-335 473,-720 473,-1169l0 -3035c0,-479 -178,-875 -518,-1208 -346,-341 -739,-513 -1201,-513l-1516 0 0 4756zm1516 3218c-858,-58 -1589,-398 -2174,-1010 -588,-624 -889,-1363 -889,-2208l0 -7929c0,-875 318,-1618 930,-2231 617,-619 1352,-924 2231,-924l2317 0 0 1513 -2317 0c-455,0 -840,165 -1152,501 -311,307 -462,685 -462,1141l0 1621 101 45 1415 0c879,0 1646,305 2286,935 628,645 946,1408 946,2293l0 3035c0,845 -301,1574 -883,2193 -574,623 -1281,967 -2135,1025l0 21 -43 0c61,0 33,-10 -73,-21 -111,11 -144,21 -98,21l0 -21z"/>
   <polygon class="fil27" points="677226,559353 677226,557822 683535,557822 683535,560500 681435,565805 683535,565805 683535,567325 680811,567325 678885,572180 677226,572180 679169,567325 677226,567325 677226,565805 679792,565805 682348,559353 "/>
   <path class="fil27" d="M748257 565560c0,-456 -171,-834 -494,-1152 -318,-312 -696,-473 -1141,-473 -458,0 -841,161 -1152,473 -318,318 -469,696 -469,1152l0 3665c0,445 151,817 469,1146 311,316 694,472 1152,472 445,0 823,-156 1141,-472 323,-329 494,-701 494,-1146l0 -3665zm-1635 -3157c445,0 823,-155 1141,-467 323,-333 494,-707 494,-1152 0,-447 -171,-840 -494,-1165 -318,-316 -696,-473 -1141,-473 -458,0 -841,157 -1152,473 -318,325 -469,718 -469,1165 0,445 151,819 469,1152 311,312 694,467 1152,467zm2042 763c741,619 1107,1420 1107,2394l0 3665c0,862 -306,1597 -922,2216 -609,628 -1359,939 -2227,939 -864,0 -1610,-311 -2233,-939 -617,-619 -929,-1354 -929,-2216l0 -3665c0,-974 372,-1775 1113,-2394 -741,-634 -1113,-1425 -1113,-2382 0,-868 312,-1620 929,-2233 623,-613 1369,-924 2233,-924 868,0 1618,311 2227,924 616,613 922,1365 922,2233 0,957 -366,1748 -1107,2382z"/>
   <path class="fil27" d="M814459 561092c0,-452 -152,-843 -468,-1165 -319,-329 -701,-501 -1152,-533 -452,32 -826,204 -1148,533 -312,322 -473,713 -473,1165l0 3028c0,466 165,873 501,1212 339,323 739,490 1203,490l1537 0 0 -4730zm-1515 -3220c845,45 1562,384 2149,1008 583,612 879,1352 879,2212l0 7927c0,861 -307,1603 -920,2213 -616,630 -1352,948 -2213,948l-2328 0 0 -1541 2328 0c438,0 812,-157 1128,-475 329,-322 492,-707 492,-1145l0 -1617 -124 -43 -1413 0c-885,0 -1648,-318 -2267,-958 -649,-630 -970,-1385 -970,-2281l0 -3028c0,-849 297,-1589 882,-2212 584,-613 1302,-948 2132,-1008l0 -15 45 0c-56,0 -24,0 95,0 122,0 154,0 83,0l22 0 0 15z"/>
   <path class="fil27" d="M875765 572180l0 -1541 2398 0 0 -10278c0,-280 -94,-501 -288,-701 -206,-196 -447,-290 -718,-290l-1392 0 0 -1533 1392 0c701,0 1296,248 1804,738 490,498 733,1096 733,1786l0 10278 2401 0 0 1541 -6330 0z"/>
   <path class="fil27" d="M888915 560784c0,-447 -157,-829 -475,-1141 -310,-333 -695,-497 -1142,-497 -455,0 -834,164 -1150,497 -314,312 -475,694 -475,1141l0 8441c0,445 161,817 475,1146 316,316 695,472 1150,472 447,0 832,-156 1142,-472 318,-329 475,-701 475,-1146l0 -8441zm-1617 -3157c871,0 1617,311 2233,924 607,613 920,1365 920,2233l0 8441c0,862 -313,1597 -920,2216 -616,628 -1362,939 -2233,939 -872,0 -1625,-311 -2237,-939 -606,-619 -918,-1354 -918,-2216l0 -8441c0,-868 312,-1620 918,-2233 612,-613 1365,-924 2237,-924z"/>
   <path class="fil27" d="M950198 572180l0 -1541 2399 0 0 -10278c0,-280 -99,-501 -284,-701 -206,-196 -444,-290 -724,-290l-1391 0 0 -1533 1391 0c701,0 1298,248 1799,738 501,498 746,1096 746,1786l0 10278 2401 0 0 1541 -6337 0z"/>
   <path class="fil27" d="M958388 572180l0 -1541 2398 0 0 -10278c0,-280 -101,-501 -283,-701 -207,-196 -445,-290 -718,-290l-1397 0 0 -1533 1397 0c696,0 1302,248 1797,738 496,498 748,1096 748,1786l0 10278 2381 0 0 1541 -6323 0z"/>
   <path class="fil27" d="M1024220 572180l0 -1541 2405 0 0 -10278c0,-280 -101,-501 -297,-701 -200,-196 -432,-290 -705,-290l-1403 0 0 -1533 1403 0c684,0 1292,248 1799,738 488,498 733,1096 733,1786l0 10278 2401 0 0 1541 -6336 0z"/>
   <path class="fil27" d="M1034487 564838c-240,320 -369,666 -369,1045l0 4756 4771 0 0 1541 -6285 0 0 -6297c0,-806 267,-1507 789,-2105 548,-612 1200,-973 2001,-1083 48,0 162,-13 316,-17 155,-20 273,-35 357,-45 361,-84 673,-280 920,-579 249,-292 387,-646 387,-1042 0,-456 -161,-834 -488,-1141 -314,-336 -701,-501 -1152,-501l-3130 0 0 -1533 3130 0c873,0 1619,314 2238,944 612,613 917,1356 917,2231 0,802 -266,1505 -795,2111 -524,599 -1169,950 -1945,1040 -578,84 -828,112 -740,84 -371,94 -672,294 -922,591z"/>
   <path class="fil27" d="M231820 484932c-245,309 -361,666 -361,1046l0 4753 4771 0 0 1532 -6287 0 0 -6285c0,-808 263,-1504 798,-2117 529,-612 1184,-969 1986,-1079 56,0 157,-10 329,-21 139,-20 262,-35 346,-48 372,-77 673,-266 924,-565 260,-307 385,-647 385,-1049 0,-449 -168,-827 -486,-1145 -322,-329 -701,-495 -1148,-495l-3134 0 0 -1532 3134 0c871,0 1621,318 2233,941 613,613 920,1359 920,2231 0,808 -268,1509 -808,2111 -505,600 -1163,952 -1943,1047 -567,73 -817,105 -728,73 -368,99 -675,305 -931,602z"/>
   <path class="fil27" d="M243156 480871c0,-451 -164,-829 -480,-1145 -307,-325 -696,-490 -1145,-490 -452,0 -836,165 -1148,490 -305,316 -466,694 -466,1145l0 8445c0,441 161,813 466,1148 312,316 696,467 1148,467 449,0 838,-151 1145,-467 316,-335 480,-707 480,-1148l0 -8445zm-1625 -3151c885,0 1625,314 2231,925 623,612 924,1358 924,2226l0 8445c0,860 -301,1600 -924,2206 -606,636 -1346,945 -2231,945 -875,0 -1614,-309 -2229,-945 -617,-606 -922,-1346 -922,-2206l0 -8445c0,-868 305,-1614 922,-2226 615,-611 1354,-925 2229,-925z"/>
   <path class="fil27" d="M234399 420557l-1631 0c-875,0 -1614,-301 -2234,-918 -634,-630 -941,-1378 -941,-2233l0 -6352 1537 0 0 6352c0,434 161,819 490,1148 305,316 696,473 1148,473l1631 0 0 -7973 1541 0 0 14339 -1541 0 0 -4836z"/>
   <path class="fil27" d="M243156 414010c0,-451 -164,-836 -480,-1148 -307,-333 -696,-490 -1145,-490 -452,0 -836,157 -1148,490 -305,312 -466,697 -466,1148l0 8434c0,439 161,823 466,1146 312,318 696,468 1148,468 449,0 838,-150 1145,-468 316,-323 480,-707 480,-1146l0 -8434zm-1625 -3164c885,0 1625,314 2231,926 623,617 924,1359 924,2238l0 8434c0,858 -301,1597 -924,2216 -606,628 -1346,942 -2231,942 -875,0 -1614,-314 -2229,-942 -617,-619 -922,-1358 -922,-2216l0 -8434c0,-879 305,-1621 922,-2238 615,-612 1354,-926 2229,-926z"/>
   <path class="fil27" d="M231336 355286c0,451 151,836 469,1169 316,318 696,503 1141,529 456,-26 834,-211 1139,-529 329,-333 486,-718 486,-1169l0 -3033c0,-483 -172,-881 -518,-1214 -335,-340 -735,-512 -1201,-512l-1516 0 0 4759zm1516 3218c-865,-61 -1582,-389 -2174,-1006 -595,-624 -885,-1365 -885,-2212l0 -7927c0,-879 307,-1621 926,-2233 617,-617 1357,-929 2227,-929l2315 0 0 1524 -2315 0c-445,0 -825,157 -1141,490 -318,308 -469,690 -469,1148l0 1614 101 45 1415 0c883,0 1657,312 2291,940 636,642 948,1410 948,2295l0 3033c0,847 -301,1578 -890,2188 -568,630 -1275,969 -2124,1030l0 21 -47 0c58,0 36,-11 -84,-21 -107,10 -140,21 -94,21l0 -21z"/>
   <path class="fil27" d="M243156 347131c0,-451 -164,-836 -480,-1148 -307,-329 -696,-490 -1145,-490 -452,0 -836,161 -1148,490 -305,312 -466,697 -466,1148l0 8434c0,445 161,824 466,1157 312,307 696,468 1148,468 449,0 838,-161 1145,-468 316,-333 480,-712 480,-1157l0 -8434zm-1625 -3157c885,0 1625,307 2231,924 623,612 924,1365 924,2233l0 8434c0,869 -301,1604 -924,2221 -606,619 -1346,937 -2231,937 -875,0 -1614,-318 -2229,-937 -617,-617 -922,-1352 -922,-2221l0 -8434c0,-868 305,-1621 922,-2233 615,-617 1354,-924 2229,-924z"/>
   <path class="fil27" d="M234571 285033c0,-452 -172,-841 -496,-1146 -306,-322 -695,-473 -1140,-473 -457,0 -836,151 -1154,473 -318,305 -473,694 -473,1146l0 3664c0,435 155,813 473,1146 318,314 697,475 1154,475 445,0 834,-161 1140,-475 324,-333 496,-711 496,-1146l0 -3664zm-1636 -3162c445,0 834,-151 1140,-467 324,-324 496,-713 496,-1147 0,-450 -172,-834 -496,-1170 -306,-311 -695,-472 -1140,-472 -457,0 -836,161 -1154,472 -318,336 -473,720 -473,1170 0,434 155,823 473,1147 318,316 697,467 1154,467zm2042 756c735,630 1114,1432 1114,2406l0 3664c0,862 -312,1597 -925,2210 -623,630 -1364,941 -2231,941 -859,0 -1610,-311 -2233,-941 -623,-613 -931,-1348 -931,-2210l0 -3664c0,-974 368,-1776 1110,-2406 -742,-616 -1110,-1418 -1110,-2370 0,-875 308,-1619 931,-2238 623,-612 1374,-913 2233,-913 867,0 1608,301 2231,913 613,619 925,1363 925,2238 0,952 -379,1754 -1114,2370z"/>
   <path class="fil27" d="M243156 280257c0,-450 -164,-828 -480,-1146 -307,-331 -696,-496 -1145,-496 -452,0 -836,165 -1148,496 -305,318 -466,696 -466,1146l0 8440c0,435 161,813 466,1146 312,314 696,475 1148,475 449,0 838,-161 1145,-475 316,-333 480,-711 480,-1146l0 -8440zm-1625 -3151c885,0 1625,301 2231,913 623,619 924,1363 924,2238l0 8440c0,862 -301,1597 -924,2210 -606,630 -1346,941 -2231,941 -875,0 -1614,-311 -2229,-941 -617,-613 -922,-1348 -922,-2210l0 -8440c0,-875 305,-1619 922,-2238 615,-612 1354,-913 2229,-913z"/>
   <path class="fil27" d="M221397 224774l0 -1537 2395 0 0 -10283c0,-277 -99,-505 -284,-696 -204,-189 -441,-284 -718,-284l-1393 0 0 -1536 1393 0c697,0 1298,247 1804,735 492,507 735,1098 735,1781l0 10283 2398 0 0 1537 -6330 0z"/>
   <path class="fil27" d="M234543 213384c0,-451 -150,-829 -468,-1147 -306,-323 -695,-490 -1140,-490 -457,0 -836,167 -1154,490 -318,318 -473,696 -473,1147l0 8439c0,441 155,825 473,1152 318,314 697,469 1154,469 445,0 834,-155 1140,-469 318,-327 468,-711 468,-1152l0 -8439zm-1608 -3151c867,0 1608,306 2231,925 613,606 925,1356 925,2226l0 8439c0,864 -312,1597 -925,2216 -623,630 -1364,935 -2231,935 -881,0 -1627,-305 -2233,-935 -623,-619 -931,-1352 -931,-2216l0 -8439c0,-870 308,-1620 931,-2226 606,-619 1352,-925 2233,-925z"/>
   <path class="fil27" d="M243156 213384c0,-451 -164,-829 -480,-1147 -307,-323 -696,-490 -1145,-490 -452,0 -836,167 -1148,490 -305,318 -466,696 -466,1147l0 8439c0,441 161,825 466,1152 312,314 696,469 1148,469 449,0 838,-155 1145,-469 316,-327 480,-711 480,-1152l0 -8439zm-1625 -3151c885,0 1625,306 2231,925 623,606 924,1356 924,2226l0 8439c0,864 -301,1597 -924,2216 -606,630 -1346,935 -2231,935 -875,0 -1614,-305 -2229,-935 -617,-619 -922,-1352 -922,-2216l0 -8439c0,-870 305,-1620 922,-2226 615,-619 1354,-925 2229,-925z"/>
  </g>
 </g>
</svg>
