<?xml version="1.0" encoding="UTF-8"?>
<!DOCTYPE svg PUBLIC "-//W3C//DTD SVG 1.1//EN" "http://www.w3.org/Graphics/SVG/1.1/DTD/svg11.dtd">
<!-- Creator: CorelDRAW X8 -->
<svg xmlns="http://www.w3.org/2000/svg" xml:space="preserve" width="21.4902mm" height="38.365mm" version="1.1" style="shape-rendering:geometricPrecision; text-rendering:geometricPrecision; image-rendering:optimizeQuality; fill-rule:evenodd; clip-rule:evenodd"
viewBox="0 0 240436 429234"
 xmlns:xlink="http://www.w3.org/1999/xlink">
 <defs>
  <style type="text/css">
   <![CDATA[
    .str2 {stroke:#0091CE;stroke-width:11840.4}
    .str3 {stroke:#0091CE;stroke-width:7402.09}
    .str0 {stroke:#0091CE;stroke-width:7402.09}
    .str1 {stroke:#0091CE;stroke-width:7403.21}
    .fil3 {fill:none;fill-rule:nonzero}
    .fil1 {fill:#5EBCDB}
    .fil0 {fill:white}
    .fil2 {fill:#5EBCDB;fill-rule:nonzero}
   ]]>
  </style>
 </defs>
 <g id="Слой_x0020_1">
  <metadata id="CorelCorpID_0Corel-Layer"/>
  <g id="_2501654132160">
   <g>
    <path class="fil0" d="M121550 115724c-62272,129631 -32283,67221 -94547,196848 -4723,-2273 -17826,12877 -22552,10605l98645 -205337 18454 -2116z"/>
    <path class="fil0" d="M121286 116280c-62264,129634 -32019,66665 -94283,196292 -4723,-2273 -17826,12877 -22552,10605 1485,-3083 96951,-201811 98426,-204889 373,-184 18144,-2089 18409,-2008z"/>
    <path class="fil0" d="M121016 116830c-62262,129634 -31749,66115 -94013,195742 -4723,-2273 -17826,12877 -22552,10605 2962,-6157 95255,-198285 98214,-204443 746,-371 17830,-2064 18351,-1904z"/>
    <path class="fil0" d="M120750 117385c-62263,129631 -31483,65560 -93747,195187 -4723,-2273 -17826,12877 -22552,10605 4441,-9241 93563,-194763 98000,-203995 1114,-555 17516,-2040 18299,-1797z"/>
    <path class="fil0" d="M120485 117932c-62263,129634 -31218,65013 -93482,194640 -4723,-2273 -17826,12877 -22552,10605 5920,-12315 91867,-191236 97785,-203548 1492,-738 17205,-2016 18249,-1697z"/>
    <path class="fil0" d="M120221 118488c-62267,129630 -30954,64457 -93218,194084 -4723,-2273 -17826,12877 -22552,10605 7402,-15397 90175,-187715 97575,-203108 1856,-920 16893,-1977 18195,-1581z"/>
    <path class="fil0" d="M119955 119042c-62260,129631 -30688,63903 -92952,193530 -4723,-2273 -17826,12877 -22552,10605 8883,-18472 88485,-184184 97358,-202657 2230,-1110 16579,-1957 18146,-1478z"/>
    <path class="fil0" d="M119694 119586c-62267,129638 -30427,63359 -92691,192986 -4723,-2273 -17826,12877 -22552,10605 10358,-21554 86793,-180659 97142,-202214 2606,-1290 16269,-1929 18101,-1377z"/>
    <path class="fil0" d="M119429 120141c-62268,129637 -30162,62804 -92426,192431 -4723,-2273 -17826,12877 -22552,10605 11840,-24633 85100,-177137 96932,-201771 2977,-1472 15954,-1901 18046,-1265z"/>
    <path class="fil0" d="M119165 120695c-62269,129635 -29898,62250 -92162,191877 -4723,-2273 -17826,12877 -22552,10605 13317,-27717 83405,-173611 96712,-201319 3355,-1662 15646,-1882 18002,-1163z"/>
    <path class="fil0" d="M118900 121243c-62263,129638 -29633,61702 -91897,191329 -4723,-2273 -17826,12877 -22552,10605 14799,-30791 81708,-170085 96499,-200876 3728,-1849 15334,-1853 17950,-1058z"/>
    <path class="fil0" d="M118635 121798c-62269,129634 -29368,61147 -91632,190774 -4723,-2273 -17826,12877 -22552,10605 16273,-33875 80015,-166567 96287,-200428 4094,-2029 15018,-1834 17897,-951z"/>
    <path class="fil0" d="M118365 122349c-62260,129638 -29098,60596 -91362,190223 -4723,-2273 -17826,12877 -22552,10605 17754,-36948 78322,-163033 96069,-199982 4473,-2221 14706,-1800 17845,-846z"/>
    <path class="fil0" d="M118104 122903c-62268,129635 -28837,60042 -91101,189669 -4723,-2273 -17826,12877 -22552,10605 19232,-40030 76631,-159511 95861,-199539 4838,-2403 14388,-1775 17792,-735z"/>
    <path class="fil0" d="M117836 123455c-62266,129635 -28569,59490 -90833,189117 -4723,-2273 -17826,12877 -22552,10605 20713,-43106 74935,-155989 95639,-199095 5215,-2580 14083,-1741 17746,-627z"/>
    <path class="fil0" d="M117571 124006c-62261,129637 -28304,58939 -90568,188566 -4723,-2273 -17826,12877 -22552,10605 22195,-46185 73246,-152464 95426,-198644 5588,-2776 13769,-1725 17694,-527z"/>
    <path class="fil0" d="M117312 124557c-62272,129635 -28045,58388 -90309,188015 -4723,-2273 -17826,12877 -22552,10605 23667,-49264 71554,-148940 95217,-198204 5958,-2952 13457,-1694 17644,-416z"/>
    <path class="fil0" d="M117044 125108c-62266,129639 -27777,57837 -90041,187464 -4723,-2273 -17826,12877 -22552,10605 25148,-52343 69859,-145412 95002,-197758 6333,-3134 13142,-1669 17591,-311z"/>
    <path class="fil0" d="M116778 125663c-62265,129634 -27511,57282 -89775,186909 -4723,-2273 -17826,12877 -22552,10605 26625,-55422 68164,-141888 94787,-197310 6704,-3319 12829,-1641 17540,-204z"/>
    <path class="fil0" d="M116512 126210c-62264,129634 -27245,56735 -89509,186362 -4723,-2273 -17826,12877 -22552,10605 28112,-58509 66472,-138368 94569,-196866 7077,-3503 12522,-1610 17492,-101z"/>
    <path class="fil0" d="M116248 126765c-62268,129634 -26981,56180 -89245,185807 -4723,-2273 -17826,12877 -22552,10605 29586,-61582 64780,-134842 94357,-196420 7449,-3694 12207,-1585 17440,8z"/>
    <path class="fil0" d="M115983 127317c-62266,129634 -26716,55628 -88980,185255 -4723,-2273 -17826,12877 -22552,10605 31068,-64661 63087,-131315 94142,-195969 7825,-3876 11899,-1565 17390,109z"/>
    <path class="fil0" d="M116141 127109c-62344,129590 -26124,54315 -88481,183901 -2584,-1250 -7417,2276 -12275,5749 13030,-25571 70277,-138402 91741,-191184 3769,-35 6010,619 9015,1534z"/>
    <path class="fil0" d="M122904 111140c137,-320 519,-451 842,-300 316,144 449,520 301,842l-96153 200758c-143,307 -526,443 -840,299 -318,-148 -622,-1581 -480,-1897l96330 -199702z"/>
   </g>
   <path class="fil0" d="M136261 51813l-323 672 3 -5 -328 684c4336,-7036 32235,1702 37639,3973 7776,3275 36920,18724 42442,30080 656,1334 546,3075 65,4432l646 -1349 978 -2041 -8 21 334 -698 -5 18 1293 -2703 990 -2067 -17 47 332 -692 -3 9 19018 -39716 1019 -2129c1634,-6500 -17467,-18513 -21911,-21145 -7015,-4116 -14233,-7725 -21712,-10924 -5083,-2096 -32816,-13017 -36708,-5903l-108 225 -10 16 -342 712 -9 14 -919 1913 -9 16 -7788 16219 -9021 18780 -2622 5456 -647 1350 4 -7 -329 685 0 1 -322 671 11 -18 -336 700 -322 672 -975 2031z"/>
   <path class="fil1" d="M9934 425043c25513,-20461 51283,-41700 76716,-61966 -2106,-26895 -38755,-53513 -82199,-39900 81,32513 -410,66319 -433,99031 0,759 1007,1784 2449,2479 1445,687 2870,839 3467,356z"/>
   <path class="fil0 str0" d="M9610 425251c6539,-5235 13991,-11217 20582,-16564l-256 -123 10 -8 -2905 -1391 -7 8 -6325 -3031 18 -19 -12560 -6033 -1 40 -4058 -1945c-57,8493 -407,17849 -407,26235 -2,754 1003,1781 2446,2472 1446,695 2871,842 3463,359z"/>
   <g>
    <path class="fil0 str1" d="M122239 113389c-61487,127991 -33648,70040 -95120,198036 5171,2480 8786,12451 13968,14939 8631,4137 15474,655 30476,-1330 61477,-127996 30719,-63983 92200,-191977 -13884,-6951 -28540,-13774 -41524,-19668z"/>
    <path class="fil0 str1" d="M121941 114040c-61215,127450 -33626,69959 -94838,197414 5171,2479 8802,12422 13984,14910 8631,4137 15461,675 30448,-1277 61210,-127455 30737,-63963 91956,-191421 -13913,-7052 -28827,-13973 -41550,-19626z"/>
    <path class="fil0 str1" d="M121648 114690c-60953,126912 -33606,69884 -94560,196792 5179,2484 8817,12394 13999,14882 8631,4137 15447,691 30421,-1223 60954,-126910 30753,-63954 91712,-190865 -13951,-7163 -29125,-14172 -41572,-19586z"/>
    <path class="fil0 str1" d="M121356 115344c-60700,126361 -33586,69797 -94283,196165 5178,2485 8832,12367 14014,14855 8631,4137 15443,719 30391,-1162 60696,-126373 30771,-63951 91466,-190319 -13976,-7267 -29417,-14371 -41588,-19539z"/>
    <path class="fil0 str1" d="M121065 115992c-60436,125820 -33572,69724 -94004,195545 5174,2483 8844,12339 14026,14827 8631,4137 15431,743 30365,-1115 60433,-125820 30784,-63929 91222,-189750 -14018,-7377 -29709,-14584 -41609,-19507z"/>
    <path class="fil0 str1" d="M120771 116651c-60177,125273 -33551,69640 -93722,194915 5174,2487 8856,12310 14038,14798 8631,4137 15419,767 30335,-1058 60174,-125274 30808,-63919 90981,-189201 -14046,-7483 -30006,-14767 -41632,-19454z"/>
    <path class="fil0 str1" d="M120474 117301c-59912,124731 -33533,69561 -93441,194288 5174,2488 8872,12287 14054,14775 8631,4137 15407,790 30315,-1003 59906,-124734 30812,-63910 90725,-188645 -14074,-7587 -30296,-14974 -41653,-19415z"/>
    <path class="fil0 str1" d="M120183 117956c-59652,124184 -33518,69482 -93166,193665 5179,2488 8888,12255 14070,14743 8631,4137 15391,818 30289,-946 59647,-124188 30828,-63899 90482,-188090 -14108,-7700 -30593,-15178 -41675,-19372z"/>
    <path class="fil0 str1" d="M119885 118607c-59388,123640 -33492,69401 -92878,193043 5175,2482 8898,12226 14080,14714 8631,4137 15385,838 30261,-890 59386,-123645 30842,-63896 90237,-187536 -14141,-7803 -30886,-15377 -41700,-19331z"/>
    <path class="fil0 str1" d="M119594 119258c-59126,123102 -33479,69325 -92600,192423 5173,2480 8911,12195 14093,14683 8631,4137 15373,863 30233,-831 59126,-123106 30861,-63883 89992,-186992 -14172,-7902 -31179,-15570 -41718,-19283z"/>
    <path class="fil0 str1" d="M119297 119912c-58867,122556 -33458,69243 -92318,191800 5174,2481 8926,12164 14108,14652 8631,4137 15361,886 30206,-786 58860,-122552 30877,-63860 89745,-186422 -14199,-8017 -31470,-15773 -41741,-19244z"/>
    <path class="fil0 str1" d="M119008 120568c-58604,122007 -33442,69162 -92041,191168 5170,2488 8938,12140 14120,14628 8631,4137 15349,905 30180,-727 58602,-122011 30893,-63860 89496,-185870 -14226,-8118 -31760,-15977 -41755,-19199z"/>
    <path class="fil0 str1" d="M118712 121219c-58343,121472 -33419,69082 -91761,190546 5175,2483 8954,12111 14136,14599 8631,4144 15338,930 30153,-667 58345,-121472 30910,-63851 89252,-185324 -14264,-8225 -32056,-16171 -41780,-19154z"/>
    <path class="fil0 str1" d="M118417 121874c-58078,120920 -33403,68998 -91478,189922 5179,2481 8966,12080 14148,14568 8631,4144 15328,955 30129,-620 58076,-120917 30917,-63834 89004,-184760 -14293,-8333 -32352,-16375 -41803,-19110z"/>
    <path class="fil0 str1" d="M118122 122528c-57820,120370 -33377,68915 -91198,189292 5176,2480 8981,12056 14163,14544 8631,4144 15315,981 30100,-556 57820,-120378 30932,-63829 88760,-184212 -14326,-8442 -32642,-16576 -41825,-19068z"/>
    <path class="fil0 str1" d="M117831 123179c-57558,119831 -33369,68836 -90920,188670 5177,2482 8994,12027 14176,14515 8631,4144 15306,1006 30074,-503 57559,-119834 30947,-63820 88513,-183654 -14359,-8545 -32937,-16780 -41843,-19028z"/>
    <path class="fil0 str1" d="M117535 123831c-57298,119291 -33342,68762 -90642,188049 5181,2485 9012,11996 14194,14484 8631,4144 15299,1022 30048,-456 57295,-119283 30965,-63798 88263,-183091 -14384,-8656 -33222,-16978 -41863,-18986z"/>
    <path class="fil0 str1" d="M117246 124482c-57042,118744 -33330,68682 -90365,187423 5180,2487 9024,11971 14206,14459 8631,4144 15283,1046 30024,-396 57030,-118741 30977,-63794 88012,-182542 -14413,-8762 -33517,-17175 -41877,-18944z"/>
    <path class="fil0 str1" d="M116950 125135c-56779,118203 -33311,68604 -90081,186802 5176,2483 9036,11939 14218,14427 8631,4144 15274,1070 29998,-340 56771,-118202 30992,-63782 87766,-181989 -14441,-8869 -33805,-17374 -41901,-18900z"/>
    <path class="fil0 str1" d="M116657 125786c-56516,117664 -33294,68520 -89803,186178 5179,2480 9051,11912 14233,14400 8631,4144 15259,1093 29968,-287 56510,-117659 31010,-63767 87527,-181434 -14478,-8970 -34106,-17575 -41925,-18857z"/>
    <path class="fil0 str1" d="M116360 126442c-56250,117112 -33274,68442 -89517,185550 5178,2476 9062,11884 14244,14372 8631,4144 15249,1117 29942,-223 56252,-117116 31025,-63767 87280,-180883 -14511,-9080 -34398,-17778 -41949,-18816z"/>
   </g>
   <g>
    <path class="fil0 str1" d="M185372 157892c-62253,129630 -36456,75555 -98722,205185 -17393,-16 -12790,-26100 -15332,-36625l92614 -192838 21440 24278z"/>
    <path class="fil0 str1" d="M185037 158603c-56712,118070 -36121,74844 -98387,204474 -17393,-16 -12794,-26115 -15340,-36641l92086 -191704c0,0 20975,22745 21641,23871z"/>
    <path class="fil0 str1" d="M184696 159302c-51165,106521 -35780,74145 -98046,203775 -17393,-16 -12806,-26132 -15352,-36661l91566 -190567c0,0 20495,21213 21832,23453z"/>
    <path class="fil0 str2" d="M163554 132547c140,-319 526,1925 846,2073 320,147 446,531 301,850l-92958 191716c-142,313 -527,447 -842,304 -320,-145 -973,-1349 -832,-1662l93485 -193281z"/>
   </g>
   <g>
    <path class="fil2" d="M185664 162541l1 31 4 -5 6 -15 13 -26 16 -35 22 -44c465,-968 3533,-7343 5745,-11964l-5 18 513 -1080c830,-1735 1476,-3092 1712,-3600l41 -269 187 -401 50 -296 177 -380 51 -277 183 -393 64 -315 165 -356 74 -341 154 -334 88 -369 142 -310 87 -350 142 -309 114 -433 112 -246 127 -453 100 -222 136 -465 94 -206 146 -481 87 -194 172 -541 58 -129 194 -594 34 -74 229 -676 0 -2 396 -1129 88 -242 80 -223c349,-960 716,-1935 1096,-2915 168,-431 341,-864 515,-1295l31 -77 33 -81c405,-994 824,-1994 1251,-2991l59 -135c399,-918 805,-1833 1215,-2742l6 -12 0 -1c223,-485 446,-971 671,-1452l151 -321 18 -40c276,-582 553,-1159 830,-1732l4 -9 65 -132c1047,-2136 2104,-4200 3132,-6125l249 -457 81 -152 11 -21 71 -130 83 -150c765,-1397 1512,-2716 2227,-3933l537 -860 1291 -1973c21,-80 35,-163 50,-245l263 -408 43 -66 35 -55 75 -113c111,-166 219,-326 325,-480l0 0 51 -70 356 -495 4 -21c152,-213 301,-414 443,-603l8 -42c149,-202 293,-392 431,-568l9 -62c141,-185 276,-360 406,-520 -6,40 -5,82 -11,122l1389 -2007 43 -87 851 -1240 6 -25 239 -341 694 -955c119,-450 152,-923 112,-1414l2904 -6067c-36,120 -75,244 -121,368l463 -958 5 -8c539,-1493 295,-2640 -407,-4101 -5947,-12435 -38227,-27852 -46678,-31403 -5857,-2468 -37810,-14404 -42567,-6666l-464 959 46 -66 -281 584 -10 18 -4 10 -372 776 -7 12 -1 5 -563 1171 -13 22 -1 8 -1308 2724 -33 58 -2 14 -360 750 -20 36 -1 7 -222 461c-326,306 -599,651 -810,1042l-6 20c-59,87 -117,177 -169,271l-198 847 -12 20 -142 583 -59 122c-41,66 -74,135 -101,209l-84 177c-46,71 -84,147 -112,230l-42 284 -33 71 -40 254 -43 98 -41 251 -40 97 -46 265 -32 82 -49 267 -31 84 -48 259 -32 89 -55 284 -24 66 -49 245 -36 100 -62 308 -16 42 -68 323 -10 30 -64 292 -19 55 -111 491 -7 35 -89 384 -36 151 -101 421 -2 7 -6 25 -6 25 -7 26 -6 25 -5 23 -1 2 -6 26 -5 25 -7 25 -7 26 -7 25 -6 25 -6 26 -7 26 -5 25 -7 26 -7 25 -5 25 -8 26 -6 26 -6 26 -6 25 -8 26 -5 25 -7 25 -7 27 -7 26 -5 25 -4 11 -4 14 -6 26 -6 27 -7 26 -7 24 -6 26c-435,1678 -958,3455 -1561,5294l-36 111 -6 19 -31 93 -37 110 -111 333 -33 96c-276,816 -567,1641 -874,2476l-11 30 -151 409 -37 98 -359 947 -173 446 -11 28 -156 399 -19 47 -12 30 -176 443 -9 20 -187 463 -8 18c-241,587 -488,1177 -739,1766l-192 442 -19 45 -139 319 -35 82 -177 399 -70 156c-280,626 -567,1255 -860,1879l-3 8 -23 47 -22 47 -22 47 -23 47 -21 47 -22 47 -23 47 -22 47 -45 94 -22 47 -23 47c-267,558 -537,1115 -812,1669l-14 29 -28 56 -15 29 -14 29 -14 28 -170 338 -7 14 -6 14c-1562,3085 -3237,6056 -4952,8764 -1059,438 -1944,1053 -2603,1881l-663 1211 -1477 2685 25 -39 -844 1437c85,-196 194,-376 326,-545l-48 83c19,-36 43,-67 63,-101 309,-390 738,-709 1267,-963 -1027,1310 -2049,2485 -3051,3493l-171 170 14 -13 -1 4 -1 0 -1 1 -8 8 -3 3 2 -1 -303 632 -682 1419 -9 11 -1754 3654 9 -13 -4867 10129 2653 395 -2933 188 2654 393c-36,62 -2724,-270 -2754,-207 -1163,2420 31535,3992 50350,13028 22777,10940 39285,23910 36854,28958l-26 64 -1264 2620c2026,-326 3079,-1220 3677,-2376zm-81593 -58910l1 0 -1 0zm-12 14l0 1 0 -1zm18 -18l-1 2 3 -4 -2 2z"/>
    <path id="1" class="fil3 str3" d="M185664 162541l1 31 4 -5 6 -15 13 -26 16 -35 22 -44c465,-968 3533,-7343 5745,-11964l-5 18 513 -1080c830,-1735 1476,-3092 1712,-3600l41 -269 187 -401 50 -296 177 -380 51 -277 183 -393 64 -315 165 -356 74 -341 154 -334 88 -369 142 -310 87 -350 142 -309 114 -433 112 -246 127 -453 100 -222 136 -465 94 -206 146 -481 87 -194 172 -541 58 -129 194 -594 34 -74 229 -676 0 -2 396 -1129 88 -242 80 -223c349,-960 716,-1935 1096,-2915 168,-431 341,-864 515,-1295l31 -77 33 -81c405,-994 824,-1994 1251,-2991l59 -135c399,-918 805,-1833 1215,-2742l6 -12 0 -1c223,-485 446,-971 671,-1452l151 -321 18 -40c276,-582 553,-1159 830,-1732l4 -9 65 -132c1047,-2136 2104,-4200 3132,-6125l249 -457 81 -152 11 -21 71 -130 83 -150c765,-1397 1512,-2716 2227,-3933l537 -860 1291 -1973c21,-80 35,-163 50,-245l263 -408 43 -66 35 -55 75 -113c111,-166 219,-326 325,-480l0 0 51 -70 356 -495 4 -21c152,-213 301,-414 443,-603l8 -42c149,-202 293,-392 431,-568l9 -62c141,-185 276,-360 406,-520 -6,40 -5,82 -11,122l1389 -2007 43 -87 851 -1240 6 -25 239 -341 694 -955c119,-450 152,-923 112,-1414l2904 -6067c-36,120 -75,244 -121,368l463 -958 5 -8c539,-1493 295,-2640 -407,-4101 -5947,-12435 -38227,-27852 -46678,-31403 -5857,-2468 -37810,-14404 -42567,-6666l-464 959 46 -66 -281 584 -10 18 -4 10 -372 776 -7 12 -1 5 -563 1171 -13 22 -1 8 -1308 2724 -33 58 -2 14 -360 750 -20 36 -1 7 -222 461c-326,306 -599,651 -810,1042l-6 20c-59,87 -117,177 -169,271l-198 847 -12 20 -142 583 -59 122c-41,66 -74,135 -101,209l-84 177c-46,71 -84,147 -112,230l-42 284 -33 71 -40 254 -43 98 -41 251 -40 97 -46 265 -32 82 -49 267 -31 84 -48 259 -32 89 -55 284 -24 66 -49 245 -36 100 -62 308 -16 42 -68 323 -10 30 -64 292 -19 55 -111 491 -7 35 -89 384 -36 151 -101 421 -2 7 -6 25 -6 25 -7 26 -6 25 -5 23 -1 2 -6 26 -5 25 -7 25 -7 26 -7 25 -6 25 -6 26 -7 26 -5 25 -7 26 -7 25 -5 25 -8 26 -6 26 -6 26 -6 25 -8 26 -5 25 -7 25 -7 27 -7 26 -5 25 -4 11 -4 14 -6 26 -6 27 -7 26 -7 24 -6 26c-435,1678 -958,3455 -1561,5294l-36 111 -6 19 -31 93 -37 110 -111 333 -33 96c-276,816 -567,1641 -874,2476l-11 30 -151 409 -37 98 -359 947 -173 446 -11 28 -156 399 -19 47 -12 30 -176 443 -9 20 -187 463 -8 18c-241,587 -488,1177 -739,1766l-192 442 -19 45 -139 319 -35 82 -177 399 -70 156c-280,626 -567,1255 -860,1879l-3 8 -23 47 -22 47 -22 47 -23 47 -21 47 -22 47 -23 47 -22 47 -45 94 -22 47 -23 47c-267,558 -537,1115 -812,1669l-14 29 -28 56 -15 29 -14 29 -14 28 -170 338 -7 14 -6 14c-1562,3085 -3237,6056 -4952,8764 -1059,438 -1944,1053 -2603,1881l-663 1211 -1477 2685 25 -39 -844 1437c85,-196 194,-376 326,-545l-48 83c19,-36 43,-67 63,-101 309,-390 738,-709 1267,-963 -1027,1310 -2049,2485 -3051,3493l-171 170 14 -13 -1 4 -1 0 -1 1 -8 8 -3 3 2 -1 -303 632 -682 1419 -9 11 -1754 3654 9 -13 -4867 10129 2653 395 -2933 188 2654 393c-36,62 -2724,-270 -2754,-207 -1163,2420 31535,3992 50350,13028 22777,10940 39285,23910 36854,28958l-26 64 -1264 2620c2026,-326 3079,-1220 3677,-2376zm-81593 -58910l1 0m-13 14l0 1m18 -19l-1 2 3 -4 -2 2z"/>
   </g>
  </g>
 </g>
</svg>
