<?xml version="1.0" encoding="UTF-8"?>
<!DOCTYPE svg PUBLIC "-//W3C//DTD SVG 1.1//EN" "http://www.w3.org/Graphics/SVG/1.1/DTD/svg11.dtd">
<!-- Creator: CorelDRAW X8 -->
<svg xmlns="http://www.w3.org/2000/svg" xml:space="preserve" width="36.0702mm" height="34.6587mm" version="1.1" style="shape-rendering:geometricPrecision; text-rendering:geometricPrecision; image-rendering:optimizeQuality; fill-rule:evenodd; clip-rule:evenodd"
viewBox="0 0 1308744 1257530"
 xmlns:xlink="http://www.w3.org/1999/xlink">
 <defs>
  <style type="text/css">
   <![CDATA[
    .str0 {stroke:#0091CE;stroke-width:2764.78}
    .fil3 {fill:#FCFBFC;fill-rule:nonzero}
    .fil2 {fill:#0091CE;fill-rule:nonzero}
    .fil1 {fill:#5EBCDB;fill-rule:nonzero}
    .fil0 {fill:white;fill-rule:nonzero}
   ]]>
  </style>
 </defs>
 <g id="Слой_x0020_1">
  <metadata id="CorelCorpID_0Corel-Layer"/>
  <g id="_2501688146176">
   <g>
    <path class="fil0" d="M952512 211938l-1727 171725 12136 0c0,0 22547,-100610 137028,-69385 114481,31222 142241,173456 104078,360786 -38163,187327 -228965,156113 -258453,98869l-6937 147433c0,0 8672,-6937 17343,-6937 8676,0 234169,27756 313956,-154371 0,0 71119,-192533 20815,-362521 -50303,-169987 -176924,-187334 -324361,-182131l-13878 -3468z"/>
    <path class="fil0" d="M953927 212123l-1731 171721 12140 0c0,0 22547,-100606 137028,-69384 114481,31225 142237,173455 104075,360790 -38160,187323 -229637,186931 -259125,129687l-6262 116611c0,0 8672,-6938 17343,-6938 8676,0 202802,21687 282589,-160434 0,0 66017,-175654 15714,-345637 -50299,-169991 -153485,-162314 -300922,-157111l-849 -39305z"/>
    <g>
     <path class="fil1" d="M1092547 251428c11182,-453 100809,19394 143812,106350 0,0 14506,-24168 -43503,-74925 -58006,-50760 -100309,-31425 -100309,-31425z"/>
     <path class="fil0" d="M1131218 321524c0,0 48347,26592 56805,48340 0,0 -12094,-45927 -56805,-48340z"/>
     <path class="fil0" d="M947523 808561c0,0 21759,31418 76140,30210 0,0 -76140,-35042 -76140,-45920 0,-10878 0,15710 0,15710z"/>
    </g>
   </g>
   <path class="fil1" d="M482945 5954c-15207,-123 -394004,-2558 -479121,56653l26440 1091487c30641,137916 874717,137916 905365,0l26440 -1091487c-85117,-59211 -463911,-56776 -479124,-56653z"/>
   <path class="fil2 str0" d="M322565 1214484c0,0 122917,44893 366911,0 0,0 -273706,23417 -366911,0z"/>
   <path class="fil1" d="M957076 339927c0,0 -62734,-5279 -66558,113200 0,0 -6491,324068 -2072,332903 4420,8835 39524,7775 51301,-5468 11774,-13244 6393,3505 6393,3505l-4100 139389c0,0 -96266,-32938 -105098,-110936 -8835,-77995 -26494,-500379 61809,-537174l43289 -44534 16400 -15246 -1364 124361z"/>
   <path class="fil3" d="M951670 64969c0,35884 -213034,64972 -475833,64972 -262796,0 -475833,-29088 -475833,-64972 0,-35884 213037,-64973 475833,-64973 262799,0 475833,29089 475833,64973z"/>
   <path class="fil2" d="M917273 67110c0,23217 -195922,42041 -437612,42041 -241690,0 -437616,-18824 -437616,-42041 0,-23222 195926,-42042 437616,-42042 241690,0 437612,18820 437612,42042z"/>
  </g>
 </g>
</svg>
