<?xml version="1.0" encoding="UTF-8"?>
<!DOCTYPE svg PUBLIC "-//W3C//DTD SVG 1.1//EN" "http://www.w3.org/Graphics/SVG/1.1/DTD/svg11.dtd">
<!-- Creator: CorelDRAW X8 -->
<svg xmlns="http://www.w3.org/2000/svg" xml:space="preserve" width="56.2393mm" height="34.5068mm" version="1.1" style="shape-rendering:geometricPrecision; text-rendering:geometricPrecision; image-rendering:optimizeQuality; fill-rule:evenodd; clip-rule:evenodd"
viewBox="0 0 44272940 27164590"
 xmlns:xlink="http://www.w3.org/1999/xlink">
 <defs>
  <style type="text/css">
   <![CDATA[
    .str0 {stroke:#0091CE;stroke-width:833119}
    .str1 {stroke:#0091CE;stroke-width:520828}
    .fil40 {fill:#0091CE}
    .fil39 {fill:#5EBCDB}
    .fil4 {fill:#FCEFF9}
    .fil42 {fill:white}
    .fil41 {fill:#E7E7EB;fill-rule:nonzero}
    .fil43 {fill:#0091CE;fill-rule:nonzero}
    .fil38 {fill:#FCEFF9;fill-rule:nonzero}
    .fil18 {fill:url(#id0)}
    .fil33 {fill:url(#id1)}
    .fil1 {fill:url(#id2)}
    .fil3 {fill:url(#id3)}
    .fil35 {fill:url(#id4)}
    .fil6 {fill:url(#id5)}
    .fil7 {fill:url(#id6)}
    .fil28 {fill:url(#id7)}
    .fil44 {fill:url(#id8)}
    .fil45 {fill:url(#id9)}
    .fil37 {fill:url(#id10)}
    .fil48 {fill:url(#id11)}
    .fil10 {fill:url(#id12)}
    .fil46 {fill:url(#id13)}
    .fil2 {fill:url(#id14)}
    .fil47 {fill:url(#id15)}
    .fil5 {fill:url(#id16)}
    .fil13 {fill:url(#id17)}
    .fil21 {fill:url(#id18)}
    .fil9 {fill:url(#id19)}
    .fil8 {fill:url(#id20)}
    .fil12 {fill:url(#id21)}
    .fil24 {fill:url(#id22)}
    .fil14 {fill:url(#id23)}
    .fil20 {fill:url(#id24)}
    .fil25 {fill:url(#id25)}
    .fil16 {fill:url(#id26)}
    .fil23 {fill:url(#id27)}
    .fil26 {fill:url(#id28)}
    .fil36 {fill:url(#id29)}
    .fil22 {fill:url(#id30)}
    .fil30 {fill:url(#id31)}
    .fil29 {fill:url(#id32)}
    .fil17 {fill:url(#id33)}
    .fil11 {fill:url(#id34)}
    .fil19 {fill:url(#id35)}
    .fil34 {fill:url(#id36)}
    .fil31 {fill:url(#id37)}
    .fil32 {fill:url(#id38)}
    .fil27 {fill:url(#id39)}
    .fil15 {fill:url(#id40)}
    .fil0 {fill:url(#id41)}
   ]]>
  </style>
  <linearGradient id="id0" gradientUnits="userSpaceOnUse" x1="3.23194e+07" y1="7.61435e+06" x2="3.27468e+07" y2="7.61435e+06">
   <stop offset="0" style="stop-opacity:1; stop-color:#A3805A"/>
   <stop offset="1" style="stop-opacity:1; stop-color:#68543D"/>
  </linearGradient>
  <linearGradient id="id1" gradientUnits="userSpaceOnUse" x1="3.90911e+07" y1="9.52715e+06" x2="3.90911e+07" y2="8.74417e+06">
   <stop offset="0" style="stop-opacity:1; stop-color:#91A54A"/>
   <stop offset="1" style="stop-opacity:1; stop-color:#BAC862"/>
  </linearGradient>
  <linearGradient id="id2" gradientUnits="userSpaceOnUse" x1="3.39745e+07" y1="5.36879e+06" x2="3.39745e+07" y2="3.89204e+06">
   <stop offset="0" style="stop-opacity:1; stop-color:#C1C3CA"/>
   <stop offset="1" style="stop-opacity:1; stop-color:#ABAEB5"/>
  </linearGradient>
  <linearGradient id="id3" gradientUnits="userSpaceOnUse" x1="3.39745e+07" y1="5.12829e+06" x2="3.39745e+07" y2="3.9669e+06">
   <stop offset="0" style="stop-opacity:1; stop-color:#ABAEB5"/>
   <stop offset="1" style="stop-opacity:1; stop-color:#C1C3CA"/>
  </linearGradient>
  <linearGradient id="id4" gradientUnits="userSpaceOnUse" xlink:href="#id1" x1="3.80294e+07" y1="9.8592e+06" x2="3.80294e+07" y2="9.07614e+06">
  </linearGradient>
  <linearGradient id="id5" gradientUnits="userSpaceOnUse" x1="2.06817e+07" y1="4.06397e+06" x2="2.54973e+07" y2="4.06397e+06">
   <stop offset="0" style="stop-opacity:1; stop-color:#117693"/>
   <stop offset="0.321569" style="stop-opacity:1; stop-color:#B5DCF3"/>
   <stop offset="1" style="stop-opacity:1; stop-color:#8CBBDA"/>
  </linearGradient>
  <linearGradient id="id6" gradientUnits="userSpaceOnUse" xlink:href="#id5" x1="2.06817e+07" y1="5.34006e+06" x2="2.54973e+07" y2="5.34006e+06">
  </linearGradient>
  <linearGradient id="id7" gradientUnits="userSpaceOnUse" x1="3.42365e+07" y1="9.04962e+06" x2="3.42365e+07" y2="7.94616e+06">
   <stop offset="0" style="stop-opacity:1; stop-color:#61813D"/>
   <stop offset="1" style="stop-opacity:1; stop-color:#A3B351"/>
  </linearGradient>
  <linearGradient id="id8" gradientUnits="userSpaceOnUse" x1="1.69428e+07" y1="1.46991e+07" x2="4.13164e+07" y2="1.46991e+07">
   <stop offset="0" style="stop-opacity:1; stop-color:#D8D5DA"/>
   <stop offset="1" style="stop-opacity:1; stop-color:#C5C1C7"/>
  </linearGradient>
  <linearGradient id="id9" gradientUnits="userSpaceOnUse" x1="1.78348e+07" y1="1.71691e+07" x2="4.20767e+07" y2="1.71691e+07">
   <stop offset="0" style="stop-opacity:1; stop-color:#EBECEF"/>
   <stop offset="1" style="stop-opacity:1; stop-color:#DAD8DD"/>
  </linearGradient>
  <linearGradient id="id10" gradientUnits="userSpaceOnUse" xlink:href="#id1" x1="3.69479e+07" y1="1.02183e+07" x2="3.69479e+07" y2="9.43512e+06">
  </linearGradient>
  <linearGradient id="id11" gradientUnits="userSpaceOnUse" xlink:href="#id8" x1="1.87545e+07" y1="1.95599e+07" x2="4.2934e+07" y2="1.95599e+07">
  </linearGradient>
  <linearGradient id="id12" gradientUnits="userSpaceOnUse" xlink:href="#id0" x1="1.998e+07" y1="7.48587e+06" x2="2.03274e+07" y2="7.48587e+06">
  </linearGradient>
  <linearGradient id="id13" gradientUnits="userSpaceOnUse" xlink:href="#id8" x1="1.51634e+07" y1="9.29633e+06" x2="3.97614e+07" y2="9.29633e+06">
  </linearGradient>
  <linearGradient id="id14" gradientUnits="userSpaceOnUse" xlink:href="#id7" x1="3.39588e+07" y1="5.29471e+06" x2="3.39588e+07" y2="3.9669e+06">
  </linearGradient>
  <linearGradient id="id15" gradientUnits="userSpaceOnUse" xlink:href="#id9" x1="1.60283e+07" y1="1.19945e+07" x2="4.0453e+07" y2="1.19945e+07">
  </linearGradient>
  <linearGradient id="id16" gradientUnits="userSpaceOnUse" xlink:href="#id0" x1="3.71268e+07" y1="4.20283e+06" x2="3.74738e+07" y2="4.20283e+06">
  </linearGradient>
  <linearGradient id="id17" gradientUnits="userSpaceOnUse" xlink:href="#id0" x1="2.18467e+07" y1="8.15029e+06" x2="2.22737e+07" y2="8.15029e+06">
  </linearGradient>
  <linearGradient id="id18" gradientUnits="userSpaceOnUse" xlink:href="#id0" x1="3.07289e+07" y1="7.78502e+06" x2="3.10763e+07" y2="7.78502e+06">
  </linearGradient>
  <linearGradient id="id19" gradientUnits="userSpaceOnUse" x1="2.67033e+07" y1="5.1686e+06" x2="3.44087e+07" y2="5.1686e+06">
   <stop offset="0" style="stop-opacity:1; stop-color:#678FA3"/>
   <stop offset="0.678431" style="stop-opacity:1; stop-color:#B5DCF3"/>
   <stop offset="1" style="stop-opacity:1; stop-color:#117693"/>
  </linearGradient>
  <linearGradient id="id20" gradientUnits="userSpaceOnUse" xlink:href="#id19" x1="2.67033e+07" y1="3.90707e+06" x2="3.44087e+07" y2="3.90707e+06">
  </linearGradient>
  <linearGradient id="id21" gradientUnits="userSpaceOnUse" xlink:href="#id1" x1="2.01489e+07" y1="6.31929e+06" x2="2.01489e+07" y2="4.06586e+06">
  </linearGradient>
  <linearGradient id="id22" gradientUnits="userSpaceOnUse" xlink:href="#id7" x1="3.19395e+07" y1="8.74472e+06" x2="3.19395e+07" y2="7.48729e+06">
  </linearGradient>
  <linearGradient id="id23" gradientUnits="userSpaceOnUse" xlink:href="#id7" x1="2.20499e+07" y1="7.57861e+06" x2="2.20499e+07" y2="3.67366e+06">
  </linearGradient>
  <linearGradient id="id24" gradientUnits="userSpaceOnUse" xlink:href="#id1" x1="3.25267e+07" y1="6.17877e+06" x2="3.25267e+07" y2="3.40553e+06">
  </linearGradient>
  <linearGradient id="id25" gradientUnits="userSpaceOnUse" xlink:href="#id1" x1="3.19411e+07" y1="8.46723e+06" x2="3.19411e+07" y2="7.57467e+06">
  </linearGradient>
  <linearGradient id="id26" gradientUnits="userSpaceOnUse" xlink:href="#id7" x1="3.03968e+07" y1="8.32757e+06" x2="3.03968e+07" y2="7.06982e+06">
  </linearGradient>
  <linearGradient id="id27" gradientUnits="userSpaceOnUse" xlink:href="#id1" x1="3.08975e+07" y1="6.61859e+06" x2="3.08975e+07" y2="4.36532e+06">
  </linearGradient>
  <linearGradient id="id28" gradientUnits="userSpaceOnUse" xlink:href="#id7" x1="3.52982e+07" y1="8.71772e+06" x2="3.52982e+07" y2="7.61435e+06">
  </linearGradient>
  <linearGradient id="id29" gradientUnits="userSpaceOnUse" xlink:href="#id7" x1="3.69463e+07" y1="1.04624e+07" x2="3.69463e+07" y2="9.35868e+06">
  </linearGradient>
  <linearGradient id="id30" gradientUnits="userSpaceOnUse" xlink:href="#id7" x1="3.08943e+07" y1="7.32e+06" x2="3.08943e+07" y2="4.14505e+06">
  </linearGradient>
  <linearGradient id="id31" gradientUnits="userSpaceOnUse" xlink:href="#id7" x1="3.31554e+07" y1="9.40875e+06" x2="3.31554e+07" y2="8.30577e+06">
  </linearGradient>
  <linearGradient id="id32" gradientUnits="userSpaceOnUse" xlink:href="#id1" x1="3.42384e+07" y1="8.80589e+06" x2="3.42384e+07" y2="8.0226e+06">
  </linearGradient>
  <linearGradient id="id33" gradientUnits="userSpaceOnUse" xlink:href="#id1" x1="3.03981e+07" y1="8.04937e+06" x2="3.03981e+07" y2="7.15697e+06">
  </linearGradient>
  <linearGradient id="id34" gradientUnits="userSpaceOnUse" xlink:href="#id7" x1="2.01451e+07" y1="7.02054e+06" x2="2.01451e+07" y2="3.84559e+06">
  </linearGradient>
  <linearGradient id="id35" gradientUnits="userSpaceOnUse" xlink:href="#id7" x1="3.25227e+07" y1="7.0418e+06" x2="3.25227e+07" y2="3.13488e+06">
  </linearGradient>
  <linearGradient id="id36" gradientUnits="userSpaceOnUse" xlink:href="#id7" x1="3.80279e+07" y1="1.01024e+07" x2="3.80279e+07" y2="8.99994e+06">
  </linearGradient>
  <linearGradient id="id37" gradientUnits="userSpaceOnUse" xlink:href="#id1" x1="3.31569e+07" y1="9.16526e+06" x2="3.31569e+07" y2="8.38205e+06">
  </linearGradient>
  <linearGradient id="id38" gradientUnits="userSpaceOnUse" xlink:href="#id7" x1="3.90899e+07" y1="9.77079e+06" x2="3.90899e+07" y2="8.66726e+06">
  </linearGradient>
  <linearGradient id="id39" gradientUnits="userSpaceOnUse" xlink:href="#id1" x1="3.53e+07" y1="8.474e+06" x2="3.53e+07" y2="7.69087e+06">
  </linearGradient>
  <linearGradient id="id40" gradientUnits="userSpaceOnUse" xlink:href="#id1" x1="2.20539e+07" y1="6.71565e+06" x2="2.20539e+07" y2="3.94447e+06">
  </linearGradient>
  <linearGradient id="id41" gradientUnits="userSpaceOnUse" xlink:href="#id3" x1="3.71795e+07" y1="4.40476e+06" x2="3.71795e+07" y2="3.24344e+06">
  </linearGradient>
 </defs>
 <g id="Слой_x0020_1">
  <metadata id="CorelCorpID_0Corel-Layer"/>
  <g id="_2501688160512">
   <polygon class="fil0" points="35454376,5458692 31419143,4270062 31419143,4180397 36530039,5107117 36530039,5197018 "/>
   <polygon class="fil1" points="35454376,5368869 31419143,4180397 32341219,3892194 36530039,5107117 "/>
   <polygon class="fil2" points="31666331,4178193 32342085,3966666 36251440,5100819 35456265,5294634 "/>
   <polygon class="fil3" points="32358065,4026101 36156186,5128215 36267185,5100819 32358065,3966666 31681997,4178193 31779298,4206926 "/>
   <path class="fil4" d="M35073910 4202990c0,95884 -77620,174134 -173583,174134l0 0c-95805,0 -173740,-78250 -173740,-174134l0 -1243972c0,-95647 77935,-173346 173740,-173346l0 0c95963,0 173583,77699 173583,173346l0 1243972z"/>
   <path class="fil5" d="M37473763 4824897c0,95806 -77856,173505 -173504,173505l0 0c-95884,0 -173425,-77699 -173425,-173505l0 -1243814c0,-96120 77541,-174291 173425,-174291l0 0c95648,0 173504,78171 173504,174291l0 1243814z"/>
   <path class="fil4" d="M36522324 4528980c-68488,134930 -517442,188068 -851068,188068 -355353,0 -855004,-63451 -893263,-212157 -44321,-172324 234592,-1045355 893263,-1045355 658671,0 907512,958052 851068,1069444z"/>
   <path class="fil4" d="M36174922 4305723c-41329,95884 -311032,133592 -511381,133592 -213495,0 -513664,-45108 -536808,-150753 -26844,-122414 140992,-741959 536808,-741959 395580,0 545153,680083 511381,759120z"/>
   <polygon class="fil6" points="25497406,4929677 20681798,3809772 20681798,3198177 25497406,4256049 "/>
   <polygon class="fil7" points="25497406,6267013 20681798,5024931 20681798,4413100 25497406,5593779 "/>
   <polygon class="fil8" points="26703276,4913932 34408627,3498346 34408627,2900449 26703276,4241486 "/>
   <polygon class="fil9" points="26703276,6248750 34408627,4686188 34408627,4087977 26703276,5577169 "/>
   <path class="fil10" d="M20327390 8000560c0,79273 -77778,143826 -173505,143826l0 0c-95805,0 -173898,-64553 -173898,-143826l0 -1028902c0,-79667 78093,-143826 173898,-143826l0 0c95727,0 173505,64159 173505,143826l0 1028902z"/>
   <path class="fil11" d="M21871215 6545297c-135481,341026 -1021345,475484 -1678598,475484 -701811,0 -1687337,-160122 -1762517,-536021 -87224,-434942 463203,-2639091 1762517,-2639091 1299077,0 1789912,2420164 1678598,2699628z"/>
   <path class="fil12" d="M21186015 5982511c-81714,241363 -613956,336774 -1009064,336774 -421637,0 -1013551,-113596 -1059053,-380465 -52665,-308828 278441,-1872807 1059053,-1872807 780848,0 1075742,1717487 1009064,1916498z"/>
   <path class="fil13" d="M22273801 8783612c0,97616 -95490,176417 -213416,176417l0 0c-118162,0 -213731,-78801 -213731,-176417l0 -1266014c0,-97616 95569,-176653 213731,-176653l0 0c117926,0 213416,79037 213416,176653l0 1266014z"/>
   <path class="fil14" d="M24172271 6993621c-166655,418882 -1256016,585066 -2064574,585066 -862955,0 -2074729,-197751 -2167386,-659852 -107456,-534840 569557,-3245253 2167386,-3245253 1597750,0 2201315,2976180 2064574,3320039z"/>
   <path class="fil15" d="M23329233 6300628c-100135,297728 -754869,415025 -1240587,415025 -518308,0 -1246884,-139575 -1302383,-468084 -64474,-379599 342206,-2303103 1302383,-2303103 960020,0 1322773,2112201 1240587,2356162z"/>
   <path class="fil16" d="M31271617 8138639c-68882,135009 -517757,188934 -851068,188934 -355904,0 -855398,-64001 -893342,-213259 -44478,-171694 234593,-1044804 893342,-1044804 658671,0 907276,958367 851068,1069129z"/>
   <path class="fil17" d="M30923979 7915776c-40857,95569 -311111,133513 -511460,133513 -213731,0 -513978,-45029 -536887,-150360 -26214,-122728 141071,-742037 536887,-742037 395817,0 545389,680398 511460,758884z"/>
   <path class="fil18" d="M32746797 8247670c0,97537 -95648,176574 -213496,176574l0 0c-118162,0 -213731,-79037 -213731,-176574l0 -1266644c0,-97931 95569,-176575 213731,-176575l0 0c117848,0 213496,78644 213496,176575l0 1266644z"/>
   <path class="fil19" d="M34646684 6456498c-166656,419827 -1256883,585380 -2065992,585380 -863348,0 -2076304,-197278 -2169039,-659851 -107298,-535155 570266,-3247221 2169039,-3247221 1598774,0 2202654,2977754 2065992,3321692z"/>
   <path class="fil20" d="M33803015 5763269c-99898,297885 -755105,415575 -1241452,415575 -518624,0 -1247514,-140126 -1303407,-468083 -64238,-379836 342757,-2305229 1303407,-2305229 960886,0 1323954,2113697 1241452,2357737z"/>
   <path class="fil21" d="M31076071 8299863c0,79352 -77936,143589 -173583,143589l0 0c-95805,0 -173505,-64237 -173505,-143589l0 -1029690c0,-79037 77700,-143274 173505,-143274l0 0c95647,0 173583,64237 173583,143274l0 1029690z"/>
   <path class="fil22" d="M32620054 6844364c-135875,341576 -1021345,475719 -1678992,475719 -701496,0 -1686943,-160357 -1762359,-536178 -87303,-434705 463203,-2638854 1762359,-2638854 1299392,0 1790069,2419612 1678992,2699313z"/>
   <path class="fil23" d="M31934775 6281262c-81871,241678 -614193,337326 -1009143,337326 -421558,0 -1013709,-113597 -1059131,-380387 -52193,-308592 278677,-1872806 1059131,-1872806 780533,0 1075663,1717251 1009143,1915867z"/>
   <path class="fil24" d="M32814104 8556734c-68409,134694 -517678,188068 -850753,188068 -355589,0 -855319,-63372 -893263,-212393 -44478,-172009 234593,-1045040 893263,-1045040 658434,0 907276,958681 850753,1069365z"/>
   <path class="fil25" d="M32466781 8333241c-41093,96199 -310796,133907 -511460,133907 -213731,0 -513663,-44793 -536808,-151069 -26529,-121783 140992,-741407 536808,-741407 395895,0 545468,680083 511460,758569z"/>
   <path class="fil26" d="M36065970 8552168c-60301,118477 -454307,165553 -746603,165553 -311977,0 -750304,-55893 -783997,-186965 -38574,-150675 206017,-916408 783997,-916408 577586,0 796277,840519 746603,937820z"/>
   <path class="fil27" d="M35761157 8356385c-36527,84233 -273167,117533 -448718,117533 -187438,0 -450843,-39597 -471154,-132647 -23380,-107063 123910,-650405 471154,-650405 347087,0 478396,596480 448718,665519z"/>
   <path class="fil28" d="M35004241 8884377c-60223,118162 -454307,165238 -746840,165238 -311662,0 -750303,-55657 -783681,-186415 -38574,-150911 206331,-916958 783681,-916958 578216,0 796278,841149 746840,938135z"/>
   <path class="fil29" d="M34699506 8688594c-36291,84233 -272930,117296 -448717,117296 -187517,0 -450922,-39676 -470918,-132411 -23381,-107062 123909,-650719 470918,-650719 347087,0 478396,596716 448717,665834z"/>
   <path class="fil30" d="M33922910 9243745c-60223,118398 -454071,164923 -746289,164923 -312292,0 -750618,-55657 -783997,-186415 -38810,-150911 206017,-916644 783997,-916644 577272,0 795963,840756 746289,938136z"/>
   <path class="fil31" d="M33618096 9047647c-36212,84154 -272537,117611 -448639,117611 -187516,0 -450922,-39755 -471232,-132804 -23066,-106669 124224,-650405 471232,-650405 347009,0 478318,596795 448639,665598z"/>
   <path class="fil32" d="M39857163 9605553c-60458,118713 -454307,165317 -746839,165317 -311977,0 -750382,-55657 -783446,-186415 -39046,-150989 205702,-916959 783446,-916959 577822,0 796198,840992 746839,938057z"/>
   <path class="fil33" d="M39552350 9410006c-36448,83997 -273088,117061 -448954,117061 -187202,0 -450922,-39677 -470917,-132175 -23381,-107220 123909,-650641 470917,-650641 347324,0 478318,596480 448954,665755z"/>
   <path class="fil34" d="M38795434 9937761c-60380,118163 -454307,164688 -746839,164688 -312214,0 -750304,-55421 -783682,-185785 -39047,-151305 206016,-916723 783682,-916723 577665,0 796277,840519 746839,937820z"/>
   <path class="fil35" d="M38490385 9741743c-35898,84154 -272773,117532 -448324,117532 -187832,0 -451001,-39676 -471233,-132411 -23459,-107299 123594,-650720 471233,-650720 346693,0 478002,596716 448324,665599z"/>
   <path class="fil36" d="M37713788 10296814c-60144,118399 -454307,165475 -746525,165475 -311977,0 -749988,-55893 -783760,-186651 -38810,-151226 206410,-916959 783760,-916959 577902,0 796199,840756 746525,938135z"/>
   <path class="fil37" d="M37409290 10101032c-36213,84154 -272774,117296 -448639,117296 -187753,0 -451159,-39676 -471154,-132411 -23145,-107062 123830,-651034 471154,-651034 347087,0 478002,597030 448639,666149z"/>
   <path class="fil4" d="M35284571 448560c-154453,203498 -246952,461786 -246952,742904 0,500045 292533,926956 706140,1101956l0 -286864c-267735,-158390 -449269,-464305 -449269,-815092 0,-220580 71953,-423842 192083,-583018 158390,-212000 4015,-431242 -202002,-159886z"/>
   <path class="fil4" d="M25105526 476271c-165790,217746 -264508,494062 -264508,795411 0,535155 313080,992296 755972,1180128l0 -307411c-286550,-170041 -480837,-497683 -480837,-872717 0,-236325 76440,-453756 204836,-624741 170119,-226563 4881,-460841 -215463,-170670z"/>
   <path class="fil4" d="M33670919 455724c-156736,206017 -250022,467533 -250022,751799 0,505949 295996,938057 714642,1115261l0 -289699c-270884,-161223 -454937,-470602 -454937,-825562 0,-222942 72740,-428486 194130,-589709 160908,-214283 4172,-435808 -203813,-162090z"/>
   <path class="fil4" d="M32004129 455488c-158074,208063 -252541,472256 -252541,760301 0,511696 299066,948920 722672,1128486l0 -294028c-274033,-162326 -459818,-475799 -459818,-834458 0,-226091 73369,-433603 196098,-596795 162640,-217195 4487,-441239 -206411,-163506z"/>
   <path class="fil4" d="M30323799 460526c-160121,210347 -256084,477845 -256084,768882 0,517757 303160,959863 731489,1141397l0 -297178c-277103,-164057 -465486,-480836 -465486,-844219 0,-228059 74235,-438248 198696,-603565 164372,-219163 4251,-446120 -208615,-165317z"/>
   <path class="fil4" d="M28618199 465407c-161538,213259 -258288,483828 -258288,778014 0,523425 305994,970962 739518,1154149l0 -300247c-280566,-166104 -470917,-486583 -470917,-853902 0,-230578 75101,-442893 200663,-610099 166341,-222076 4487,-451316 -210976,-167915z"/>
   <path class="fil4" d="M26873080 470839c-163585,215542 -261515,488630 -261515,786830 0,529173 309694,981827 747469,1166746l0 -303712c-283086,-167757 -475720,-491700 -475720,-863034 0,-233726 76125,-448560 203183,-617577 168072,-224359 4566,-456590 -213417,-169253z"/>
   <path class="fil38" d="M23294989 481466c-167207,220030 -267420,499652 -267420,803992 0,541060 316543,1003396 764316,1192881l0 -310245c-289699,-171772 -486584,-502879 -486584,-882636 0,-238686 77936,-458400 207749,-630802 171851,-229791 4487,-466903 -218061,-173190z"/>
   <path class="fil38" d="M21458631 523662c-168781,222627 -270176,504925 -270176,812572 0,547043 320086,1014575 772818,1206028l0 -313630c-292768,-173741 -491700,-508311 -491700,-892398 0,-240890 78408,-463202 209638,-637572 173977,-231759 4802,-471469 -220580,-175000z"/>
   <path class="fil38" d="M19606843 491936c-170985,224910 -273088,510673 -273088,821390 0,552553 323392,1024887 780927,1218702l0 -316464c-295761,-175866 -497054,-514294 -497054,-902238 0,-243961 79352,-468319 211842,-644658 175945,-234671 5117,-476585 -222627,-176732z"/>
   <path class="fil38" d="M17728526 533974c-172245,227665 -275843,516498 -275843,830522 0,558772 327013,1035987 789507,1231770l0 -320243c-299381,-177519 -502485,-519411 -502485,-911527 0,-246638 80297,-473516 214046,-651901 177834,-236875 5196,-481781 -225225,-178621z"/>
   <path class="fil38" d="M15810927 539012c-174528,230106 -278756,522088 -278756,839418 0,564518 330161,1046850 797458,1244601l0 -323628c-302294,-179251 -507681,-524527 -507681,-920973 0,-248921 81084,-478554 216565,-658435 179487,-240024 4960,-486819 -227586,-180983z"/>
   <path class="fil38" d="M13859555 549089c-176496,231995 -281905,526574 -281905,847289 0,570580 333862,1057951 805803,1258063l0 -327013c-305364,-181297 -512641,-530038 -512641,-931050 0,-251124 81793,-482883 218770,-665204 181377,-242072 4881,-491464 -230027,-182085z"/>
   <path class="fil38" d="M11878505 540823c-178070,234514 -284739,532242 -284739,856185 0,576799 337483,1069051 814069,1270580l0 -330240c-308671,-182873 -518151,-535943 -518151,-940340 0,-254037 82973,-488079 220974,-671817 183423,-244669 5038,-496896 -232153,-184368z"/>
   <path class="fil38" d="M9814403 559323c-180038,236876 -287651,537989 -287651,865081 0,582152 340868,1079914 822649,1283726l0 -333626c-311662,-184918 -523347,-541137 -523347,-950100 0,-256872 83525,-492882 223100,-678981 185312,-246559 5195,-501777 -234751,-186100z"/>
   <path class="fil4" d="M7691574 524528c-181770,238843 -290721,542554 -290721,873582 0,588214 344174,1090778 830993,1296795l0 -337011c-315047,-186966 -528778,-546570 -528778,-959784 0,-259469 84390,-498234 225540,-685751 186729,-249235 4802,-506893 -237034,-187831z"/>
   <polygon class="fil39 str0" points="36529409,17137557 3373886,23966176 7394791,1559098 7454226,1556500 "/>
   <polygon class="fil40 str0" points="10192192,23001197 3373886,23966176 3373886,23966176 7775886,22209328 "/>
   <polygon class="fil39 str0" points="12848208,26044448 7775886,22209328 11491191,21749825 "/>
   <polygon class="fil38 str1" points="42587572,20848847 12848208,26044448 7405182,1554217 7431397,1540834 41814360,18126704 "/>
   <polygon class="fil41" points="7431397,1540834 7394791,1559098 7390697,1581376 7355036,1781095 7407780,1594444 12813649,26038465 12848208,26044448 12877729,26039252 "/>
   <path class="fil4 str0" d="M43676382 19141594c-566329,95490 -28488150,4688156 -28884202,4688156 -396053,0 -6024627,-15205945 -7360783,-22288916 493353,-7164 30257357,-435807 30479906,-435807 1610818,5891114 2795826,11283757 5765079,18036567z"/>
   <path class="fil42 str0" d="M8781723 6961660c-583963,-2025449 -1064879,-3908489 -1350326,-5420826 493353,-7164 30257357,-435807 30479906,-435807 402744,1472581 778879,2914146 1162730,4354058l-30292310 1502575z"/>
   <path class="fil43" d="M15184139 23088028c644658,-95963 2145343,-334177 4138280,-655601 -182636,-403767 -497604,-1228070 -895310,-2343881 -1999392,279858 -3531882,492015 -4276123,588450 447930,1123605 809502,1958614 1033153,2411032z"/>
   <path class="fil43" d="M14826030 8777629l-4662414 300798c269309,913574 545546,1813135 823751,2688450 1059211,-77857 2667589,-202632 4611875,-355589 -262539,-871300 -522559,-1754644 -773212,-2633659z"/>
   <path class="fil43" d="M16609015 14665043c-1946412,184368 -3536527,333389 -4522053,421008 305994,889248 606557,1733231 893893,2518881 1037483,-114699 2573988,-289935 4421839,-503115 -254903,-766599 -521457,-1584525 -793679,-2436774z"/>
   <path class="fil43" d="M17503931 17404898c-1868241,215778 -3411751,391880 -4412471,502564 337405,915621 654814,1746615 940655,2470704 829340,-109346 2345928,-318748 4288168,-591127 -247425,-701653 -523111,-1504858 -816352,-2382141z"/>
   <path class="fil43" d="M15692371 11718148c-1970108,154925 -3589192,280173 -4607073,355274 299539,935537 601125,1842184 897278,2708366 1028588,-92420 2608704,-240024 4529374,-422031 -271120,-854531 -546649,-1740631 -819579,-2641609z"/>
   <path class="fil44" d="M33609831 13023208c239473,738023 472334,1442352 694016,2101338 1343714,-158075 2627755,-309301 3811268,-449427 -214361,-634187 -440137,-1313090 -672132,-2025764 -1134469,110684 -2432995,237427 -3833152,373853zm-4166463 405499c247345,765733 488866,1498088 718578,2183603 1295928,-152643 2577057,-303396 3811425,-448639 -222627,-660403 -456354,-1367330 -696930,-2108187 -1219725,118635 -2510852,244512 -3833073,373223zm11214324 -1093926c-710313,69669 -1696626,166419 -2881320,281747 231129,709761 455803,1386696 669535,2020017 1052833,-124460 2019466,-238607 2870455,-338978 -232546,-671345 -453205,-1330016 -658670,-1962786zm-23714973 2298065c271041,849887 537123,1665609 791239,2430712 1169736,-135245 2455667,-284503 3812212,-442656 -246637,-739440 -505319,-1529735 -769669,-2354509 -1363315,130758 -2658299,254824 -3833782,366453zm4167486 -398415c263169,821941 520828,1609638 766993,2347660 1227440,-143196 2508805,-292217 3811425,-444860 -238293,-713225 -488866,-1476124 -745187,-2272638 -1304824,126114 -2595084,250495 -3833231,369838zm4166857 -401799c255139,793680 504926,1553981 742903,2265710 1262629,-147841 2542971,-298279 3811425,-447222 -230814,-687011 -472806,-1421884 -721412,-2190058 -1264597,122335 -2554070,247661 -3832916,371570z"/>
   <path class="fil45" d="M34405478 15426210c246008,726136 476664,1391891 685594,1978688 1319388,-188304 2592487,-370782 3782376,-540823 -199797,-559952 -420693,-1194376 -656466,-1888236 -1129037,133592 -2420164,285999 -3811504,450371zm-4141901 488000c257658,762899 499415,1462663 717397,2078036 1278610,-182714 2549190,-364170 3782770,-540508 -209244,-587663 -441239,-1255780 -688428,-1986639 -1213585,143275 -2497547,294422 -3811739,449111zm11157329 -1317341c-711257,84784 -1694737,200585 -2873447,340475 234041,688979 453834,1321120 652766,1879655 1035436,-148470 2002305,-286864 2876202,-412427 -226956,-603564 -445805,-1209570 -655521,-1807703zm-23586262 2769770c291903,872717 566487,1673324 813203,2374505 1142577,-160673 2420635,-341026 3784659,-533738 -238293,-673235 -502800,-1442353 -784941,-2283344 -1354892,157838 -2642555,307647 -3812921,442577zm4143555 -481466c280803,836740 544208,1603418 782028,2276101 1208862,-171300 2481489,-351968 3783400,-537123 -228531,-644815 -482254,-1380476 -753374,-2185019 -1297188,152642 -2580048,302451 -3812054,446041zm4143082 -484301c268916,799427 521694,1532884 749438,2176439 1246648,-177283 2516992,-357951 3783321,-538540 -218927,-615924 -461786,-1318285 -720704,-2085672 -1258063,147526 -2540294,297886 -3812055,447773z"/>
   <path class="fil46" d="M31951385 7670319c235459,798246 475484,1592476 715508,2371041 1360166,-110133 2657276,-216093 3847638,-312528 -234514,-756522 -469658,-1529104 -701496,-2308299l-3861650 249786zm-4198424 271357c239710,819421 485402,1635930 730780,2438191 1310256,-105882 2603508,-210347 3847795,-311741 -240576,-779352 -481545,-1575551 -717791,-2376158l-3860784 249708zm11351931 -734008l-2954453 191531c230893,776518 465486,1547368 699213,2302238 1075033,-87855 2056859,-167522 2911942,-237112 -290328,-967814 -514057,-1752912 -656702,-2256657zm-23941536 1548312c250652,877047 509806,1758581 771952,2628778 1182332,-93286 2479993,-196019 3847165,-305443 -257580,-849572 -513192,-1712055 -761167,-2573436l-3857950 250101zm4195905 -271986c247110,859571 501856,1720873 759042,2568241 1239799,-98482 2533130,-202317 3847165,-308199 -252070,-826506 -502879,-1667340 -747548,-2509198l-3858659 249156zm4195984 -271198c243803,839968 494298,1679306 745738,2504396 1275775,-102733 2568319,-206568 3847479,-310245 -246873,-803598 -492645,-1621839 -733220,-2443544l-3859997 249393z"/>
   <path class="fil47" d="M32654298 10238875c252620,815092 504611,1610818 750854,2374268 1351664,-131624 2643106,-257186 3832916,-373380 -240890,-742274 -487449,-1518005 -735739,-2313653 -1131635,91870 -2436459,198066 -3848031,312765zm-4076562 446041c257737,836190 515710,1654194 767701,2439529 1303722,-126113 2591621,-251439 3833152,-372357 -246637,-764001 -499730,-1562010 -752901,-2378755 -1222323,99032 -2518645,204363 -3847952,311583zm11168114 -1023706c-682051,55892 -1682377,137528 -2908164,237505 247110,793916 493354,1567678 733772,2308299 1057085,-102733 2027968,-197593 2881634,-281118 -262854,-814305 -500045,-1579408 -707242,-2264686zm-23717728 2030330c272379,898695 547042,1783141 818004,2636492 1174933,-111864 2467712,-235144 3832995,-366138 -265058,-832017 -535076,-1696389 -803362,-2576585 -1365755,109267 -2664912,212945 -3847637,306231zm4183388 -332760c267814,877912 536651,1740317 801237,2570602 1233738,-118241 2522581,-242308 3833152,-369130 -258918,-809030 -523189,-1651202 -786830,-2510300 -1308052,105330 -2603036,209480 -3847559,308828zm4183074 -336224c262618,857917 526338,1697571 784941,2505499 1269714,-122413 2556826,-246873 3832837,-371334 -253092,-786437 -511774,-1606173 -769984,-2444646 -1268061,102733 -2562572,207512 -3847794,310481z"/>
   <path class="fil48" d="M35197741 17704516c329925,919320 597030,1617352 769433,2014349 1381972,-226799 2658456,-436358 3758680,-617026 -164608,-372987 -423211,-1045670 -745107,-1939248 -1148718,164608 -2427328,347638 -3783006,541925zm-4109941 587348c344726,962696 623010,1690957 799663,2095197 1297109,-212629 2564540,-419905 3759546,-615924 -168938,-379049 -438641,-1081961 -776360,-2020096 -1215710,174134 -2489203,356219 -3782849,540823zm11101358 -1589327c-793995,114147 -1771491,254273 -2881949,413214 315362,875708 570501,1544061 739439,1933344 1255151,-206332 2256028,-371098 2887381,-474382 -255454,-613011 -504532,-1240822 -744871,-1872176zm-23434564 3339484c388495,1092746 699370,1911223 888068,2337898 -83839,14328 -159256,26530 -227350,37393 1185244,-190587 2539742,-410694 3989888,-646074 -178936,-396525 -482883,-1190441 -865946,-2263506 -1363473,193736 -2643421,374404 -3784660,534289zm4112066 -580578c374168,1050551 674651,1839664 859019,2257523 1206657,-195783 2474167,-402744 3760964,-612697 -175866,-390227 -468005,-1153598 -836190,-2182264 -1297188,184998 -2570838,366295 -3783793,537438zm4110491 -583569c360156,1006544 649303,1765114 829656,2175887 1251214,-203812 2517228,-410773 3760177,-614192 -171851,-384795 -453520,-1117701 -806275,-2100865 -1256646,179251 -2528958,360548 -3783558,539170z"/>
   <path class="fil4" d="M36161303 3936c-454701,0 -845951,285448 -1023155,695828 -64474,149887 186021,215227 239080,94781 139024,-315362 438090,-533738 784075,-533738 477766,0 866734,417859 866734,930657 0,250573 -88169,482017 -243410,645051 -109896,114699 33615,321109 92657,269703 248841,-217746 407309,-546333 407309,-914754 0,-655837 -502878,-1187528 -1123290,-1187528z"/>
   <path class="fil4" d="M36852250 2028834c-11966,-14485 -26845,-39125 -31961,-69590 -5196,-29679 1102,-53374 17633,-71716 170434,-177992 264272,-425180 264272,-696064 0,-554206 -422031,-1005128 -940891,-1005128 -362832,0 -697008,226878 -851934,578137 -7400,16926 -34244,18343 -42195,18343 -29442,0 -54004,-13462 -61955,-25664 -2047,-2912 -6612,-10076 1417,-28025 170356,-395265 545074,-650956 954667,-650956 578452,0 1049370,499494 1049370,1113293 0,322289 -130364,625607 -358423,837370z"/>
   <path class="fil4" d="M34557334 5983c-459739,0 -855556,289069 -1034885,704093 -65025,151541 188461,217668 242071,96120 140677,-319062 443207,-540272 792814,-540272 483828,0 877046,422425 877046,941599 0,253723 -89035,488315 -246007,652688 -110999,116115 33614,325281 93601,273088 251990,-220344 412112,-552868 412112,-925776 0,-663630 -508547,-1201540 -1136752,-1201540z"/>
   <path class="fil4" d="M35256546 2056545c-12280,-14564 -27395,-40306 -33063,-71323 -5196,-30859 787,-55420 18500,-73605 172087,-180747 266869,-430455 266869,-704094 0,-560267 -426991,-1015755 -951518,-1015755 -366138,0 -704094,229161 -860751,584435 -7715,17713 -35110,18893 -43061,18893 -30545,0 -55657,-13697 -64238,-26293 -2047,-3385 -6534,-10312 1732,-29363 172402,-400383 551923,-659301 966318,-659301 585852,0 1062752,506028 1062752,1127384 0,326383 -132096,634109 -363540,849022z"/>
   <path class="fil4" d="M32901486 0c-465485,0 -865868,291903 -1046851,712359 -66284,153194 190036,220266 244591,96986 142094,-322526 448324,-546491 802260,-546491 489103,0 886966,427463 886966,952935 0,256242 -90216,493354 -249157,659773 -112100,117690 34559,329138 95097,276315 254588,-222863 416678,-559322 416678,-936088 0,-671896 -514609,-1215789 -1149584,-1215789z"/>
   <path class="fil4" d="M33608414 2075123c-12360,-14249 -28262,-39991 -34008,-72503 -5669,-31410 865,-56838 18814,-75652 173898,-182085 269467,-434706 269467,-711179 0,-566565 -431556,-1026855 -961201,-1026855 -370231,0 -711729,231444 -870512,590103 -7951,18657 -35898,19996 -44479,19996 -30780,0 -56522,-14013 -65339,-27081 -1732,-3149 -6928,-10864 1417,-30465 174685,-405342 558772,-667094 978913,-667094 593095,0 1075663,512089 1075663,1141396 0,330792 -133906,642375 -368735,859334z"/>
   <path class="fil4" d="M31231075 0c-470366,0 -875944,295052 -1058817,720310 -67071,154926 192319,223178 247346,98167 144220,-326541 453520,-552789 811471,-552789 494849,0 897278,432344 897278,963720 0,259469 -91082,499179 -252069,667881 -113518,118950 35110,332839 96199,279386 257658,-225776 421873,-566172 421873,-947267 0,-678902 -520591,-1229408 -1163281,-1229408z"/>
   <path class="fil4" d="M31946190 2100157c-12753,-14485 -29128,-40778 -35111,-74157 -5668,-31961 630,-58176 18894,-77384 175787,-184368 272852,-439507 272852,-719208 0,-572154 -436123,-1037955 -971750,-1037955 -374168,0 -719523,233963 -879329,597110 -8345,19050 -37394,20546 -45974,20546 -31332,0 -57861,-14013 -66757,-28025 -2283,-3385 -7715,-11179 1102,-31095 176890,-410695 566251,-675596 990958,-675596 600731,0 1089046,518387 1089046,1155015 0,335358 -135796,651035 -373931,870749z"/>
   <path class="fil4" d="M29536024 0c-475956,0 -885864,298515 -1071097,728812 -67623,156500 194995,225225 250337,99112 145558,-330005 458558,-558851 820760,-558851 500281,0 907906,436910 907906,974348 0,262303 -92735,505161 -255219,675281 -114934,120130 35111,336774 97144,282849 260256,-228295 426675,-572233 426675,-958130 0,-686932 -526653,-1243421 -1176506,-1243421z"/>
   <path class="fil4" d="M30259562 2125584c-13462,-15115 -30308,-41644 -36528,-75888 -5746,-33064 552,-59987 19366,-79589 177834,-186099 275450,-444073 275450,-726686 0,-578217 -440452,-1048819 -981826,-1048819 -378419,0 -726844,237190 -888698,603328 -8580,19366 -38259,21098 -47076,21098 -28261,0 -57624,-12202 -68173,-28576 -2362,-3070 -8030,-11966 787,-32512 179330,-415261 572784,-683547 1003160,-683547 607894,0 1102271,524370 1102271,1169028 0,339923 -137843,659615 -378733,882163z"/>
   <path class="fil4" d="M27800824 0c-481151,0 -895546,302137 -1083063,736842 -67937,158704 196964,228059 253408,100135 147053,-333547 463517,-565070 829655,-565070 506028,0 918140,442105 918140,985762 0,265452 -93601,510358 -257974,682996 -116194,121311 35662,339924 98167,285369 263406,-230893 431242,-578767 431242,-968365 0,-694567 -532243,-1257669 -1189575,-1257669z"/>
   <path class="fil4" d="M28532313 2150382c-13462,-14800 -30781,-42195 -37708,-77306 -5983,-34008 551,-61088 19995,-81635 179881,-187753 278284,-448324 278284,-733772 0,-584750 -444939,-1060154 -992060,-1060154 -381882,0 -734008,239394 -897593,609862 -8817,19681 -37078,21649 -48493,21649 -29048,0 -59042,-12596 -69905,-28498 -2283,-4015 -7951,-12595 1180,-34244 181219,-420456 579555,-691891 1014811,-691891 615295,0 1115576,530353 1115576,1183276 0,343309 -139733,667567 -384087,892713z"/>
   <path class="fil4" d="M26043661 0c-486583,0 -905544,305286 -1095029,745186 -69118,160358 199168,230264 256242,101238 148391,-337562 468634,-571368 838787,-571368 511696,0 927822,447222 927822,996626 0,267656 -94230,516026 -260571,690711 -117296,122649 35976,343859 99584,288281 266239,-233254 436044,-584829 436044,-978992 0,-702361 -538541,-1271682 -1202879,-1271682z"/>
   <path class="fil4" d="M26783101 2175573c-13462,-14879 -31647,-42825 -38496,-78801 -6534,-34796 0,-62821 19996,-83367 181534,-190115 281118,-453520 281118,-741723 0,-590497 -449505,-1070782 -1002058,-1070782 -386134,0 -742353,241677 -906961,615530 -9132,20311 -38023,22594 -49674,22594 -29442,0 -60301,-12911 -71322,-29364 -2598,-4093 -8581,-13147 1102,-35110 183502,-425573 586482,-700157 1026855,-700157 622458,0 1128722,536572 1128722,1197289 0,348189 -141228,675596 -389282,903891z"/>
   <path class="fil4" d="M24243673 0c-492330,0 -915857,309064 -1107625,753137 -69669,162090 201451,233176 258918,102733 150596,-341025 474303,-577901 848707,-577901 517127,0 938056,452103 938056,1007489 0,271042 -95254,521930 -263405,698032 -118714,124460 36291,347875 100214,291903 269388,-235695 440845,-591599 440845,-989935 0,-710076 -544208,-1285458 -1215710,-1285458z"/>
   <path class="fil4" d="M24990827 2200607c-13619,-15115 -32276,-43298 -39361,-80140 -6928,-35425 0,-63922 20547,-85335 182872,-192083 283715,-458637 283715,-749674 0,-596479 -453835,-1081409 -1012055,-1081409 -389912,0 -749753,243960 -916172,621513 -9683,21176 -39046,23696 -51327,23696 -29914,0 -61088,-13068 -72818,-30466 -2519,-4015 -8817,-13225 866,-36212 185863,-430769 593331,-708187 1039451,-708187 629543,0 1141554,543421 1141554,1211065 0,352677 -143275,684335 -394400,915149z"/>
   <path class="fil4" d="M22417942 37393c-497447,0 -925697,311584 -1119433,761089 -70535,163821 203419,235537 261752,103598 152171,-344725 479263,-583884 857681,-583884 522560,0 948133,456905 948133,1018038 0,274269 -96435,527913 -266239,705983 -120524,125877 36448,351732 101237,294816 272537,-238214 445884,-597582 445884,-1000799 0,-717240 -550270,-1298841 -1229015,-1298841z"/>
   <path class="fil4" d="M23173126 2262876c-13933,-15115 -33142,-44242 -40542,-82186 -7163,-35976 -236,-65418 20862,-86752 184604,-194681 287101,-462888 287101,-757704 0,-602541 -459188,-1092588 -1022605,-1092588 -393769,0 -757231,246952 -925618,628441 -9604,22042 -39912,24247 -52429,24247 -30544,0 -62348,-13068 -74078,-31017 -2755,-4330 -9210,-14013 1023,-37393 187517,-435257 599944,-716925 1051102,-716925 636471,0 1155016,549954 1155016,1225235 0,356692 -145243,692915 -399832,926642z"/>
   <path class="fil4" d="M20576231 0c-502800,0 -935695,315598 -1131399,769354 -71401,165868 205781,238372 264744,105095 153587,-348504 484143,-590261 866655,-590261 528228,0 958367,461786 958367,1029138 0,277418 -97222,533108 -269231,713225 -121311,126980 37315,355668 102576,298280 275371,-240340 450843,-604510 450843,-1011505 0,-725742 -556410,-1313326 -1242555,-1313326z"/>
   <path class="fil4" d="M21339839 2250674c-14485,-14957 -34245,-44872 -41645,-82580 -7321,-37314 -551,-67937 20862,-90216 186966,-195389 289698,-467375 289698,-764552 0,-608445 -463281,-1103609 -1032523,-1103609 -397706,0 -764867,248920 -934829,634738 -9761,22515 -40935,24798 -53688,24798 -30938,0 -63687,-13619 -75495,-31961 -2913,-4251 -9604,-14249 708,-38259 189879,-440295 607186,-724640 1063304,-724640 644028,0 1168162,555701 1168162,1238933 0,361415 -147132,701023 -404554,937348z"/>
   <path class="fil4" d="M18708305 37393c-508074,0 -945377,318511 -1143285,777384 -72189,167521 207984,240576 267184,105882 155398,-352519 489732,-596480 876101,-596480 534211,0 968759,466273 968759,1040317 0,280173 -98403,539091 -272380,720546 -122256,128711 37944,359368 103835,301428 278205,-243409 455567,-610492 455567,-1021974 0,-732985 -562157,-1327103 -1255781,-1327103z"/>
   <path class="fil4" d="M19480021 2312550c-14563,-14800 -34716,-44872 -42982,-83918 -7557,-38259 -236,-69118 21727,-92263 188541,-197672 292533,-471705 292533,-771873 0,-614507 -467926,-1114552 -1042994,-1114552 -401720,0 -772267,251439 -943881,641036 -10234,23145 -41802,25349 -54949,25349 -32118,0 -64788,-13619 -76911,-32512 -3228,-4488 -9841,-14564 708,-39362 191847,-445805 613720,-733456 1075033,-733456 651429,0 1181388,562235 1181388,1253497 0,365193 -148864,709131 -409672,948054z"/>
   <path class="fil4" d="M16800940 37393c-513664,0 -955769,322211 -1155409,785650 -73055,168938 209953,242859 269860,107062 157130,-356219 494849,-603092 885549,-603092 539642,0 978756,471783 978756,1051417 0,282849 -99269,544208 -274742,728340 -124145,129577 37945,362674 104623,304498 281275,-246008 460132,-616712 460132,-1032838 0,-740621 -568376,-1341037 -1268769,-1341037z"/>
   <path class="fil4" d="M17580685 2337662c-14957,-14878 -35740,-45344 -43927,-85886 -7714,-38574 -866,-70535 21570,-93601 190509,-199797 295367,-476664 295367,-779745 0,-620727 -472177,-1125652 -1052755,-1125652 -405736,0 -780061,254037 -953407,647098 -10313,23932 -42747,26529 -56051,26529 -32748,0 -65969,-14012 -78565,-33457 -2991,-4251 -10391,-15429 709,-40856 193814,-449663 620805,-741093 1087314,-741093 658749,0 1194613,568769 1194613,1267431 0,370152 -150675,718106 -414868,959232z"/>
   <path class="fil4" d="M14859645 41329c-518466,0 -965452,325596 -1167218,793995 -73605,170906 212394,246007 273010,108164 158389,-359604 499808,-609075 894208,-609075 545310,0 989305,476349 989305,1061965 0,286235 -100529,550900 -278048,736370 -124933,130679 38416,366768 106196,307962 283637,-248605 465014,-623954 465014,-1044332 0,-748256 -574202,-1355049 -1282467,-1355049z"/>
   <path class="fil4" d="M15647656 2367262c-15114,-15351 -36369,-45895 -45423,-87224 -8029,-39991 -393,-72268 22673,-95884 192397,-202081 298200,-481231 298200,-787776 0,-626158 -477137,-1136437 -1063461,-1136437 -409593,0 -787146,256636 -962224,653554 -10943,24561 -44006,27474 -57468,27474 -33614,0 -67229,-14564 -79824,-34008 -3385,-4881 -11021,-15981 393,-42195 196098,-455016 627497,-749201 1099123,-749201 666385,0 1207995,574752 1207995,1280813 0,374798 -152879,726687 -419984,970884z"/>
   <path class="fil4" d="M12889065 27946c-524055,0 -975449,329060 -1179498,802261 -74314,172638 214676,247975 275607,109266 160279,-363540 505319,-615294 903891,-615294 551136,0 999381,481388 999381,1072829 0,289148 -101473,556253 -280724,743691 -126664,132411 38889,370783 107063,311111 286785,-251203 469736,-630173 469736,-1054802 0,-756365 -580184,-1369062 -1295456,-1369062z"/>
   <path class="fil4" d="M13685106 2378755c-15351,-15114 -37393,-46524 -46289,-88798 -8344,-40542 -944,-73291 22673,-97852 194129,-203498 301113,-486033 301113,-795097 0,-632535 -481703,-1147379 -1073538,-1147379 -413450,0 -794703,258918 -971671,659615 -11257,25427 -45029,28576 -58648,28576 -34244,0 -68410,-15193 -81714,-35110 -2991,-4881 -10627,-16610 945,-42825 198380,-460605 634188,-757782 1111088,-757782 673392,0 1221300,581129 1221300,1294905 0,378655 -154926,735189 -425259,981747z"/>
   <path class="fil4" d="M10835512 41329c-529645,0 -985447,332209 -1191700,810526 -75023,174685 217195,250574 278677,110448 161617,-367319 510200,-621907 913023,-621907 556489,0 1009143,486347 1009143,1084008 0,291981 -102182,561920 -283244,751405 -127687,133907 39047,374168 108008,314181 289541,-253643 474775,-636392 474775,-1065586 0,-763765 -586246,-1383075 -1308682,-1383075z"/>
   <path class="fil4" d="M11639425 2417329c-15351,-15193 -37944,-46839 -47076,-89901 -8738,-41408 -1102,-75416 22751,-100213 195862,-205544 304026,-490598 304026,-802811 0,-638439 -486111,-1158165 -1083614,-1158165 -417544,0 -802654,261359 -980960,666149 -11179,25979 -45817,28183 -60144,28183 -34717,0 -69197,-14564 -82895,-35110 -3385,-4802 -11100,-17083 709,-44242 200270,-464856 641115,-765654 1123290,-765654 680477,0 1234289,587584 1234289,1308839 0,382984 -156422,743690 -430376,992925z"/>
   <path class="fil4" d="M8722760 787c-534683,0 -995446,335673 -1203509,819107 -76124,176102 218770,252856 281197,111314 163664,-370704 515395,-628127 922312,-628127 562156,0 1019376,491464 1019376,1095029 0,294816 -103284,567353 -286156,758884 -128947,135324 39440,378419 109031,317331 292847,-256557 479262,-642690 479262,-1076215 0,-771716 -591678,-1397323 -1321513,-1397323z"/>
   <path class="fil4" d="M9534939 2405915c-15666,-14879 -38968,-47706 -48257,-91397 -9053,-42195 -1260,-76754 23144,-102182 197594,-207748 306939,-495400 306939,-810290 0,-644658 -490913,-1169185 -1094005,-1169185 -421323,0 -810290,263956 -990171,672447 -11809,26214 -46683,28970 -61482,28970 -35111,0 -70614,-14800 -84548,-36213 -2992,-4172 -11021,-17082 944,-45265 202317,-469815 647965,-773527 1135257,-773527 687640,0 1247199,593331 1247199,1322773 0,387393 -157917,751485 -435020,1003869z"/>
  </g>
 </g>
</svg>
